<?xml version="1.0" encoding="UTF-8"?>
<svg id="Character" xmlns="http://www.w3.org/2000/svg" viewBox="0 0 426.47 396.5">
  <defs>
    <style>
      .cls-1, .cls-2 {
        fill: #e0e0e0;
      }

      .cls-3 {
        fill: #9e6f7e;
      }

      .cls-4 {
        fill: #e6d194;
      }

      .cls-5 {
        opacity: .3;
      }

      .cls-5, .cls-6, .cls-7, .cls-8, .cls-2, .cls-9 {
        isolation: isolate;
      }

      .cls-6, .cls-8 {
        opacity: .15;
      }

      .cls-7 {
        opacity: .5;
      }

      .cls-8 {
        fill: none;
        stroke: #000;
        stroke-miterlimit: 10;
      }

      .cls-10 {
        fill: #98989a;
      }

      .cls-11 {
        fill: #27debf;
      }

      .cls-12 {
        fill: #ba8997;
      }

      .cls-13 {
        fill: #754b5a;
      }

      .cls-14 {
        fill: #611232;
      }

      .cls-15 {
        fill: #636363;
      }

      .cls-16 {
        fill: #ddd;
      }

      .cls-17, .cls-9 {
        fill: #fff;
      }

      .cls-18 {
        fill: #f0f0f0;
      }

      .cls-19 {
        fill: #fafafa;
      }

      .cls-20 {
        opacity: .4;
      }

      .cls-21 {
        opacity: .6;
      }

      .cls-2 {
        opacity: .21;
      }

      .cls-22 {
        fill: #161a1d;
      }

      .cls-23 {
        fill: #9b2247;
      }

      .cls-24 {
        fill: #a57f2c;
      }

      .cls-9 {
        opacity: .1;
      }
    </style>
  </defs>
  <g>
    <path id="Shadow-2" class="cls-2" d="M136.17,395.65l-35.46-20.48c-2-1.15-2-3.03,0-4.18l206.28-119.1c2-1.15,5.24-1.15,7.24,0l35.47,20.47c2,1.15,2,3.03,0,4.18l-206.28,119.1c-2,1.15-5.24,1.15-7.24,0h0Z"/>
    <g id="Device-2">
      <g>
        <path class="cls-22" d="M263.65,359.16l30.49-17.63c3.14-1.81,4.71-4.19,4.71-6.57s.01-4.24.01-4.24l-31.63-17.84c-1.68-.97-3.03-3.32-3.03-5.26v-37.59l-53.25,30.77v37.59c0,1.94,1.36,4.29,3.03,5.26l26.91,15.51c6.29,3.63,16.48,3.63,22.76,0Z"/>
        <g class="cls-21">
          <path d="M263.65,359.16l30.49-17.63c3.14-1.81,4.71-4.19,4.71-6.57s.01-4.24.01-4.24l-31.63-17.84c-1.68-.97-3.03-3.32-3.03-5.26v-37.59l-53.25,30.77v37.59c0,1.94,1.36,4.29,3.03,5.26l26.91,15.51c6.29,3.63,16.48,3.63,22.76,0Z"/>
        </g>
        <path class="cls-5" d="M223.73,345.05v4.22l-9.76-5.62c-1.66-.96-3.03-3.31-3.03-5.26v-37.58l10.15-5.85c.21,2.58.44,5.24.65,7.83l-7.11,4.12v29.37c0,1.94,1.35,4.29,3.03,5.26l6.08,3.52h0Z"/>
        <path class="cls-11" d="M214.62,336.28c0,1.94,1.36,4.29,3.03,5.26l23.23,13.38c6.29,3.63,16.48,3.63,22.76,0l30.5-17.63c6.29-3.63,6.29-9.51,0-13.14l-23.25-13.39c-1.68-.97-3.03-3.32-3.03-5.26v-29.37l-53.25,30.77v29.37h0Z"/>
        <path class="cls-10" d="M214.62,336.28c0,1.94,1.36,4.29,3.03,5.26l23.23,13.38c6.29,3.63,16.48,3.63,22.76,0l30.5-17.63c6.29-3.63,6.29-9.51,0-13.14l-23.25-13.39c-1.68-.97-3.03-3.32-3.03-5.26v-29.37l-53.25,30.77v29.37h0Z"/>
        <path class="cls-7" d="M277.09,314.34h0l-6.18-3.57c-1.68-.97-3.03-3.32-3.03-5.26v-29.37l-53.25,30.77v29.37c0,1.94,1.36,4.29,3.04,5.26l6.07,3.51,53.36-30.71h-.01Z"/>
        <path class="cls-11" d="M298.86,330.72v4.24c0,2.38-1.58,4.75-4.71,6.57l-30.49,17.62c-3.01,1.75-6.92,2.63-10.86,2.7v-4.22c3.94-.05,7.85-.96,10.86-2.7l30.49-17.64c3.14-1.8,4.71-4.19,4.71-6.57Z"/>
        <path class="cls-15" d="M298.86,330.72v4.24c0,2.38-1.58,4.75-4.71,6.57l-30.49,17.62c-3.01,1.75-6.92,2.63-10.86,2.7v-4.22c3.94-.05,7.85-.96,10.86-2.7l30.49-17.64c3.14-1.8,4.71-4.19,4.71-6.57Z"/>
      </g>
      <path class="cls-11" d="M129.12,372.79c1.97,1.13,5.26,1.07,7.35-.14,26.18-15.11,179.76-103.78,205.94-118.9,2.1-1.21,3.79-4.15,3.79-6.57V80.58c0-2.42-1.59-5.3-3.56-6.43s-5.26-1.07-7.35.14l-205.94,118.9c-2.1,1.21-3.79,4.15-3.79,6.57v166.6c0,2.42,1.59,5.3,3.56,6.43h0Z"/>
      <path class="cls-11" d="M136.47,372.64l205.94-118.9c2.1-1.21,3.79-4.15,3.79-6.57V80.58c0-2.42-1.7-3.4-3.79-2.19l-205.94,118.9c-2.1,1.21-3.79,4.15-3.79,6.57v166.6c0,2.42,1.7,3.4,3.79,2.19h0Z"/>
      <path class="cls-10" d="M136.47,372.64l205.94-118.9c2.1-1.21,3.79-4.15,3.79-6.57V80.58c0-2.42-1.7-3.4-3.79-2.19l-205.94,118.9c-2.1,1.21-3.79,4.15-3.79,6.57v166.6c0,2.42,1.7,3.4,3.79,2.19h0Z"/>
      <path class="cls-11" d="M135.91,376.98c-2.1.93-5.01.89-6.8-.14-1.96-1.14-3.56-4.01-3.56-6.45v-15.17l7.11,4.12v15.17c0,2.21,1.4,3.21,3.24,2.47h0Z"/>
      <path class="cls-16" d="M135.91,376.98c-2.1.93-5.01.89-6.8-.14-1.96-1.14-3.56-4.01-3.56-6.45v-15.17l7.11,4.12v15.17c0,2.21,1.4,3.21,3.24,2.47h0Z"/>
      <path class="cls-11" d="M132.67,359.34v15.16c0,2.42,1.7,3.4,3.8,2.19l205.94-118.9c2.1-1.21,3.79-4.15,3.79-6.57v-15.2l-213.53,123.31h0Z"/>
      <path class="cls-10" d="M132.68,359.3v15.2c0,2.42,1.7,3.4,3.79,2.19l205.94-118.9c2.1-1.21,3.79-4.15,3.79-6.57v-15.2l-213.53,123.28h0Z"/>
      <path class="cls-11" d="M139.79,340.3v-134.09c0-1.45,1.02-3.22,2.28-3.94l194.73-112.43c1.26-.73,2.28-.14,2.28,1.31v134.09c0,1.45-1.01,3.22-2.27,3.94l-194.74,112.43c-1.26.73-2.28.14-2.28-1.31Z"/>
      <path class="cls-17" d="M139.79,340.3v-134.09c0-1.45,1.02-3.22,2.28-3.94l194.73-112.43c1.26-.73,2.28-.14,2.28,1.31v134.09c0,1.45-1.01,3.22-2.27,3.94l-194.74,112.43c-1.26.73-2.28.14-2.28-1.31Z"/>
      <path class="cls-11" d="M239.44,302.51c-1.97,1.14-3.56,3.9-3.56,6.17s1.59,3.19,3.56,2.05,3.56-3.9,3.56-6.17-1.59-3.19-3.56-2.05Z"/>
      <path class="cls-17" d="M133.79,200.1c-.68,1.19-1.1,2.54-1.12,3.75v155.48l-7.11-4.12v-155.46c0-1.21.44-2.56,1.12-3.75l7.11,4.1h0Z"/>
      <path class="cls-17" d="M346.16,79.96c-.27-1.96-1.85-2.66-3.76-1.57l-205.93,118.9c-1.04.6-1.98,1.62-2.68,2.82l-7.11-4.11c.69-1.18,1.63-2.22,2.68-2.82l205.93-118.89c2.1-1.21,5.38-1.27,7.36-.13,1.79,1.03,3.27,3.53,3.52,5.8h0Z"/>
    </g>
    <g id="Window-2">
      <g id="Window-3">
        <g id="Window-4">
          <path class="cls-11" d="M357.28,100.46c-.5-.3-1.17-.29-1.93.15l-194.33,112.21c-1.47.85-2.66,2.91-2.66,4.6v133.27c0,1.03.44,1.95,1.12,2.31.43.23,2.72,1.56,3.4,1.93.43.23.97.24,1.54-.09l194.32-112.25c1.47-.85,2.66-2.91,2.66-4.6V104.07c0-.87-.32-1.48-.82-1.75-.48-.25-2.81-1.57-3.3-1.87h0Z"/>
          <g>
            <g>
              <path class="cls-19" d="M163.54,354.59c-.71,0-1.28-.89-1.28-1.98v-133.27c0-1.51,1.1-3.42,2.41-4.17l194.32-112.21c.33-.19.66-.3.94-.3.9,0,.97,1.07.97,1.4v133.91c0,1.51-1.1,3.42-2.41,4.17l-194.32,112.25c-.22.13-.43.19-.63.19h0Z"/>
              <path class="cls-1" d="M359.93,103.17c.41,0,.47.56.47.9v133.91c0,1.33-1.01,3.07-2.16,3.73l-194.32,112.25c-.14.08-.27.12-.38.12-.37,0-.78-.63-.78-1.48v-133.27c0-1.33,1.01-3.07,2.16-3.74l194.32-112.21c.26-.15.5-.23.69-.23M359.93,102.17c-.36,0-.76.12-1.19.36l-194.32,112.21c-1.47.85-2.66,2.91-2.66,4.6v133.27c0,1.34.74,2.48,1.78,2.48.27,0,.57-.08.88-.26l194.32-112.25c1.47-.85,2.66-2.91,2.66-4.6V104.07c0-1.2-.6-1.9-1.47-1.9h0Z"/>
            </g>
            <path class="cls-18" d="M159.48,353c.29.15,2.35,1.33,3.26,1.85-.61-.44-.93-1.18-.98-2.23v-124.57l-3.4-1.99v124.64c0,1.03.44,1.95,1.12,2.31h0Z"/>
          </g>
          <g>
            <path class="cls-14" d="M361.4,104.05c-.01-1.68-1.19-2.36-2.66-1.51l-194.32,112.21c-1.47.85-2.66,2.91-2.66,4.6v8.7l199.64-115.27v-8.73Z"/>
            <path class="cls-23" d="M358.74,102.53l-194.32,112.21c-.73.43-1.4,1.15-1.87,1.97l-3.38-1.96c.48-.82,1.13-1.53,1.85-1.94l194.33-112.21c.76-.44,1.44-.45,1.93-.16.48.29,2.68,1.55,3.24,1.85-.47-.23-1.1-.16-1.78.23h0Z"/>
            <path class="cls-23" d="M158.36,226.06v-8.64c0-.86.32-1.81.81-2.66l3.39,1.95c-.49.84-.79,1.78-.79,2.64v8.69l-3.4-1.98h-.01Z"/>
          </g>
        </g>
      </g>
      <g>
        <g>
          <path class="cls-11" d="M320.42,204.51l-116.39,67.2c-1.07.62-1.94,2.13-1.94,3.36v33.37c0,1.24.87,2.74,1.94,3.36l3.4,1.96c1.07.62,2.81.62,3.89,0l116.37-67.19c1.07-.62,1.94-2.13,1.94-3.36v-33.38c.01-1.24-.86-2.74-1.93-3.36l-3.4-1.96c-1.07-.62-2.81-.62-3.89,0h.01Z"/>
          <path class="cls-13" d="M329.63,209.51c-.13-1-.95-1.37-1.93-.81l-116.38,67.19c-.54.3-1.02.84-1.37,1.45l-7.28-4.21c.35-.6.83-1.13,1.36-1.44l116.39-67.19c1.07-.62,2.81-.63,3.88,0l3.4,1.96c.99.57,1.8,1.88,1.93,3.05h0Z"/>
          <path class="cls-13" d="M210.99,313.9c-1.08.46-2.58.4-3.55-.15l-3.4-1.96c-1.08-.62-1.95-2.13-1.95-3.36v-33.36c0-.63.22-1.32.57-1.93l7.28,4.21c-.36.61-.57,1.29-.57,1.91v33.37c0,1.11.7,1.62,1.61,1.27h0Z"/>
          <path class="cls-14" d="M211.32,275.9l116.39-67.2c1.07-.62,1.94-.12,1.94,1.12v33.38c-.01,1.24-.88,2.74-1.96,3.36l-116.37,67.19c-1.07.62-1.94.12-1.94-1.12v-33.37c0-1.24.87-2.74,1.94-3.36h0Z"/>
          <path class="cls-3" d="M289.56,222.32l-85.54,49.38c-.53.3-1.01.83-1.36,1.44l7.28,4.21c.35-.61.83-1.15,1.37-1.45l85.52-49.37-7.27-4.2h0Z"/>
          <path class="cls-12" d="M296.83,226.52l-85.52,49.37c-1.07.62-1.94,2.13-1.94,3.36v33.37c0,1.24.87,1.74,1.94,1.12l85.52-49.37v-37.85h0Z"/>
        </g>
        <path class="cls-14" d="M231.04,271.83l44.13-25.48c1.83-1.06,3.31-.31,3.31,1.68s-1.48,4.45-3.31,5.5l-44.12,25.47c-1.83,1.06-3.31.31-3.31-1.67s1.48-4.44,3.31-5.5h0Z"/>
        <g>
          <path class="cls-19" d="M240.08,280.26s.09-.02.13.02c.04.04.06.11.06.2v4.97c0,.5-.04.98-.12,1.43-.08.45-.2.87-.37,1.25-.16.39-.37.73-.61,1.03-.25.3-.53.54-.85.73-.33.19-.61.28-.86.26-.24-.02-.45-.12-.61-.32-.16-.2-.29-.47-.37-.83s-.12-.79-.12-1.29v-4.97c0-.09.02-.18.06-.26.04-.09.08-.14.13-.17l.55-.32s.09-.02.13.02c.04.04.05.11.05.2v4.91c0,.33.03.6.08.8.05.21.12.36.21.45.09.1.2.14.33.14s.27-.05.42-.14c.15-.09.29-.2.42-.35.13-.14.24-.32.33-.52.09-.2.16-.43.21-.7s.08-.56.08-.89v-4.91c0-.09.02-.18.05-.26.04-.09.08-.14.13-.17l.54-.31h0Z"/>
          <path class="cls-19" d="M243.5,284.96c0-.09-.02-.15-.05-.19s-.09-.06-.17-.06-.19,0-.32.04c-.13.03-.3.06-.5.1s-.37.03-.5-.02-.24-.13-.32-.24c-.08-.12-.13-.27-.17-.46-.03-.19-.05-.4-.05-.64s.03-.5.1-.77c.06-.27.16-.53.28-.78s.27-.48.44-.7c.17-.21.37-.38.59-.51s.42-.2.6-.21c.18-.01.32.02.45.09.12.08.22.19.29.34s.11.32.12.51c0,.09-.01.17-.05.26s-.08.14-.13.17l-.52.3c-.07.04-.12.05-.15.02-.03-.02-.07-.05-.11-.09-.04-.03-.1-.05-.16-.06-.07,0-.17.03-.31.11s-.26.18-.36.32c-.11.13-.16.29-.16.48,0,.09.01.16.04.2.02.05.07.07.14.08.07,0,.17,0,.29-.02s.29-.05.49-.09c.4-.08.69,0,.86.23.17.23.25.59.25,1.07,0,.24-.03.5-.1.77s-.17.53-.3.79c-.13.26-.29.49-.48.71s-.4.4-.64.53c-.24.14-.45.21-.64.22-.18,0-.34-.04-.47-.12-.13-.09-.23-.21-.29-.38-.07-.16-.11-.34-.11-.53,0-.09.01-.17.05-.26s.08-.14.13-.17l.53-.3c.07-.04.12-.04.15,0s.07.08.12.13c.04.05.1.08.18.09s.19-.03.35-.12c.07-.04.14-.09.21-.15.07-.06.14-.12.2-.19s.11-.15.15-.23.06-.17.06-.26h-.01Z"/>
          <path class="cls-19" d="M245.28,282.59c0-.45.04-.9.12-1.34s.19-.86.33-1.24c.15-.38.32-.71.53-1s.44-.51.69-.65c.25-.15.48-.2.69-.15.21.05.38.17.53.36.14.19.26.46.34.79.08.33.12.7.12,1.11v.54c0,.09-.02.18-.06.26-.04.09-.08.14-.13.17l-2.28,1.31c0,.19.02.34.07.45.04.12.1.2.17.26s.16.08.25.07c.1,0,.19-.04.29-.1.14-.08.26-.18.35-.28s.17-.21.23-.33c.05-.09.09-.16.12-.2s.08-.08.13-.11l.55-.32s.09-.02.13.02c.04.04.06.11.05.2,0,.12-.04.28-.11.5-.07.22-.16.45-.3.69-.13.25-.29.49-.49.72-.19.23-.42.42-.67.57s-.49.2-.69.16c-.21-.04-.38-.16-.53-.37s-.26-.49-.33-.84c-.08-.35-.12-.78-.12-1.26h.02ZM246.95,279.81c-.13.08-.24.18-.34.3-.09.12-.17.26-.24.4-.06.15-.11.3-.15.45-.03.15-.06.29-.07.42l1.54-.89c0-.12-.03-.23-.05-.35s-.07-.22-.12-.29c-.06-.08-.13-.12-.23-.14-.09-.01-.21.02-.36.1h.02Z"/>
          <path class="cls-19" d="M251.37,277.38c-.27.16-.47.38-.59.66s-.18.67-.18,1.15v3.15c0,.09-.02.18-.05.26-.04.09-.08.14-.13.17l-.52.3s-.09.02-.13-.02c-.04-.04-.06-.11-.06-.2v-5.65c0-.09.02-.18.06-.26.04-.09.08-.14.13-.17l.52-.3s.09-.02.13.02c.04.04.05.11.05.2v.28c.12-.26.24-.48.38-.67.13-.18.31-.34.53-.46l.31-.18s.09-.02.13.02c.04.04.05.11.05.2v.8c0,.09-.02.18-.05.26-.04.09-.08.14-.13.17l-.44.26h-.01Z"/>
          <path class="cls-19" d="M257.88,276.96s.09-.02.13.02c.04.04.05.11.05.2v.86c0,.09-.02.18-.05.26-.04.09-.08.14-.13.17l-2.99,1.72s-.09.02-.13-.02c-.04-.04-.05-.11-.05-.2v-7.83c0-.09.02-.18.05-.26.04-.09.08-.14.13-.17l.55-.32s.09-.02.13.02c.04.04.06.11.06.2v6.64l2.25-1.3h0Z"/>
          <path class="cls-19" d="M260.56,270.5c.25-.14.48-.21.68-.19.2.02.38.11.52.27.15.16.27.37.35.64.09.27.14.59.15.95v1.23c-.02.38-.07.76-.16,1.13s-.2.72-.35,1.05c-.15.32-.32.61-.52.87-.2.25-.43.45-.68.6-.25.14-.48.21-.68.19-.2-.02-.38-.11-.52-.26-.15-.15-.27-.37-.35-.64-.09-.27-.14-.59-.16-.95v-1.22c.01-.38.07-.76.15-1.13.09-.37.21-.73.36-1.05.15-.33.32-.62.52-.87.2-.25.43-.45.68-.6v-.02ZM261.38,272.75c-.01-.24-.05-.43-.1-.57-.05-.13-.12-.23-.19-.28-.08-.05-.16-.07-.25-.05-.09.02-.18.05-.28.11-.09.05-.19.13-.28.22s-.18.2-.25.35c-.08.14-.14.31-.19.51s-.08.42-.1.68v1.09c.01.24.05.43.1.57.05.14.12.23.19.28.08.05.16.07.25.05.09-.02.18-.05.28-.11s.19-.13.28-.22.17-.2.25-.35c.08-.14.14-.31.19-.51s.09-.42.1-.68v-1.09h0Z"/>
          <path class="cls-19" d="M264.94,275.6c.1-.05.19-.14.29-.25s.19-.24.27-.41c.08-.16.15-.34.2-.55s.08-.42.08-.66v-.45c-.04.09-.08.2-.14.32-.06.12-.13.24-.21.36s-.18.24-.29.35-.24.21-.38.29c-.23.13-.43.17-.62.12-.18-.05-.34-.17-.47-.36-.13-.19-.23-.43-.31-.73-.08-.3-.12-.63-.13-1v-.85c0-.38.05-.76.13-1.15.07-.39.18-.75.31-1.09s.29-.64.47-.9c.18-.26.39-.46.62-.59.14-.08.27-.13.38-.15.11-.02.21-.01.29.01.08.02.16.06.21.11.06.05.11.1.14.15v-.28c0-.09.02-.18.05-.26.04-.09.08-.14.13-.17l.52-.3s.09-.02.13.02c.04.04.06.11.06.2v5.68c0,.98-.15,1.8-.46,2.48s-.73,1.17-1.27,1.48c-.23.13-.45.2-.64.21-.2,0-.37-.04-.51-.14-.15-.1-.26-.24-.35-.42-.09-.18-.13-.39-.14-.63,0-.09.01-.17.05-.26.04-.09.08-.15.13-.17l.46-.27c.06-.04.12-.03.16.02.05.05.08.1.12.15.06.1.14.17.24.2.1.03.26-.02.48-.14v.03ZM264.12,271.37c-.01.23-.01.46,0,.68.03.51.12.83.27.97s.34.15.57.02c.22-.13.41-.35.56-.68.15-.32.24-.71.26-1.16,0-.13.01-.28.01-.47s0-.34-.01-.45c-.02-.41-.11-.69-.26-.84-.15-.15-.34-.17-.56-.04s-.41.35-.57.67-.25.75-.27,1.29h0Z"/>
          <path class="cls-19" d="M268.69,263.63s.09-.02.13.02c.04.04.06.11.06.2v.95c0,.09-.02.18-.06.26-.04.09-.08.14-.13.17l-.59.34s-.09.02-.13-.02c-.04-.04-.06-.11-.06-.2v-.95c0-.09.02-.18.06-.26.04-.08.08-.14.13-.17l.59-.34ZM268.84,271.81c0,.09-.02.18-.06.26-.04.09-.08.14-.13.17l-.52.3s-.09.02-.13-.02c-.04-.04-.06-.11-.06-.2v-5.65c0-.09.02-.18.06-.26.04-.09.08-.14.13-.17l.52-.3s.09-.02.13.02c.04.04.06.11.06.2v5.65Z"/>
          <path class="cls-19" d="M273.45,269.15c0,.09-.02.18-.05.26-.04.09-.08.14-.13.17l-.52.3s-.09.02-.13-.02c-.04-.04-.05-.11-.05-.2v-3.08c0-.48-.06-.84-.19-1.05-.13-.22-.32-.25-.59-.1-.24.14-.43.39-.57.76s-.21.8-.21,1.28v3.08c0,.09-.02.18-.05.26-.04.09-.08.14-.13.17l-.52.3s-.09.02-.13-.02c-.04-.04-.06-.11-.06-.2v-5.65c0-.09.02-.18.06-.26.04-.09.08-.14.13-.17l.52-.3s.09-.02.13.02c.04.04.05.11.05.2v.28c.12-.28.26-.53.42-.76s.35-.41.57-.53c.28-.16.51-.22.69-.17.19.05.34.17.45.36.11.19.19.45.24.76.05.32.07.66.07,1.04v3.26h0Z"/>
        </g>
        <g>
          <path class="cls-3" d="M317.47,243.76l-8.48,4.89,1.31-11.89c-1.01-.54-1.66-1.86-1.66-3.75,0-3.38,2.05-7.3,4.59-8.76,2.53-1.46,4.58.09,4.58,3.47,0,1.89-.65,3.96-1.66,5.67l1.31,10.37h.01Z"/>
          <polygon class="cls-12" points="317.47 243.76 310.01 239.45 308.99 248.65 317.47 243.76"/>
          <path class="cls-12" d="M313.23,224.25c-1.66.96-3.1,2.97-3.91,5.19l6.83,3.95h0c1.01-1.71,1.66-3.77,1.66-5.67,0-3.38-2.05-4.93-4.58-3.47Z"/>
        </g>
      </g>
      <g>
        <g>
          <path class="cls-11" d="M272.02,184.68c-2.9-1.68-6.9-1.44-11.33,1.12-8.85,5.11-16.02,17.53-16.02,27.75,0,5.13,1.81,8.72,4.73,10.39.76.43,4.88,2.83,5.65,3.27,2.9,1.68,6.9,1.44,11.33-1.12,8.85-5.11,16.02-17.53,16.02-27.75,0-5.11-1.79-8.69-4.69-10.37"/>
          <path class="cls-14" d="M266.37,189.09c-8.85,5.11-16.02,17.53-16.02,27.75s7.17,14.36,16.02,9.25c8.85-5.11,16.03-17.53,16.02-27.75,0-10.22-7.18-14.36-16.02-9.25Z"/>
          <path class="cls-11" d="M275.22,211.76v1.17c-2.28,3.89-5.4,7.28-8.84,9.27-3.45,1.99-6.56,2.2-8.84.94v-2.42c0-4.66,3.17-10.15,7.21-12.49l2.33-1.34c2.06-1.19,4.07-1.34,5.64-.43,1.61.92,2.52,2.85,2.52,5.31h-.02Z"/>
          <path class="cls-12" d="M272.02,184.68l5.68,3.29c-2.9-1.68-6.91-1.44-11.33,1.12-5.79,3.35-10.87,9.83-13.68,16.78l-5.68-3.29c2.81-6.95,7.89-13.43,13.68-16.77,4.43-2.55,8.43-2.79,11.33-1.12h0Z"/>
          <path class="cls-13" d="M254.83,227.08c-1-.58-4.73-2.75-5.43-3.15-2.92-1.66-4.73-5.26-4.73-10.38l5.68,3.29c0,4.98,1.71,8.52,4.48,10.24Z"/>
          <path class="cls-3" d="M247.01,202.57l5.68,3.29c-1.48,3.66-2.34,7.45-2.34,10.97h0l-5.68-3.29c0-3.53.86-7.32,2.34-10.98h0Z"/>
        </g>
        <g>
          <path class="cls-17" d="M264.36,206.34c-.55,0-1.07-.13-1.54-.4-1.08-.62-1.67-1.86-1.67-3.48,0-2.96,2.01-6.44,4.58-7.92h0c1.4-.81,2.76-.91,3.85-.29,1.08.62,1.67,1.86,1.67,3.48,0,2.96-2.01,6.44-4.57,7.92-.8.46-1.58.69-2.31.69h0Z"/>
          <path class="cls-17" d="M272.7,206.45c-1.57-.91-3.57-.76-5.64.43l-2.33,1.34c-4.04,2.34-7.21,7.83-7.21,12.49v2.42c2.28,1.27,5.4,1.05,8.84-.94,3.44-1.98,6.56-5.37,8.84-9.27v-1.17c0-2.45-.91-4.38-2.52-5.31h.02Z"/>
        </g>
      </g>
    </g>
    <g id="Character-2">
      <g>
        <g>
          <polyline class="cls-11" points="351.89 269.83 357.35 266.67 359.52 264.05 354.05 267.2 351.89 269.83"/>
          <polyline class="cls-3" points="351.89 269.83 357.35 266.67 359.52 264.05 354.05 267.2 351.89 269.83"/>
        </g>
        <g>
          <polyline class="cls-11" points="366.76 278.41 372.23 275.26 376.8 271.21 371.33 274.37 366.76 278.41"/>
          <polyline class="cls-3" points="366.76 278.41 372.23 275.26 376.8 271.21 371.33 274.37 366.76 278.41"/>
        </g>
        <path class="cls-13" d="M413.24,289.32c1.2,1.52,2.07,3.76,2.26,5.95-1.2-1.52-2.07-3.76-2.26-5.95ZM425.95,289.48c-1.84-12.52-8.57-24.91-16.59-29.54-3.85-2.22-7.41-2.31-10.26-.64-.83.48-3.93,2.27-5.15,2.97-.1.05-.2.11-.29.17-.22.13-.45.27-.66.42-.41.29-.81.61-1.18.98-.05.04-.11.11-.17.16-.16.16-.32.34-.48.52-.19.22-.38.44-.55.67-.36.48-.7.99-1,1.54-.15.27-.31.56-.45.85l-44.95-25.95-5.46,3.15v3.48l.47.27.43.25v.74l-.9.52v2.03l6.6,13.98,6.53,3.78,2.17-2.63,5.76,3.44,3.31,5.67,3.64,2.1,4.57-4.05,5.61,3.24,1.88,7.77,9.39,5.42c.48,1.99,1.08,3.94,1.78,5.84.06.2.13.39.22.61,3.12,8.21,8.09,15.23,13.69,18.47.72.41,1.42.75,2.11,1.01.39.16.79.29,1.18.39.35.1.7.18,1.05.23,1.16.21,2.28.2,3.33,0,.15-.04.31-.07.46-.11.22-.04.43-.11.64-.19.16-.06.32-.13.48-.19.17-.06.34-.14.5-.23.16-.07.31-.15.47-.24.08-.04.16-.09.23-.13.04,0,.07-.04.11-.06,1.25-.72,4.32-2.49,5.16-2.97,4.15-2.4,6.84-8.5,6.84-17.11,0-2.19-.17-4.41-.5-6.63h-.02Z"/>
        <path class="cls-4" d="M411.64,299.88c-2.16-1.25-3.91-4.95-3.91-8.27s1.75-5,3.91-3.76c2.16,1.25,3.9,4.95,3.9,8.27s-1.75,5-3.9,3.76ZM420.49,292.63c-1.84-12.51-8.57-24.9-16.59-29.53-3.71-2.14-7.15-2.31-9.95-.83-.1.05-.2.11-.29.17-.22.13-.45.27-.66.42-.41.29-.81.61-1.18.98-.05.04-.11.11-.17.16-.16.16-.32.34-.48.52-.19.22-.38.44-.55.67-.36.48-.7.99-1,1.54-.15.27-.31.56-.45.85-.74,1.53-1.34,3.3-1.73,5.31l-48.69-28.12v3.48l.47.27.43.25v.74l-.9.52v2.03l6.6,13.98,6.53,3.78,2.17-2.63,5.76,3.44,3.31,5.67,3.64,2.1,4.57-4.05,5.61,3.24,1.88,7.77,9.39,5.42c.48,1.99,1.08,3.94,1.78,5.84.06.2.13.39.22.61,3.12,8.21,8.09,15.23,13.69,18.47.72.41,1.42.75,2.11,1.01.39.16.79.29,1.18.39.35.1.7.18,1.05.23,1.16.21,2.28.2,3.33,0,.15-.04.31-.07.46-.11.22-.04.43-.11.64-.19.16-.06.32-.13.48-.19.17-.06.34-.14.5-.23.16-.07.31-.15.47-.24.08-.04.16-.09.23-.13.04,0,.07-.04.11-.06,3.98-2.51,6.54-8.51,6.54-16.92,0-2.19-.18-4.41-.5-6.64h0Z"/>
        <path class="cls-8" d="M415.54,296.12c0,3.32-1.75,5.01-3.9,3.76-2.16-1.25-3.91-4.94-3.91-8.26s1.75-5.01,3.91-3.76c.57.33,1.12.83,1.6,1.46.19,2.18,1.07,4.42,2.26,5.95.04.29.04.57.04.85h0Z"/>
        <path class="cls-24" d="M426.45,296.11c0,8.61-2.69,14.7-6.84,17.11-.83.48-3.91,2.25-5.16,2.97,3.98-2.51,6.54-8.51,6.54-16.92,0-2.19-.18-4.41-.5-6.64-1.84-12.51-8.57-24.9-16.59-29.53-3.71-2.14-7.15-2.31-9.95-.83,1.22-.7,4.32-2.49,5.15-2.97,2.85-1.67,6.41-1.59,10.26.64,8.02,4.63,14.75,17.02,16.59,29.54.33,2.22.5,4.44.5,6.63Z"/>
        <g class="cls-20">
          <path class="cls-17" d="M420.99,299.27c0,8.41-2.56,14.41-6.54,16.92,1.25-.72,4.32-2.49,5.16-2.97,4.15-2.4,6.84-8.5,6.84-17.11,0-.32-.01-.64-.02-.96-1.88,1.08-3.78,2.18-5.46,3.15,0,.32.02.64.02.96h0Z"/>
          <path class="cls-9" d="M420.99,299.27c0,8.41-2.56,14.41-6.54,16.92,1.25-.72,4.32-2.49,5.16-2.97,4.15-2.4,6.84-8.5,6.84-17.11,0-.32-.01-.64-.02-.96-1.88,1.08-3.78,2.18-5.46,3.15,0,.32.02.64.02.96h0Z"/>
        </g>
        <g>
          <polygon class="cls-6" points="387.63 276.49 387.63 278.27 338.75 250.05 339.65 249.53 339.65 248.79 387.63 276.49"/>
          <polygon class="cls-6" points="387.63 277.23 387.63 278.27 338.75 250.05 339.65 249.53 339.65 249.52 387.63 277.23"/>
        </g>
        <path class="cls-8" d="M389.67,281.19c0,12.1,6.37,25.59,14.23,30.12,7.86,4.54,14.23-1.59,14.23-13.69s-6.37-25.59-14.23-30.12c-7.86-4.54-14.23,1.59-14.23,13.69Z"/>
        <path class="cls-24" d="M389.17,267.6c-.74,1.53-1.34,3.3-1.73,5.31l-48.69-28.12,5.46-3.15,44.95,25.95h.01Z"/>
      </g>
    </g>
  </g>
  <g>
    <g>
      <g>
        <path class="cls-17" d="M3.98,64.55c1.9.58,3.37,1.71,2.66,3.8-.9,2.17-4.8,2.31-6.26.66-.35-.38-.67-1.81.1-1.82.32.05.67.52,1.04.86.54.5,1.3.83,2.07.75,1.08-.09,2.01-.97,1.06-1.99-.82-.88-2.64-.91-3.5-1.78-.89-.87-.97-2.32-.02-3.12.98-.91,2.59-1.1,3.91-.66.7.21,1.29.78,1.31,1.57.02.43-.16.76-.42.75-.69-.13-1.01-.92-1.71-1.19-.29-.13-.61-.21-.92-.21-.82-.01-1.46.63-1.09,1.33.25.46.98.75,1.71,1.01l.05.02h0Z"/>
        <path class="cls-17" d="M10.4,66c0,.58,0,1.27,0,1.94,0,.39-.03.74.15,1.06.15.3.65.75.07.98-.38.12-.61.04-.99.05-.34-.03-1.49.2-1.22-.48.15-.26.2-.48.3-.77.14-.41.06-.94.08-1.46-.03-.62.08-1.58-.07-2.1-.2-.46-1.01-.8-.15-1.16.42-.17.86-.37,1.3-.49.75-.09.57.66.56,1.2-.02.37-.03.85-.03,1.19v.02h0ZM9.82,60.97c.41,0,.78.32.77.74.02.68-.78,1.24-1.47,1.13-.52-.05-.68-.64-.47-1.06.18-.43.66-.81,1.13-.81h.03Z"/>
        <path class="cls-17" d="M15.24,66.03c1.43.43,2.54,1.25,2,2.78-.67,1.59-3.6,1.69-4.71.49-.26-.27-.5-1.32.07-1.33.24.04.5.38.78.63.41.37.98.61,1.56.55.81-.06,1.08-.92.4-1.36-.75-.5-1.82-.64-2.46-1.28-.67-.64-.61-1.83.1-2.42.74-.66,2.06-.79,3.06-.46.53.15.97.57.99,1.15.01.31-.12.56-.32.55-.52-.09-.76-.67-1.29-.87-.22-.1-.46-.16-.69-.15-.61,0-1.1.46-.82.98.18.34.74.55,1.29.74h.04Z"/>
        <path class="cls-17" d="M23.18,68.28c.08,0,.17.06.17.26,0,.12-.04.28-.14.45-.23.45-.81,1.08-1.88,1.08-1.13,0-1.71-.75-1.71-2.26,0-.57.08-2.2.08-2.82,0-.24-.06-.35-.25-.38-.46-.06-.73-.09-.73-.33,0-.19.07-.35.28-.45.38-.17.76-.38,1.04-.69.48-.54.52-1.21.87-1.21.2,0,.33.17.33.49,0,.25-.06,1.22-.06,1.26,0,.03,0,.05.06.05.11,0,1.34-.06,1.48-.06.24,0,.4.07.4.36,0,.21-.12.49-.23.6-.04.04-.11.08-.21.08-.13,0-1.23-.06-1.4-.06-.04,0-.09.01-.1.11-.02.23-.06,2.01-.06,2.65,0,.71.15,1.47.93,1.47.4,0,.7-.25.87-.43.09-.1.14-.15.23-.15h0Z"/>
        <path class="cls-17" d="M30.06,67.66c.1,0,.16.1.16.33,0,.77-.91,2.08-2.71,2.08s-3.07-1.32-3.07-3.18,1.29-3.47,3.23-3.47c1.6,0,2.45,1.14,2.45,2.29,0,.39-.19.62-.47.78-.75.46-2.43.61-3.35.65-.12,0-.16.03-.16.12,0,.54.49,1.59,1.8,1.59.97,0,1.54-.47,1.88-1.02.07-.09.16-.16.23-.16h0ZM25.97,66.07c0,.2.06.32.22.32.48,0,1.79-.16,2.28-.5.15-.1.21-.23.21-.4,0-.71-.5-1.25-1.16-1.25-.89,0-1.54.9-1.54,1.83h0Z"/>
        <path class="cls-17" d="M41.66,68.77c.05.49.76,1.1-.26,1.28-.41.04-.66,0-1.07.02-.53.02-.58-.23-.41-.76.18-.61.08-1.26.12-1.9.04-.7.04-1.57-.21-2.07-.33-.76-1.36-.83-1.99-.3-.03.02-.06.05-.09.08,0,.03.01.05.02.08.27,1.17.04,2.55.09,3.55v.02c.05.49.76,1.1-.26,1.28-.23.02-.41.02-.6.02-.17,0-.33,0-.5,0-.03,0-.07,0-.1,0-.41-.02-.43-.27-.28-.76.18-.61.08-1.26.12-1.9.04-.7.04-1.57-.21-2.07-.15-.34-.43-.54-.75-.61-.41-.09-.88.02-1.23.31-.43.32-.6.84-.57,1.35v1.72c0,.32-.01.64.14.93.13.28.27.48.24.74-.03.18-.1.24-.26.26-.55.04-1.08,0-1.63.02-.23-.01-.39-.05-.43-.32,0-.29.27-.64.35-.99.13-.73.03-1.54.06-2.3-.02-.5.09-1.14-.18-1.41-.05-.06-.11-.13-.17-.19-.57-.52.19-.77.67-.97.83-.38.93-.11,1.25.54.16.24.46-.2.79-.36.3-.19.75-.37,1.14-.43.39-.07.77-.04,1.1.08.21.07.4.17.57.31.15.12.29.27.4.45.16-.06.38-.3.59-.41.3-.19.75-.37,1.14-.43,1.1-.19,2.11.36,2.35,1.55.27,1.17.04,2.55.09,3.55v.02s0,0,0,0Z"/>
        <path class="cls-17" d="M48.37,64.45c.25.39.38.88.38,1.46,0,.25,0,.51-.02.78v3.11s-.01.07-.03.1c-.04.07-.11.11-.19.11h-1.05c-.12,0-.22-.1-.22-.22v-.53s-.06-.08-.09-.08c-.04,0-.09.08-.14.13-.41.4-1.09.7-1.81.7-1.06,0-1.89-.56-1.89-1.57s.72-1.63,1.83-1.96c.82-.23,1.81-.27,1.96-.38.07-.05.13-.15.13-.55,0-.64-.21-1.17-.7-1.38-.14-.06-.29-.09-.47-.09-.05,0-.09,0-.13,0-.49.03-.95.32-1.11.9-.13.42-.13.51-.71.46-.33-.03-.38-.23-.29-.83.06-.38.36-.71.75-.93.39-.19.9-.32,1.51-.32.31,0,.59.03.86.1.58.17,1.06.51,1.42.95,0,0,.01.02.02.03h0ZM47.24,67.4c0-.38-.04-.49-.12-.49-.52,0-.94.05-1.3.16-.67.22-.96.66-.96,1.11,0,.52.39.82.93.82.86,0,1.45-.64,1.45-1.6Z"/>
        <path class="cls-17" d="M54.73,68.92c.12-.22.15-.47.16-.72.04-1.45.05-3.45.01-4.92-.01-.34-.12-.64-.29-.92-.2-.32-.43-.7-.02-.88.65-.17,1.32-.02,2.09-.05,1.05.03,2.23-.04,3.22,0,.6.07.74.81.8,1.32.09.41.16,1.49-.48.91-.28-.29-.43-.71-.75-.96-.52-.41-1.93-.52-2.58-.19-.42.28-.29.79-.32,1.37-.05,1.02.48,1.23,1.38.93.37-.11.61-.56.91-.54.35.09.29.62.32.93,0,.39.03.91-.06,1.25v.03c-.28.64-.72-.2-1.06-.35-.39-.19-.99-.3-1.32.05-.27.35-.15,1.08-.17,1.65-.03.79.18,1.21,1.06,1.23.93.05,2.08-.05,2.54-.96.09-.14.19-.3.29-.42.28-.35.53-.21.56.11.04.55-.06,1.15-.19,1.68-.18.63-.84.58-1.45.56-.52,0-1.14-.02-1.67-.01-.88,0-1.92.03-2.73.02-.97-.07-.6-.53-.25-1.1h0Z"/>
        <path class="cls-17" d="M68.52,60.97c.09.4-.04.94-.03,1.39,0,.24-.01.53-.02.78h0v4.47h0v2.27c0,.08-.06.14-.14.14h-1.23c-.08,0-.14-.06-.14-.14v-.18c-1.09.49-1.75.4-2.14.33-1.26-.22-2.22-1.23-2.39-2.92-.1-.98.06-2.15.7-2.9.69-.86,2-1.01,2.92-.43.34.2.56.44.71.55.08.06.14.05.18-.03.08-.39.08-.8.07-1.21h0v-.48c0-.12,0-.22-.05-.33v-.02c-.34-.54-.94-.77-.01-1.17.04-.02.21-.09.28-.12.41-.16,1.09-.6,1.31.01h0ZM66.96,66.7v-.03c-.03-.68-.18-1.47-.73-1.92-.52-.42-1.3-.36-1.72.24-.85,1.22-.56,4.79,1.55,4.04.8-.41.9-1.52.9-2.34Z"/>
        <path class="cls-17" d="M74.67,63.75c1.17-.15,1.9-.65,1.59.99-.05.53-.06,1.06-.05,1.61h0v.4c0,.34,0,.67,0,1.01,0,.08,0,.15,0,.23v1.78c0,.13-.11.24-.24.24h-1.04c-.13,0-.24-.11-.24-.24v-.36c-.28-.15-.55.32-.89.43-.98.5-2.57.36-3.07-.76-.43-.83-.26-2.16-.19-3.15.08-.78.06-1.04-.53-1.58-.34-.5.45-.6.8-.64.41-.03.87-.25,1.23-.11.17.08.26.28.24.46-.02.43-.15.96-.22,1.88-.02,1.01-.34,2.71.89,3.08.75.17,1.46-.18,1.65-1.05.05-.22.07-.44.08-.67v-.96h0c0-.45.02-.89-.04-1.19-.04-.35-.35-.56-.53-.82-.21-.37.18-.52.56-.58h0Z"/>
        <path class="cls-17" d="M83.39,68.01c-.06.41-.26.8-.6,1.16-.61.68-1.73.97-2.62.8-3.67-.6-3.12-6.58.71-6.53h.02c.92-.03,2.02.51,2.14,1.28.09.6.04.8-.29.83-.58.05-.59-.04-.71-.46-.35-1.28-2.12-1.15-2.63.02-.77,1.88.49,4.15,2.63,3.39.38-.15.66-.42.88-.72.07-.1.15-.21.26-.25.23-.06.26.29.23.47Z"/>
        <path class="cls-17" d="M89.82,64.45c.25.39.38.88.38,1.46,0,.25,0,.51-.02.78v3.11s-.01.07-.03.1c-.04.07-.11.11-.19.11h-1.05c-.12,0-.22-.1-.22-.22v-.53s-.06-.08-.09-.08c-.04,0-.09.08-.14.13-.41.4-1.09.7-1.81.7-1.06,0-1.89-.56-1.89-1.57s.72-1.63,1.83-1.96c.82-.23,1.81-.27,1.96-.38.07-.05.13-.15.13-.55,0-.64-.21-1.17-.7-1.38-.14-.06-.29-.09-.47-.09-.05,0-.09,0-.13,0-.49.03-.95.32-1.11.9-.13.42-.13.51-.71.46-.33-.03-.38-.23-.29-.83.06-.38.36-.71.75-.93.39-.19.9-.32,1.51-.32.31,0,.59.03.86.1.58.17,1.06.51,1.42.95,0,0,.01.02.02.03h0ZM88.69,67.4c0-.38-.04-.49-.12-.49-.52,0-.94.05-1.3.16-.67.22-.96.66-.96,1.11,0,.52.39.82.93.82.86,0,1.45-.64,1.45-1.6Z"/>
        <path class="cls-17" d="M96.01,68.28c.08,0,.17.06.17.26,0,.12-.04.28-.14.45-.23.45-.81,1.08-1.88,1.08-1.13,0-1.71-.75-1.71-2.26,0-.57.08-2.2.08-2.82,0-.24-.06-.35-.25-.38-.46-.06-.73-.09-.73-.33,0-.19.07-.35.28-.45.38-.17.76-.38,1.04-.69.48-.54.52-1.21.87-1.21.2,0,.33.17.33.49,0,.25-.06,1.22-.06,1.26,0,.03,0,.05.06.05.11,0,1.34-.06,1.48-.06.24,0,.4.07.4.36,0,.21-.12.49-.23.6-.04.04-.11.08-.21.08-.13,0-1.23-.06-1.4-.06-.04,0-.09.01-.1.11-.02.23-.06,2.01-.06,2.65,0,.71.15,1.47.93,1.47.4,0,.7-.25.87-.43.09-.1.14-.15.23-.15h0Z"/>
        <path class="cls-17" d="M99.76,66c0,.58,0,1.27,0,1.94,0,.39-.03.74.15,1.06.15.3.65.75.07.98-.38.12-.61.04-.99.05-.34-.03-1.49.2-1.22-.48.15-.26.2-.48.3-.77.14-.41.06-.94.08-1.46-.03-.62.08-1.58-.07-2.1-.2-.46-1.01-.8-.15-1.16.42-.17.86-.37,1.3-.49.75-.09.57.66.56,1.2-.02.37-.03.85-.03,1.19v.02h0ZM99.18,60.97c.41,0,.78.32.77.74.02.68-.78,1.24-1.47,1.13-.52-.05-.68-.64-.47-1.06.18-.43.66-.81,1.13-.81h.03Z"/>
        <path class="cls-17" d="M108.24,64c-.02.22-.2.32-.41.6-.14.18-.26.41-.34.61-.31.73-.9,2.38-1.17,3.1-.26.59-.41,1.34-1.02,1.66-.65.31-.98.08-1.19-.56-.31-.76-1.14-2.85-1.61-3.93-.16-.36-.3-.64-.52-.9-.23-.21-.62-.67-.18-.88.17-.07.38-.05.56-.05.44.03.88,0,1.33,0,.28-.03.68.1.55.45-.06.17-.2.33-.26.51-.08.27.02.44.09.69.23.67.47,1.25.72,1.91.13.26.44,1.26.57,1.04.44-.81.74-1.96,1.03-2.91.1-.32.11-.62-.09-.9-.11-.18-.32-.35-.25-.57.08-.23.38-.23.59-.22.45.04.86-.02,1.29.01h.03c.15.04.28.17.26.33Z"/>
        <path class="cls-17" d="M112.51,63.43c1.72,0,3.25,1.25,3.25,3.46,0,2.09-1.43,3.14-3.17,3.14-1.94,0-3.19-1.37-3.19-3.25s1.31-3.35,3.11-3.35h0ZM114.21,67.27c0-.66-.17-1.42-.44-1.96-.36-.7-.89-1.05-1.4-1.05-.74,0-1.36.63-1.36,2.01,0,.55.08,1.26.36,1.83.35.7.92.99,1.43.99.74,0,1.41-.53,1.41-1.81Z"/>
        <path class="cls-17" d="M127.28,60.97c.09.4-.04.94-.03,1.39,0,.24-.01.53-.02.78h0v4.47h0v2.27c0,.08-.06.14-.14.14h-1.23c-.08,0-.14-.06-.14-.14v-.18c-1.09.49-1.75.4-2.14.33-1.26-.22-2.22-1.23-2.39-2.92-.1-.98.06-2.15.7-2.9.69-.86,2-1.01,2.92-.43.34.2.56.44.71.55.08.06.14.05.18-.03.08-.39.08-.8.07-1.21h0v-.48c0-.12,0-.22-.05-.33v-.02c-.34-.54-.94-.77-.01-1.17.04-.02.21-.09.28-.12.41-.16,1.09-.6,1.31.01h0ZM125.71,66.7v-.03c-.03-.68-.18-1.47-.73-1.92-.52-.42-1.3-.36-1.72.24-.85,1.22-.56,4.79,1.55,4.04.8-.41.9-1.52.9-2.34Z"/>
        <path class="cls-17" d="M134.01,67.66c.1,0,.16.1.16.33,0,.77-.91,2.08-2.71,2.08s-3.07-1.32-3.07-3.18,1.29-3.47,3.23-3.47c1.6,0,2.45,1.14,2.45,2.29,0,.39-.19.62-.47.78-.75.46-2.43.61-3.35.65-.12,0-.16.03-.16.12,0,.54.49,1.59,1.8,1.59.97,0,1.54-.47,1.88-1.02.07-.09.16-.16.23-.16h0ZM129.93,66.07c0,.2.06.32.22.32.48,0,1.79-.16,2.28-.5.15-.1.21-.23.21-.4,0-.71-.5-1.25-1.16-1.25-.89,0-1.54.9-1.54,1.83h0Z"/>
        <path class="cls-17" d="M146.23,68.35c-.9,2.17-4.8,2.31-6.26.66-.35-.38-.67-1.81.1-1.82.32.05.67.52,1.04.86.54.5,1.3.83,2.07.75,1.08-.09,2.01-.97,1.06-1.99-.82-.88-2.64-.91-3.5-1.78-.89-.87-.97-2.32-.02-3.12.99-.91,2.59-1.1,3.91-.66.7.21,1.29.78,1.31,1.57.02.43-.16.76-.42.75-.69-.13-1.01-.92-1.71-1.19-.29-.13-.61-.21-.92-.21-.82-.01-1.46.63-1.09,1.33.25.46.98.75,1.71,1.01l.05.02c1.9.58,3.37,1.71,2.66,3.8Z"/>
        <path class="cls-17" d="M152.82,64.45c.25.39.39.88.39,1.46,0,.25,0,.51-.02.78v3.11s-.01.07-.03.1c-.04.07-.11.11-.19.11h-1.05c-.12,0-.22-.1-.22-.22v-.53s-.06-.08-.09-.08c-.04,0-.09.08-.14.13-.41.4-1.09.7-1.81.7-1.06,0-1.89-.56-1.89-1.57s.72-1.63,1.83-1.96c.82-.23,1.81-.27,1.96-.38.07-.05.13-.15.13-.55,0-.64-.21-1.17-.7-1.38-.14-.06-.29-.09-.47-.09-.05,0-.09,0-.13,0-.49.03-.95.32-1.11.9-.13.42-.13.51-.71.46-.33-.03-.38-.23-.29-.83.06-.38.36-.71.75-.93.39-.19.9-.32,1.51-.32.31,0,.59.03.86.1.58.17,1.06.51,1.41.95,0,0,.01.02.02.03h0ZM151.69,67.4c0-.38-.04-.49-.12-.49-.52,0-.94.05-1.3.16-.67.22-.96.66-.96,1.11,0,.52.39.82.93.82.86,0,1.45-.64,1.45-1.6Z"/>
        <path class="cls-17" d="M154.77,69.29c.14-.21.3-.42.36-.66.07-.35.03-.92.04-1.37,0-1.46,0-3.63,0-4.53,0-.85-1.37-1.01.14-1.62,1.16-.49,1.74-.53,1.58.89-.02.47-.03.98-.03,1.41,0,.95,0,3.67,0,4.72,0,.26,0,.49.1.73.08.29.64.7.42,1.02-.4.31-.99.16-1.46.19-.58.01-1.81.07-1.17-.75l.02-.03h0Z"/>
        <path class="cls-17" d="M165.14,64.73c-.05.53-.06,1.06-.05,1.61h0v.4c0,.34,0,.67,0,1.01,0,.08,0,.15,0,.23v1.78c0,.13-.11.24-.24.24h-1.04c-.13,0-.24-.11-.24-.24v-.36c-.28-.15-.55.32-.89.43-.98.5-2.57.36-3.07-.76-.43-.83-.26-2.16-.19-3.15.08-.78.06-1.04-.53-1.58-.34-.5.45-.6.8-.64.41-.03.87-.25,1.23-.11.17.08.26.28.24.46-.02.43-.15.96-.22,1.88-.02,1.01-.34,2.71.89,3.08.75.17,1.46-.18,1.65-1.05.05-.22.07-.44.08-.67v-.96h0c0-.45.02-.89-.04-1.19-.03-.35-.34-.56-.53-.82-.21-.37.18-.52.56-.58,1.17-.15,1.9-.65,1.59.99Z"/>
        <path class="cls-17" d="M172.69,60.97c.09.4-.04.94-.03,1.39,0,.24-.01.53-.02.78h0v4.47h0v2.27c0,.08-.06.14-.14.14h-1.23c-.08,0-.14-.06-.14-.14v-.18c-1.09.49-1.75.4-2.14.33-1.26-.22-2.22-1.23-2.39-2.92-.1-.98.07-2.15.7-2.9.69-.86,2-1.01,2.92-.43.34.2.56.44.7.55.08.06.14.05.18-.03.08-.39.08-.8.07-1.21h0v-.48c0-.12,0-.22-.05-.33v-.02c-.34-.54-.94-.77-.01-1.17.04-.02.21-.09.28-.12.41-.16,1.09-.6,1.31.01h0ZM171.13,66.7v-.03c-.03-.68-.18-1.47-.73-1.92-.52-.42-1.3-.36-1.72.24-.85,1.22-.56,4.79,1.55,4.04.8-.41.9-1.52.9-2.34Z"/>
        <path class="cls-17" d="M183.35,63.57c1.92.72,2.02,3.54,1.12,5.1-.63,1.12-2.14,1.71-3.33,1.11-.3-.14-.48-.31-.57-.25h-.01c-.1.08-.1.28-.11.41,0,.42-.04.97.11,1.31.13.33.5.48.68.76.17.26-.12.44-.34.46-.33.04-.67,0-1.01,0-.4-.06-1.44.21-1.56-.3-.01-.22.28-.48.42-.74.09-.15.16-.38.16-.53-.01-1.22.06-4.58-.03-5.79-.27-.56-1-.76-.04-1.22.9-.37,1.19-.71,1.62.38.03.06.08.1.15.07.74-.67,1.69-1.16,2.74-.77h0ZM183.31,67.26c.03-.31.03-.63,0-.93-.1-1.23-.64-1.81-1.32-1.85-.01,0-.02,0-.04,0-.02,0-.03,0-.04,0-.02,0-.04,0-.06,0,0,0,0,0,0,0-.06,0-.11.01-.17.02h-.01c-.64.14-1.21.83-1.23,2.18h0s0,.02,0,.02c0,0,0,.02,0,.03,0,.04,0,.08,0,.12,0,0,0,.02,0,.03,0,.07,0,.15,0,.23,0,.07,0,.14.01.2,0,.02,0,.03,0,.05.13,1.36.72,1.77,1.39,1.77.71,0,1.33-.57,1.46-1.87h0Z"/>
        <path class="cls-17" d="M191.44,64.45c.25.39.39.88.39,1.46,0,.25,0,.51-.02.78v3.11s-.01.07-.03.1c-.04.07-.11.11-.19.11h-1.05c-.12,0-.22-.1-.22-.22v-.53s-.06-.08-.09-.08c-.04,0-.09.08-.14.13-.41.4-1.09.7-1.81.7-1.06,0-1.89-.56-1.89-1.57s.72-1.63,1.83-1.96c.82-.23,1.81-.27,1.96-.38.07-.05.13-.15.13-.55,0-.64-.21-1.17-.7-1.38-.14-.06-.29-.09-.47-.09-.05,0-.09,0-.13,0-.49.03-.95.32-1.11.9-.13.42-.13.51-.71.46-.33-.03-.38-.23-.29-.83.06-.38.36-.71.75-.93.39-.19.9-.32,1.51-.32.31,0,.59.03.86.1.58.17,1.06.51,1.41.95,0,0,.01.02.02.03h0ZM190.31,67.4c0-.38-.04-.49-.12-.49-.52,0-.94.05-1.3.16-.67.22-.96.66-.96,1.11,0,.52.39.82.93.82.86,0,1.45-.64,1.45-1.6Z"/>
        <path class="cls-17" d="M195.09,66.16c-.04.48,0,1.08-.02,1.59,0,.55,0,.65.07,1.03.09.37.15.38.3.58.08.1.19.26.2.39.02.24-.24.35-.39.34-.61,0-.95,0-1.57-.02-1.02-.14-.34-.77-.2-1.26.1-.31.06-.5.07-.95,0-.49,0-1.06,0-1.56-.02-.41.07-.95-.14-1.21-.11-.15-.29-.29-.38-.45-.16-.33.29-.49.56-.62.28-.11.56-.27.86-.3.38-.05.52.5.65.72.03.05.08.09.14.08.17-.07.26-.2.46-.35.32-.25.76-.47,1.18-.51,1.24-.21,1.69,1.38.89,2.1-.19.17-.51.29-.74.12-.23-.16-.3-.64-.53-.85-.66-.51-1.36.52-1.41,1.11v.02h0Z"/>
        <path class="cls-17" d="M204.12,64.45c.25.39.39.88.39,1.46,0,.25,0,.51-.02.78v3.11s-.01.07-.03.1c-.04.07-.11.11-.19.11h-1.05c-.12,0-.22-.1-.22-.22v-.53s-.06-.08-.09-.08c-.04,0-.09.08-.14.13-.41.4-1.09.7-1.81.7-1.06,0-1.89-.56-1.89-1.57s.72-1.63,1.83-1.96c.82-.23,1.81-.27,1.96-.38.07-.05.13-.15.13-.55,0-.64-.21-1.17-.7-1.38-.14-.06-.29-.09-.47-.09-.05,0-.09,0-.13,0-.49.03-.95.32-1.11.9-.13.42-.13.51-.71.46-.33-.03-.38-.23-.29-.83.06-.38.36-.71.75-.93.39-.19.9-.32,1.51-.32.31,0,.59.03.86.1.58.17,1.06.51,1.41.95,0,0,.01.02.02.03h0ZM202.99,67.4c0-.38-.04-.49-.12-.49-.52,0-.94.05-1.3.16-.67.22-.96.66-.96,1.11,0,.52.39.82.93.82.86,0,1.45-.64,1.45-1.6Z"/>
        <path class="cls-17" d="M215.62,67.98c0,.77-.91,2.08-2.71,2.08s-3.07-1.32-3.07-3.18,1.29-3.47,3.23-3.47c1.6,0,2.45,1.14,2.45,2.29,0,.39-.19.62-.47.78-.75.46-2.43.61-3.35.65-.12,0-.16.03-.16.12,0,.54.49,1.59,1.8,1.59.97,0,1.54-.47,1.88-1.02.07-.09.16-.16.23-.16.1,0,.16.1.16.33ZM211.59,66.38c.48,0,1.79-.16,2.28-.5.15-.1.22-.23.22-.4,0-.71-.5-1.25-1.16-1.25-.89,0-1.54.9-1.54,1.83,0,.2.06.32.21.32Z"/>
        <path class="cls-17" d="M216.98,69.29c.14-.21.3-.42.36-.66.07-.35.03-.92.04-1.37,0-1.46,0-3.63,0-4.53,0-.85-1.37-1.01.14-1.62,1.16-.49,1.74-.53,1.58.89-.02.47-.03.98-.03,1.41,0,.95,0,3.67,0,4.72,0,.26,0,.49.1.73.08.29.64.7.42,1.02-.4.31-.99.16-1.46.19-.58.01-1.81.07-1.17-.75l.02-.03h0Z"/>
        <path class="cls-17" d="M225.76,68.74c.11-.36.07-.85.09-1.28.01-.8.01-1.71.01-2.52,0-.5,0-1.14-.01-1.49,0-.27,0-.53-.12-.78-.1-.35-.61-.73-.38-1.06.35-.32,1-.18,1.45-.2.83.01,1.64-.05,2.47-.01,1.23.05,2.49.4,2.78,1.5.19.66-.08,1.43-.59,1.87-.22.2-.47.35-.48.48.02.29.57.39.91.67.8.54,1.04,1.51.75,2.39-.35,1.13-1.43,1.54-2.53,1.66-1.04.11-2.12.01-3.18.02-.45-.04-1.43.17-1.65-.28v-.02c.02-.35.41-.61.49-.96h0ZM227.53,63.29c.02.41-.05,1.07.05,1.39v.02c.13.23.45.26.83.24,1.04,0,2.24-.44,1.96-1.69-.15-.64-.8-.88-1.58-.94-.34-.02-.74-.05-1.04.11-.26.14-.21.37-.22.87h0ZM229.64,65.98h-.03c-.37-.11-.79-.14-1.19-.15-.33-.04-.78.04-.85.36-.09.35-.04.68-.05,1.06.02.44-.06,1.3.07,1.55.11.2.37.25.61.29.8.06,1.87.05,2.39-.67.57-.9.14-2.17-.96-2.43Z"/>
        <path class="cls-17" d="M236.32,66c0,.58,0,1.27,0,1.94,0,.39-.03.74.15,1.06.15.3.65.75.07.98-.38.12-.61.04-.99.05-.34-.03-1.49.2-1.22-.48.15-.26.2-.48.3-.77.14-.41.06-.94.08-1.46-.03-.62.08-1.58-.07-2.1-.2-.46-1.01-.8-.15-1.16.42-.17.86-.37,1.3-.49.75-.09.57.66.56,1.2-.02.37-.03.85-.03,1.19v.02h0ZM235.74,60.97c.41,0,.78.32.77.74.02.68-.78,1.24-1.47,1.13-.52-.05-.68-.64-.46-1.06.18-.43.66-.81,1.13-.81h.03Z"/>
        <path class="cls-17" d="M243.67,67.98c0,.77-.91,2.08-2.71,2.08s-3.07-1.32-3.07-3.18,1.29-3.47,3.23-3.47c1.6,0,2.45,1.14,2.45,2.29,0,.39-.19.62-.47.78-.75.46-2.43.61-3.35.65-.12,0-.16.03-.16.12,0,.54.49,1.59,1.8,1.59.97,0,1.54-.47,1.88-1.02.07-.09.16-.16.23-.16.1,0,.16.1.16.33ZM239.64,66.38c.48,0,1.79-.16,2.28-.5.15-.1.22-.23.22-.4,0-.71-.5-1.25-1.16-1.25-.89,0-1.54.9-1.54,1.83,0,.2.06.32.21.32Z"/>
        <path class="cls-17" d="M251.31,68.77c.05.49.76,1.1-.26,1.28-.41.04-.66,0-1.07.02-.53.02-.58-.23-.41-.76.18-.61.08-1.26.12-1.9.04-.7.04-1.57-.21-2.07-.33-.76-1.36-.83-1.99-.3-.43.32-.6.84-.57,1.35v1.72c0,.32-.01.64.14.93.13.28.27.48.24.74-.03.18-.09.24-.26.26-.55.04-1.08,0-1.63.02-.23-.01-.39-.05-.43-.32,0-.29.27-.64.35-.99.13-.73.03-1.54.06-2.3-.02-.5.09-1.14-.18-1.41-.05-.06-.11-.13-.17-.19-.57-.52.19-.77.67-.97.83-.38.93-.11,1.25.54.16.24.46-.2.79-.36.3-.19.75-.37,1.14-.43,1.1-.19,2.11.36,2.35,1.55.27,1.17.04,2.55.09,3.55v.02s0,0,0,0Z"/>
        <path class="cls-17" d="M258.46,67.98c0,.77-.91,2.08-2.71,2.08s-3.07-1.32-3.07-3.18,1.29-3.47,3.23-3.47c1.6,0,2.45,1.14,2.45,2.29,0,.39-.19.62-.47.78-.75.46-2.43.61-3.35.65-.12,0-.16.03-.16.12,0,.54.49,1.59,1.8,1.59.97,0,1.54-.47,1.88-1.02.07-.09.16-.16.23-.16.1,0,.16.1.16.33ZM254.43,66.38c.48,0,1.79-.16,2.28-.5.15-.1.22-.23.22-.4,0-.71-.5-1.25-1.16-1.25-.89,0-1.54.9-1.54,1.83,0,.2.06.32.21.32Z"/>
        <path class="cls-17" d="M262.61,66.03c1.43.43,2.54,1.25,2,2.78-.67,1.59-3.6,1.69-4.71.49-.27-.27-.5-1.32.07-1.33.24.04.5.38.78.63.41.37.98.61,1.56.55.81-.06,1.08-.92.4-1.36-.75-.5-1.82-.64-2.46-1.28-.67-.64-.61-1.83.1-2.42.74-.66,2.06-.79,3.06-.46.53.15.97.57.99,1.15.01.31-.12.56-.32.55-.52-.09-.76-.67-1.29-.87-.22-.1-.46-.16-.7-.15-.61,0-1.1.46-.82.98.18.34.74.55,1.29.74h.04Z"/>
        <path class="cls-17" d="M270.56,68.28c.08,0,.17.06.17.26,0,.12-.04.28-.14.45-.23.45-.81,1.08-1.88,1.08-1.13,0-1.71-.75-1.71-2.26,0-.57.08-2.2.08-2.82,0-.24-.06-.35-.25-.38-.46-.06-.73-.09-.73-.33,0-.19.07-.35.28-.45.38-.17.76-.38,1.04-.69.48-.54.52-1.21.87-1.21.2,0,.33.17.33.49,0,.25-.06,1.22-.06,1.26,0,.03,0,.05.06.05.11,0,1.34-.06,1.48-.06.25,0,.4.07.4.36,0,.21-.12.49-.23.6-.04.04-.11.08-.21.08-.13,0-1.23-.06-1.4-.06-.04,0-.09.01-.1.11-.02.23-.06,2.01-.06,2.65,0,.71.15,1.47.93,1.47.4,0,.7-.25.87-.43.09-.1.14-.15.23-.15h0Z"/>
        <path class="cls-17" d="M277.15,64.45c.25.39.39.88.39,1.46,0,.25,0,.51-.02.78v3.11s-.01.07-.03.1c-.04.07-.11.11-.19.11h-1.05c-.12,0-.22-.1-.22-.22v-.53s-.06-.08-.09-.08c-.04,0-.09.08-.14.13-.41.4-1.09.7-1.81.7-1.06,0-1.89-.56-1.89-1.57s.72-1.63,1.83-1.96c.82-.23,1.81-.27,1.96-.38.07-.05.13-.15.13-.55,0-.64-.21-1.17-.7-1.38-.14-.06-.29-.09-.47-.09-.05,0-.09,0-.13,0-.49.03-.95.32-1.11.9-.13.42-.13.51-.71.46-.33-.03-.38-.23-.29-.83.06-.38.36-.71.75-.93.39-.19.9-.32,1.51-.32.31,0,.59.03.86.1.58.17,1.06.51,1.41.95,0,0,.01.02.02.03h0ZM276.02,67.4c0-.38-.04-.49-.12-.49-.52,0-.94.05-1.3.16-.67.22-.96.66-.96,1.11,0,.52.39.82.93.82.86,0,1.45-.64,1.45-1.6Z"/>
        <path class="cls-17" d="M280.8,66.16c-.04.48,0,1.08-.02,1.59,0,.55,0,.65.07,1.03.09.37.15.38.3.58.08.1.19.26.2.39.02.24-.24.35-.39.34-.61,0-.95,0-1.57-.02-1.02-.14-.34-.77-.2-1.26.1-.31.06-.5.07-.95,0-.49,0-1.06,0-1.56-.02-.41.07-.95-.14-1.21-.11-.15-.29-.29-.38-.45-.16-.33.29-.49.56-.62.28-.11.56-.27.86-.3.38-.05.52.5.65.72.03.05.08.09.14.08.17-.07.26-.2.46-.35.32-.25.76-.47,1.18-.51,1.24-.21,1.69,1.38.89,2.1-.19.17-.51.29-.74.12-.23-.16-.3-.64-.53-.85-.66-.51-1.36.52-1.41,1.11v.02h0Z"/>
      </g>
      <g>
        <path class="cls-17" d="M25.65,21.26c11.31,3.46,20.04,10.17,15.81,22.59-5.33,12.89-28.5,13.74-37.22,3.94-2.09-2.23-3.98-10.73.57-10.8,1.92.3,3.96,3.07,6.2,5.12,3.23,2.99,7.75,4.93,12.3,4.44,6.4-.53,11.92-5.79,6.32-11.82-4.86-5.24-15.7-5.39-20.79-10.55-5.31-5.19-5.75-13.77-.11-18.52C14.6.27,24.12-.9,32.01,1.71c4.17,1.26,7.69,4.66,7.8,9.33.11,2.54-.93,4.51-2.51,4.46-4.08-.75-5.99-5.45-10.18-7.05-1.71-.8-3.62-1.26-5.49-1.25-4.85-.06-8.68,3.73-6.47,7.92,1.46,2.73,5.85,4.44,10.18,6.02l.31.11h0Z"/>
        <path class="cls-17" d="M61.32,29.9c0,3.46,0,7.57,0,11.53.02,2.3-.15,4.42.88,6.31.87,1.79,3.85,4.45.43,5.82-2.25.7-3.6.24-5.88.32-2.02-.19-8.87,1.16-7.25-2.83.87-1.55,1.2-2.83,1.77-4.57.84-2.45.36-5.59.48-8.65-.2-3.68.47-9.38-.41-12.47-1.19-2.75-5.99-4.73-.9-6.91,2.52-.98,5.12-2.2,7.72-2.89,4.46-.51,3.41,3.89,3.34,7.14-.09,2.19-.16,5.03-.17,7.08v.13h0ZM57.9,0c2.41-.02,4.62,1.89,4.58,4.37.1,4.06-4.64,7.35-8.71,6.7-3.09-.3-4.01-3.78-2.76-6.28C52.09,2.22,54.91,0,57.72,0h.17Z"/>
        <path class="cls-17" d="M72.01,47.23c.69-1.32.9-2.78.95-4.26.26-8.63.3-20.48.09-29.23-.07-2-.69-3.79-1.74-5.48-1.17-1.88-2.53-4.17-.11-5.23,3.85-1.01,7.85-.11,12.42-.32,6.22.16,13.27-.25,19.13,0,3.58.42,4.37,4.81,4.78,7.85.57,2.41.97,8.85-2.83,5.41-1.65-1.69-2.55-4.19-4.44-5.68-3.1-2.46-11.45-3.09-15.3-1.1-2.47,1.67-1.75,4.69-1.91,8.11-.28,6.04,2.84,7.31,8.22,5.5,2.23-.65,3.65-3.3,5.39-3.21,2.09.56,1.73,3.71,1.88,5.52-.03,2.3.18,5.39-.34,7.44l-.05.16c-1.6,3.81-4.23-1.17-6.25-2.09-2.3-1.16-5.9-1.76-7.82.3-1.58,2.08-.9,6.43-1.04,9.79-.17,4.67,1.06,7.19,6.29,7.34,5.53.29,12.33-.31,15.08-5.73.54-.82,1.12-1.76,1.74-2.48,1.66-2.08,3.15-1.24,3.33.63.22,3.27-.33,6.83-1.16,10-1.09,3.74-5.01,3.44-8.62,3.31-3.09-.04-6.76-.09-9.94-.08-5.21-.04-11.41.16-16.23.11-5.75-.42-3.56-3.18-1.52-6.54h0Z"/>
        <path class="cls-17" d="M138.74,21.26c11.31,3.46,20.04,10.17,15.81,22.59-5.33,12.89-28.5,13.74-37.22,3.94-2.09-2.23-3.98-10.73.57-10.8,1.92.3,3.96,3.07,6.2,5.12,3.23,2.99,7.75,4.93,12.3,4.44,6.4-.53,11.92-5.79,6.32-11.82-4.86-5.24-15.7-5.39-20.79-10.55-5.31-5.19-5.75-13.77-.11-18.52,5.85-5.38,15.38-6.56,23.26-3.94,4.17,1.26,7.69,4.66,7.8,9.33.11,2.54-.93,4.51-2.51,4.46-4.08-.75-5.99-5.45-10.18-7.05-1.71-.8-3.62-1.26-5.49-1.25-4.85-.06-8.68,3.73-6.47,7.92,1.46,2.73,5.85,4.44,10.18,6.02l.31.11h0Z"/>
        <path class="cls-17" d="M165.76,53.94c-2.77-.08-5.7.31-7.11-1.31-1.03-1.96,1.91-3.95,2.78-5.54.88-1.2,1.4-2.32,1.91-3.65,2.54-6.52,10.26-25.8,12.65-32.27l.05-.14c.74-2.18,1.19-5,2.91-6.76,2.11-2.25,6.2-3.55,8.39-1.01,3.68,7.19,12.72,32.1,16.07,39.89.53,1.34.84,2.19,1.8,3.48,1.14,1.55,3.62,4.13,3.02,5.61-.97,1.95-3.78,1.66-5.67,1.73-2.5-.05-5.26-.05-7.77-.01-1.84.02-5.68-.15-4.82-2.79.61-1.52,2.12-2.82,2.42-4.52.48-2.24-.93-5.27-2.44-6.57-1.21-1.01-2.85-.98-4.38-1.02-2.47,0-6.11,0-8.52,0-1.63.03-3.39.01-4.66,1.13-1.69,1.44-3.18,4.9-2.37,7.31.51,2.02,3.93,5.05.41,6.08-1.57.46-3.02.36-4.64.37h0ZM174.36,31.73c-.57,2.29,1.63,1.89,3.71,1.95,2.56-.12,7.21.3,9.36-.26l.09-.05c.88-.44.47-1.76-.21-3.87-.49-1.55-1.15-3.5-1.86-5.47-.79-1.56-2.77-9.55-4.58-8.52-.5.31-.87,1.06-1.16,1.68-1.79,4.18-4.53,11.74-5.34,14.54h0Z"/>
        <path class="cls-17" d="M212.84,46.21c.63-2.12.42-5.05.54-7.59.08-4.74.09-10.18.07-14.95-.01-2.99-.04-6.76-.07-8.87-.01-1.59-.04-3.14-.7-4.63-.61-2.07-3.63-4.33-2.28-6.3,2.05-1.88,5.92-1.05,8.63-1.18,4.93.09,9.73-.28,14.66-.08,7.33.3,14.8,2.4,16.49,8.91,1.11,3.92-.5,8.48-3.5,11.08-1.3,1.18-2.78,2.07-2.87,2.85.12,1.75,3.39,2.33,5.39,3.99,4.72,3.2,6.15,8.95,4.44,14.21-2.06,6.74-8.5,9.13-15.05,9.87-6.2.65-12.58.09-18.87.14-2.67-.25-8.53,1.04-9.81-1.67l-.02-.11c.13-2.11,2.43-3.63,2.95-5.68h0ZM223.37,13.78c.12,2.41-.29,6.34.3,8.28l.06.13c.73,1.34,2.64,1.53,4.85,1.43,6.19,0,13.29-2.61,11.66-10.02-.9-3.81-4.77-5.25-9.4-5.6-2.04-.11-4.39-.3-6.19.63-1.51.81-1.24,2.2-1.28,5.15h0ZM235.94,29.76l-.19-.06c-2.19-.63-4.7-.76-7.04-.86-1.97-.21-4.65.26-5.02,2.11-.52,2.11-.22,4.07-.3,6.29.12,2.6-.34,7.74.42,9.22.68,1.17,2.18,1.51,3.63,1.69,4.75.33,11.12.32,14.19-3.96,3.4-5.32.81-12.87-5.68-14.43Z"/>
        <path class="cls-17" d="M263.74,34.07c.04-3.66.04-6.76.04-10.16-.27-4.98.64-9.2-.84-13.49-.62-1.49-1.98-3.03-2.62-4.36-1.51-3.82,5.26-3.14,7.47-3.19,2.87.32,9.32-1.07,10.43,1.99.23,1.26-1.57,3.15-2.45,4.86-1.43,2.69-1.06,4.77-1.19,8.07-.08,8.22-.07,19.97.2,25.73-.14,2.86,1.64,5,3.15,7.27,1.68,3.05-2.98,3.27-4.98,3.28-2.99-.39-11.72,1.15-13-1.74l-.02-.11c-.04-1.47,1.44-2.69,2.16-3.91,1.5-2.11,1.44-4.15,1.52-7.05.06-2.37.1-4.78.12-7.16Z"/>
      </g>
    </g>
    <g>
      <path class="cls-17" d="M324.37,27.4c0,2.8-2.27,5.07-5.07,5.07h-8.11v8.11c0,2.8-2.27,5.07-5.07,5.07s-5.07-2.27-5.07-5.07v-13.18c0-2.8,2.27-5.07,5.07-5.07h13.18c2.8,0,5.07,2.27,5.07,5.07Z"/>
      <path class="cls-17" d="M311.19,14.22v13.18c0,2.8-2.27,5.07-5.07,5.07h-13.18c-2.8,0-5.07-2.27-5.07-5.07s2.27-5.07,5.07-5.07h8.11v-8.11c0-2.8,2.27-5.07,5.07-5.07s5.07,2.27,5.07,5.07Z"/>
    </g>
  </g>
</svg>