<?xml version="1.0" encoding="UTF-8"?>
<svg xmlns="http://www.w3.org/2000/svg" viewBox="0 0 416.19 409.73">
  <defs>
    <style>
      .cls-1 {
        fill: #9e6f7e;
      }

      .cls-2 {
        fill: #e6d194;
      }

      .cls-3 {
        opacity: .21;
      }

      .cls-3, .cls-4 {
        fill: #e0e0e0;
      }

      .cls-5 {
        fill: #98989a;
      }

      .cls-6 {
        fill: #ba8997;
      }

      .cls-7 {
        fill: #754b5a;
      }

      .cls-8 {
        fill: #27debf;
      }

      .cls-9 {
        fill: none;
        stroke: #000;
        stroke-miterlimit: 10;
      }

      .cls-9, .cls-10 {
        opacity: .15;
      }

      .cls-11 {
        opacity: .1;
      }

      .cls-11, .cls-12, .cls-13 {
        fill: #fff;
      }

      .cls-14 {
        fill: #611232;
      }

      .cls-15 {
        fill: #636363;
      }

      .cls-16 {
        fill: #ddd;
      }

      .cls-13 {
        font-family: MadrePatriaRegular, MadrePatria;
        font-size: 101px;
      }

      .cls-17 {
        fill: #fafafa;
      }

      .cls-18 {
        opacity: .4;
      }

      .cls-19 {
        opacity: .6;
      }

      .cls-20 {
        opacity: .5;
      }

      .cls-21 {
        opacity: .3;
      }

      .cls-22 {
        fill: #f0f0f0;
      }

      .cls-23 {
        fill: #161a1d;
      }

      .cls-24 {
        fill: #9b2247;
      }

      .cls-25 {
        fill: #a57f2c;
      }
    </style>
  </defs>
  <g id="Shadow">
    <path id="Shadow-2" data-name="Shadow" class="cls-3" d="M125.91,408.86l-35.46-20.48c-2-1.15-2-3.03,0-4.18l206.28-119.1c2-1.15,5.24-1.15,7.24,0l35.47,20.47c2,1.15,2,3.03,0,4.18l-206.28,119.1c-2,1.15-5.24,1.15-7.24,0Z"/>
  </g>
  <g id="Device">
    <g id="Device-2" data-name="Device">
      <g>
        <path class="cls-23" d="M253.39,372.37l30.49-17.63c3.14-1.81,4.71-4.19,4.71-6.57,0-2.38.01-4.24.01-4.24l-31.63-17.84c-1.68-.97-3.03-3.32-3.03-5.26v-37.59l-53.25,30.77v37.59c0,1.94,1.36,4.29,3.03,5.26l26.91,15.51c6.29,3.63,16.48,3.63,22.76,0Z"/>
        <g class="cls-19">
          <path d="M253.39,372.37l30.49-17.63c3.14-1.81,4.71-4.19,4.71-6.57,0-2.38.01-4.24.01-4.24l-31.63-17.84c-1.68-.97-3.03-3.32-3.03-5.26v-37.59l-53.25,30.77v37.59c0,1.94,1.36,4.29,3.03,5.26l26.91,15.51c6.29,3.63,16.48,3.63,22.76,0Z"/>
        </g>
        <path class="cls-21" d="M213.47,358.26v4.22l-9.76-5.62c-1.66-.96-3.03-3.31-3.03-5.26v-37.58l10.15-5.85c.21,2.58.44,5.24.65,7.83l-7.11,4.12v29.37c0,1.94,1.35,4.29,3.03,5.26l6.08,3.52Z"/>
        <path class="cls-8" d="M204.36,349.49c0,1.94,1.36,4.29,3.03,5.26l23.23,13.38c6.29,3.63,16.48,3.63,22.76,0l30.5-17.63c6.29-3.63,6.29-9.51,0-13.14l-23.25-13.39c-1.68-.97-3.03-3.32-3.03-5.26v-29.37s-53.25,30.77-53.25,30.77v29.37Z"/>
        <path class="cls-5" d="M204.36,349.49c0,1.94,1.36,4.29,3.03,5.26l23.23,13.38c6.29,3.63,16.48,3.63,22.76,0l30.5-17.63c6.29-3.63,6.29-9.51,0-13.14l-23.25-13.39c-1.68-.97-3.03-3.32-3.03-5.26v-29.37s-53.25,30.77-53.25,30.77v29.37Z"/>
        <path class="cls-20" d="M266.83,327.55h0s-6.18-3.57-6.18-3.57c-1.68-.97-3.03-3.32-3.03-5.26v-29.37s-53.25,30.77-53.25,30.77v29.37c0,1.94,1.36,4.29,3.04,5.26l6.07,3.51,53.36-30.71Z"/>
        <path class="cls-8" d="M288.6,343.93v4.24c0,2.38-1.58,4.75-4.71,6.57l-30.49,17.62c-3.01,1.75-6.92,2.63-10.86,2.7v-4.22c3.94-.05,7.85-.96,10.86-2.7l30.49-17.64c3.14-1.8,4.71-4.19,4.71-6.57Z"/>
        <path class="cls-15" d="M288.6,343.93v4.24c0,2.38-1.58,4.75-4.71,6.57l-30.49,17.62c-3.01,1.75-6.92,2.63-10.86,2.7v-4.22c3.94-.05,7.85-.96,10.86-2.7l30.49-17.64c3.14-1.8,4.71-4.19,4.71-6.57Z"/>
      </g>
      <path class="cls-8" d="M118.86,386c1.97,1.13,5.26,1.07,7.35-.14,26.18-15.11,179.76-103.78,205.94-118.9,2.1-1.21,3.79-4.15,3.79-6.57V93.8c0-2.42-1.59-5.3-3.56-6.43-1.97-1.13-5.26-1.07-7.35.14l-205.94,118.9c-2.1,1.21-3.79,4.15-3.79,6.57v166.6c0,2.42,1.59,5.3,3.56,6.43Z"/>
      <path class="cls-8" d="M126.21,385.86l205.94-118.9c2.1-1.21,3.79-4.15,3.79-6.57V93.79c0-2.42-1.7-3.4-3.79-2.19l-205.94,118.9c-2.1,1.21-3.79,4.15-3.79,6.57v166.6c0,2.42,1.7,3.4,3.79,2.19Z"/>
      <path class="cls-5" d="M126.21,385.86l205.94-118.9c2.1-1.21,3.79-4.15,3.79-6.57V93.79c0-2.42-1.7-3.4-3.79-2.19l-205.94,118.9c-2.1,1.21-3.79,4.15-3.79,6.57v166.6c0,2.42,1.7,3.4,3.79,2.19Z"/>
      <path class="cls-8" d="M125.65,390.19c-2.1.93-5.01.89-6.8-.14-1.96-1.14-3.56-4.01-3.56-6.45v-15.17l7.11,4.12v15.17c0,2.21,1.4,3.21,3.24,2.47Z"/>
      <path class="cls-16" d="M125.65,390.19c-2.1.93-5.01.89-6.8-.14-1.96-1.14-3.56-4.01-3.56-6.45v-15.17l7.11,4.12v15.17c0,2.21,1.4,3.21,3.24,2.47Z"/>
      <path class="cls-8" d="M122.41,372.55v15.16c0,2.42,1.7,3.4,3.8,2.19l205.94-118.9c2.1-1.21,3.79-4.15,3.79-6.57v-15.2l-213.53,123.31Z"/>
      <path class="cls-5" d="M122.42,372.52v15.2c0,2.42,1.7,3.4,3.79,2.19l205.94-118.9c2.1-1.21,3.79-4.15,3.79-6.57v-15.2l-213.53,123.28Z"/>
      <path class="cls-8" d="M129.53,353.52v-134.09c0-1.45,1.02-3.22,2.28-3.94l194.73-112.43c1.26-.73,2.28-.14,2.28,1.31v134.09c0,1.45-1.01,3.22-2.27,3.94l-194.74,112.43c-1.26.73-2.28.14-2.28-1.31Z"/>
      <path class="cls-12" d="M129.53,353.52v-134.09c0-1.45,1.02-3.22,2.28-3.94l194.73-112.43c1.26-.73,2.28-.14,2.28,1.31v134.09c0,1.45-1.01,3.22-2.27,3.94l-194.74,112.43c-1.26.73-2.28.14-2.28-1.31Z"/>
      <path class="cls-8" d="M229.18,315.72c-1.97,1.14-3.56,3.9-3.56,6.17s1.59,3.19,3.56,2.05c1.97-1.14,3.56-3.9,3.56-6.17,0-2.27-1.59-3.19-3.56-2.05Z"/>
      <path class="cls-12" d="M123.53,213.32c-.68,1.19-1.1,2.54-1.12,3.75v155.48l-7.11-4.12v-155.46c0-1.21.44-2.56,1.12-3.75l7.11,4.1Z"/>
      <path class="cls-12" d="M335.9,93.17c-.27-1.96-1.85-2.66-3.76-1.57l-205.93,118.9c-1.04.6-1.98,1.62-2.68,2.82l-7.11-4.11c.69-1.18,1.63-2.22,2.68-2.82l205.93-118.89c2.1-1.21,5.38-1.27,7.36-.13,1.79,1.03,3.27,3.53,3.52,5.8Z"/>
    </g>
  </g>
  <g id="Window">
    <g id="Window-2" data-name="Window">
      <g id="Window-3" data-name="Window">
        <g id="Window-4" data-name="Window">
          <path class="cls-8" d="M347.02,113.67c-.5-.3-1.17-.29-1.93.15l-194.33,112.21c-1.47.85-2.66,2.91-2.66,4.6v133.27c0,1.03.44,1.95,1.12,2.31.43.23,2.72,1.56,3.4,1.93.43.23.97.24,1.54-.09l194.32-112.25c1.47-.85,2.66-2.91,2.66-4.6V117.28c0-.87-.32-1.48-.82-1.75-.48-.25-2.81-1.57-3.3-1.87Z"/>
          <g>
            <g>
              <path class="cls-17" d="M153.28,367.81c-.71,0-1.28-.89-1.28-1.98v-133.27c0-1.51,1.1-3.42,2.41-4.17l194.32-112.21c.33-.19.66-.3.94-.3.9,0,.97,1.07.97,1.4v133.91c0,1.51-1.1,3.42-2.41,4.17l-194.32,112.25c-.22.13-.43.19-.63.19Z"/>
              <path class="cls-4" d="M349.67,116.38c.41,0,.47.56.47.9v133.91c0,1.33-1.01,3.07-2.16,3.73l-194.32,112.25c-.14.08-.27.12-.38.12-.37,0-.78-.63-.78-1.48v-133.27c0-1.33,1.01-3.07,2.16-3.74l194.32-112.21c.26-.15.5-.23.69-.23M349.67,115.38c-.36,0-.76.12-1.19.36l-194.32,112.21c-1.47.85-2.66,2.91-2.66,4.6v133.27c0,1.34.74,2.48,1.78,2.48.27,0,.57-.08.88-.26l194.32-112.25c1.47-.85,2.66-2.91,2.66-4.6V117.28c0-1.2-.6-1.9-1.47-1.9h0Z"/>
            </g>
            <path class="cls-22" d="M149.22,366.21c.29.15,2.35,1.33,3.26,1.85-.61-.44-.93-1.18-.98-2.23v-124.57l-3.4-1.99v124.64c0,1.03.44,1.95,1.12,2.31Z"/>
          </g>
          <g>
            <path class="cls-14" d="M351.14,117.26c-.01-1.68-1.19-2.36-2.66-1.51l-194.32,112.21c-1.47.85-2.66,2.91-2.66,4.6v8.7s199.64-115.27,199.64-115.27v-8.73Z"/>
            <path class="cls-24" d="M348.48,115.75l-194.32,112.21c-.73.43-1.4,1.15-1.87,1.97l-3.38-1.96c.48-.82,1.13-1.53,1.85-1.94l194.33-112.21c.76-.44,1.44-.45,1.93-.16.48.29,2.68,1.55,3.24,1.85-.47-.23-1.1-.16-1.78.23Z"/>
            <path class="cls-24" d="M148.1,239.27v-8.64c0-.86.32-1.81.81-2.66l3.39,1.95c-.49.84-.79,1.78-.79,2.64v8.69l-3.4-1.98Z"/>
          </g>
        </g>
      </g>
      <g>
        <g>
          <path class="cls-8" d="M310.16,217.72l-116.39,67.2c-1.07.62-1.94,2.13-1.94,3.36v33.37c0,1.24.87,2.74,1.94,3.36l3.4,1.96c1.07.62,2.81.62,3.89,0l116.37-67.19c1.07-.62,1.94-2.13,1.94-3.36v-33.38c.01-1.24-.86-2.74-1.93-3.36l-3.4-1.96c-1.07-.62-2.81-.62-3.89,0Z"/>
          <path class="cls-7" d="M319.37,222.72c-.13-1-.95-1.37-1.93-.81l-116.38,67.19c-.54.3-1.02.84-1.37,1.45l-7.28-4.21c.35-.6.83-1.13,1.36-1.44l116.39-67.19c1.07-.62,2.81-.63,3.88,0l3.4,1.96c.99.57,1.8,1.88,1.93,3.05Z"/>
          <path class="cls-7" d="M200.73,327.12c-1.08.46-2.58.4-3.55-.15l-3.4-1.96c-1.08-.62-1.95-2.13-1.95-3.36v-33.36c0-.63.22-1.32.57-1.93l7.28,4.21c-.36.61-.57,1.29-.57,1.91v33.37c0,1.11.7,1.62,1.61,1.27Z"/>
          <path class="cls-14" d="M201.06,289.11l116.39-67.2c1.07-.62,1.94-.12,1.94,1.12v33.38c-.01,1.24-.88,2.74-1.96,3.36l-116.37,67.19c-1.07.62-1.94.12-1.94-1.12v-33.37c0-1.24.87-2.74,1.94-3.36Z"/>
          <path class="cls-1" d="M279.3,235.53l-85.54,49.38c-.53.3-1.01.83-1.36,1.44l7.28,4.21c.35-.61.83-1.15,1.37-1.45l85.52-49.37-7.27-4.2Z"/>
          <path class="cls-6" d="M286.57,239.73l-85.52,49.37c-1.07.62-1.94,2.13-1.94,3.36v33.37c0,1.24.87,1.74,1.94,1.12l85.52-49.37v-37.85Z"/>
        </g>
        <path class="cls-14" d="M220.78,285.04l44.13-25.48c1.83-1.06,3.31-.31,3.31,1.68,0,1.98-1.48,4.45-3.31,5.5l-44.12,25.47c-1.83,1.06-3.31.31-3.31-1.67s1.48-4.44,3.31-5.5Z"/>
        <g>
          <path class="cls-17" d="M229.82,293.48c.05-.03.09-.02.13.02.04.04.06.11.06.2v4.97c0,.5-.04.98-.12,1.43-.08.45-.2.87-.37,1.25-.16.39-.37.73-.61,1.03-.25.3-.53.54-.85.73-.33.19-.61.28-.86.26-.24-.02-.45-.12-.61-.32-.16-.2-.29-.47-.37-.83-.08-.36-.12-.79-.12-1.29v-4.97c0-.09.02-.18.06-.26.04-.09.08-.14.13-.17l.55-.32s.09-.02.13.02c.04.04.05.11.05.2v4.91c0,.33.03.6.08.8.05.21.12.36.21.45.09.1.2.14.33.14.13,0,.27-.05.42-.14.15-.09.29-.2.42-.35.13-.14.24-.32.33-.52.09-.2.16-.43.21-.7s.08-.56.08-.89v-4.91c0-.09.02-.18.05-.26.04-.09.08-.14.13-.17l.54-.31Z"/>
          <path class="cls-17" d="M233.24,298.18c0-.09-.02-.15-.05-.19-.03-.04-.09-.06-.17-.06-.08,0-.19,0-.32.04-.13.03-.3.06-.5.1-.2.04-.37.03-.5-.02-.13-.05-.24-.13-.32-.24-.08-.12-.13-.27-.17-.46-.03-.19-.05-.4-.05-.64s.03-.5.1-.77c.06-.27.16-.53.28-.78.12-.25.27-.48.44-.7.17-.21.37-.38.59-.51.22-.13.42-.2.6-.21.18-.01.32.02.45.09.12.08.22.19.29.34.07.15.11.32.12.51,0,.09-.01.17-.05.26s-.08.14-.13.17l-.52.3c-.07.04-.12.05-.15.02-.03-.02-.07-.05-.11-.09-.04-.03-.1-.05-.16-.06-.07,0-.17.03-.31.11s-.26.18-.36.32c-.11.13-.16.29-.16.48,0,.09.01.16.04.2.02.05.07.07.14.08.07,0,.17,0,.29-.02.12-.02.29-.05.49-.09.4-.08.69,0,.86.23.17.23.25.59.25,1.07,0,.24-.03.5-.1.77s-.17.53-.3.79c-.13.26-.29.49-.48.71-.19.22-.4.4-.64.53-.24.14-.45.21-.64.22-.18,0-.34-.04-.47-.12-.13-.09-.23-.21-.29-.38-.07-.16-.11-.34-.11-.53,0-.09.01-.17.05-.26s.08-.14.13-.17l.53-.3c.07-.04.12-.04.15,0,.03.04.07.08.12.13.04.05.1.08.18.09.08.01.19-.03.35-.12.07-.04.14-.09.21-.15.07-.06.14-.12.2-.19.06-.07.11-.15.15-.23s.06-.17.06-.26Z"/>
          <path class="cls-17" d="M235.02,295.8c0-.45.04-.9.12-1.34.08-.44.19-.86.33-1.24.15-.38.32-.71.53-1,.21-.29.44-.51.69-.65.25-.15.48-.2.69-.15.21.05.38.17.53.36.14.19.26.46.34.79.08.33.12.7.12,1.11v.54c0,.09-.02.18-.06.26-.04.09-.08.14-.13.17l-2.28,1.31c0,.19.02.34.07.45.04.12.1.2.17.26.07.06.16.08.25.07.1,0,.19-.04.29-.1.14-.08.26-.18.35-.28.09-.1.17-.21.23-.33.05-.09.09-.16.12-.2.03-.04.08-.08.13-.11l.55-.32s.09-.02.13.02c.04.04.06.11.05.2,0,.12-.04.28-.11.5-.07.22-.16.45-.3.69-.13.25-.29.49-.49.72-.19.23-.42.42-.67.57-.25.15-.49.2-.69.16-.21-.04-.38-.16-.53-.37-.15-.21-.26-.49-.33-.84-.08-.35-.12-.78-.12-1.26ZM236.69,293.02c-.13.08-.24.18-.34.3-.09.12-.17.26-.24.4-.06.15-.11.3-.15.45-.03.15-.06.29-.07.42l1.54-.89c0-.12-.03-.23-.05-.35-.02-.12-.07-.22-.12-.29-.06-.08-.13-.12-.23-.14-.09-.01-.21.02-.36.1Z"/>
          <path class="cls-17" d="M241.11,290.59c-.27.16-.47.38-.59.66-.12.28-.18.67-.18,1.15v3.15c0,.09-.02.18-.05.26-.04.09-.08.14-.13.17l-.52.3s-.09.02-.13-.02c-.04-.04-.06-.11-.06-.2v-5.65c0-.09.02-.18.06-.26.04-.09.08-.14.13-.17l.52-.3c.05-.03.09-.02.13.02.04.04.05.11.05.2v.28c.12-.26.24-.48.38-.67.13-.18.31-.34.53-.46l.31-.18s.09-.02.13.02c.04.04.05.11.05.2v.8c0,.09-.02.18-.05.26-.04.09-.08.14-.13.17l-.44.26Z"/>
          <path class="cls-17" d="M247.62,290.17s.09-.02.13.02c.04.04.05.11.05.2v.86c0,.09-.02.18-.05.26-.04.09-.08.14-.13.17l-2.99,1.72c-.05.03-.09.02-.13-.02-.04-.04-.05-.11-.05-.2v-7.83c0-.09.02-.18.05-.26.04-.09.08-.14.13-.17l.55-.32s.09-.02.13.02c.04.04.06.11.06.2v6.64l2.25-1.3Z"/>
          <path class="cls-17" d="M250.3,283.71c.25-.14.48-.21.68-.19.2.02.38.11.52.27.15.16.27.37.35.64.09.27.14.59.15.95,0,.07,0,.16,0,.28v.67c0,.11,0,.2,0,.28-.02.38-.07.76-.16,1.13s-.2.72-.35,1.05c-.15.32-.32.61-.52.87-.2.25-.43.45-.68.6-.25.14-.48.21-.68.19-.2-.02-.38-.11-.52-.26-.15-.15-.27-.37-.35-.64-.09-.27-.14-.59-.16-.95,0-.07,0-.16,0-.27,0-.11,0-.22,0-.33s0-.23,0-.34c0-.11,0-.21,0-.28.01-.38.07-.76.15-1.13.09-.37.21-.73.36-1.05.15-.33.32-.62.52-.87.2-.25.43-.45.68-.6ZM251.12,285.96c-.01-.24-.05-.43-.1-.57-.05-.13-.12-.23-.19-.28-.08-.05-.16-.07-.25-.05-.09.02-.18.05-.28.11-.09.05-.19.13-.28.22-.09.09-.18.2-.25.35-.08.14-.14.31-.19.51-.05.2-.08.42-.1.68,0,.07,0,.15,0,.25,0,.1,0,.2,0,.3s0,.21,0,.31c0,.1,0,.18,0,.23.01.24.05.43.1.57.05.14.12.23.19.28.08.05.16.07.25.05.09-.02.18-.05.28-.11.1-.06.19-.13.28-.22s.17-.2.25-.35c.08-.14.14-.31.19-.51.05-.2.09-.42.1-.68,0-.06,0-.14,0-.24v-.61c0-.1,0-.18,0-.24Z"/>
          <path class="cls-17" d="M254.68,288.82c.1-.05.19-.14.29-.25.1-.11.19-.24.27-.41.08-.16.15-.34.2-.55s.08-.42.08-.66v-.45c-.04.09-.08.2-.14.32-.06.12-.13.24-.21.36-.08.12-.18.24-.29.35-.11.11-.24.21-.38.29-.23.13-.43.17-.62.12-.18-.05-.34-.17-.47-.36-.13-.19-.23-.43-.31-.73-.08-.3-.12-.63-.13-1,0-.12,0-.26,0-.42s0-.3,0-.43c0-.38.05-.76.13-1.15.07-.39.18-.75.31-1.09s.29-.64.47-.9c.18-.26.39-.46.62-.59.14-.08.27-.13.38-.15.11-.02.21-.01.29.01.08.02.16.06.21.11.06.05.11.1.14.15v-.28c0-.09.02-.18.05-.26.04-.09.08-.14.13-.17l.52-.3s.09-.02.13.02c.04.04.06.11.06.2v5.68c0,.98-.15,1.8-.46,2.48s-.73,1.17-1.27,1.48c-.23.13-.45.2-.64.21-.2,0-.37-.04-.51-.14-.15-.1-.26-.24-.35-.42-.09-.18-.13-.39-.14-.63,0-.09.01-.17.05-.26.04-.09.08-.15.13-.17l.46-.27c.06-.04.12-.03.16.02.05.05.08.1.12.15.06.1.14.17.24.2.1.03.26-.02.48-.14ZM253.86,284.59c-.01.23-.01.46,0,.68.03.51.12.83.27.97.15.14.34.15.57.02.22-.13.41-.35.56-.68.15-.32.24-.71.26-1.16,0-.13.01-.28.01-.47s0-.34-.01-.45c-.02-.41-.11-.69-.26-.84-.15-.15-.34-.17-.56-.04-.22.13-.41.35-.57.67-.16.32-.25.75-.27,1.29Z"/>
          <path class="cls-17" d="M258.43,276.84s.09-.02.13.02c.04.04.06.11.06.2v.95c0,.09-.02.18-.06.26-.04.09-.08.14-.13.17l-.59.34s-.09.02-.13-.02c-.04-.04-.06-.11-.06-.2v-.95c0-.09.02-.18.06-.26.04-.08.08-.14.13-.17l.59-.34ZM258.58,285.03c0,.09-.02.18-.06.26-.04.09-.08.14-.13.17l-.52.3c-.05.03-.09.02-.13-.02-.04-.04-.06-.11-.06-.2v-5.65c0-.09.02-.18.06-.26.04-.09.08-.14.13-.17l.52-.3s.09-.02.13.02c.04.04.06.11.06.2v5.65Z"/>
          <path class="cls-17" d="M263.19,282.37c0,.09-.02.18-.05.26-.04.09-.08.14-.13.17l-.52.3c-.05.03-.09.02-.13-.02-.04-.04-.05-.11-.05-.2v-3.08c0-.48-.06-.84-.19-1.05-.13-.22-.32-.25-.59-.1-.24.14-.43.39-.57.76-.14.37-.21.8-.21,1.28v3.08c0,.09-.02.18-.05.26-.04.09-.08.14-.13.17l-.52.3c-.05.03-.09.02-.13-.02-.04-.04-.06-.11-.06-.2v-5.65c0-.09.02-.18.06-.26.04-.09.08-.14.13-.17l.52-.3s.09-.02.13.02c.04.04.05.11.05.2v.28c.12-.28.26-.53.42-.76.16-.23.35-.41.57-.53.28-.16.51-.22.69-.17.19.05.34.17.45.36.11.19.19.45.24.76.05.32.07.66.07,1.04v3.26Z"/>
        </g>
        <g>
          <path class="cls-1" d="M307.21,256.97l-8.48,4.89,1.31-11.89c-1.01-.54-1.66-1.86-1.66-3.75,0-3.38,2.05-7.3,4.59-8.76,2.53-1.46,4.58.09,4.58,3.47,0,1.89-.65,3.96-1.66,5.67l1.31,10.37Z"/>
          <polygon class="cls-6" points="307.21 256.97 299.75 252.66 298.73 261.86 307.21 256.97"/>
          <path class="cls-6" d="M302.97,237.46c-1.66.96-3.1,2.97-3.91,5.19l6.83,3.95h0c1.01-1.71,1.66-3.77,1.66-5.67,0-3.38-2.05-4.93-4.58-3.47Z"/>
        </g>
      </g>
      <g>
        <g>
          <path class="cls-8" d="M261.76,197.89c-2.9-1.68-6.9-1.44-11.33,1.12-8.85,5.11-16.02,17.53-16.02,27.75,0,5.13,1.81,8.72,4.73,10.39.76.43,4.88,2.83,5.65,3.27,2.9,1.68,6.9,1.44,11.33-1.12,8.85-5.11,16.02-17.53,16.02-27.75,0-5.11-1.79-8.69-4.69-10.37"/>
          <path class="cls-14" d="M256.11,202.3c-8.85,5.11-16.02,17.53-16.02,27.75,0,10.22,7.17,14.36,16.02,9.25,8.85-5.11,16.03-17.53,16.02-27.75,0-10.22-7.18-14.36-16.02-9.25Z"/>
          <path class="cls-8" d="M264.96,224.97v1.17c-2.28,3.89-5.4,7.28-8.84,9.27-3.45,1.99-6.56,2.2-8.84.94v-2.42c0-4.66,3.17-10.15,7.21-12.49l2.33-1.34c2.06-1.19,4.07-1.34,5.64-.43,1.61.92,2.52,2.85,2.52,5.31Z"/>
          <path class="cls-6" d="M261.76,197.89l5.68,3.29c-2.9-1.68-6.91-1.44-11.33,1.12-5.79,3.35-10.87,9.83-13.68,16.78l-5.68-3.29c2.81-6.95,7.89-13.43,13.68-16.77,4.43-2.55,8.43-2.79,11.33-1.12Z"/>
          <path class="cls-7" d="M244.57,240.29c-1-.58-4.73-2.75-5.43-3.15-2.92-1.66-4.73-5.26-4.73-10.38l5.68,3.29c0,4.98,1.71,8.52,4.48,10.24Z"/>
          <path class="cls-1" d="M236.75,215.78l5.68,3.29c-1.48,3.66-2.34,7.45-2.34,10.97h0s-5.68-3.29-5.68-3.29c0-3.53.86-7.32,2.34-10.98Z"/>
        </g>
        <g>
          <path class="cls-12" d="M254.1,219.55c-.55,0-1.07-.13-1.54-.4-1.08-.62-1.67-1.86-1.67-3.48,0-2.96,2.01-6.44,4.58-7.92h0c1.4-.81,2.76-.91,3.85-.29,1.08.62,1.67,1.86,1.67,3.48,0,2.96-2.01,6.44-4.57,7.92-.8.46-1.58.69-2.31.69Z"/>
          <path class="cls-12" d="M262.44,219.66c-1.57-.91-3.57-.76-5.64.43l-2.33,1.34c-4.04,2.34-7.21,7.83-7.21,12.49v2.42c2.28,1.27,5.4,1.05,8.84-.94,3.44-1.98,6.56-5.37,8.84-9.27v-1.17c0-2.45-.91-4.38-2.52-5.31Z"/>
        </g>
      </g>
    </g>
    <text class="cls-13" transform="translate(0 83.48)"><tspan x="0" y="0">SiESABI</tspan></text>
  </g>
  <g id="Character">
    <g id="Character-2" data-name="Character">
      <g>
        <g>
          <polyline class="cls-8" points="341.63 283.04 347.09 279.88 349.26 277.26 343.79 280.41 341.63 283.04"/>
          <polyline class="cls-1" points="341.63 283.04 347.09 279.88 349.26 277.26 343.79 280.41 341.63 283.04"/>
        </g>
        <g>
          <polyline class="cls-8" points="356.5 291.63 361.97 288.47 366.54 284.43 361.07 287.58 356.5 291.63"/>
          <polyline class="cls-1" points="356.5 291.63 361.97 288.47 366.54 284.43 361.07 287.58 356.5 291.63"/>
        </g>
        <path class="cls-7" d="M402.98,302.53c1.2,1.52,2.07,3.76,2.26,5.95-1.2-1.52-2.07-3.76-2.26-5.95ZM415.69,302.7c-1.84-12.52-8.57-24.91-16.59-29.54-3.85-2.22-7.41-2.31-10.26-.64-.83.48-3.93,2.27-5.15,2.97-.1.05-.2.11-.29.17-.22.13-.45.27-.66.42-.41.29-.81.61-1.18.98-.05.04-.11.11-.17.16-.16.16-.32.34-.48.52-.19.22-.38.44-.55.67-.36.48-.7.99-1,1.54-.15.27-.31.56-.45.85l-44.95-25.95-5.46,3.15v3.48l.47.27.43.25v.74l-.9.52v2.03l6.6,13.98,6.53,3.78,2.17-2.63,5.76,3.44,3.31,5.67,3.64,2.1,4.57-4.05,5.61,3.24,1.88,7.77,9.39,5.42c.48,1.99,1.08,3.94,1.78,5.84.06.2.13.39.22.61,3.12,8.21,8.09,15.23,13.69,18.47.72.41,1.42.75,2.11,1.01.39.16.79.29,1.18.39.35.1.7.18,1.05.23,1.16.21,2.28.2,3.33,0,.15-.04.31-.07.46-.11.22-.04.43-.11.64-.19.16-.06.32-.13.48-.19.17-.06.34-.14.5-.23.16-.07.31-.15.47-.24.08-.04.16-.09.23-.13.04,0,.07-.04.11-.06,1.25-.72,4.32-2.49,5.16-2.97,4.15-2.4,6.84-8.5,6.84-17.11,0-2.19-.17-4.41-.5-6.63Z"/>
        <path class="cls-2" d="M401.38,313.1c-2.16-1.25-3.91-4.95-3.91-8.27s1.75-5,3.91-3.76c2.16,1.25,3.9,4.95,3.9,8.27s-1.75,5-3.9,3.76ZM410.23,305.85c-1.84-12.51-8.57-24.9-16.59-29.53-3.71-2.14-7.15-2.31-9.95-.83-.1.05-.2.11-.29.17-.22.13-.45.27-.66.42-.41.29-.81.61-1.18.98-.05.04-.11.11-.17.16-.16.16-.32.34-.48.52-.19.22-.38.44-.55.67-.36.48-.7.99-1,1.54-.15.27-.31.56-.45.85-.74,1.53-1.34,3.3-1.73,5.31l-48.69-28.12v3.48l.47.27.43.25v.74l-.9.52v2.03l6.6,13.98,6.53,3.78,2.17-2.63,5.76,3.44,3.31,5.67,3.64,2.1,4.57-4.05,5.61,3.24,1.88,7.77,9.39,5.42c.48,1.99,1.08,3.94,1.78,5.84.06.2.13.39.22.61,3.12,8.21,8.09,15.23,13.69,18.47.72.41,1.42.75,2.11,1.01.39.16.79.29,1.18.39.35.1.7.18,1.05.23,1.16.21,2.28.2,3.33,0,.15-.04.31-.07.46-.11.22-.04.43-.11.64-.19.16-.06.32-.13.48-.19.17-.06.34-.14.5-.23.16-.07.31-.15.47-.24.08-.04.16-.09.23-.13.04,0,.07-.04.11-.06,3.98-2.51,6.54-8.51,6.54-16.92,0-2.19-.18-4.41-.5-6.64Z"/>
        <path class="cls-9" d="M405.28,309.34c0,3.32-1.75,5.01-3.9,3.76-2.16-1.25-3.91-4.94-3.91-8.26s1.75-5.01,3.91-3.76c.57.33,1.12.83,1.6,1.46.19,2.18,1.07,4.42,2.26,5.95.04.29.04.57.04.85Z"/>
        <path class="cls-25" d="M416.19,309.33c0,8.61-2.69,14.7-6.84,17.11-.83.48-3.91,2.25-5.16,2.97,3.98-2.51,6.54-8.51,6.54-16.92,0-2.19-.18-4.41-.5-6.64-1.84-12.51-8.57-24.9-16.59-29.53-3.71-2.14-7.15-2.31-9.95-.83,1.22-.7,4.32-2.49,5.15-2.97,2.85-1.67,6.41-1.59,10.26.64,8.02,4.63,14.75,17.02,16.59,29.54.33,2.22.5,4.44.5,6.63Z"/>
        <g class="cls-18">
          <path class="cls-12" d="M410.73,312.48c0,8.41-2.56,14.41-6.54,16.92,1.25-.72,4.32-2.49,5.16-2.97,4.15-2.4,6.84-8.5,6.84-17.11,0-.32-.01-.64-.02-.96-1.88,1.08-3.78,2.18-5.46,3.15,0,.32.02.64.02.96Z"/>
          <path class="cls-11" d="M410.73,312.48c0,8.41-2.56,14.41-6.54,16.92,1.25-.72,4.32-2.49,5.16-2.97,4.15-2.4,6.84-8.5,6.84-17.11,0-.32-.01-.64-.02-.96-1.88,1.08-3.78,2.18-5.46,3.15,0,.32.02.64.02.96Z"/>
        </g>
        <g>
          <polygon class="cls-10" points="377.37 289.71 377.37 291.48 328.49 263.26 329.39 262.74 329.39 262 377.37 289.71"/>
          <polygon class="cls-10" points="377.37 290.44 377.37 291.48 328.49 263.26 329.39 262.74 329.39 262.73 377.37 290.44"/>
        </g>
        <path class="cls-9" d="M379.41,294.4c0,12.1,6.37,25.59,14.23,30.12,7.86,4.54,14.23-1.59,14.23-13.69s-6.37-25.59-14.23-30.12c-7.86-4.54-14.23,1.59-14.23,13.69Z"/>
        <path class="cls-25" d="M378.91,280.81c-.74,1.53-1.34,3.3-1.73,5.31l-48.69-28.12,5.46-3.15,44.95,25.95Z"/>
      </g>
    </g>
  </g>
</svg>