<?xml version="1.0" encoding="UTF-8"?>
<svg id="Capa_1" data-name="Capa 1" xmlns="http://www.w3.org/2000/svg" xmlns:xlink="http://www.w3.org/1999/xlink" viewBox="0 0 3121.12 850.39">
  <defs>
    <style>
      .cls-1 {
        fill: none;
      }

      .cls-2 {
        mask: url(#mask);
      }

      .cls-3 {
        opacity: .15;
      }

      .cls-3, .cls-4 {
        fill: #98989a;
      }

      .cls-5 {
        clip-path: url(#clippath-1);
      }

      .cls-6 {
        clip-path: url(#clippath-3);
      }

      .cls-7 {
        clip-path: url(#clippath-2);
      }

      .cls-8 {
        fill: url(#Degradado_sin_nombre_20);
      }

      .cls-9 {
        clip-path: url(#clippath);
      }
    </style>
    <clipPath id="clippath">
      <path class="cls-1" d="M1.15-188.26h76.5c-17.33-26.31-43.6-44.49-76.5-48.32v48.32ZM1644.47-226.48c-15.25,7.76-28.95,14.72-29.18,37.99,22.54,0,44.84.23,67.37.23v-49.03c-.55-.01-1.09-.02-1.63-.02-13.7,0-25.14,5.02-36.56,10.84M516.94-250.06c-49.5,6.18-97.55,23.46-148.46,19.42-2.49-.21-5.27,3.11-7.91,4.78,2.3,2.19,4.45,6.03,6.92,6.27,15.88,1.49,31.85,3.27,47.75,2.96,47.45-.94,94.95-2.21,141.27,10.11,15.4,4.09,30.52,9.87,44.6,18.27h112.51c-49.73-39.71-118.71-63.11-174.7-63.11-7.6,0-14.95.43-21.98,1.31M1247.92-258.68c-30.18,1-58.57,8.84-83.89,25.8-2.85,1.91-4.18,6.11-6.2,9.25,3.37.63,6.99,2.39,10.07,1.69,33.48-7.6,66.02-3.85,97.07,9.66,14.37,6.25,27.24,15.91,40.79,24.02h114.99c-60.83-44.34-112.88-70.51-167.19-70.51-1.87,0-3.75.02-5.64.09M236.24-281.26c-.16.5-.25.98-.24,1.47.32,10.17,4.93,56.94,21.98,91.53h146.19c-14.82-4.01-117.62-44.8-141.18-73.3-6.49-7.17-10.23-14.41-15.78-21.27-.46-.57-1.01-1.04-1.65-1.45-1.08-.72-2.31-1.05-3.52-1.05-2.53,0-4.99,1.48-5.81,4.06M824.32-311.23c-12.25,7.61-20.02,17.96-24.36,30.38-11.29,32.31-7.29,63.11,11.13,92.59h87.52c-.61-1.2-46.27-65.02-41.19-102.45.45-3.29-.35-6.81-1.18-10.11-2.41-9.61-9.32-14.88-17.78-14.88-4.42,0-9.28,1.45-14.14,4.46M455.74-323.59c-2.39.96-4.41,3.13-6.3,5.06-17.46,17.8-38.6,29.38-62.69,34.77-35.93,8.05-70.57,7.71-99.74-19.8-.33-.31-.72-.56-1.14-.76-4.45-2.14-9.62,1.65-9.3,6.57.03.4.1.77.19,1.16,8.29,30.77,38.55,52.59,78.74,52.67,44.02-3.18,79-31.05,107.12-70,.58-.81,1.33-1.89,1.23-2.75-.26-2.2-.3-5.12-1.68-6.3-.84-.72-2.35-1.08-3.81-1.08-.96,0-1.9.16-2.63.46M1610.69-274.16c-.11.26-.22.51-.3.78-1.9,5.96,5.15,11.03,10.4,7.62.1-.07.19-.13.29-.2,18.76-13.41,39.08-20.61,61.58-19.96v-55.98c-34.56,9.14-56.26,34.77-71.97,67.73M1121.18-323.4c-15.88,9-28.01,21.46-36.25,37.76-6.7,13.28-4.34,29.32,6.16,40.74,11.25,12.24,22.8,15.84,37.65,8.67,10.53-5.09,20.4-12.32,29.19-20.13,51.71-45.99,110.64-56.74,176.13-37.52,4.98,1.46,10.18,2.13,15.29,3.17.27-.93.56-1.87.84-2.8-1.83-1.99-3.54-4.09-5.52-5.93-1.74-1.61-3.75-2.91-5.67-4.34-30.55-22.81-65.31-35.2-102.81-39.2-9.65-1.03-19.24-1.61-28.75-1.61-29.89,0-58.95,5.71-86.25,21.19M197.45-345.11c-9.97.95-16.96,6.33-22.49,14.29-21.05,30.26-22.66,63.76-14.64,98,3.59,15.32,11.06,29.74,16.77,44.57h43.02c-4.36-25.7-9.72-69.12-3.51-100.69,2.29-11.66,4.83-23.46,5.16-35.26.37-13.16-8.62-21.05-21.24-21.05-1.01,0-2.03.05-3.07.15M1.15-344.3v59.72c20.29,3.52,36.91,12.86,54.45,19.01,5.77,2.03,11.45,5.73,17.55,5.39,20.58-1.16,27.72-16.92,25.76-33.8-1.06-9.2-5.28-19.31-11.18-26.43-15.6-18.78-40.85-25.91-64.66-25.91-7.58,0-14.99.73-21.91,2.02M261.47-354.89c-1.34,1.5-2.27,4.33-1.82,6.23.67,2.87,2.29,5.75,4.17,8.06,21.15,25.93,48.2,40.39,78.23,41.92,19.91-.44,35.84-2.16,49.26-12.42,7.37-5.64,12.99-13.18,9.92-22.88-3.27-10.27-12.94-10.37-21.45-9.36-12.83,1.53-25.53,4.32-38.28,6.53-25.77,4.45-50.39,3.59-71.1-15.41-.99-.9-2.19-1.78-3.45-2.12-1.28-.35-3.1-.88-4.32-.88-.52,0-.94.1-1.16.34M159.27-360.33c-1.9.26-3.63.71-4.98,1.71-52.29,38.65-68.07,112.96-36.6,170.36h51.21c-5.6-7.71-11.47-15.23-16.73-23.16-30.32-45.73-26.66-102.91,13.43-138.51.48-.43.83-1.01,1.08-1.69,1.61-4.37-1.98-8.77-6.49-8.77-.3,0-.6.02-.92.06M1356.16-362.51c-5.47,2.27-11.37,8.38-12.81,13.86-1.09,4.18,3.4,11.44,7.45,15,8.15,7.15,18.06,12.26,26.62,19,41.36,32.58,65.61,75.81,77.87,126.38h47.12c-.46-4.4-.56-8.86-1.43-13.17-8.09-39.63-25.93-74.96-51.75-105.47-15.69-18.54-34.87-34.29-53.43-50.2-6.96-5.96-15.08-8.78-23.46-8.78-5.36,0-10.83,1.14-16.18,3.37M490.82-368.05c-1.57,11.12-2.15,22.39-3.37,36.78.87,9.82,1.36,22.81,3.43,35.54.94,5.72,4.13,11.71,7.95,16.16,5.69,6.65,13.63,9.4,22.12,4.91,7.84-4.17,9.43-11.81,7.37-19.47-2.37-8.82-6.58-17.11-9.48-25.81-5.36-16.01-10.15-32.22-15.64-48.19-1.05-3.03-4.26-5.32-6.47-7.95-2.06,2.67-5.52,5.14-5.93,8.04M823.9-375.99c-4.59,2.85-8.34,7.02-12.81,10.12-53.12,36.77-112.12,52.15-176.21,46.28-39.07-3.58-74.2-17.11-101.27-47.35-2.64-2.96-7.51-3.92-11.34-5.81-.85,4.63-3.75,10.17-2.18,13.74,5.3,12.05,10.54,24.76,18.75,34.81,31.04,38.07,73.84,50.16,125.78,52.12,68.51-4.37,129.96-29.47,166.87-97.76,1.23-2.29,1.06-5.35,1.54-8.04-3.08.57-6.66.35-9.13,1.88M1065.31-403.35c-1.2.27-2.15,1.61-3.24,2.43-61.46,46.34-80.09,153.27-6.21,212.67h84.02c-57.88-34.04-89.93-63-94.31-120.43-2.45-31.96,4.77-61.66,27.3-86.25,1.82-1.98,1.05-6.31,1.49-9.57-3.02.36-6.09.52-9.04,1.16M378.02-422.85c-8.47,2.5-16.72,5.86-24.82,9.42-36.13,15.86-71.26,15.98-105.63-5.27-3.47-2.15-8.15-2.35-12.57-2.97-1.59-.23-3.13.67-3.72,2.15-.47,1.17-.28,2.49.5,3.48,5.65,7.15,11.03,14.56,17.18,21.28,29.66,32.45,81.56,46.34,119.69,32.23,15.74-5.83,28.47-15.78,33.6-31.98,2.07-6.5.74-15.63-2.43-21.86-2.81-5.55-8.1-7.69-13.85-7.69-2.62,0-5.33.45-7.95,1.22M1165.44-426.38c-37.04,13.81-67.51,36.66-90.83,68.68-2.07,2.85-2.25,7.07-3.3,10.65,3.46-1.03,7.28-1.45,10.33-3.2,6.19-3.53,11.66-8.42,17.99-11.62,53.81-27.25,108.94-35.35,166.6-11.96,11.84,4.79,24.82,6.75,31.69,8.55,21.28-.21,34.44-4.93,43.63-13.54,11.88-11.11,12.47-22.76.22-33.18-6.86-5.82-15.11-10.7-23.53-13.9-25.59-9.73-51.27-14.59-76.96-14.59s-50.58,4.71-75.84,14.11M932.25-438.12c-23.48,21.93-35.93,50.17-43.8,80.66-9.2,35.61,20.86,141.91,42.76,169.2h81.51c-6.1-7.63-11.5-15.19-17.49-22.91-50.54-65.13-59.6-138.86-46.19-218.55.95-5.67.21-11.62.27-17.44-5.74,2.96-12.51,4.8-17.05,9.04M1533.13-188.26h44.41c4.36-98.74,34.8-158.93,94.64-186.62,3.37-1.55,6.98-2.6,10.48-3.88v-75.79c-95.72,26.08-175.16,163.2-149.53,266.29M1.15-456.42v74.71c82.49-23.17,157.5-15.15,216.31,21.27.99.6,2.21.8,3.56.8,4.63,0,8.44-4.07,7.73-8.63-.12-.78-.35-1.47-.78-2.03-6.39-8.34-13.06-16.66-20.8-23.69-37.9-34.47-83.69-51.4-133.68-58.01-16.6-2.2-33.8-5.77-52.8-5.77-6.3,0-12.79.39-19.53,1.36M1638.58-465.91s-.05.06-.07.08c-3.38,3.12-.24,8.77,4.26,7.85.87-.18,1.71-.38,2.54-.63,16.17-4.77,21.12-6.84,37.23-11.74v-20.05c-19.86,4.82-30.42,12.22-43.96,24.49M35.69-501.04c-8.84,1.89-22.83,5.22-34.54,8.1v20.46c21.36-4,36.57-3.59,55.04-4.09,3.66-.1,9.35-3.22,10.28-6.15,1.13-3.56-.56-9.46-3.18-12.51-4.66-5.43-10.56-7.13-16.74-7.13-3.59,0-7.27.58-10.86,1.34M226.35-507.68c-22.42,17.6-48.4,24.23-75.93,21.49-17.29-1.72-34.09-8.29-51.18-12.37-3.25-.77-6.84-.1-10.28-.08.18,3.76-.44,7.8.77,11.2,1.07,3,4.03,5.43,6.43,7.83,20.12,20.13,44.86,29.03,70.63,29.77,21.16-.01,39-3.71,54.15-15.7,11.52-9.12,18.84-20.7,18-36.04-.34-5.98-2.44-9.14-5.8-9.14-1.9,0-4.18,1-6.8,3.04M1541.05-517.39c8.07,46.8-1.32,89.96-26.37,130-14.65,23.4-15.52,47.44-2.57,71.74.29.54.65,1.06,1.06,1.55,3.75,4.51,11.38,2.65,11.95-3.18.02-.28.03-.58.02-.86-.72-19.47,5.47-36.34,15.27-53.05,16.94-28.87,25.49-60.64,26.95-91.98.21-18.6-6.98-45.3-15.49-57.69-1.63-2.35-5.2-3.35-7.88-4.98-1.04,2.82-3.39,5.88-2.94,8.46M920.44-527.57c-7.64,1.32-15.2,3.81-22.43,6.71-54.37,21.75-101.84,54.54-147.23,91-37.31,29.98-78.04,53.82-126.58,60.6-14.41,2.02-29.02,2.69-43.53,3.97-.39.93-.79,1.87-1.18,2.81,7.68,3.26,15.08,7.96,23.08,9.55,36.13,7.2,72.6,7.63,108.81,1.1,100.04-18.03,168.3-78.98,218.55-163.69,1.38-2.32,2.36-7.36,1.31-8.16-2.68-1.99-6.47-3.98-9.66-3.98-.39,0-.77.03-1.13.09M1116.59-495.6c-40.51,23.5-71.42,56.66-96.98,95.25-2.84,4.28-3.93,9.71-5.84,14.62,1.15.89,2.29,1.78,3.44,2.67,3.86-3.41,8.74-6.17,11.43-10.34,16.75-25.96,39.95-44.58,66.62-59.12,56.6-30.87,116.74-37.86,178.31-20.33,69.24,19.72,128.14,55.08,163.64,121.31,5.44,10.16,13,19.51,26.37,17.25,13.57-2.29,17.8-13.62,20.59-25.27.86-3.58,1.69-7.76.69-11.11-3.96-13.24-6.41-27.61-13.43-39.12-41.88-68.54-102.04-110.68-182.63-120.83-12.15-1.52-24.16-2.29-36.02-2.29-47.84,0-93.3,12.44-136.18,37.32M242-582.83c-10.44,2.92-20.48,8.47-31.04,9.54-35.24,3.58-70.68,5.1-105.96,8.46-38.89,3.71-73.64,18.08-103.87,42.41v13.15c.45-.06.92-.21,1.38-.41,13.86-5.94,27.63-12.18,41.99-16.49,35.24-10.55,70.56-7.82,105.85,2.03,24.28,6.77,48.76,5.3,68.96-11.27,12.5-10.24,22.62-23.52,33.09-36.02,2.24-2.68,1.39-7.93,1.96-12-1.3.05-2.62.03-3.95,0-.78-.02-1.57-.03-2.35-.03-2.09,0-4.14.11-6.08.65M812.9-583.8c-32.39,1.44-61.83,14.08-87.7,33.23-28.18,20.87-55.57,42.89-82.5,65.38-59.7,49.83-126.54,68.91-203.03,49.68-3.31-.83-7.17.48-10.77.8,2.03,3.25,3.29,7.85,6.21,9.47,13.06,7.27,26.13,14.87,40.02,20.23,81.32,31.42,157.08,22.4,225.83-32.9,22.07-17.74,44.44-35.21,65.36-54.24,41.14-37.4,87.25-60.56,141.05-54.97,14,0,24.59.39,35.12-.19,4.19-.24,8.26-2.64,12.38-4.06-3.4-2.83-6.39-7.11-10.28-8.23-23.83-6.93-47.61-14.49-71.92-19.18-16.6-3.2-33.79-5.21-50.74-5.21-3.02,0-6.04.06-9.05.19M1330.86-582.41c-4.45,3.99-8.42,9.06-10.99,14.4-2.99,6.19-.98,10.98,7.22,9.92,23.77-3.08,45.13,4.41,65.71,14.99,37.01,19.02,62.43,48.84,79.51,86.27,10.44,22.89,31.79,15.97,40.36.88,8.4-14.81,11.67-30.56,9.1-47.29-10.39-67.6-61.3-102.2-123.45-104.55-24.97.09-48.96,8.83-67.46,25.38M1650.61-533.52c-.28,5.15,5.93,7.91,9.53,4.21,7.68-7.88,15.1-15.5,22.52-23.13v-70.97c-13.81,17.37-30.77,66.04-32.05,89.88M1088.52-629.54c-6.24,1.34-12.37,3.83-18.11,6.68-18.92,9.44-34.71,22.91-47.38,39.75-48.89,65.01-69.95,136.9-52.59,217.91,1.79,8.35,5.14,16.39,7.77,24.57,1.24-.34,2.46-.67,3.7-1,0-3.68.04-7.35,0-11.03-.18-12.2-1.85-24.6-.24-36.57,3.04-22.82,10.12-44.82,24.2-63.34,15.62-20.54,32.17-40.45,49.31-59.74,13.78-15.52,29.44-29.35,43.55-44.61,11.84-12.82,18.91-28.41,20.41-45.93,1.37-15.97-9.35-27.42-24.11-27.42-2.09,0-4.26.23-6.5.71M92.99-625.5c-19.63,11.73-35.87,27.17-47.9,46.73-1.38,2.24-.96,5.59-1.37,8.43.88-.05,1.86.02,2.82.07,2.08.13,4.16.26,5.41-.71,22.88-17.68,49.03-18.35,76.09-15.56,41.14,4.23,77.61-7.17,109.14-33.92,10.61-9,9.34-16.59-4.15-20.05-17.05-4.37-34.52-7.13-51.8-10.58-31.8,2.08-61.24,9.47-88.23,25.59M425.02-668.94c-1.28,6.99-1.04,14.24-1.64,21.37-6.43,76.89-56.31,129.69-132.25,140.14-12.71,1.74-24.68,5.47-33.65,15.39-12.22,13.52-6.1,34.47,11.67,38.74,7.21,1.73,14.87,2.16,22.33,2.12,89.17-.5,158.34-70.72,158.69-160.86.92-.21,1.83-.42,2.74-.62-4.46-19.81-8.61-39.7-13.69-59.35-.98-3.79-5.57-6.66-8.5-9.95-1.97,4.32-4.87,8.47-5.7,13.02M1487.13-725.19c-10.37-.16-18.33,2.77-22.6,11.18-4.28,8.43-2.32,16.8,3.8,23.74,6.48,7.35,13.55,14.19,20.35,21.25,31.57,32.75,55.08,69.89,63.71,115.39.05.28.13.56.23.83,1.92,5,9.32,4.16,10.76-1,.13-.45.24-.9.34-1.34.44-1.88-.06-4.1-.53-6.06-5.94-24.79-9.85-50.33-18.54-74.12-9.5-26.02-23.01-50.64-35.7-75.41-4.23-8.26-11.48-14.47-20.78-14.47-.35,0-.7,0-1.05.02M1123.38-737.2c-1.38.63-2.18,2.55-3.26,3.87-29.51,36.11-67.12,59.67-112.35,70.25-36.05,8.44-71.92,3.81-107.25-5.51-20.36-5.37-40.74-8.16-61.64-3.55-38.91,8.57-61.65,36.87-82.08,67.72-2.21,3.35-1.55,8.59-2.23,12.95,4.82-1.3,9.65-2.58,14.44-3.96.58-.16.92-1.04,1.5-1.36,9.72-5.25,18.97-13.31,29.29-15.03,16.56-2.76,33.96-2.82,50.75-1.3,28.46,2.57,56.73,7.25,71.51,9.24,86.47-.26,142.94-25.8,184.4-79.37,11.11-14.35,18.57-31.59,27.2-47.77,1.25-2.35-.31-6.19-.58-9.33-3.25,1.01-6.62,1.77-9.7,3.16M34.39-731.51c-6.95,9.5-12.31,20.42-16.93,31.33-4.79,11.31-9.05,30.73-16.31,51.71v86.33c27.57-25.98,48.51-55.19,65.13-87.4,7.36-14.26,12.44-30.4,14.91-46.26,1.6-10.27-1.41-22.49-5.89-32.2-4.34-9.43-12.57-14.25-21-14.25-7.24,0-14.63,3.54-19.91,10.75M290.38-747.55c-6.22,17-1.67,27.88,14.55,34.56,2.82,1.17,5.81,1.96,8.68,3,13.81,4.98,23.46,14.21,30.36,27.26,11.25,21.29,10.56,42.42,1.39,63.98-11.09,26.06-29.13,46.73-50.59,64.57-11.67,9.7-23.97,18.63-38.44,29.81,5.67.65,8.78,1.81,11.51,1.21,60.14-12.97,102.17-47.67,121.15-106.51,18.71-58-8.41-109.63-65.48-129.82-3.22-1.13-6.57-1.67-9.87-1.67-10.39,0-20.21,5.28-23.25,13.61M809.14-754.77c-5.28,9.54-1.58,22.24,10.37,33.62,17.17,16.34,37.64,26.99,60.48,32.69,50.48,12.59,100.09,6.01,149.14-8.21,3.23-.93,5.86-3.89,8.77-5.91-.24-1.42-.47-2.84-.71-4.28-4.62-.47-9.25-1.39-13.88-1.33-11.85.17-23.85,2.2-35.52.96-34.3-3.65-66.01-15.86-96.55-31.58-15.71-8.08-31.57-16.17-48.04-22.47-5.79-2.21-11.05-3.25-15.67-3.25-8.59,0-14.95,3.58-18.39,9.77M1501.73-793.83c-8.59,5.48-4.67,14.63-2.23,22.42,1.22,3.88,2.69,7.79,4.73,11.29,9.46,16.19,18.48,32.71,28.94,48.23,20.55,30.47,37.66,62.6,49,97.56,17.1,52.68,23.89,105.75,4.22,159.51-2.75,7.5-4.45,15.4-6.64,23.11.76.43,1.52.85,2.27,1.28,1.38-.83,2.94-1.46,4.11-2.53,18.07-16.73,32.51-35.89,39.25-60,26.04-92.99,4.47-174.43-59.92-245.29-14.45-15.9-29.4-31.38-44.47-46.71-4.01-4.08-7.94-10.69-13.76-10.69-1.66,0-3.47.53-5.49,1.82M1398.95-851.92c-32.43,6.27-64.93,12.24-97.18,19.35-81.21,17.91-128.18,70.58-147.57,149.31-5.42,22.02-6.74,45.07-9.5,67.69,0,.05-.01.1-.01.15-.8,6.97,8.48,10.35,12.53,4.61.13-.17.23-.35.35-.52,42-64.6,96.21-113.61,171.34-136.75,22.23-6.85,41.29-19.33,57.44-36.08,14.81-15.36,22.07-34.28,25.65-51.84.08-.42.13-.87.14-1.29.27-11.51-1.23-15.32-7.43-15.32-1.59,0-3.49.25-5.76.69M309.95-838.4c-2.56,23.54,8.34,41.33,25.46,55.13,20.95,16.89,43.68,31.59,64.8,48.28,44.34,35.07,72.94,78.78,72.26,137.71-.02,2.41,1.32,4.83,2.03,7.25,1.21.15,2.44.29,3.66.43,1.71-4.17,4.01-8.21,5.04-12.55,11-46.26,9.1-91.82-6.4-137.01-17.62-51.43-52.39-88.91-95.96-118.94-9.4-6.48-21.74-10.2-33.2-11.83-1.7-.24-3.37-.36-4.99-.36-17.51,0-30.71,13.53-32.69,31.88M1452.04-880.22c-.23.46-.42.93-.56,1.43-.9,3.23-.67,6.76-1.26,10.11-10.06,57.02-37.97,104.4-77.67,145.77-35.89,37.41-79.48,63.17-125.96,84.3-41.29,18.78-76.99,44.96-108.82,76.81-8.01,8.01-15.23,16.78-22.83,25.19,1.19,1.3,2.39,2.6,3.58,3.9,3.78-2.42,8.03-4.32,11.25-7.35,33.18-31.26,73.49-48.64,117.47-55.87,63.79-10.49,120.38-33.42,165.96-81,40.41-42.21,68.69-88.52,58.21-150.05-3.03-17.77-6.93-35.4-10.83-53-.08-.4-.27-.79-.54-1.15-.88-1.23-2.23-1.81-3.58-1.81-1.76,0-3.54.96-4.42,2.7M63.54-903.21c-.28,0-.54.05-.77.16-17.9,9.75-40.9,13.24-61.62,15.48v42.44c31.19-6.94,62.03-32.92,65.17-54.68.25-1.7-1.01-3.39-2.73-3.4h-.05ZM136.4-912.03c-7.05,8.28-12.61,17.85-19.87,25.92-31.74,35.28-69.38,60.96-115.38,73.5v64.01c47.02-13.51,77.93-36.99,103.32-65.87,23.33-26.52,41.03-56.1,47.46-91.31.71-3.9-2.86-8.58-4.45-12.9-3.76,2.16-8.44,3.54-11.09,6.64M1486.07-913.98c-.05.55-.02,1.09.09,1.62,14.93,75.06,56.03,129.68,127.47,159.34,21.93,9.11,45.24,12.46,69.04,7.08v-63.5c-40.03,12.43-75.23.66-107.9-22.13-31.96-22.29-55.01-52.44-74.48-85.74-.18-.31-.4-.61-.63-.9-1.53-1.87-3.66-2.72-5.78-2.72-3.76,0-7.5,2.65-7.8,6.95M498.5-917.08c-1.9,3.52-2.96,7.62-3.74,11.6-8.66,43.08-2,84.68,11.27,125.93,9.38,29.18,18.53,58.57,25.3,88.44,8.6,37.93,1.9,74.14-16.43,108.78-18.28,34.55-42.89,63.87-69.71,91.72-2.65,2.74-4.28,6.46-6.39,9.72.9.91,1.8,1.83,2.7,2.73,3.71-1.77,7.83-2.98,11.07-5.38,63.13-46.67,104.66-108.16,125.83-183.64,15.97-56.9,6.42-108.52-30.66-155.01-9.13-11.43-16.63-24.16-25.02-36.17-11.8-16.9-17.17-35.35-14.71-56.03.28-2.44-2.04-5.19-3.16-7.8-2.18,1.67-5.16,2.91-6.35,5.12M1531.88-914.94c.07.6.23,1.17.48,1.71,3.12,6.8,7.25,13.46,12.26,19.25,20.35,23.56,47.6,37.78,78.57,46.45,19.42,5.44,39.21,8.03,59.47,3.97v-42.98c-18.64.69-37.53,3.42-55.88,1.59-31.61-3.15-59.27-15.81-82.58-36.01-.55-.48-1.18-.87-1.88-1.21-1.04-.49-2.12-.72-3.17-.72-4.13,0-7.89,3.48-7.26,7.94M177.44-936.49c7.02,29.43,3.91,58.26-8.91,84.85-12.21,25.31-28.43,48.68-42.37,73.2-8.03,14.11-16.68,28.24-22.05,43.41-5.97,16.9.07,33.47,11.07,40.51,12.15,7.77,30.82,5.27,44.69-6.14,2.88-2.37,6.14-4.76,7.95-7.88,8.7-14.87,20.13-29.12,24.64-45.25,6.97-25.01,9.12-51.37,13.37-77.58-5.61-36.03-11-71.66-17.01-107.2-.57-3.35-5.03-6.04-7.69-9.04-1.33,3.73-4.48,7.89-3.71,11.11M514.23-958.31c2.51,3.12,4.53,6.88,7.6,9.26,13.98,10.83,29.81,19.72,42.13,32.14,44.83,45.13,61.67,101.52,62.52,171.46-.99,9.4-1.69,26.52-4.81,43.2-17.08,91.15-61.91,165-137.97,219.22-4.47,3.19-7.39,8.53-11.03,12.88,6.21,1.45,12.39,3.02,18.64,4.3,1.2.24,2.61-.62,3.93-.96,31.73-8.09,59.83-23.4,83.68-45.46,74.21-68.62,105.11-155.12,101.1-254.62-1.86-46.36-14.92-90.08-42.53-128.27-27.52-38.08-63.93-61.9-111.46-66.57-.25-.03-.5-.04-.75-.04-3.57,0-7.37,2.33-11.05,3.47M1.15-920c22.29-1.66,40.74-10.94,57.34-24.89,6.18-5.2,11.5-11.56,16.51-17.95,1.49-1.9,1.5-6.03.47-8.39-.55-1.26-5.07-1.91-7.26-1.19-23.38,7.7-44.92,1.05-66.28-7.87-.26-.11-.53-.22-.79-.34v60.63ZM186.84-1008.23c-1.17.04-2.34.08-3.41,0-.03,3.14-.91,6.59.1,9.33,1.63,4.42,4.54,8.38,6.87,12.54,26.38,47.13,43.8,97.11,45.4,151.51,1.83,62.36-13.22,117.81-67.65,156.09-2.48,1.74-3.04,6.21-4.49,9.41,3.14,1.35,6.25,3.73,9.42,3.81,5.37.15,11.01-.4,16.12-1.97,31.45-9.66,56.89-27.19,73.71-56.28,16.57-28.65,21.69-59.91,22.94-102.4-2.2-14.09-4.33-38.34-10.04-61.72-9.29-38.06-30.89-69.54-58.41-97.02-7.73-7.71-15.58-15.35-23.98-22.29-1.07-.89-2.72-1.07-4.52-1.07-.67,0-1.36.03-2.05.06M1161.92-1015.82c-10,2.95-20.51,6.25-28.92,12.09-19.3,13.4-37.2,28.78-56.11,42.74-42.07,31.08-88.21,52-141.55,51.73-15.77-.09-31.48-4.34-47.27-6.23-3.09-.37-6.45,1.44-9.68,2.24,1.16,3.17,1.55,7.09,3.68,9.31,2.44,2.53,6.31,4.41,9.82,5.07,25.31,4.74,50.69,9.11,76.05,13.6.18-.77.36-1.54.55-2.32,14.95-1.18,29.99-1.64,44.82-3.68,46.76-6.45,91-20.19,130.36-47.24,17.15-11.79,31.03-26.56,40.87-45.01,4.47-8.39,3.81-16.61-1.1-24.26-3.8-5.92-9.45-8.93-15.65-8.93-1.91,0-3.89.29-5.87.87M1230.35-1013.96c-1.44,16.95-5.97,32.6-15.64,46.95-22.84,33.87-53.27,58.84-90.88,73.6-23.93,9.39-49.52,14.67-74.54,21.19-33.91,8.83-68.81,14.56-99.58,32.85-21.72,12.92-41.54,27.64-49.99,53.11-8.92,26.87,6.26,46.64,34.32,42.8,8.44-1.15,17.18-6.41,23.93-12.01,7.46-6.21,13-14.81,19.03-22.65,11.12-14.5,25.22-24.89,42.45-30.76,11.59-3.96,23.34-7.6,35.23-10.58,58.82-14.76,108.32-44.16,145.69-92.55,21.2-27.45,34.56-58.37,39.59-92.77,0-3.07.75-6.4-.19-9.15-1.17-3.38-3.75-6.27-5.72-9.38-1.29,3.11-3.44,6.15-3.71,9.36M1.15-1035.82v3.46c11.98,8.06,22.37,13.16,32.71,15.83,13.03,3.35,27.03,2.77,40.57,4.36,30.03,3.52,57.06,12.86,75.24,39.36,1.2,1.75,6.6,3.03,7.45,2.13,1.86-2.02,3.59-6.17,2.69-8.39-5.15-12.88-9.41-26.58-17.08-37.89-4.53-6.67-9.41-12.96-14.67-18.86H1.15ZM226.39-1035.82c10.34,15,20.76,29.94,30.43,45.35,13.15,20.96,24.56,43.04,36.42,64.79,3.66,6.7,6.23,13.98,9.3,20.99,1.49-.23,2.97-.44,4.46-.67,0-6.7,1.17-13.65-.19-20.07-7.81-36.83-15.8-73.61-23.9-110.38h-56.52ZM308.55-1035.82c-.11,2.3-.18,4.62-.24,6.96.89,7.58,1.95,20.5,3.96,33.27,7.1,45.19,30.96,80.96,63.94,111.31,1.89,1.75,6.02,1.05,9.12,1.51-.13-2.95.48-6.18-.54-8.79-3.56-9.2-8.5-17.91-11.46-27.27-12.95-40.88-16.92-79.83-12.95-116.99h-51.83ZM442.43-1035.82c-2.96,2.99-5.86,6.12-8.71,9.38-39.08,44.84-42.48,107.51-9.59,151.06,3.18,4.2,8.72,6.61,13.16,9.86,1.94-4.78,4.91-9.39,5.66-14.34,4.36-28.92,11.43-56.82,27.76-81.64,25.32-38.46,65.28-51.12,107.94-34.05,33.84,13.55,58.71,38.18,79.74,66.75,40.88,55.53,63.33,118.35,68.66,186.8,4.49,57.54-.2,113.41-41.51,159.47-1.62,1.8-.67,5.93-.91,8.97,1.03-.09,2.19-.06,3.34-.03,2.54.06,5.08.13,6.32-1.12,5.99-6,11.29-12.76,16.31-19.64,43.18-59.08,58.71-126.57,60.06-200.19-.5-8.72-.83-19.31-1.75-29.84-5.68-64.81-24.57-125.11-64.36-177.3-9.39-12.32-19.43-23.85-30.34-34.15h-231.79ZM723.23-1035.82c53.37,57.42,76.27,127.32,76.65,206.07,0,7.85-.17,15.7.04,23.54.31,12.34,7.3,22.72,16.9,25.54,10.65,3.13,18.25-.32,26.56-12.13,19.97-28.45,19.72-60.37,14.65-92.54-9.94-62.94-40.37-111.84-84.94-150.48h-49.85ZM803.83-1035.82c39.49,53.43,101.97,87.61,166.74,87.88,30.68.13,59.61-6.56,85.78-22.92,4.4-2.75,10.65-8.46,10.14-11.93-.93-6.42-6.48-6.09-11.72-5.75-1.21.07-2.42.16-3.55.15-3.45-.02-6.91.03-10.36.1-7.81.13-15.62.26-23.34-.54-38.21-3.93-72.08-16.59-97.77-46.99h-115.91ZM1000.6-1035.82c47.93,22,100.43,20.99,144.88,0h-144.88ZM1270-1035.82c-1.2,23.16-5.8,45.93-13.99,68.22-33.21,90.37-96.67,152.85-182.52,193.25-23.87,11.24-50.03,17.61-75,26.56-2.5.89-4.11,4.24-6.13,6.45,2.39,1.39,4.71,3.79,7.21,3.98,7.12.55,14.3.19,21.46.19,88.56-3.68,161.87-39.77,218.9-107.12,44.71-52.82,69.03-113.69,59-184.02-.36-2.51-.83-5.01-1.37-7.5h-27.56ZM1326.23-1035.82c.43,2.65.89,5.3,1.36,7.95,8.92,50.64.46,96.92-30.4,138.69-6.79,9.18-12.43,19.2-19.9,30.86,7.56-3.21,13.47-5.36,19.07-8.14,47.08-23.36,70-62.65,74.94-113.82,2-20.65-7.91-37.68-15.56-55.54h-29.51ZM1379.9-1035.82c.82,1.88,1.61,3.76,2.39,5.65,8.6,21.09,18.16,42.04,18.2,69.03.08,17.2-6.55,35.35-20.12,50.9-5.83,6.67-12.75,12.6-17.47,19.97-2.7,4.22-4,11.53-2.15,15.81,1.47,3.38,9.25,6.75,13.3,5.86,31.82-6.89,57.89-23.2,67.62-55.45,5.57-18.42,6.53-39.01,5.62-58.44-.85-18.39-5.31-36.02-11.13-53.34h-56.25ZM1574.32-1035.82c-4.94,11.32-5.9,23.24-3.06,35.58,9.78,42.4,59.38,74.21,111.4,80.43v-65.26c-21.19-8.42-34.65-22.19-42.24-40.77-1.38-3.39-3.14-6.74-5.16-9.98h-60.94Z"/>
    </clipPath>
    <clipPath id="clippath-1">
      <rect class="cls-1" x="-52.26" y="-1506.2" width="1788.33" height="1788.33" transform="translate(679.36 416.06) rotate(-45)"/>
    </clipPath>
    <linearGradient id="Degradado_sin_nombre_20" data-name="Degradado sin nombre 20" x1="2058.53" y1="701.24" x2="2064.23" y2="701.24" gradientTransform="translate(-829475.37 281948.46) scale(402.94 -402.94)" gradientUnits="userSpaceOnUse">
      <stop offset="0" stop-color="gray"/>
      <stop offset="0" stop-color="gray"/>
      <stop offset=".06" stop-color="#737373"/>
      <stop offset=".26" stop-color="#414141"/>
      <stop offset=".43" stop-color="#1e1e1e"/>
      <stop offset=".58" stop-color="#080808"/>
      <stop offset=".67" stop-color="#000"/>
      <stop offset="1" stop-color="#000"/>
    </linearGradient>
    <mask id="mask" x="-1687.17" y="-3141.11" width="5058.15" height="5058.15" maskUnits="userSpaceOnUse">
      <g class="cls-5">
        <rect class="cls-8" x="-946.42" y="-2400.36" width="3576.66" height="3576.66" transform="translate(679.36 416.06) rotate(-45)"/>
      </g>
    </mask>
    <clipPath id="clippath-2">
      <rect class="cls-1" x="-1.3" y=".31" width="3122.42" height="849.78"/>
    </clipPath>
    <clipPath id="clippath-3">
      <rect class="cls-1" x="-10.61" y="3.37" width="5556.38" height="849.78"/>
    </clipPath>
  </defs>
  <g class="cls-9">
    <g class="cls-2">
      <rect class="cls-4" x="-52.26" y="-1506.2" width="1788.32" height="1788.32" transform="translate(679.36 416.06) rotate(-45)"/>
    </g>
  </g>
  <g class="cls-7">
    <g class="cls-6">
      <path class="cls-3" d="M909.73-365.64c13.25,32.84,48.08,49.28,71.36,74.47,45.25,48.82,46.88,120.66,74.08,178.95,49.28,117.22,159.64,221.39,289.34,234.91l1.25-.02c26.03-.89,21.24-11.69.17-15.92-57.62-10.44-105.53-50.24-141.8-94.31-47.19-56.51-64.64-129.41-82.16-199.1-23.11-89.26-43.65-199.76-134.53-244.95-52.6-24.26-99.5,8.73-77.71,65.95M1984.58-1180.51c28.4-152.26-123.47-289.71-274.87-295.34l-1.31.05c-50.88,5.49,23.26,31.28,34.63,40.07,18.91,11.29,36.12,24.93,51.71,40.41,117.97,121.98,37.43,156.3,73.73,229.4,30.65,52.36,100.95,45.12,116.11-14.59M689.97-1135.93c-13.93,2.34-24.53,5.3-26.42,9.03l-.18.35c-1.31,3,2.91,6.41,11.18,9.58,7.67,2.95,18.57,5.41,27.6,6.8,145.65,24.39,303.04-36.57,389.83-157.55,24.42-31.66,48.22-84.37,14.29-117-26.06-23.96-71.9-19.65-99.98.26-54.82,41.01-84.99,106.58-133.44,154.32-49.04,52.51-111.28,86.25-182.88,94.21M573.64-1393.86c39.75,82.33,132.73,145.49,224.59,138.65,47.7-4.17,89.52-32,115.88-71.92,18.31-26.49,37.09-72.56,13.62-99.58-24.66-26.52-54.85-3.15-67.81,23.6-17.5,35.34-48.3,65.15-88.65,69.76-77.28,7.77-139.97-54.25-183.97-111.07-9.52-10.66-22.2-35.09-35.32-37.03l-.37.11c-11.99,13.55,14.13,71.21,22.02,87.46M2209.48-1084.36c.85-6.49.42-13.79-.37-20.84-21.91-213.86-174.31-462.33-404.13-473.57h-1.41c-48.39-.63-100.56,8.9-138.44,29.17-7.61,4.31-19.36,11.04-18.3,20.6.54,6.92,14.38,10.43,24.17,10.21,108.14-6.9,209.65,29.14,293.02,98.4,106.39,84.93,173.8,205.6,215.43,332.94,7.12,18.51,26.51,27.31,30.03,3.09M1482.6-1588.05c-54.46,12.47-96.27,54.25-143.45,82.03-40.64,26.76-83.86,50.05-127.24,72.58-9.86,5.61-29.77,12.49-34.57,21.05l-.14.46c2.25,12.07,40.96,2.49,51.9.72,74.52-15.59,148.98-31.52,223.39-47.82,25.42-5.72,51.37-12.72,73.01-27.52,70.43-47.15,38.01-116.42-42.9-101.5M1986.05-516.84c-27.17-125.03,61.31-241.15,63.03-363.73v-1.4c.11-49.13-15.81-98.66-41.52-140.67-13.69-22.1-29.31-44.38-48.19-61.86-25.08-22.99-34-13.92-23.23,20.22,55.73,138.05,17.18,227.3-15.41,363.51-8.8,36.43-15.72,74.75-10.84,112.1,4.07,34.24,19.99,70.58,45.27,92.87,27.74,24.1,34.43,5.09,30.89-21.03M1534.5-1012.21c-3.6,37.5-3.66,87.48-3.35,127.69-2.09,131.81,69.47,257.39,180.11,326.89,36.38,22.8,108.59,62.14,141.47,19.48,24.14-58.45-99.93-106.45-137.51-136.76-99.83-65.14-138.07-157.09-146.8-272.49-2.08-18.14-4.77-37.1-8.67-53.45-5.07-21.9-11.38-35.7-16.5-34.52l-.29.06c-3.71.98-6.69,9.47-8.44,23.1M2284.88-126.36c-88.77-183.21-314.81-362.5-524.47-364.3h-1.34c-161.38-1.63-330.98,92.03-384.48,250.02-38.72,110.65-1.58,239.91,91.05,312.62,34.15,29.15,90.4,53.17,45.24-13.89-22.13-34.2-33.57-71.27-34.01-110.79-.77-85.23,40.16-163.7,102.07-220.43,74.18-69.46,188.13-106.11,296.89-79.22,110.76,27.2,214.18,80.74,304.81,150.08,27.35,21.23,52.22,45.47,75.13,71.41,8.95,10.67,37.9,37.01,29.11,4.49M1164.29-450.49l-.52,1.34c-47.11,146.94,5.17,429.9,150.92,485.93,14.36,3.27,30.54-3.2,38.04-15.99,11.75-23.31-4.63-52.2-16.47-72.85-71.89-96.35-153.6-188.44-154.8-315.81-.72-20.71,2-41.02,5.5-61.38,1.6-10.16,3.98-21.39,1.17-29.34-5.61-15.28-20.54-3.77-23.85,8.1M2097.27-156.59c8.27,3.06,15.72,4.24,19.87,2.18,16.82-13.96-30.02-48.65-41.26-58.54-76.73-62-168.94-103.09-270.08-104.82l-1.34.02c-139.65.29-248.69,105.96-253.95,249.46-1.63,26.91,9.47,48.91,32.44,18.87,98.06-162.95,301.21-193.84,467.39-127.24,15.84,6,31.38,14.13,46.91,20.08M2303.53,52.5c29,19.84,56.66,43.47,81.9,67.9,3.89,4.01,11.1,9.99,14.27,9.69l.57-.02c7.06-1.85,4.03-15.44-.35-27.85-12.82-31.95-34-60.72-57.66-85.45-97.37-98.7-228.84-159.55-367.9-158.98-68.6-.89-132.07,27.99-197.3,44.84-41.02,12.42-85.08,8.73-125.52,22.77-103.25,39.15-20.79,135.05,52.82,140.79,126.57,13.44,177.62-114.74,353.88-100.9,87.59,7.35,171.4,39.35,245.3,87.2M1244.83-319.12c-.22,50.27,10.78,97.67,37.58,140.56,4.49,7.21,13.82,17.45,19.54,16.61,12.98-1.88,9.1-15.25,9.18-24.99.11-18.44-1.17-37,.71-55.23,6.55-63.71,27.89-120.01,79.56-162.36,44.62-36.55,91.84-66.55,148.72-80.57,38.55-9.5,65.86-42.55,66.38-75.25.55-35.67-25.13-68.53-62.75-82.36-27.34-10.06-52.28-3.44-77.7,6.92-130.53,53.23-220.66,181.94-221.22,316.68M1695.17-764.25c34.2,47.27,79.85,88.02,134.79,109.24,10.7,4.44,32.17,8.89,35.03,4.51l.28-.29c4.75-9.89-17.21-26.19-25.69-36.23-76.59-73.76-85.31-184.01-107.59-282.1-32.34-139.9-128.36-287.01-278.09-314.98-36.6-5.01-74.5,19.19-56.37,56.68,11.92,23.7,33.86,39.95,54.8,56.82,49.73,37.29,98.81,78.54,127.16,135.02,23.23,43.47,34.8,92.54,50.27,138.73,15.41,46.95,36.23,92.52,65.41,132.61M2099.56-914.37c-24.19-27.28-26.86,9-24.13,26.63,15.08,104.78-37.2,203.03-45.68,305.61l-.03,1.28c.34,28.28,4.91,56.82,13.24,84.9,10.53,34.29,29.42,66.72,54.83,92.24,41.18,39.95,40.06,4.29,28.35-31.66-46.74-161.33,77.42-254.01.91-429.36-7.86-17.5-15.78-35.32-27.49-49.64M2500.46-177.74c4.89-24.86.06-51.6-.25-76.93-5.24-123.43-14.62-205.46-113.05-290.16-34.38-36.04-64.58-75.67-81.25-123.11-9.72-29.32-21.02-58.75-43.36-80.87-11.13-10.9-25-23.34-33.46-20.82l-.42.25c-4.66,6.1,1.49,16.33,3.28,23.48,18.68,54.99,21.19,114.28,27.34,171.82,12.69,102.21,56.45,159.59,124.38,233.11,33.23,46.53,63.49,96.69,84.33,149.92,5.4,18.7,22.42,44.62,32.46,13.3M2426.81,421.49c47.47-37.18,54.79-109.62,31.89-161.39-16.08-37.58-41.06-66.66-73.39-89.71-13.35-8.44-26.88-23.22-42.69-22.53-19.45,7.3,18.11,41.67,23.39,52.7,32.86,47.3,45.05,98.6,27.97,154.57-3.43,12.26-8.09,25.37-8.4,37.58l-.02,1.21c-.83,25.03,17.59,43.22,41.24,27.57M2364.27-792.43c1.94-3.09-2.35-8.8-10.75-15.38-8.09-6.43-18.67-12.92-27.66-18.88-73.98-48.05-126.58-116.79-160.86-196.04-29.42-58.28-27-135.5-69.76-186.12-45.27-42.73-90.23,9.29-89.68,59.12,1.8,171.59,171.02,304.86,323.82,355.31,9.73,2.91,28.71,7.81,34.64,2.34l.25-.35ZM2637.75-876.57c-241.29-38.26-368.58-326-278.27-540.14,5.26-12.02,17.79-44.76-5.46-37.84-17.9,8.7-31.8,27.55-45.1,42.81-35.46,45.56-58.57,107.85-59.54,166.39l-.02,1.26c-4.2,189.15,105.21,396.26,299.2,419.05,28.45,2.11,56.91-1.97,84.62-13.79,25.93-10.64,37.17-30.14,4.57-37.73M1900.39-1639.6c-16.04.75-55.25,5.09-56.2,19.99.48,2.77,3.68,5.29,8.81,7.4,13.29,5.09,28.77,6.23,43.22,9.58,52.19,11.23,103.65,30.52,129.24,80.24,6.21,10.21,12.5,20.54,20.24,28.12,17.71,19.24,48.1,14.93,61.95-5.92,15.9-23.37,5.35-54.85-11.18-75.27-46.13-53.57-126.21-64.17-194.68-64.2l-1.4.06ZM2448.4-1097.25c-14.68-107.85,19.14-206.06,81.91-293.53,10.13-14.32,21.23-29.88,27.11-46.47,17.5-42.35-16.16-91.74-61.86-84.96-26.09,3.49-48.82,27.48-63.8,50.48-36.03,54.77-49.93,121.52-50.13,185.86l.02,1.32c2.84,72.98,13.24,153.8,54.73,215.98,3.94,4,7.47,5.12,9.78,2.89,5.24-5.44,3.18-22.31,2.24-31.58M457.46-1091.66c21.1,81.97,80.64,148.58,146.16,199,148.29,114.45,392.11,145.52,550.15,34.49,57.57-40.46,100.44-97.89,112.76-169.19,1.89-15.38,2.8-29.92-6.38-32.28-12.06-.23-22.33,19.17-30.09,28.83-67.73,104.25-188.49,149.72-313.55,148.72l-1.29-.03c-163.75-7.38-314.59-83.8-415.37-215.03-7.35-9.21-15.62-20.79-23.93-28.05-22.73-17.81-23.33,15.05-18.45,33.52M1048.11-598.29c-22.9.32-51.63-1.46-68.75,14.75-14.98,13.84-14.59,35.57.97,50.9,28.4,27.75,68.98,37.32,107.44,37.4,147.66-2.35,271.97-86.82,348.94-210.71,13.07-20.37,22.22-42.76,28.02-66.17,9.04-39.52-14.28-30.55-30.12-6.77-89.85,122.83-237.11,180.77-385.12,180.58l-1.37.02ZM1388.1,319.87c39.47-17.71,81-31.49,121.01-48.07,12.49-4.66,38.29-20.74,8.8-23.7-166.5,13.21-253.16,60.65-401.24-51.44-9.64-6.09-17.28-9.44-20.34-7.13l-.38.31c-3.04,2.55-.98,10.98,3.69,21.23,37.67,81.34,123.04,134.76,212.29,131.62,26.99-1.25,51.82-12.15,76.18-22.83M851.36-545.44c-55.99,88.31-51.11,201.31-27.77,298.95,2.8,10.26,7.41,28.15,16.53,33.2l.66.21c14.27-.35,8.61-49.79,9.93-62.55,3.24-85.06,47.27-159.44,81.14-235.42,38.6-90.86-34.17-107.51-80.5-34.4M494.81-1145.28c115.14,141.5,355.26,270.88,524.71,154.15,46.42-29.57,87.59-71.96,142.7-84.13,21.39-2.94,60.45-8.86,23.65-23.94-124.81-31.98-244.4,37.63-364.92,61.17-111.36,25.69-216.41-39.39-296.31-111-13.82-10.81-35.95-37.35-49.44-36.66l-.37.17c-6.06,9.07,12.82,30.94,19.97,40.24M1071.86,122.33c87.43,76.91,204.11,122.57,321.77,98.55,20.7-4.37,40.47-11.5,60.08-19.21,9.56-3.44,25.13-12.62,24.46-18.59,1.32-8.27-21.33-9.8-31.12-8.89-208.89,13.41-393.67-131.46-481.91-313.12-18.67-36.49-30.75-75.38-43.41-114.13-3.41-9.98-7.93-19.39-12.44-23.43-12.73-11.92-15.39,20.17-14.39,32.12l.05,1.37c4.89,142.23,65.9,271.17,176.91,365.32M1088.25,379.9c-5.4-29.46-11.06-57.92-16.73-86.92-22.23-157.95-91.17-268.05-251.32-309.15-36.33-10.03-73.82-12.96-111.08-17.02-6.4-.74-15.07-.63-18.93,4.32-5.81,8.1,2.03,16.15,10.35,21.73,81.87,54.76,148.05,121.88,190.1,208.23,15.39,29.23,23.83,63.31,37.2,94.04,25.06,54.1,75.82,102.07,136.87,109.57l1.25.09c19.31,1.01,26.25-5.95,22.3-24.9M252.68,470.18c-25.56,36.8,13.09,63.06,50.67,57.4,18.54-2,36.2-8.38,53.51-16.94,250.1-130.09,280.24-480.44,89.6-676.16-24.23-25.19-50.71-49.34-80.4-67.9-14.05-8.49-24.73-12.53-27.62-10.78l-.22.12c-2.95,1.98,2.74,10.43,13.9,22.47,10.33,11.26,24.56,24.57,36.38,37.98,111.65,128.33,118.86,304.29,43.36,453.61-20.7,42.67-47.48,82.1-81.28,115.56-28.23,31.18-72.33,51.19-97.9,84.65M497.4-399.33c19.57,15.13,61.41,36.07,55.74-7.01-28.66-104.93-97.27-194.08-160.86-280.24-48.82-64.03-87.34-136.39-97.63-217.66-3.08-15.35-2.48-43.72-11.56-52.82l-.35-.18c-14.18.12-19.84,49.68-21.77,63.54-23.28,193.44,73.52,386.86,236.43,494.38M608.79-351.48c7.49-10.15,15.25-34.78,20.71-57.79,17.05-69.79,28.06-144.23,8.36-214.63-39.56-131.61-160.55-217.66-213.31-342.79-19.68-45.84-30.17-94.34-30.68-144.49-.54-22.3,2.4-45.38,3.2-67.73.45-15.45-1-26.05-5.17-28.12-5.24-5.89-21.82,19.56-28.2,34.43-41.29,93.2-52.07,202.74-16.53,299.15,64.41,178.62,252.22,263.91,242.37,472.57l.02,1.43c.34,22.4,2.03,70.18,19.22,47.98M507.8-1569.29c-19.39-38.18-21.56-82-11.76-123.26,3.01-20.37,17.48-45.84,8.52-65.27-11.36-12.64-30.55,4.12-43.52,19.19-23.6,28.95-36.66,65.3-37.35,102.42l-.03,1.4c-.92,45.35,17.28,95.75,62.14,114.36,10.87,4.03,27.6,7.87,35.49-2.43,7.57-12.53-7.63-33.4-13.49-46.41M302.11-1090.47c13.7-22.3-50.25-21.53-62.74-21.93l-1.52-.02c-33.86,1.37-83.14-.48-101.1,33.52-3.21,7.83-2.77,16.56,2.08,23.34,23.5,25.45,61,2.58,89.97-5.06,21.36-7.92,60.91-15.79,73.32-29.86M636.46-1562.24c-15.52-102.27-2.04-214.78-59.02-306.09-10.67-16.5-22.79-39.2-40.06-47.84l-.74-.28c-21.11-3.61.31,38.63,4.4,50.14,5.15,13.21,9.64,26.72,13.01,40.49,9.29,37.4,9.7,76.3,3.51,114.17-5.18,34.66-19.31,70.32-15.79,104.72,2.48,31.91,20.82,59.97,43.95,81.23,14.44,12.61,37.27,35.98,55.93,33.68,19.77-7.03-5.04-53.45-5.18-70.23M84.5-1332.96v1.34c1.52,63.12,38.49,117.42,86.14,159.19,10.47,8.73,23.63,19.71,37.2,21.05,24.79-2.49-17.96-47.76-22.33-58.71-11.27-18.59-19.64-38.8-25.39-59.72-17.04-61.69-10.04-108.54,17.61-164.41,9-26.14-12.55-28.85-30.22-18.47-39.24,22.45-63.49,73.72-63.01,119.72M175.89-1347.23c-.58,27.51,3.06,57.05,20.42,79.65,14.15,19.74,44.28,27.08,55.88,2.57,4.23-8.24,4.31-20.56,3-29.95-6.63-50.36-22.57-103.18.68-149.26,3.61-8.93,23.57-37.55,4.49-38.43-8.4.78-16.04,6.77-22.5,11.92-36.07,31.23-59.69,74.79-61.91,122.35l-.06,1.15ZM133.93-822.25l.02,1.41c4.57,102.53,42.64,197.51,135.05,260.2,29.55,20.68,54.26,22.64,24.91-16.76-92.84-128.1-121.11-336.29-5.38-457,9.93-12.52,12.36-26.12-6.26-25.08-28.69,4.2-55.86,23.97-76.88,43.62-51.2,49.22-70.76,121.6-71.46,193.59M875.44-1740.13c-58.55-6.27-79.19,49.14-42.55,91.74,73.87,80.39,209.26,78.19,309.81,66.37l1.41-.18c25.4-3.26,72.61-9.46,88.37-19.33,1.89-1.12,3.71-2.52,4.06-4.35.29-3.01-6.55-5.12-18.28-6.34-14.42-1.57-33.2-1.35-48.64-2.8-87.29-8.32-156.33-67.32-232.91-105.02-19.08-9.53-40.09-18.21-61.28-20.08M398.89,684.79l-.4.34c-2.77,2.49.97,8.98,7.81,16.13,25.85,25.91,57.43,45.04,93.06,54.62,141.83,39.21,274.95,9.13,387.11-84.34,33.8-28.17,64.86-58.89,96.38-89.12,8.18-7.44,17.84-21.4,10.76-31.25-22.28-23.33-70.09,15.19-93.32,26.48-28.31,16.33-55.11,35.37-83.39,51.62-108.77,61.49-240.45,102.62-365.57,67.23-15.19-2.92-38.92-15.93-52.45-11.7M2622.17,591.1s-.05.11-.08.17c-3.63,9.66,5.92,19.1,15.85,16.24.81-.23,1.65-.48,2.46-.75,3.61-1.2,6.89-3.69,10.04-5.98,35.8-26,74.38-49.67,122-48.61v-76.81c-53.03-.68-128.75,61-150.28,115.74M883.93,520.83c1.2-24.9-22.34-41.39-45.21-31.88-24.42,9.44-42.36,32-62.06,48.79-43.38,39.44-91.83,70.79-146.85,89.15-12.44,3.69-53.2,21.56-22.82,25.76,79.87-4.8,155.98-38.27,226.65-75.25,21.93-11.66,48.21-28.63,50.22-55.37l.06-1.2ZM387.22,270.71c36.18-66.52,40.52-147.51,24.63-219.89-17.36-74.3-56.62-146.36-118.48-192.55-30.8-21.27-29.97-.15-16.65,23.8,40.24,72.7,59.28,160.41,37.58,241.6-8.6,34.46-24.34,69.03-26.09,104.58l-.05,1.32c-2.58,69.36,59.52,111.82,99.06,41.13M184.54-124.06c-38.38-33.8-104.99-24.79-109.1,32.94,1.48,48.67,44.01,82.19,66.32,122.11,43.35,68.81,52.56,147.08,38.35,226.28-1.18,9.81-6.84,32.21-.35,38.53l.55.29c11.76.65,21.91-18.62,27.91-27.62,65.18-114.59,80.79-295.57-23.68-392.54M2415.86-1924.23h-58.66c10.46,40.44,31.03,73.42,55.88,103.75,11.61,14.18,25.51,26.56,39.12,38.93.65.58,1.52.94,2.52,1.14,5.94,1.17,11.04-4.35,10.44-10.36-.08-.68-.17-1.35-.28-2-.34-1.94-2.81-3.38-4.01-5.26-51.54-79.67-44.04-120.57-45.01-126.2M2236.38,228.58c36.77,41.95,58.52,95.95,74.42,148.95,2.81,8.83,8.38,34.09,21.17,27.2,10.15-9.52,8.44-39.46,9.07-55.56l.02-1.28c.63-188.75-164.45-310.22-338.84-303.64-147.74,1.85-279.12,190.75-423.47,123.29-15.04-8.26-44.12-15.59-34.27,12.12,8.63,17.85,26.28,29.97,41.49,42.02,84.79,67.61,193.05,36.49,278-13.65,62.75-38.18,132.47-78.3,208.02-62.41,60.09,13.58,119.88,39.75,164.41,82.96M2549.25,99.18c.72,10.19,7.81,24.46,14.52,20.08,12.52-9.87,15.61-36.23,23.53-51.03,23.19-53.2,77.99-81.96,115.02-124.32,20.53-20.94,25.42-60.77-8.95-69.38-24.33-5.32-49.45,8.5-68.7,22.6-59.75,44.93-76.25,129.36-75.56,200.82l.15,1.23ZM803.35,252.1c-37.1-51.87-61.21-112.05-92.29-167.9-27.94-48.16-62.66-91.89-102.45-131.35-11.53-10.15-27.03-29.08-41.18-31.95l-.45.08c-2.17.4-2.48,2.89-.91,6.89,3.8,9.27,12.04,18.47,18.57,26.65,25.65,31.02,44.99,65.3,58.55,101.95,17.01,43.65,21.42,91.97,33.61,136.98,21.63,81.48,59.26,153.35,122.83,213.95,62.83,60.09,137.31,107.62,229.25,100.61,27.49-1.94,54.33-7.69,81.19-13.18,43.16-8.44,33.46-22.73-2.11-28.2-126.13-26.72-233.11-110.67-304.63-214.52M639.42-764.06c93.86,86.46,225.01,115.17,350.79,117.37l1.34-.02c214.07,1.18,499.47-130.47,478.15-378.88-9-106.42-97.44-209.83-205.99-224.05-41.33-5.23-83.54,2.26-119.08,23.4-12.19,6.84-30.18,23.56-18.65,33.97,9.5,8.61,23.63,9.89,35.75,12.99,40.5,8.43,80.73,21.83,114.82,47.28,115.43,85.59,42.78,224.93-51.48,292.99-108.21,83.99-242.97,124.66-379.59,123.15-69.33.74-135.27-18.5-192.55-58.32-14.79-7.86-24.66-5.35-13.52,10.12M1587.35,532.45c144.29,5.9,249.47,28.43,363.86,122.75,19.94,19.36,45.65,26.23,25.94-8.95-70.43-125.01-194.19-215.12-338.16-216h-1.38c-63.49.34-124.46,11.09-176.77,31.29-8.63,3.51-21.99,8.69-21.05,19.62,7.49,29.92,118.06,48.94,147.57,51.28M2251.58-410.26c-16.93-29.4-29.23-62.17-35.66-96.57-2.12-8.81-3.88-20.64-10.41-26.52-13.82-6.3-11.16,32.89-11.38,44.02l.02,1.31c2.29,118.72,34.26,241.63,114.91,330.28,106.01,101.53,160.18,211.64,180.34,357.48,9.27,36.21,22.62,24.66,22.7-3.31-1.49-199.37-75.11-399.21-212.18-544.12-18.25-19.05-35.44-39.86-48.33-62.57M512.54-1851.07c-4.06-19.02-12.21-52.65-17.44-73.22h-32.86c10.3,44.22,9.26,71.96,10.23,106.81.14,6.01,5.26,15.32,10.07,16.84,5.83,1.88,15.52-.89,20.5-5.2,14.05-12.06,12.92-29.23,9.5-45.22M2454.7-1558.12c20.11-7.04.42-27.16-10.56-33.01-154.66-109.37-373.53,72.7-287.5,236.89,6.92,14.81,51.36,71.61,59.03,33.4,12.1-125.21,84.77-231.26,213.92-236l1.2-.02c7.89-.21,16.11.82,23.91-1.26M2584.99-1924.71c-35.03,0-76.68-.31-109.5.45-1.43,29.4,4.71,47.53,12.98,63.8,13.53,26.62,42.22,29.54,64.78,9.44,21.19-18.91,29.66-43.58,31.74-73.69M2360.75-1819.12c5.06,1.38,9.69-3.23,9.33-8.46-.08-1.21-.31-2.38-.78-3.4-9.81-21.14-22.71-41.01-30.26-63.04-5.18-15.15-7.21-20.25-9.53-30.37h-50.34c16.62,41.59,50.11,74.5,80.11,104.48.38.37.89.63,1.48.78M811.26-1621.21c-35.75-30.32-36.72,6.35-27.75,33.57,7.27,23.1,19.54,45.08,34.27,64.23,51.51,68.03,139.53,92.52,222.41,90.88l1.4-.03c50.37-2,101.73-12.41,148.82-31.88,46.1-19.74,85.99-51.33,121.66-88.38,45.19-48.14,35.86-70.06-25.88-35.63-115.28,62.32-263.63,91.69-385.72,35.34-34.26-15.32-61.66-42.95-89.2-68.09M1904.48-1873.86c-129.03,33.21-237.37,118.19-291.43,245.38-7.13,18.85-19.93,43.45-15.88,62.34l.29.78c17.18,33.15,110.11-47.74,129.92-62.89,54.8-44.42,111.42-88.23,170.27-127.92,91.81-57.63,198.5-103.22,308.13-75.21,9.1,2.44,36.95,7.75,35.8-1.52-.8-7.13-18.21-17.64-27.66-21.19-98.6-41.73-203.23-48.84-309.42-19.77M2371.64-1659.37l.21-.25c.38-13.09-62.44-28.05-76.22-33.63-61.68-18.62-123.87-41.98-189.06-41.16-29.48.62-63.17,7.95-82.16,31.81-26.09,33.14,4.49,60.08,39.58,60.8,24.54,1.61,49.21-3.46,73.3-7.84,62.01-12.29,124.2-18.27,186.81-10.81,12.82,1.08,38.61,6.14,47.53,1.08M1376.86-1407.7l-1.32.02c-79.53,1.31-157.7,30.71-215.1,86.25-20.62,18.24-32.64,45.18,10.59,29.6,18.64-6.87,38.73-13.89,58.55-18.42,301.68-76.64,567.17,181.68,646.94,455.44,9.33,23.88,27.92,34.9,31.95,3.57,1.69-21.17-1.85-44.21-5.09-65.69-42.01-253.82-260.77-486.87-526.53-490.76M395.64-354.41c9.29,1.57,19.05.35,28.59.45-4.83-9.39-7.86-20.51-14.81-27.94-35.92-38.47-82.2-58.88-132.18-71.78C218.89-468.76,44.7-419.5,0-383.61v133.58c12.5-10.03,24.88-18.87,37.52-28.68,106.73-82.82,227.56-97.66,358.12-75.7M167.88-504.55c5.38.75,11.15-.55,16.55-1.92,23.99-6.03,31.45-29.12,17.07-52.28-12.47-20.07-29.43-32.83-49.77-39.93C98.78-617.2,48.31-610.64,0-580.47v143.42c1.95-1,106.54-75.82,167.88-67.5M197.36-196.22c52.34-4,101.04,7.81,141.33,44.73.4.37.88.68,1.38.94,6.72,3.28,14.09-3.51,12.85-10.87-.14-.82-.29-1.63-.48-2.44-.43-1.97-2.61-3.54-3.97-5.32C272.54-269.9,97.32-300.41,0-179.37V-41.67c55.76-94.86,103.22-147.37,197.36-154.55M115.4,135.36c-1.66-49.45-14.5-95.95-42.29-137.47-3.14-4.67-10.01-6.83-15.16-10.16-1.02,5.54-3.91,11.49-2.77,16.5,12.46,54.88,6.32,108.21-15.84,159.07C29.11,186.83,13.29,207.94,0,230.15v188.43c75.15-103.13,118.48-190.86,115.4-283.21M101.26-1062.46c-10.13-81.13-38.44-159.84-31.8-243.29.09-1.12-.26-2.29-.86-3.46-3.11-6.06-11.84-6.67-15.91-1.2-.74.98-1.23,2-1.34,3.04-2.44,26.03-5.35,52.19-4.84,78.25,1.54,77.74,3.61,155.58-16.56,231.48C23.23-972.4,13.73-947.62,0-924.54v184.37c73.92-92.54,113.31-225.76,101.26-322.3M453.81,658.89h1.37c28.17-.38,59.91-6.58,84.88-18.97,18.93-10.2,15.48-22.4-8.37-21.53-169.21,15.44-198.31-72.75-286.84-64.12-24.22.55-70.7,25.69-23.05,35.8,46.68,4.4,85.83,34.67,129.38,49.37,33.71,11.67,68.33,18.78,102.62,19.45M194.39,465.24c30.38-25.72,56.19-57.15,82.25-87.55,16.04-18.7,18.21-42.47,8.87-64.95-3.72-8.95-13.73-18.64-22.71-20.97-6.86-1.8-18.74,5.55-24.57,12.21-11.72,13.35-20.1,29.58-31.12,43.61C153.7,415.34,82.88,455.11,0,475.17v77.21c7.2-.77,14.52-.91,21.57-2.35,64.97-13.24,122.83-42.49,172.82-84.79M.35,737.36c0,36.92-.35,73.47-.35,110.39h80.34c.68-23.65-7.83-43.13-17.71-62.57-12.72-25-24.13-47.47-62.28-47.82M1461.43-1798.3c21.13-45.48,50.31-85.88,85.22-126.47-52.34,0-104.13-.28-151.55.38-20.25,27.03-32.31,48.76-37.86,70.32-5.49,21.34-4.54,44.3-7.13,66.47-5.78,49.22-21.08,93.52-64.52,123.27-2.86,1.98-4.04,10.27-3.49,12.21,6.26,21.45,57.31-10.99,75.85-23.56,45.64-30.91,80.14-72.39,103.49-122.63M264.93-1638.18c.68.77,1.63,1.34,2.77,1.75,7.63,2.81,15.32-4.06,14.27-12.13-.42-3.11-1.17-5.95-2.8-8.15C215.81-1742.41,94.06-1768.27,0-1716.7v83.91c12.62-9.16,24.94-18.81,37.93-27.4,74.96-49.68,168.65-43.69,226.99,22M216.52-1765.81c45.58-37.81,49.27-110.33,35.21-158.52-27.72-.71-61.98-.4-91.91-.4-2.57,41.33-21.42,72.78-33.17,106.28-3.32,9.44-9.38,18.76-8.81,28.75,1.88,33.74,27.69,45.41,55.37,42.21,15.07-1.75,31.63-8.66,43.3-18.33M120.11-1478.6c11.75-10.63,23.6-16.76,34.84-25.83.92-.75,1.71-1.68,2.37-2.71,3.63-5.49,1.32-13.29-4.92-15.32-.82-.25-1.61-.38-2.41-.37-16.67.52-93.31,8.07-149.98,36.03v239.55c6.57-24.28,73.41-192.75,120.11-231.36M337.12-1570.08c56.48-62.12,84.23-137.14,95.06-219.06,5.38-40.67,15.81-83.46,4.18-135.16-32.84-1.17-89.66-.29-124.37-.29,43.98,141.82,32.31,270.98-29.85,371.38-.98,1.61-1.31,3.63-1.31,5.86-.02,7.57,6.66,13.81,14.15,12.65,1.28-.2,2.41-.6,3.32-1.29,13.65-10.47,27.29-21.4,38.81-34.09M294.51-1279.61c15.95,30.98,74.59,54.77,87.68,9.9,5.87-31.97-15.27-61.57-21.67-92.12-9.87-36.54-9.69-73.53,2.15-109.02,3.4-15.19,20.01-40.86,10.13-54.08l-.62-.45c-6.73-3.91-17.3,3.11-23.56,8.03-66.58,55.45-99.43,161.81-54.13,237.74M441.97,782.38c.29,1.4.63,2.8,1.03,4.17,7.83,26.48,11.21,34.6,19.24,60.98h32.86c-7.9-32.54-20.05-49.84-40.15-72.01-.03-.05-.08-.09-.11-.14-5.14-5.54-14.38-.4-12.87,7M2192.53,591.18c5.8-29.94,10.79-61.23,8.41-91.29-5.61-69.83-45.73-120.66-100.5-160.95-.48-.35-1-.63-1.58-.86-7.53-2.97-15.07,5.41-12.13,12.98.34.91.78,1.77,1.31,2.57,16.45,25.2,29.51,51.96,30.81,82.25,1.69,39,.58,78.11,1.32,117.16.63,33.48-1.05,67.4,3.95,100.27,12.09,79.59,62.75,137.73,114.76,194.45h13.44c-4.75-9.41-8.46-19.56-14.41-28.12-48.31-69.66-61.38-145.71-45.38-228.45M1882.01,789.97c-55.54,2.31-91.74,12.84-141.99,35.63-8.21,3.74-30.88,16.5-38.21,22.16h486.72c-6.43-4.17-12.44-9.32-19.36-12.35-91.77-39.96-188.46-49.53-287.16-45.44M2364.67,609.32c9.15-16.5,22.6-30.61,31.74-47.13,16.05-28.96,12.7-64.14-6.89-86.51-22.17-25.32-49.02-25.31-79.64-17.16-31.05,8.29-45.53,30.52-56.99,56.49-19.54,44.42-23.74,91.61-22.28,139.47,2.06,67.93,17.61,132.55,48.54,193.27h50.34c-.48-4.4-.8-8.83-1.48-13.19-12.44-79.1-2.54-154.7,36.64-225.24M2772.45,675.42v-72.7c-4.43.57-115.83,13.21-242.77,151.68-19.91,28.18-49.02,58.19-54.19,93.35h109.5c2.23-57.08,107.96-149.8,187.46-172.33M2479.9,685.68c17.08-11.44,36.14-19.9,53.65-30.77,21.51-13.35,34.17-32.55,30.45-58.75-3.57-25.17-19.45-41.84-43.38-47.84-12.87-3.2-27.89-2.44-40.96.68-30.77,7.37-52.83,28.4-70.84,53.17-53.85,74.22-67.09,157.37-51.62,245.58h58.66c2.26-17.64-.09-114.66,64.04-162.07M2772.58,737.35c-15.67,0-29.06-1.32-42.13.26-30.48,3.69-59.66,11.64-79.56,39.5-2.95,4.17-4.61,10.84-3.87,15.85.32,2.17,8.41,4.86,12.62,4.32,38.32-5.03,65.3,15.78,69.58,50.47h43.36s0-110.4,0-110.4ZM1618.95,803.04c7.55-5.04,6.64-17.02-1.74-20.53-.83-.35-1.68-.57-2.52-.66-28.32-2.35-56.77-4.71-85.14-4.44-49.36.46-90.48,21.65-125.69,55.11-4.07,3.86-5.89,10.1-8.76,15.24h151.05c19.01-21.54,42.67-35.26,70.15-43.42.92-.26,1.81-.71,2.66-1.29M80.34-1924.8H0s0,142.5,0,142.5c47.58-31.35,78.93-80.56,80.34-142.5M558.85,810.86c12.9,12.58,25.4,24.74,37.89,36.89h116.31c-28.48-22.62-108.24-50.42-147.29-52.51-8.44-.46-12.96,9.72-6.9,15.62M1372.51,778.54c12.5-5.12,24.56-13.28,35.34-22.54,26.34-22.67,23.79-60.08-5.07-78.36-22.63-14.33-46.9-18.27-72.22-12.44-69.47,16.02-121.61,97.3-131.81,182.55h106.94c13.79-34.71,36.37-56.77,66.83-69.21M0,602.72v72.79c161.79,7.12,260.42,57.02,305.8,155.06,2.55,5.52,4.27,11.44,6.35,17.18h124.21C393.61,690.89,168.93,560.73,0,602.72M140.76,729.83c-.4-.18-.83-.37-1.28-.49-9.76-3.12-18.08,8.44-12.5,17.04.11.14.23.31.34.46,21.99,30.75,33.78,64.04,32.69,100.92h91.72c-14.98-56.62-56.96-92.18-110.97-117.92M1141.63,756.18c5.18-51.79,25.91-97.12,59-135.31.78-.91,1.43-1.95,1.98-3.09,4-8.35-2.68-18.42-11.82-17.11-.98.14-1.94.4-2.81.8-11.13,5.14-22.05,11.9-31.54,20.1-38.6,33.34-61.92,78.01-76.11,128.75-8.9,31.83-13.18,64.27-6.52,97.44h70.43c-1.12-30.55-5.61-61.51-2.6-91.57M1054.16,670.93c36.5-52.34,85.94-90.14,140.48-122.03.51-.32,1.02-.65,1.48-1.05,8.52-6.94,4.06-21.48-6.92-22.27-.89-.06-1.78-.02-2.66.15-122.97,24.46-212.49,91.8-261.1,208.88-14.92,35.93-20.42,74.12-11.59,113.13h104.05c-20.39-65.6-1.08-123.28,36.26-176.82M222.78-1546.18c23.25.68,36.49-16.55,34.26-39.83-1.58-16.33-10.39-27.79-23.43-36.86-49.59-34.47-104.48-37.12-160.58-23.97-25.13,5.86-48.73,18.13-73.02,27.48v70.5c42.1-7.17,113.23-15.95,164.99-5.77,19.11,3.75,38.46,7.89,57.79,8.44M2123.92,730.46c-40.52-68.53-15.82-150.72-36.43-224.21-7.5-32.01-28.23-72.79-65.2-76.07-37.2-3.75-62.18,38.46-62.03,71.76l-.03,1.28c8.58,88.29,69.9,171.13,130.67,233.43,13.24,12.65,25.66,28.12,41.07,37.57,28.25,12.03-3.95-34.63-8.06-43.76M1453.88,590.51c83.6,93.2,194.16,159.99,320.25,171.31,35.5.8,76.94,1.52,107.67-19.08,14.47-10.78,23.36-28.82,23.79-47.91.92-35.94-34.17-59.34-63.98-70.79-88.66-24.91-182.97-.51-272.04-23.82-52.17-12.93-100.5-37.18-143.74-69.04-8.35-6.24-26.02-19.64-31.97-16.51l-.48.25c-4.31,2.23,2.26,13.01,6.04,17.14,17.65,19.7,36.9,38.43,54.46,58.46M516.06,585.92c6.21-.85,12.55-2.06,18.84-3.57,98.63-22.96,150.88-106.55,153.27-200.77l.02-1.37c.11-38.04-13.04-76.9-37.41-106.19-10.07-13.35-39.2-36.3-42.93-6.1-.57,87.59-56.08,168.91-129.35,214.35-20.94,14.98-61.58,25.33-61.85,56.06,6.15,41.92,63.69,52.77,99.41,47.59M2588.08,533.48c41.01-10.72,68.76-57.17,70.23-97.83l.02-1.37c.8-61.77-35.58-111.73-88.88-137.16-7.92-3.35-23.22-11.52-29.39-3.74-3.55,6.01,9.86,22.39,15.67,30.43,25.97,35.14,36.47,65.49,23.34,107.14-6.7,23.9-22.08,45.45-27.22,69.44-4.72,21.33,15.05,38.04,36.23,33.08M2237.05,417.56c7.9,11.87,28.8,34.64,33.86,8.49-.03-125.69-98.9-235.39-227.65-232.07h-1.32c-35.77.65-71.44,9.92-108.56,28.35-33.38,17.05-23.03,36.18,11.52,34.12,116.89-2.51,224.87,68.41,292.16,161.1M257.13-310.05l-.08.37c-.23,1.71,1.65,3.15,5.27,4.2,16.01,3.68,33.52,2.26,50.36,4.23,38.76,3.41,77.05,16.15,109.65,37.21,57.52,37.81,109.82,83.8,159.52,130.81,16.59,15.36,33.49,30.61,53.45,41.58,75.93,40.75,126.13-9.26,76.73-82.13-96.69-123.67-271.11-177.65-424.44-148.8-9.21,1.97-27.23,6.24-30.46,12.53M2031.06,319.72c-2.86-3.63-9.98-2.91-17.67-.52-27.12,9.84-56.19,15.08-84.17,6.47-35-9.72-60.81-37.93-93.52-52.13-23.94-11.58-55.73-8.96-76.33,8.33-18.59,17.47-1.95,41.26,12.42,57.54,32.48,36.6,78.73,56.33,127.5,58l1.35.02c46.68-.55,90.26-17.87,120.97-52.22,5.3-6.53,14.56-17.45,9.44-25.49M1656.51,358.22c27.31.32,54.33,7.58,79.96,21.28,6.15,3.12,18.25,8.12,21.63,1.62,4.91-24.71-37.26-56.99-58.48-65.84-81.6-33.72-173.13-25.02-252.69,9.95-58.32,24.68-114.73,58.68-180.01,59.94l-1.31-.02c-28.4.4-60.34-12.22-84.36-33.61-14.7-11.96-27.52-30.15-47.81-31.52-37.32,3.17-9.73,57.34-.09,75.68,10.07,17.5,23.43,32.32,40.84,43.24,55.8,31.45,127.73,28,188.18,12.89,82.62-23.93,159.53-64.34,242.29-87.06,16.88-4.44,34.54-6.86,51.83-6.53M597.26-1924.79c46.31,53.77,99.38,93.27,158.61,123.84,23.4,12.06,49.84,20.37,75.82,24.43,16.84,2.63,36.84-2.31,52.77-9.66,28.69-13.22,31.34-48.31,5.74-67.01-15.58-11.41-33.48-20.19-51.34-27.77-26.19-11.07-78.84-20.42-127.78-44.36-33.21.92-77.62.52-113.82.52M1166-1800.9c2.78.42,5.55-1.63,5.57-4.46,0-.51-.06-.94-.26-1.32-18.65-34.23-23.33-79.87-27.08-117.65-18.9-.8-51.4-.37-70.43-.37,4.41,56.32,52.57,118.08,92.2,123.8M1284.98-1797.78c-12.62-38.32-1.71-73.61,12.89-108.61,2.25-5.35,5.43-11.06,7.55-17.56h-106.73c-1.14,43.98,15.01,79.1,41.18,110.24,8.5,10.13,18.97,18.81,29.4,27.06,8.13,6.43,22.94,4.03,15.72-11.13M1026.13-1738.36c43.44,38.23,91.92,67.24,149.63,77.78,2.46.46,5.11-.15,7.86-1.2,7.61-2.92,10.89-12.1,6.64-19.07-1.21-1.97-2.6-3.77-4.26-5.2-13.56-11.56-29.26-20.67-42.49-32.55-61.92-55.71-105.81-122.51-124.49-205.39h-105.18c21.22,86.34,61.71,141.14,112.28,185.63M424.41-1436.63l-.03,1.26c-2.21,138.85,146.46,251.13,331.11,249.43,13.93-.23,42.96-2.17,47.02-12.9-2.55-16.5-63.46-15.48-80.96-21.53-122.01-24.8-183.67-112.76-205.8-227.93-20.42-68.36-91.54-61.75-91.34,11.67M638.35-1838.22c-21.22-1.34,3.95,43.99,5,55.39,7.15,26.54,6.04,54.28,5.01,81.59-3.66,56.82,6.58,112.14,38.4,159.7,55.2,81.67,72.39-13.02,75.51-65.52l.05-1.41c3.32-77.27-49.13-201.45-123.97-229.74M870.74-60.09c9.03,4.26,31.45,15.41,34.64,3.44-.58-12.35-19.47-25.11-29.69-35.41-34.8-32.78-61.43-70.7-79.61-114.42-23.57-54.89-29.54-116.43-18.96-175.08,5.95-39.17,21.16-77.74,21.24-117.02,2.65-71.56-47.59-130.03-105.7-165.68-15.05-10.04-37.1-16.07-29.65,6.87,4.12,11.13,12.27,22.7,17.73,33.75,12.46,23.79,13.25,51.6,12.87,79.1-.94,49.08-12.56,100.04-16.42,147.91l-.05,1.29c-3.38,152.09,65.27,277.04,193.59,335.24M2615.79-1555.19c-23.37,12.04-37.3,33.69-37.04,61.52.2,19.77,13.22,28.45,31.48,21.33,7.2-2.81,14.13-6.81,20.44-11.32,40.69-29.11,128.64-64.83,141.74-65.2v-70.5c-21.67,6.07-30.98,8.66-44.05,14.02-38.01,15.55-76.1,31.35-112.56,50.14M2186.66-1785.35c-24.42-.98-49.02,1.09-73.44,2.86-.54.05-1.05.17-1.55.35-6.72,2.54-6.4,12.26-.15,15.79.83.46,1.68.91,2.54,1.31,2.28,1.06,5.49.02,8.29.02,44.44-.03,88.82,3.72,130.35,19.42,48.5,18.3,99.46,33.49,142.76,61.98,111.62,73.44,320.94,80.27,376.96,50.84v-83.91c-25.62,12.58-46.7,23.31-69.24,26.97-88.02,14.27-173.48,4.52-256.81-27.66-83.94-32.4-168.28-64.32-259.7-67.96M2631.83-1339.43c6.38-12.62,13.52-25.06,19.85-37.64,4.11-8.32,7.57-18.28,4.84-23.82-5-9.5-19.3-.89-26.31,4.47-74.3,57.94-117.94,132.13-121.71,214.2l-.05,1.37c-6.26,233.79,271.95,269.85,204.74,205.82-124.01-83.65-150.01-233.97-81.37-364.4M2716.58-1421.91c-35.24,66.04-45.68,137.08-39.4,210.83,4.52,52.87,18.21,103.24,47.59,148.2l.14.23c6.7,9.81,22.85,3.72,21.31-8.04,0-.08-.02-.14-.02-.2-8.73-59.49,24.31-172.1,26.19-176.69.18-75.91.05-159.49.05-240.29-25.97,19.62-42.76,41.41-55.86,65.97M2674.1,461.04c-2.48,6.72,2.35,14.08,9.44,15.01,1.97.26,3.81.23,5.4-.45,31.8-13.56,83.42-53.31,83.43-57.49.22-67.55.17-120.4.17-187.96-67.53,120.03-37.24,151.92-97.1,228.45-.57.72-1,1.54-1.34,2.44M2677.1-1833.31c-30.31,14.76-62.32,20.42-95.95,13.38-19.24-4.04-33.6,2.48-40.5,17.88-6.37,14.16-2.17,30.97,14.12,40.35,15.18,8.73,74.27,30.08,186.09-4.2,10.7-3.29,31.55-16.41,31.55-16.41v-142.5c-6.81.02-28.14.6-43.18.6,1.74,42.38-15.25,72.95-52.13,90.89M1730.45-1924.63c-7.13.02-20.2.25-28.63.25-41.29,27.45-124.74,72.52-170.85,134.61-15.16,20.4-23.45,43.01-26.56,67.81-4.14,33.09,11.62,67.81,36.49,81.07,19.71,10.5,43.25,5.38,53.36-11.12,74.61-121.66,178.58-206.48,315.85-247.73,79.68-23.96,160.66-29.35,240.65-1.09,28.74,10.15,55.48,25.86,83.56,38.07,2.18.95,4.89.78,7.73.26,5.14-.95,8.33-6.18,6.58-11.12-.8-2.26-1.81-4.29-3.38-5.69-6.64-5.78-32.68-33.75-56.71-45.07-67.95-4.47-188.52-.4-256.74-.38-67.12.02-134.24-.08-201.34.14M2722.79,59.03c.17.83.49,1.63.94,2.41,4.46,7.78,16.61,6.7,19.81-1.69.34-.89.54-1.78.55-2.69.22-29.92,23.1-83.33,28.14-98.73.55-40.33.17-97.36.25-137.7-49.71,61.92-60.54,184.63-49.68,238.4M2484.53-739.2c-.66.09-1.34.23-2,.41-11.29,2.92-13.73,17.39-3.95,23.74,1.2.78,2.44,1.38,3.75,1.77,28.8,8.46,57.8,17.82,87.4,21.67,67.66,8.73,111.23,22.73,191.19-38.81,4.94-3.09,6.75-5,11.47-9.75,0-60.26.08-123.06.08-184.37-16.85,24.66-30.66,47.1-48.54,68.15-62.54,73.58-146.82,104.04-239.4,117.19M2611.84-188.42c-4.69,15.81-5.61,32.91-6.75,49.51-.29,4.18,4.38,10.53,8.44,12.55,2.66,1.32,9.06-2.54,12.42-5.58,4.04-3.66,6.55-8.98,9.87-13.47,34.97-47.05,54.89-52.63,136.62-104.62,0-44.62.02-88.17.02-133.59-4.63,2.38-136.31,113.6-160.63,195.21M2620.99,79.69c-17.82,28.05-26.79,60.95-27.23,94.43l-.02,1.46c-.55,51.71,23.48,104.67,65.98,134.96,11.66,9.07,32.94,17.11,40.29,11.04,25.65-21.02-70.15-94.66-47.68-218.12,7.66-39.29-.89-66.24-31.34-23.77M2362.38-725.82c-7.81-7.69-13.53-17.67-23.13-21.51-8.95-3.15-13.42,5.23-10.99,14.5,8.17,32.28,29.52,59.09,44.92,88.23,21.97,41.36,51.39,77.05,85.97,107.79,30.14,28.65,68.18,47.53,111.04,46.79l1.29-.03c93.63,3.34,128.89-128.83,20.25-137.73-87.32,6.04-170.24-35.6-229.34-98.04M2540.12-122.27c.03.4.09.81.2,1.21,1.77,7.38,12.72,9.52,16.35,2.84,1.37-2.55,3.58-10.16,4.01-12.9,20.44-131.76,148.97-264.71,211.72-305.93v-143.42c-7.41,3.63-12.36,7.15-16.91,9.83-172.86,101.47-228.5,291.88-215.37,448.37"/>
      <path class="cls-3" d="M4148.92-1407.7l-1.32.02c-79.53,1.31-157.7,30.71-215.1,86.25-20.62,18.24-32.64,45.18,10.59,29.6,18.64-6.87,38.73-13.89,58.55-18.42,301.68-76.64,567.17,181.68,646.94,455.44,9.33,23.88,27.92,34.9,31.95,3.57,1.69-21.17-1.85-44.21-5.09-65.69-42.01-253.82-260.77-486.87-526.53-490.76M3681.79-365.64c13.25,32.84,48.08,49.28,71.36,74.47,45.25,48.82,46.88,120.66,74.08,178.95,49.28,117.22,159.63,221.39,289.34,234.91l1.25-.02c26.03-.89,21.23-11.69.17-15.92-57.62-10.44-105.53-50.24-141.8-94.31-47.19-56.51-64.64-129.41-82.16-199.1-23.11-89.26-43.65-199.76-134.53-244.95-52.6-24.26-99.5,8.73-77.71,65.95M4758.11-516.84c-27.17-125.03,61.31-241.15,63.03-363.73v-1.4c.11-49.13-15.81-98.66-41.52-140.67-13.69-22.1-29.31-44.38-48.19-61.86-25.08-22.99-34-13.92-23.23,20.22,55.73,138.05,17.18,227.3-15.41,363.51-8.8,36.43-15.72,74.75-10.84,112.1,4.08,34.24,19.99,70.58,45.27,92.87,27.74,24.1,34.41,5.09,30.89-21.03M3647.5-1740.13c-58.55-6.27-79.19,49.14-42.55,91.74,73.87,80.39,209.26,78.19,309.81,66.37l1.41-.18c25.4-3.26,72.61-9.46,88.37-19.33,1.89-1.12,3.71-2.52,4.06-4.35.29-3.01-6.55-5.12-18.28-6.34-14.42-1.57-33.2-1.35-48.64-2.8-87.31-8.32-156.33-67.32-232.91-105.02-19.08-9.53-40.09-18.21-61.28-20.08M3345.7-1393.86c39.76,82.33,132.73,145.49,224.59,138.65,47.7-4.17,89.52-32,115.88-71.92,18.31-26.49,37.09-72.56,13.62-99.58-24.66-26.52-54.85-3.15-67.81,23.6-17.5,35.34-48.3,65.15-88.65,69.76-77.28,7.77-139.97-54.25-183.97-111.07-9.52-10.66-22.2-35.09-35.32-37.03l-.37.11c-11.99,13.55,14.13,71.21,22.02,87.46M4981.53-1084.36c.85-6.49.42-13.79-.37-20.84-21.91-213.86-174.31-462.33-404.13-473.57h-1.41c-48.39-.63-100.56,8.9-138.44,29.17-7.61,4.31-19.36,11.04-18.3,20.6.54,6.92,14.38,10.43,24.17,10.21,108.13-6.9,209.65,29.14,293.02,98.4,106.39,84.93,173.8,205.6,215.41,332.94,7.13,18.51,26.52,27.31,30.05,3.09M4254.66-1588.05c-54.46,12.47-96.27,54.25-143.45,82.03-40.64,26.76-83.86,50.05-127.24,72.58-9.86,5.61-29.77,12.49-34.57,21.05l-.14.46c2.24,12.07,40.95,2.49,51.9.72,74.52-15.59,148.98-31.52,223.39-47.82,25.42-5.72,51.37-12.72,73.01-27.52,70.43-47.15,38.01-116.42-42.9-101.5M4467.24-764.25c34.18,47.27,79.84,88.02,134.78,109.24,10.7,4.44,32.17,8.89,35.01,4.51l.29-.29c4.75-9.89-17.21-26.19-25.69-36.23-76.61-73.76-85.31-184.01-107.61-282.1-32.32-139.9-128.35-287.01-278.07-314.98-36.6-5.01-74.5,19.19-56.37,56.68,11.92,23.7,33.86,39.95,54.82,56.82,49.71,37.29,98.79,78.54,127.15,135.02,23.23,43.47,34.78,92.54,50.27,138.73,15.39,46.95,36.23,92.52,65.43,132.61M5056.94-126.36c-88.77-183.21-314.81-362.5-524.47-364.3h-1.34c-161.38-1.63-330.98,92.03-384.48,250.02-38.72,110.65-1.58,239.91,91.05,312.62,34.15,29.15,90.4,53.17,45.24-13.89-22.13-34.2-33.57-71.27-34.01-110.79-.77-85.23,40.16-163.7,102.07-220.43,74.18-69.46,188.13-106.11,296.89-79.22,110.76,27.2,214.18,80.74,304.81,150.08,27.35,21.23,52.22,45.47,75.13,71.41,8.95,10.67,37.9,37.01,29.11,4.49M4869.33-156.59c8.27,3.06,15.72,4.24,19.87,2.18,16.82-13.96-30.02-48.65-41.26-58.54-76.73-62-168.96-103.09-270.08-104.82l-1.34.02c-139.67.29-248.69,105.96-253.95,249.46-1.63,26.91,9.47,48.91,32.45,18.87,98.06-162.95,301.23-193.84,467.39-127.24,15.84,6,31.38,14.13,46.91,20.08M5075.59,52.5c29,19.84,56.66,43.47,81.9,67.9,3.89,4.01,11.1,9.99,14.29,9.69l.55-.02c7.06-1.85,4.04-15.44-.35-27.85-12.82-31.95-34-60.72-57.66-85.45-97.37-98.7-228.84-159.55-367.9-158.98-68.6-.89-132.07,27.99-197.3,44.84-41.04,12.42-85.08,8.73-125.52,22.77-103.25,39.15-20.79,135.05,52.82,140.79,126.57,13.44,177.62-114.74,353.86-100.9,87.6,7.35,171.42,39.35,245.32,87.2M3936.35-450.49l-.52,1.34c-47.11,146.94,5.17,429.9,150.92,485.93,14.36,3.27,30.54-3.2,38.04-15.99,11.75-23.31-4.64-52.2-16.47-72.85-71.89-96.35-153.6-188.44-154.8-315.81-.72-20.71,2-41.02,5.5-61.38,1.6-10.16,3.98-21.39,1.17-29.34-5.61-15.28-20.54-3.77-23.85,8.1M4016.89-319.12c-.22,50.27,10.78,97.67,37.58,140.56,4.49,7.21,13.82,17.45,19.54,16.61,12.98-1.88,9.1-15.25,9.18-24.99.11-18.44-1.17-37,.71-55.23,6.55-63.71,27.89-120.01,79.57-162.36,44.61-36.55,91.83-66.55,148.71-80.57,38.55-9.5,65.84-42.55,66.38-75.25.55-35.67-25.13-68.53-62.75-82.36-27.34-10.06-52.28-3.44-77.7,6.92-130.53,53.23-220.66,181.94-221.22,316.68M3462.02-1135.93c-13.93,2.34-24.53,5.3-26.42,9.03l-.18.35c-1.31,3,2.91,6.41,11.18,9.58,7.67,2.95,18.58,5.41,27.6,6.8,145.65,24.39,303.04-36.57,389.83-157.55,24.42-31.66,48.22-84.37,14.3-117-26.08-23.96-71.92-19.65-99.99.26-54.82,41.01-84.99,106.58-133.44,154.32-49.04,52.51-111.28,86.25-182.88,94.21M3623.42-545.44c-55.99,88.31-51.11,201.31-27.77,298.95,2.8,10.26,7.41,28.15,16.53,33.2l.66.21c14.27-.35,8.61-49.79,9.93-62.55,3.24-85.06,47.27-159.44,81.14-235.42,38.6-90.86-34.17-107.51-80.5-34.4M4871.62-914.37c-24.2-27.28-26.86,9-24.13,26.63,15.08,104.78-37.2,203.03-45.68,305.61l-.03,1.28c.34,28.28,4.91,56.82,13.24,84.9,10.53,34.29,29.42,66.72,54.83,92.24,41.18,39.95,40.06,4.29,28.35-31.66-46.74-161.33,77.42-254.01.91-429.36-7.86-17.5-15.78-35.32-27.49-49.64M5136.33-792.43c1.94-3.09-2.37-8.8-10.75-15.38-8.09-6.43-18.67-12.92-27.66-18.88-73.98-48.05-126.58-116.79-160.86-196.04-29.42-58.28-27-135.5-69.76-186.12-45.27-42.73-90.23,9.29-89.68,59.12,1.8,171.59,171.02,304.86,323.82,355.31,9.73,2.91,28.71,7.81,34.64,2.34l.25-.35ZM5272.5-177.73c4.91-24.86.08-51.6-.23-76.93-5.24-123.43-14.62-205.46-113.07-290.16-34.37-36.04-64.57-75.67-81.23-123.11-9.72-29.32-21.02-58.75-43.36-80.87-11.15-10.9-25-23.34-33.46-20.82l-.42.25c-4.66,6.1,1.49,16.33,3.28,23.48,18.7,54.99,21.19,114.28,27.34,171.82,12.69,102.21,56.45,159.59,124.38,233.11,33.23,46.53,63.49,96.69,84.33,149.92,5.4,18.7,22.42,44.62,32.44,13.3M5198.87,421.5c47.47-37.18,54.79-109.62,31.89-161.39-16.08-37.58-41.06-66.66-73.38-89.71-13.36-8.44-26.89-23.22-42.7-22.53-19.45,7.3,18.11,41.67,23.39,52.7,32.86,47.3,45.05,98.6,27.97,154.57-3.44,12.26-8.09,25.37-8.4,37.58l-.02,1.21c-.83,25.03,17.59,43.22,41.24,27.57M5220.46-1097.24c-14.68-107.85,19.14-206.06,81.91-293.53,10.13-14.32,21.23-29.88,27.11-46.47,17.5-42.35-16.16-91.74-61.86-84.96-26.09,3.49-48.82,27.48-63.8,50.48-36.03,54.77-49.93,121.52-50.13,185.86v1.32c2.88,72.98,13.25,153.8,54.74,215.98,3.94,4,7.47,5.12,9.78,2.89,5.24-5.44,3.18-22.31,2.24-31.58M5409.8-876.57c-241.29-38.26-368.58-326-278.27-540.14,5.26-12.02,17.78-44.76-5.47-37.84-17.88,8.7-31.78,27.55-45.08,42.81-35.46,45.56-58.57,107.85-59.54,166.39l-.02,1.26c-4.2,189.15,105.21,396.26,299.2,419.05,28.45,2.11,56.91-1.97,84.62-13.79,25.93-10.64,37.17-30.14,4.57-37.73M3820.18-598.29c-22.91.32-51.65-1.46-68.76,14.75-14.98,13.84-14.59,35.57.97,50.9,28.4,27.75,68.98,37.32,107.44,37.4,147.66-2.35,271.97-86.82,348.94-210.71,13.07-20.37,22.22-42.76,28.02-66.17,9.04-39.52-14.28-30.55-30.12-6.77-89.86,122.83-237.11,180.77-385.14,180.58l-1.34.02ZM4672.43-1639.6c-16.02.75-55.23,5.09-56.19,19.99.48,2.77,3.67,5.29,8.81,7.4,13.29,5.09,28.77,6.23,43.22,9.58,52.19,11.23,103.65,30.52,129.24,80.24,6.21,10.21,12.5,20.54,20.22,28.12,17.71,19.24,48.11,14.93,61.97-5.92,15.88-23.37,5.35-54.85-11.18-75.27-46.13-53.57-126.21-64.17-194.68-64.2l-1.41.06ZM3266.86-1145.28c115.14,141.5,355.26,270.88,524.71,154.15,46.42-29.57,87.59-71.96,142.7-84.13,21.39-2.94,60.45-8.86,23.65-23.94-124.81-31.98-244.4,37.63-364.92,61.17-111.37,25.69-216.41-39.39-296.31-111-13.82-10.81-35.95-37.35-49.44-36.66l-.37.17c-6.06,9.07,12.84,30.94,19.97,40.24M3229.51-1091.66c21.1,81.97,80.64,148.58,146.15,199,148.29,114.45,392.11,145.52,550.15,34.49,57.55-40.46,100.44-97.89,112.76-169.19,1.91-15.38,2.8-29.92-6.38-32.28-12.06-.23-22.33,19.17-30.09,28.83-67.73,104.25-188.49,149.72-313.56,148.72l-1.28-.03c-163.75-7.38-314.58-83.8-415.37-215.03-7.35-9.21-15.62-20.79-23.93-28.05-22.73-17.81-23.33,15.05-18.45,33.52M3860.31,379.9c-5.4-29.46-11.06-57.92-16.73-86.92-22.23-157.95-91.17-268.05-251.32-309.15-36.33-10.03-73.81-12.96-111.08-17.02-6.4-.74-15.07-.63-18.93,4.32-5.81,8.1,2.03,16.15,10.35,21.73,81.87,54.76,148.05,121.88,190.1,208.23,15.39,29.23,23.83,63.31,37.2,94.04,25.06,54.1,75.82,102.07,136.87,109.57l1.25.09c19.31,1.01,26.25-5.95,22.3-24.9M3843.92,122.33c87.43,76.91,204.11,122.57,321.77,98.55,20.68-4.37,40.47-11.5,60.08-19.21,9.56-3.44,25.13-12.62,24.46-18.59,1.34-8.27-21.33-9.8-31.12-8.89-208.88,13.41-393.67-131.46-481.91-313.12-18.67-36.49-30.77-75.38-43.41-114.13-3.41-9.98-7.93-19.39-12.44-23.43-12.73-11.92-15.39,20.17-14.39,32.12l.05,1.37c4.89,142.23,65.9,271.17,176.91,365.32M4160.16,319.87c39.47-17.71,80.99-31.49,121.01-48.07,12.49-4.66,38.29-20.74,8.8-23.7-166.5,13.21-253.16,60.65-401.24-51.44-9.63-6.09-17.28-9.44-20.34-7.13l-.38.31c-3.04,2.55-.98,10.98,3.69,21.23,37.67,81.34,123.04,134.76,212.29,131.62,26.99-1.25,51.82-12.15,76.18-22.83M4756.63-1180.51c28.4-152.26-123.47-289.71-274.87-295.34l-1.31.05c-50.88,5.49,23.26,31.28,34.63,40.07,18.91,11.29,36.1,24.93,51.7,40.41,117.99,121.98,37.44,156.3,73.75,229.4,30.65,52.36,100.95,45.12,116.11-14.59M3269.46-399.33c19.57,15.13,61.41,36.07,55.74-7.01-28.66-104.93-97.27-194.08-160.86-280.24-48.84-64.03-87.34-136.39-97.63-217.66-3.08-15.35-2.48-43.72-11.56-52.82l-.35-.18c-14.18.12-19.84,49.68-21.77,63.54-23.28,193.44,73.52,386.86,236.43,494.38M3074.16-1090.46c13.7-22.3-50.27-21.53-62.74-21.93l-1.52-.02c-33.86,1.37-83.14-.48-101.1,33.52-3.23,7.83-2.77,16.56,2.09,23.34,23.48,25.45,60.98,2.58,89.95-5.06,21.36-7.92,60.91-15.79,73.32-29.86M3380.85-351.48c7.49-10.15,15.25-34.78,20.71-57.79,17.05-69.79,28.06-144.23,8.36-214.63-39.56-131.61-160.55-217.66-213.3-342.79-19.68-45.84-30.17-94.34-30.68-144.49-.54-22.3,2.4-45.38,3.2-67.73.45-15.45-1-26.05-5.17-28.12-5.26-5.89-21.82,19.56-28.2,34.43-41.29,93.2-52.07,202.74-16.53,299.15,64.41,178.62,252.22,263.91,242.37,472.57l.02,1.43c.35,22.4,2.03,70.18,19.22,47.98M2947.95-1347.22c-.57,27.51,3.06,57.05,20.42,79.65,14.15,19.74,44.28,27.08,55.89,2.57,4.2-8.24,4.29-20.56,2.98-29.95-6.63-50.36-22.57-103.18.68-149.26,3.61-8.93,23.57-37.55,4.49-38.43-8.41.78-16.04,6.77-22.5,11.92-36.07,31.23-59.68,74.79-61.91,122.35l-.06,1.15ZM3408.51-1562.24c-15.52-102.27-2.04-214.78-59.02-306.09-10.67-16.5-22.79-39.2-40.06-47.84l-.74-.28c-21.11-3.61.31,38.63,4.4,50.14,5.15,13.21,9.64,26.72,13.01,40.49,9.29,37.4,9.69,76.3,3.51,114.17-5.18,34.66-19.31,70.32-15.79,104.72,2.48,31.91,20.82,59.97,43.93,81.23,14.45,12.61,37.29,35.98,55.94,33.68,19.77-7.03-5.04-53.45-5.18-70.23M2905.99-822.25l.02,1.41c4.57,102.53,42.64,197.51,135.05,260.2,29.55,20.68,54.25,22.64,24.91-16.76-92.84-128.1-121.11-336.29-5.38-457,9.93-12.52,12.36-26.12-6.26-25.08-28.69,4.2-55.86,23.97-76.88,43.62-51.2,49.22-70.76,121.6-71.46,193.59M2856.55-1332.95v1.34c1.51,63.12,38.49,117.42,86.14,159.19,10.47,8.73,23.62,19.71,37.2,21.05,24.79-2.49-17.96-47.76-22.33-58.71-11.27-18.59-19.64-38.8-25.39-59.72-17.04-61.69-10.04-108.54,17.61-164.41,9-26.14-12.55-28.85-30.22-18.47-39.24,22.45-63.49,73.72-63.01,119.72M3024.74,470.18c-25.56,36.8,13.09,63.06,50.67,57.4,18.54-2,36.2-8.38,53.51-16.94,250.1-130.09,280.24-480.44,89.6-676.16-24.23-25.19-50.71-49.34-80.4-67.9-14.07-8.49-24.73-12.53-27.62-10.78l-.22.12c-2.95,1.98,2.74,10.43,13.9,22.47,10.33,11.26,24.56,24.57,36.38,37.98,111.65,128.33,118.86,304.29,43.36,453.61-20.7,42.67-47.48,82.1-81.28,115.56-28.23,31.18-72.33,51.19-97.9,84.65M3170.93,684.79l-.38.34c-2.77,2.49.97,8.98,7.81,16.13,25.85,25.91,57.45,45.04,93.06,54.62,141.83,39.21,274.95,9.13,387.11-84.34,33.8-28.17,64.86-58.89,96.38-89.12,8.18-7.44,17.84-21.4,10.76-31.25-22.28-23.33-70.09,15.19-93.32,26.48-28.31,16.33-55.11,35.37-83.39,51.62-108.76,61.49-240.45,102.62-365.57,67.23-15.19-2.92-38.92-15.93-52.47-11.7M3279.84-1569.29c-19.37-38.18-21.54-82-11.75-123.26,3.01-20.37,17.48-45.84,8.52-65.27-11.36-12.64-30.55,4.12-43.52,19.19-23.6,28.95-36.66,65.3-37.35,102.42l-.03,1.4c-.92,45.35,17.28,95.75,62.14,114.36,10.87,4.03,27.59,7.87,35.49-2.43,7.57-12.53-7.63-33.4-13.5-46.41M5394.23,591.1s-.05.11-.08.17c-3.63,9.66,5.92,19.1,15.85,16.24.81-.23,1.63-.48,2.46-.75,3.61-1.2,6.89-3.69,10.04-5.98,35.8-26,74.38-49.67,122-48.61v-76.81c-53.03-.68-128.75,61-150.28,115.74M3583.32-1621.21c-35.77-30.32-36.72,6.35-27.77,33.57,7.29,23.1,19.56,45.08,34.29,64.23,51.51,68.03,139.53,92.52,222.41,90.88l1.38-.03c50.39-2,101.75-12.41,148.83-31.88,46.08-19.74,85.99-51.33,121.66-88.38,45.19-48.14,35.86-70.06-25.88-35.63-115.26,62.32-263.63,91.69-385.72,35.34-34.26-15.32-61.66-42.95-89.2-68.09M3159.27,270.71c36.18-66.52,40.52-147.51,24.63-219.89-17.36-74.3-56.62-146.36-118.48-192.55-30.8-21.27-29.97-.15-16.65,23.8,40.24,72.7,59.28,160.41,37.58,241.6-8.6,34.46-24.34,69.03-26.09,104.58l-.05,1.32c-2.58,69.36,59.51,111.82,99.06,41.13M2956.59-124.05c-38.38-33.8-104.99-24.79-109.1,32.94,1.48,48.67,44.01,82.19,66.32,122.11,43.35,68.81,52.57,147.08,38.35,226.28-1.18,9.81-6.84,32.21-.35,38.53l.55.29c11.78.65,21.91-18.62,27.91-27.62,65.18-114.59,80.79-295.57-23.68-392.54M3655.98,520.83c1.2-24.9-22.34-41.39-45.21-31.88-24.42,9.44-42.38,32-62.06,48.79-43.36,39.44-91.83,70.79-146.85,89.15-12.44,3.69-53.2,21.56-22.82,25.76,79.87-4.8,155.98-38.27,226.65-75.25,21.93-11.66,48.21-28.63,50.22-55.37l.06-1.2ZM5008.43,228.58c36.78,41.95,58.54,95.95,74.44,148.95,2.81,8.83,8.38,34.09,21.17,27.2,10.15-9.52,8.43-39.46,9.07-55.56l.02-1.28c.63-188.75-164.45-310.22-338.84-303.64-147.74,1.85-279.12,190.75-423.47,123.29-15.04-8.26-44.12-15.59-34.27,12.12,8.63,17.85,26.28,29.97,41.49,42.02,84.79,67.61,193.05,36.49,277.99-13.65,62.75-38.18,132.47-78.3,208.02-62.41,60.09,13.58,119.88,39.75,164.39,82.96M5321.31,99.19c.72,10.19,7.81,24.46,14.52,20.08,12.52-9.87,15.61-36.23,23.53-51.03,23.19-53.2,77.99-81.96,115.02-124.32,20.53-20.94,25.42-60.77-8.95-69.38-24.33-5.32-49.47,8.5-68.7,22.6-59.75,44.93-76.25,129.36-75.56,200.82l.15,1.23ZM3575.41,252.11c-37.1-51.87-61.21-112.05-92.29-167.9-27.94-48.16-62.66-91.89-102.45-131.35-11.53-10.15-27.03-29.08-41.18-31.95l-.45.08c-2.17.4-2.48,2.89-.91,6.89,3.8,9.27,12.04,18.47,18.57,26.65,25.65,31.02,44.99,65.3,58.55,101.95,17.01,43.65,21.4,91.97,33.61,136.98,21.63,81.48,59.26,153.35,122.83,213.95,62.81,60.09,137.31,107.62,229.25,100.61,27.49-1.94,54.33-7.69,81.19-13.18,43.16-8.44,33.46-22.73-2.11-28.2-126.13-26.72-233.11-110.67-304.63-214.52M4359.41,532.45c144.29,5.9,249.47,28.43,363.86,122.75,19.94,19.36,45.64,26.23,25.94-8.95-70.43-125.01-194.19-215.12-338.16-216h-1.38c-63.49.34-124.46,11.09-176.77,31.29-8.63,3.51-22,8.69-21.05,19.62,7.49,29.92,118.06,48.94,147.57,51.28M3284.59-1851.07c-4.06-19.02-12.21-52.65-17.44-73.22h-32.86c10.3,44.22,9.26,71.96,10.21,106.81.15,6.01,5.27,15.32,10.07,16.84,5.84,1.88,15.53-.89,20.51-5.2,14.05-12.06,12.92-29.23,9.5-45.22M3411.48-764.06c93.86,86.46,224.99,115.17,350.79,117.37l1.34-.02c214.07,1.18,499.47-130.47,478.15-378.88-9-106.42-97.44-209.83-205.99-224.05-41.32-5.23-83.54,2.26-119.08,23.4-12.19,6.84-30.18,23.56-18.65,33.97,9.5,8.61,23.63,9.89,35.74,12.99,40.52,8.43,80.74,21.83,114.83,47.28,115.45,85.59,42.78,224.93-51.48,292.99-108.21,83.99-242.97,124.66-379.59,123.15-69.33.74-135.27-18.5-192.55-58.32-14.79-7.86-24.66-5.35-13.52,10.12M5023.63-410.26c-16.93-29.4-29.25-62.17-35.66-96.57-2.12-8.81-3.88-20.64-10.41-26.52-13.82-6.3-11.16,32.89-11.38,44.02l.02,1.31c2.29,118.72,34.26,241.63,114.91,330.28,106.01,101.53,160.18,211.64,180.34,357.48,9.27,36.21,22.62,24.66,22.7-3.31-1.49-199.37-75.11-399.21-212.18-544.12-18.25-19.05-35.44-39.86-48.33-62.57M5187.92-1924.23h-58.66c10.46,40.44,31.03,73.42,55.88,103.75,11.61,14.18,25.51,26.56,39.12,38.93.65.58,1.52.94,2.52,1.14,5.94,1.17,11.04-4.35,10.44-10.36-.08-.68-.17-1.35-.28-2-.34-1.94-2.81-3.38-4.01-5.26-51.54-79.67-44.04-120.57-45.01-126.2M5357.05-1924.71c-35.03,0-76.68-.31-109.5.45-1.43,29.4,4.71,47.53,12.98,63.8,13.53,26.62,42.22,29.54,64.77,9.44,21.2-18.91,29.68-43.58,31.75-73.69M5132.81-1819.12c5.06,1.38,9.69-3.23,9.33-8.46-.08-1.21-.31-2.38-.78-3.4-9.81-21.14-22.71-41.01-30.26-63.04-5.18-15.15-7.21-20.25-9.53-30.37h-50.34c16.62,41.59,50.11,74.5,80.11,104.48.38.37.89.63,1.48.78M5143.7-1659.37l.21-.25c.38-13.09-62.44-28.05-76.22-33.63-61.68-18.62-123.87-41.98-189.06-41.16-29.48.62-63.17,7.95-82.16,31.81-26.09,33.14,4.49,60.08,39.58,60.8,24.54,1.61,49.21-3.46,73.3-7.84,62.01-12.29,124.18-18.27,186.8-10.81,12.84,1.08,38.64,6.14,47.54,1.08M4676.54-1873.86c-129.03,33.21-237.37,118.19-291.45,245.38-7.12,18.85-19.91,43.45-15.87,62.34l.28.78c17.18,33.15,110.13-47.74,129.93-62.89,54.82-44.42,111.42-88.23,170.27-127.92,91.81-57.63,198.5-103.22,308.13-75.21,9.1,2.44,36.95,7.75,35.8-1.52-.8-7.13-18.22-17.64-27.66-21.19-98.58-41.73-203.23-48.84-309.42-19.77M5226.76-1558.11c20.11-7.04.42-27.16-10.56-33.01-154.66-109.37-373.53,72.7-287.5,236.89,6.92,14.81,51.36,71.61,59.05,33.4,12.09-125.21,84.76-231.26,213.91-236l1.2-.02c7.89-.21,16.11.82,23.91-1.26M4306.56-1012.21c-3.61,37.5-3.66,87.48-3.35,127.69-2.09,131.81,69.47,257.39,180.11,326.89,36.38,22.8,108.59,62.14,141.47,19.48,24.14-58.45-99.93-106.45-137.51-136.76-99.83-65.14-138.07-157.09-146.8-272.49-2.08-18.14-4.77-37.1-8.67-53.45-5.07-21.9-11.38-35.7-16.5-34.52l-.31.06c-3.69.98-6.67,9.47-8.43,23.1M2873.31-1062.46c-10.13-81.13-38.44-159.84-31.8-243.29.08-1.12-.26-2.29-.86-3.46-3.12-6.06-11.84-6.67-15.91-1.2-.74.98-1.23,2-1.34,3.04-2.44,26.03-5.37,52.19-4.84,78.25,1.54,77.74,3.61,155.58-16.56,231.48-6.7,25.23-16.21,50.02-29.95,73.1v184.37c73.92-92.54,113.33-225.76,101.27-322.3M3167.7-354.41c9.29,1.57,19.05.35,28.59.45-4.83-9.39-7.86-20.51-14.81-27.94-35.94-38.47-82.2-58.88-132.19-71.78-58.34-15.07-232.53,34.18-277.24,70.07v133.58c12.52-10.03,24.89-18.87,37.53-28.68,106.71-82.82,227.56-97.66,358.12-75.7M2939.94-504.55c5.38.75,11.15-.55,16.55-1.92,23.99-6.03,31.45-29.12,17.07-52.28-12.47-20.07-29.43-32.83-49.77-39.93-52.94-18.51-103.42-11.95-151.74,18.22v143.42c1.97-1,106.56-75.82,167.9-67.5M2852.4-1924.8h-80.36s0,142.5,0,142.5c47.59-31.35,78.94-80.56,80.36-142.5M3225.87,658.89h1.37c28.17-.38,59.91-6.58,84.88-18.97,18.93-10.2,15.48-22.4-8.37-21.53-169.21,15.44-198.31-72.75-286.84-64.12-24.22.55-70.7,25.69-23.05,35.8,46.68,4.4,85.83,34.67,129.36,49.37,33.72,11.67,68.35,18.78,102.64,19.45M2887.44,135.36c-1.65-49.45-14.49-95.95-42.29-137.47-3.12-4.67-10-6.83-15.15-10.16-1.02,5.54-3.92,11.49-2.77,16.5,12.46,54.88,6.32,108.21-15.84,159.07-10.24,23.53-26.06,44.64-39.36,66.84v188.43c75.16-103.13,118.49-190.86,115.4-283.21M2966.45,465.24c30.38-25.72,56.19-57.15,82.25-87.55,16.04-18.7,18.21-42.47,8.87-64.95-3.72-8.95-13.73-18.64-22.71-20.97-6.86-1.8-18.74,5.55-24.57,12.21-11.72,13.35-20.1,29.58-31.14,43.61-53.39,67.76-124.21,107.53-207.11,127.6v77.21c7.21-.77,14.53-.91,21.59-2.35,64.97-13.24,122.83-42.49,172.82-84.79M2969.42-196.22c52.34-4,101.02,7.81,141.33,44.73.4.37.86.68,1.38.94,6.72,3.28,14.08-3.51,12.85-10.87-.14-.82-.29-1.63-.48-2.44-.43-1.97-2.61-3.54-3.97-5.32-75.95-100.72-251.16-131.22-348.5-10.18V-41.67c55.77-94.86,103.24-147.37,197.38-154.55M3036.97-1638.18c.69.77,1.65,1.34,2.78,1.75,7.63,2.81,15.32-4.06,14.27-12.13-.41-3.11-1.17-5.95-2.8-8.15-63.35-85.69-185.1-111.56-279.18-59.98v83.91c12.64-9.16,24.96-18.81,37.95-27.4,74.95-49.68,168.65-43.69,226.98,22M2988.58-1765.81c45.58-37.81,49.27-110.33,35.21-158.52-27.72-.71-61.98-.4-91.91-.4-2.57,41.33-21.42,72.78-33.17,106.28-3.32,9.44-9.38,18.76-8.81,28.75,1.86,33.74,27.69,45.41,55.37,42.21,15.07-1.75,31.63-8.66,43.3-18.33M2892.15-1478.6c11.76-10.63,23.62-16.76,34.86-25.83.92-.75,1.71-1.68,2.37-2.71,3.63-5.49,1.32-13.29-4.92-15.32-.82-.25-1.61-.38-2.41-.37-16.67.52-93.31,8.07-150,36.03v239.55c6.58-24.28,73.42-192.75,120.11-231.36M2994.83-1546.18c23.25.68,36.49-16.55,34.26-39.83-1.58-16.33-10.39-27.79-23.43-36.86-49.59-34.47-104.48-37.12-160.59-23.97-25.11,5.86-48.71,18.13-73.02,27.48v70.5c42.12-7.17,113.25-15.95,165.01-5.77,19.11,3.75,38.46,7.89,57.79,8.44M3066.57-1279.61c15.95,30.98,74.59,54.77,87.68,9.9,5.87-31.97-15.27-61.57-21.67-92.12-9.87-36.54-9.69-73.53,2.15-109.02,3.4-15.19,20.01-40.86,10.13-54.08l-.62-.45c-6.73-3.91-17.3,3.11-23.56,8.03-66.57,55.45-99.43,161.81-54.13,237.74M3109.18-1570.08c56.48-62.12,84.23-137.14,95.06-219.06,5.38-40.67,15.81-83.46,4.18-135.16-32.84-1.17-89.66-.29-124.37-.29,43.98,141.82,32.31,270.98-29.85,371.38-.98,1.61-1.31,3.63-1.31,5.86-.02,7.57,6.66,13.81,14.15,12.65,1.28-.2,2.41-.6,3.32-1.29,13.65-10.47,27.29-21.4,38.81-34.09M2772.41,737.36c0,36.92-.37,73.47-.37,110.39h80.36c.68-23.65-7.83-43.13-17.71-62.57-12.72-25-24.13-47.47-62.28-47.82M4964.59,591.18c5.8-29.94,10.79-61.23,8.4-91.29-5.6-69.83-45.71-120.66-100.49-160.95-.48-.35-1-.63-1.58-.86-7.53-2.97-15.07,5.41-12.13,12.98.34.91.77,1.77,1.31,2.57,16.45,25.2,29.51,51.96,30.81,82.25,1.69,39,.58,78.11,1.32,117.16.63,33.48-1.05,67.4,3.95,100.27,12.09,79.59,62.75,137.73,114.76,194.45h13.44c-4.75-9.41-8.46-19.56-14.42-28.12-48.31-69.66-61.37-145.71-45.36-228.45M4391.01,803.04c7.53-5.04,6.64-17.02-1.74-20.53-.83-.35-1.68-.57-2.52-.66-28.32-2.35-56.77-4.71-85.16-4.44-49.34.46-90.48,21.65-125.67,55.11-4.07,3.86-5.89,10.1-8.76,15.24h151.05c19.01-21.54,42.67-35.26,70.15-43.42.92-.26,1.81-.71,2.66-1.29M4654.07,789.97c-55.54,2.31-91.74,12.84-141.99,35.63-8.21,3.74-30.88,16.5-38.21,22.16h486.7c-6.41-4.17-12.42-9.32-19.34-12.35-91.77-39.96-188.46-49.53-287.16-45.44M5136.73,609.32c9.15-16.5,22.6-30.61,31.74-47.13,16.05-28.96,12.7-64.14-6.89-86.51-22.17-25.32-49.02-25.31-79.64-17.16-31.05,8.29-45.53,30.52-56.99,56.49-19.56,44.42-23.74,91.61-22.28,139.47,2.06,67.93,17.61,132.55,48.54,193.27h50.34c-.48-4.4-.8-8.83-1.48-13.19-12.44-79.1-2.54-154.7,36.64-225.24M5544.64,737.35c-15.67,0-29.05-1.32-42.13.26-30.48,3.69-59.66,11.64-79.54,39.5-2.97,4.17-4.63,10.84-3.89,15.85.32,2.17,8.41,4.86,12.62,4.32,38.32-5.03,65.32,15.78,69.58,50.47h43.36s0-110.4,0-110.4ZM5544.5,675.43v-72.7c-4.43.57-115.83,13.21-242.77,151.68-19.91,28.18-49.02,58.19-54.19,93.35h109.5c2.23-57.08,107.96-149.8,187.46-172.33M5251.96,685.68c17.08-11.44,36.14-19.9,53.65-30.77,21.51-13.35,34.17-32.55,30.45-58.75-3.57-25.17-19.45-41.84-43.38-47.84-12.87-3.2-27.89-2.44-40.96.68-30.78,7.37-52.83,28.4-70.84,53.17-53.85,74.22-67.09,157.37-51.62,245.58h58.66c2.26-17.64-.09-114.66,64.04-162.07M4233.49-1798.3c21.13-45.48,50.31-85.88,85.22-126.47-52.34,0-104.13-.28-151.55.38-20.25,27.03-32.31,48.76-37.84,70.32-5.5,21.34-4.55,44.3-7.17,66.47-5.77,49.22-21.07,93.52-64.51,123.27-2.86,1.98-4.04,10.27-3.49,12.21,6.26,21.45,57.31-10.99,75.85-23.56,45.64-30.91,80.14-72.39,103.49-122.63M3214.03,782.39c.29,1.4.63,2.8,1.03,4.17,7.83,26.48,11.21,34.6,19.24,60.98h32.86c-7.9-32.54-20.05-49.84-40.15-72.01-.03-.05-.08-.09-.11-.14-5.14-5.54-14.38-.4-12.87,7M3330.91,810.86c12.9,12.58,25.4,24.74,37.89,36.89h116.31c-28.48-22.62-108.24-50.42-147.29-52.51-8.44-.46-12.96,9.72-6.9,15.62M2772.04,602.72v72.79c161.81,7.12,260.43,57.02,305.81,155.06,2.55,5.52,4.27,11.44,6.37,17.18h124.2c-42.75-156.86-267.43-287.02-436.37-245.03M3826.22,670.94c36.5-52.34,85.94-90.14,140.48-122.03.51-.32,1.02-.65,1.48-1.05,8.52-6.94,4.07-21.48-6.92-22.27-.89-.06-1.8-.02-2.66.15-122.97,24.46-212.47,91.8-261.1,208.88-14.91,35.93-20.42,74.12-11.59,113.13h104.05c-20.39-65.6-1.08-123.28,36.26-176.82M2912.81,729.83c-.42-.18-.85-.37-1.28-.49-9.76-3.12-18.08,8.44-12.5,17.04.11.14.23.31.34.46,21.99,30.75,33.77,64.04,32.69,100.92h91.72c-14.98-56.62-56.95-92.18-110.97-117.92M3913.68,756.18c5.18-51.79,25.91-97.12,59-135.31.78-.91,1.43-1.95,1.98-3.09,4-8.35-2.68-18.42-11.82-17.11-.98.14-1.94.4-2.81.8-11.13,5.14-22.05,11.9-31.54,20.1-38.6,33.34-61.92,78.01-76.11,128.75-8.9,31.83-13.18,64.27-6.52,97.44h70.43c-1.12-30.55-5.61-61.51-2.6-91.57M4144.55,778.54c12.52-5.12,24.57-13.28,35.35-22.54,26.34-22.67,23.79-60.08-5.09-78.36-22.62-14.33-46.88-18.27-72.21-12.44-69.47,16.02-121.61,97.3-131.81,182.55h106.95c13.79-34.71,36.37-56.77,66.81-69.21M3029.19-310.05l-.08.37c-.23,1.71,1.65,3.15,5.27,4.2,16.01,3.68,33.52,2.26,50.36,4.23,38.76,3.41,77.05,16.15,109.64,37.21,57.54,37.81,109.84,83.8,159.53,130.81,16.59,15.36,33.49,30.61,53.45,41.58,75.93,40.75,126.13-9.26,76.73-82.13-96.69-123.67-271.11-177.65-424.44-148.8-9.21,1.97-27.23,6.24-30.46,12.53M4895.98,730.46c-40.52-68.53-15.82-150.72-36.43-224.21-7.5-32.01-28.23-72.79-65.2-76.07-37.2-3.75-62.18,38.46-62.03,71.76l-.03,1.28c8.58,88.29,69.9,171.13,130.67,233.43,13.24,12.65,25.66,28.12,41.07,37.57,28.25,12.03-3.95-34.63-8.06-43.76M3288.11,585.92c6.21-.85,12.55-2.06,18.84-3.57,98.63-22.96,150.88-106.55,153.27-200.77l.02-1.37c.11-38.04-13.04-76.9-37.41-106.19-10.07-13.35-39.2-36.3-42.93-6.1-.57,87.59-56.08,168.91-129.35,214.35-20.94,14.98-61.58,25.33-61.85,56.06,6.15,41.92,63.69,52.77,99.41,47.59M4225.94,590.52c83.6,93.2,194.16,159.99,320.25,171.31,35.49.8,76.94,1.52,107.67-19.08,14.47-10.78,23.36-28.82,23.79-47.91.92-35.94-34.17-59.34-63.98-70.79-88.66-24.91-182.97-.51-272.04-23.82-52.17-12.93-100.5-37.18-143.74-69.04-8.35-6.24-26.02-19.64-31.97-16.51l-.48.25c-4.31,2.23,2.26,13.01,6.04,17.14,17.65,19.7,36.9,38.43,54.46,58.46M5360.14,533.48c41.01-10.72,68.76-57.17,70.23-97.83l.02-1.37c.8-61.77-35.58-111.73-88.88-137.16-7.93-3.35-23.22-11.52-29.39-3.74-3.57,6.01,9.86,22.39,15.67,30.43,25.97,35.14,36.47,65.49,23.34,107.14-6.7,23.9-22.08,45.45-27.23,69.44-4.71,21.33,15.07,38.04,36.24,33.08M4428.57,358.22c27.31.32,54.33,7.58,79.96,21.28,6.15,3.12,18.25,8.12,21.63,1.62,4.91-24.71-37.26-56.99-58.48-65.84-81.6-33.72-173.13-25.02-252.69,9.95-58.32,24.68-114.73,58.68-180.01,59.94l-1.31-.02c-28.4.4-60.34-12.22-84.36-33.61-14.7-11.96-27.52-30.15-47.81-31.52-37.32,3.17-9.73,57.34-.09,75.68,10.07,17.5,23.43,32.32,40.84,43.24,55.8,31.45,127.73,28,188.18,12.89,82.62-23.93,159.53-64.34,242.29-87.06,16.88-4.44,34.54-6.86,51.83-6.53M4803.12,319.72c-2.86-3.63-9.98-2.91-17.67-.52-27.12,9.84-56.19,15.08-84.17,6.47-35-9.72-60.82-37.93-93.52-52.13-23.94-11.58-55.73-8.96-76.33,8.33-18.59,17.47-1.95,41.26,12.42,57.54,32.48,36.6,78.73,56.33,127.5,58l1.35.02c46.68-.55,90.26-17.87,120.97-52.22,5.3-6.53,14.56-17.45,9.44-25.49M5009.1,417.56c7.9,11.87,28.8,34.64,33.86,8.49-.03-125.69-98.9-235.39-227.65-232.07h-1.32c-35.77.65-71.44,9.92-108.56,28.35-33.38,17.05-23.03,36.18,11.52,34.12,116.89-2.51,224.87,68.41,292.16,161.1M3798.19-1738.36c43.44,38.23,91.92,67.24,149.63,77.78,2.46.46,5.11-.15,7.86-1.2,7.61-2.92,10.89-12.1,6.63-19.07-1.2-1.97-2.58-3.77-4.24-5.2-13.56-11.56-29.26-20.67-42.47-32.55-61.94-55.71-105.82-122.51-124.5-205.39h-105.18c21.22,86.34,61.71,141.14,112.28,185.63M3938.06-1800.9c2.78.42,5.55-1.63,5.57-4.46,0-.51-.06-.94-.28-1.32-18.64-34.23-23.31-79.87-27.06-117.65-18.9-.8-51.4-.37-70.43-.37,4.41,56.32,52.57,118.08,92.2,123.8M3642.79-60.09c9.03,4.26,31.45,15.41,34.64,3.44-.58-12.35-19.47-25.11-29.69-35.41-34.8-32.78-61.43-70.7-79.61-114.42-23.57-54.89-29.55-116.43-18.96-175.08,5.95-39.17,21.16-77.74,21.24-117.02,2.63-71.56-47.59-130.03-105.7-165.68-15.05-10.04-37.09-16.07-29.65,6.87,4.12,11.13,12.27,22.7,17.73,33.75,12.44,23.79,13.25,51.6,12.87,79.1-.94,49.08-12.56,100.04-16.42,147.91l-.05,1.29c-3.38,152.09,65.27,277.04,193.59,335.24M4057.04-1797.78c-12.62-38.32-1.71-73.61,12.89-108.61,2.25-5.35,5.43-11.06,7.55-17.56h-106.75c-1.12,43.98,15.02,79.1,41.19,110.24,8.5,10.13,18.97,18.81,29.4,27.06,8.13,6.43,22.94,4.03,15.72-11.13M3196.47-1436.62l-.03,1.26c-2.21,138.85,146.46,251.13,331.11,249.43,13.93-.23,42.96-2.17,47.02-12.9-2.55-16.5-63.46-15.48-80.96-21.53-122.01-24.8-183.67-112.76-205.8-227.93-20.42-68.36-91.54-61.75-91.34,11.67M3410.4-1838.22c-21.22-1.34,3.94,43.99,5,55.39,7.15,26.54,6.04,54.28,5,81.59-3.64,56.82,6.6,112.14,38.41,159.7,55.2,81.67,72.39-13.02,75.51-65.52l.05-1.41c3.32-77.27-49.13-201.45-123.97-229.74M5446.15,461.04c-2.48,6.72,2.35,14.08,9.44,15.01,1.97.26,3.81.23,5.4-.45,31.8-13.56,83.42-53.31,83.43-57.49.23-67.55.17-120.4.17-187.96-67.53,120.03-37.24,151.92-97.12,228.45-.57.72-.98,1.54-1.32,2.44M4958.71-1785.35c-24.42-.98-49.02,1.09-73.44,2.86-.54.05-1.05.17-1.55.35-6.72,2.54-6.4,12.26-.15,15.79.83.46,1.68.91,2.52,1.31,2.28,1.06,5.5.02,8.3.02,44.44-.03,88.82,3.72,130.35,19.42,48.5,18.3,99.46,33.49,142.76,61.98,111.62,73.44,320.94,80.27,376.96,50.84v-83.91c-25.62,12.58-46.7,23.31-69.24,26.97-88.02,14.27-173.48,4.52-256.81-27.66-83.94-32.4-168.28-64.32-259.7-67.96M5387.85-1555.19c-23.37,12.04-37.3,33.69-37.04,61.52.2,19.77,13.22,28.45,31.48,21.33,7.2-2.81,14.13-6.81,20.44-11.32,40.7-29.11,128.64-64.83,141.74-65.2v-70.5c-21.67,6.07-30.98,8.66-44.05,14.02-38.01,15.55-76.1,31.35-112.56,50.14M3369.32-1924.79c46.31,53.77,99.38,93.27,158.61,123.84,23.4,12.06,49.85,20.37,75.82,24.43,16.84,2.63,36.84-2.31,52.77-9.66,28.69-13.22,31.34-48.31,5.74-67.01-15.58-11.41-33.48-20.19-51.34-27.77-26.19-11.07-78.84-20.42-127.78-44.36-33.21.92-77.62.52-113.82.52M5449.15-1833.31c-30.31,14.76-62.32,20.42-95.95,13.38-19.24-4.04-33.6,2.48-40.5,17.88-6.35,14.16-2.17,30.97,14.12,40.35,15.18,8.73,74.27,30.08,186.09-4.2,10.7-3.29,31.55-16.41,31.55-16.41v-142.5c-6.81.02-28.12.6-43.18.6,1.74,42.38-15.25,72.95-52.13,90.89M5403.88-1339.43c6.38-12.62,13.52-25.06,19.85-37.64,4.11-8.32,7.57-18.28,4.84-23.82-5-9.5-19.3-.89-26.31,4.47-74.3,57.94-117.94,132.13-121.71,214.2l-.05,1.37c-6.26,233.79,271.95,269.85,204.74,205.82-124.01-83.65-150.03-233.97-81.37-364.4M4502.5-1924.63c-7.14.02-20.2.25-28.63.25-41.29,27.45-124.74,72.52-170.85,134.61-15.16,20.4-23.45,43.01-26.56,67.81-4.14,33.09,11.62,67.81,36.49,81.07,19.71,10.5,43.25,5.38,53.36-11.12,74.61-121.66,178.58-206.48,315.85-247.73,79.68-23.96,160.66-29.35,240.65-1.09,28.74,10.15,55.48,25.86,83.56,38.07,2.18.95,4.89.78,7.73.26,5.14-.95,8.33-6.18,6.58-11.12-.8-2.26-1.81-4.29-3.4-5.69-6.63-5.78-32.66-33.75-56.71-45.07-67.93-4.47-188.5-.4-256.73-.38-67.12.02-134.24-.08-201.34.14M5488.64-1421.91c-35.24,66.04-45.68,137.08-39.4,210.83,4.52,52.87,18.21,103.24,47.58,148.2.05.08.11.15.15.23,6.7,9.81,22.85,3.72,21.33-8.04-.02-.08-.03-.14-.03-.2-8.73-59.49,24.31-172.1,26.19-176.69.18-75.91.05-159.49.05-240.29-25.97,19.62-42.76,41.41-55.86,65.97M5383.89-188.42c-4.69,15.81-5.61,32.91-6.75,49.51-.31,4.18,4.38,10.53,8.44,12.55,2.68,1.32,9.06-2.54,12.42-5.58,4.03-3.66,6.55-8.98,9.87-13.47,34.97-47.05,54.89-52.63,136.62-104.62,0-44.62.02-88.17.02-133.59-4.63,2.38-136.31,113.6-160.63,195.21M5494.85,59.04c.17.83.49,1.63.94,2.41,4.46,7.78,16.62,6.7,19.81-1.69.34-.89.54-1.78.55-2.69.22-29.92,23.1-83.33,28.14-98.73.54-40.33.17-97.36.25-137.7-49.71,61.92-60.54,184.63-49.68,238.4M5256.59-739.2c-.66.09-1.34.23-2,.41-11.29,2.92-13.73,17.39-3.95,23.74,1.2.78,2.44,1.38,3.75,1.77,28.8,8.46,57.8,17.82,87.4,21.67,67.66,8.73,111.23,22.73,191.19-38.81,4.94-3.09,6.75-5,11.47-9.75,0-60.26.08-123.06.08-184.37-16.85,24.66-30.66,47.1-48.54,68.15-62.54,73.58-146.8,104.04-239.4,117.19M5393.04,79.69c-17.82,28.05-26.79,60.95-27.23,94.43l-.02,1.46c-.55,51.71,23.48,104.67,65.98,134.96,11.66,9.07,32.94,17.11,40.29,11.04,25.65-21.02-70.15-94.66-47.68-218.12,7.66-39.29-.91-66.24-31.34-23.77M5134.44-725.82c-7.81-7.69-13.53-17.67-23.13-21.51-8.95-3.15-13.42,5.23-10.99,14.5,8.17,32.28,29.52,59.09,44.92,88.23,21.99,41.36,51.39,77.05,85.97,107.79,30.14,28.65,68.18,47.53,111.04,46.79l1.29-.03c93.63,3.34,128.89-128.83,20.24-137.73-87.32,6.04-170.22-35.6-229.33-98.04M5312.18-122.27c.03.4.09.81.2,1.21,1.77,7.38,12.72,9.52,16.35,2.84,1.37-2.55,3.58-10.16,4.01-12.9,20.44-131.76,148.97-264.71,211.72-305.93v-143.42c-7.41,3.63-12.36,7.15-16.91,9.83-172.86,101.47-228.5,291.88-215.37,448.37"/>
    </g>
  </g>
</svg>