<?xml version="1.0" encoding="UTF-8"?>
<svg id="Capa_1" data-name="Capa 1" xmlns="http://www.w3.org/2000/svg" xmlns:xlink="http://www.w3.org/1999/xlink" viewBox="0 0 3121.12 850.39">
  <defs>
    <style>
      .cls-1 {
        fill: none;
      }

      .cls-2 {
        mask: url(#mask);
      }

      .cls-3 {
        opacity: .69;
      }

      .cls-3, .cls-4, .cls-5 {
        fill: #98989a;
      }

      .cls-4 {
        opacity: .29;
      }

      .cls-5 {
        opacity: .15;
      }

      .cls-6 {
        clip-path: url(#clippath-1);
      }

      .cls-7 {
        clip-path: url(#clippath-3);
      }

      .cls-8 {
        clip-path: url(#clippath-2);
      }

      .cls-9 {
        fill: url(#Degradado_sin_nombre_20);
      }

      .cls-10 {
        clip-path: url(#clippath);
      }
    </style>
    <clipPath id="clippath">
      <rect class="cls-1" x="-3162.42" y=".31" width="3122.42" height="849.78"/>
    </clipPath>
    <clipPath id="clippath-1">
      <rect class="cls-1" x="-3171.73" y="3.37" width="5556.38" height="849.78"/>
    </clipPath>
    <clipPath id="clippath-2">
      <path class="cls-1" d="M.04,649.15h42.53c-9.64-14.62-24.24-24.73-42.53-26.86v26.86ZM913.65,627.9c-8.48,4.31-16.1,8.18-16.22,21.12,12.53,0,24.93.13,37.46.13v-27.26c-.3,0-.61-.01-.91-.01-7.62,0-13.98,2.79-20.33,6.02M286.79,614.79c-27.52,3.44-54.23,13.04-82.54,10.79-1.39-.11-2.93,1.73-4.4,2.66,1.28,1.22,2.47,3.35,3.85,3.49,8.83.83,17.71,1.82,26.55,1.65,26.38-.52,52.79-1.23,78.54,5.62,8.56,2.28,16.97,5.49,24.8,10.16h62.55c-27.65-22.08-66-35.09-97.13-35.09-4.22,0-8.31.24-12.22.73M693.19,610c-16.78.56-32.56,4.92-46.64,14.34-1.58,1.06-2.32,3.4-3.45,5.14,1.87.35,3.89,1.33,5.6.94,18.62-4.23,36.7-2.14,53.97,5.37,7.99,3.48,15.15,8.84,22.68,13.36h63.93c-33.82-24.65-62.76-39.2-92.95-39.2-1.04,0-2.09.01-3.13.05M130.74,597.45c-.09.28-.14.54-.13.82.18,5.66,2.74,31.66,12.22,50.89h81.28c-8.24-2.23-65.39-24.91-78.49-40.75-3.61-3.99-5.69-8.01-8.77-11.82-.25-.32-.56-.58-.91-.81-.6-.4-1.28-.58-1.96-.58-1.41,0-2.78.82-3.23,2.26M457.69,580.79c-6.81,4.23-11.13,9.98-13.55,16.89-6.28,17.96-4.05,35.09,6.19,51.48h48.66c-.34-.66-25.72-36.15-22.9-56.96.25-1.83-.19-3.79-.66-5.62-1.34-5.34-5.18-8.27-9.88-8.27-2.46,0-5.16.8-7.86,2.48M252.77,573.92c-1.33.53-2.45,1.74-3.5,2.81-9.71,9.9-21.46,16.33-34.86,19.33-19.97,4.47-39.24,4.29-55.45-11.01-.18-.17-.4-.31-.63-.42-2.48-1.19-5.35.91-5.17,3.65.02.22.05.43.11.64,4.61,17.11,21.43,29.24,43.78,29.28,24.48-1.77,43.92-17.26,59.56-38.92.32-.45.74-1.05.68-1.53-.15-1.22-.17-2.85-.93-3.5-.47-.4-1.31-.6-2.12-.6-.53,0-1.06.09-1.46.25M894.87,601.39c-.06.14-.12.28-.17.43-1.05,3.31,2.86,6.13,5.78,4.24.05-.04.11-.07.16-.11,10.43-7.46,21.72-11.46,34.24-11.1v-31.12c-19.21,5.08-31.28,19.33-40.01,37.66M622.72,574.02c-8.83,5-15.57,11.93-20.15,20.99-3.73,7.38-2.42,16.3,3.43,22.65,6.25,6.81,12.67,8.81,20.93,4.82,5.85-2.83,11.34-6.85,16.23-11.19,28.75-25.57,61.51-31.55,97.92-20.86,2.77.81,5.66,1.18,8.5,1.76.15-.52.31-1.04.47-1.56-1.02-1.1-1.97-2.28-3.07-3.3-.97-.89-2.09-1.62-3.15-2.41-16.98-12.68-36.31-19.57-57.16-21.79-5.36-.57-10.7-.9-15.99-.9-16.62,0-32.77,3.17-47.95,11.78M109.17,561.95c-5.54.53-9.43,3.52-12.5,7.94-11.7,16.82-12.6,35.45-8.14,54.48,1.99,8.52,6.15,16.54,9.33,24.78h23.92c-2.42-14.29-5.41-38.43-1.95-55.98,1.28-6.48,2.68-13.04,2.87-19.6.21-7.32-4.79-11.7-11.81-11.7-.56,0-1.13.03-1.71.08M.04,562.4v33.2c11.28,1.96,20.52,7.15,30.27,10.57,3.21,1.13,6.37,3.18,9.76,3,11.44-.64,15.41-9.4,14.32-18.79-.59-5.12-2.93-10.74-6.22-14.69-8.67-10.44-22.71-14.41-35.95-14.41-4.21,0-8.33.41-12.18,1.12M144.77,556.51c-.74.83-1.26,2.41-1.01,3.46.37,1.6,1.27,3.19,2.32,4.48,11.76,14.42,26.8,22.46,43.49,23.31,11.07-.25,19.93-1.2,27.39-6.91,4.1-3.14,7.22-7.33,5.51-12.72-1.82-5.71-7.2-5.77-11.93-5.2-7.13.85-14.19,2.4-21.28,3.63-14.33,2.47-28.01,2-39.53-8.57-.55-.5-1.22-.99-1.92-1.18-.71-.2-1.72-.49-2.4-.49-.29,0-.52.05-.64.19M87.95,553.49c-1.05.14-2.02.4-2.77.95-29.07,21.49-37.84,62.8-20.35,94.71h28.47c-3.11-4.29-6.38-8.47-9.3-12.88-16.86-25.42-14.82-57.21,7.46-77,.27-.24.46-.56.6-.94.9-2.43-1.1-4.88-3.61-4.88-.17,0-.34.01-.51.03M753.36,552.28c-3.04,1.26-6.32,4.66-7.12,7.71-.6,2.32,1.89,6.36,4.14,8.34,4.53,3.97,10.04,6.82,14.8,10.56,22.99,18.11,36.48,42.15,43.29,70.26h26.19c-.26-2.44-.31-4.93-.8-7.32-4.49-22.03-14.42-41.67-28.77-58.63-8.72-10.31-19.39-19.06-29.7-27.91-3.87-3.31-8.38-4.88-13.04-4.88-2.98,0-6.02.64-8.99,1.87M272.27,549.2c-.87,6.18-1.2,12.45-1.87,20.45.48,5.46.76,12.68,1.91,19.76.52,3.18,2.3,6.51,4.42,8.98,3.16,3.7,7.58,5.23,12.3,2.73,4.36-2.32,5.24-6.57,4.1-10.83-1.32-4.9-3.66-9.51-5.27-14.35-2.98-8.9-5.64-17.91-8.69-26.79-.58-1.68-2.37-2.96-3.6-4.42-1.15,1.48-3.07,2.86-3.3,4.47M457.45,544.78c-2.55,1.58-4.63,3.9-7.12,5.62-29.53,20.44-62.33,28.99-97.97,25.73-21.72-1.99-41.25-9.51-56.3-26.32-1.47-1.65-4.18-2.18-6.31-3.23-.47,2.57-2.08,5.65-1.21,7.64,2.95,6.7,5.86,13.76,10.42,19.35,17.26,21.16,41.05,27.89,69.93,28.98,38.09-2.43,72.25-16.38,92.77-54.35.68-1.27.59-2.98.86-4.47-1.71.32-3.7.19-5.08,1.05M591.66,529.57c-.66.15-1.2.89-1.8,1.35-34.17,25.76-44.53,85.21-3.45,118.23h46.71c-32.18-18.93-50-35.03-52.43-66.96-1.36-17.77,2.65-34.28,15.18-47.95,1.01-1.1.59-3.51.83-5.32-1.68.2-3.38.29-5.03.65M209.56,518.73c-4.71,1.39-9.3,3.26-13.8,5.24-20.08,8.82-39.62,8.89-58.73-2.93-1.93-1.2-4.53-1.31-6.99-1.65-.88-.13-1.74.37-2.07,1.2-.26.65-.16,1.39.28,1.93,3.14,3.98,6.13,8.09,9.55,11.83,16.49,18.04,45.35,25.76,66.54,17.92,8.75-3.24,15.83-8.77,18.68-17.78,1.15-3.61.41-8.69-1.35-12.15-1.56-3.08-4.5-4.28-7.7-4.28-1.46,0-2.96.25-4.42.68M647.33,516.77c-20.59,7.68-37.53,20.38-50.5,38.18-1.15,1.58-1.25,3.93-1.84,5.92,1.92-.57,4.05-.81,5.75-1.78,3.44-1.96,6.48-4.68,10-6.46,29.92-15.15,60.57-19.65,92.62-6.65,6.58,2.67,13.8,3.75,17.62,4.75,11.83-.12,19.14-2.74,24.25-7.53,6.6-6.18,6.94-12.66.12-18.45-3.81-3.24-8.4-5.95-13.08-7.73-14.23-5.41-28.5-8.11-42.78-8.11s-28.12,2.62-42.16,7.85M517.69,510.24c-13.05,12.19-19.97,27.89-24.35,44.85-5.12,19.8,11.6,78.89,23.77,94.07h45.31c-3.39-4.24-6.39-8.45-9.72-12.73-28.1-36.21-33.13-77.2-25.68-121.5.53-3.15.12-6.46.15-9.7-3.19,1.64-6.96,2.67-9.48,5.02M851.75,649.15h24.69c2.42-54.9,19.35-88.36,52.61-103.75,1.87-.86,3.88-1.44,5.83-2.16v-42.14c-53.22,14.5-97.38,90.73-83.13,148.05M.04,500.07v41.53c45.86-12.88,87.56-8.42,120.26,11.82.55.34,1.23.44,1.98.44,2.57,0,4.69-2.26,4.3-4.8-.07-.43-.2-.82-.43-1.13-3.55-4.63-7.26-9.26-11.57-13.17-21.07-19.16-46.53-28.57-74.32-32.25-9.23-1.22-18.79-3.21-29.36-3.21-3.5,0-7.11.22-10.86.75M910.37,494.79s-.03.03-.04.04c-1.88,1.73-.13,4.88,2.37,4.37.48-.1.95-.21,1.41-.35,8.99-2.65,11.74-3.8,20.7-6.53v-11.15c-11.04,2.68-16.91,6.8-24.44,13.61M19.24,475.26c-4.91,1.05-12.69,2.9-19.2,4.5v11.37c11.88-2.23,20.33-2,30.6-2.28,2.04-.05,5.2-1.79,5.72-3.42.63-1.98-.31-5.26-1.77-6.96-2.59-3.02-5.87-3.96-9.31-3.96-1.99,0-4.04.32-6.04.74M125.24,471.57c-12.47,9.78-26.91,13.47-42.21,11.95-9.61-.96-18.95-4.61-28.45-6.88-1.81-.43-3.8-.05-5.72-.04.1,2.09-.25,4.34.43,6.23.6,1.67,2.24,3.02,3.58,4.35,11.19,11.19,24.94,16.14,39.27,16.55,11.77,0,21.68-2.06,30.11-8.73,6.4-5.07,10.47-11.51,10.01-20.03-.19-3.33-1.35-5.08-3.23-5.08-1.05,0-2.33.56-3.78,1.69M856.15,466.17c4.49,26.02-.73,50.01-14.66,72.27-8.14,13.01-8.63,26.37-1.43,39.88.16.3.36.59.59.86,2.09,2.51,6.32,1.48,6.64-1.77.01-.16.02-.32.01-.48-.4-10.83,3.04-20.2,8.49-29.49,9.42-16.05,14.17-33.72,14.99-51.14.11-10.34-3.88-25.18-8.61-32.08-.91-1.3-2.89-1.86-4.38-2.77-.58,1.57-1.88,3.27-1.63,4.7M511.13,460.51c-4.25.73-8.45,2.12-12.47,3.73-30.23,12.09-56.62,30.32-81.85,50.59-20.74,16.67-43.39,29.92-70.37,33.69-8.01,1.12-16.13,1.49-24.2,2.21-.22.52-.44,1.04-.66,1.56,4.27,1.81,8.38,4.43,12.83,5.31,20.08,4,40.36,4.24,60.49.61,55.62-10.02,93.57-43.91,121.5-91,.77-1.29,1.31-4.09.73-4.54-1.49-1.1-3.6-2.21-5.37-2.21-.22,0-.43.02-.63.05M620.18,478.28c-22.52,13.06-39.71,31.5-53.92,52.96-1.58,2.38-2.19,5.4-3.25,8.13.64.5,1.28.99,1.92,1.48,2.15-1.9,4.86-3.43,6.35-5.75,9.31-14.43,22.21-24.79,37.04-32.87,31.47-17.16,64.9-21.05,99.13-11.3,38.49,10.96,71.24,30.62,90.98,67.44,3.02,5.65,7.23,10.84,14.66,9.59,7.55-1.27,9.9-7.57,11.45-14.05.48-1.99.94-4.31.38-6.18-2.2-7.36-3.56-15.35-7.47-21.75-23.29-38.1-56.73-61.53-101.54-67.18-6.76-.85-13.43-1.27-20.03-1.27-26.6,0-51.87,6.91-75.71,20.75M133.94,429.79c-5.8,1.62-11.39,4.71-17.26,5.3-19.59,1.99-39.3,2.84-58.91,4.7-21.62,2.06-40.94,10.05-57.74,23.58v7.31c.25-.03.51-.11.77-.23,7.71-3.3,15.36-6.77,23.34-9.17,19.59-5.87,39.23-4.35,58.85,1.13,13.5,3.76,27.11,2.95,38.34-6.27,6.95-5.69,12.57-13.07,18.4-20.03,1.24-1.49.77-4.41,1.09-6.67-.72.03-1.46.02-2.19,0-.43,0-.87-.02-1.31-.02-1.16,0-2.3.06-3.38.36M451.34,429.25c-18.01.8-34.37,7.83-48.76,18.48-15.67,11.6-30.9,23.85-45.86,36.35-33.19,27.7-70.35,38.31-112.87,27.62-1.84-.46-3.99.27-5.99.44,1.13,1.8,1.83,4.37,3.45,5.27,7.26,4.04,14.53,8.27,22.25,11.25,45.21,17.47,87.33,12.45,125.55-18.29,12.27-9.86,24.71-19.58,36.34-30.15,22.87-20.79,48.5-33.67,78.42-30.56,7.78,0,13.67.22,19.53-.11,2.33-.13,4.59-1.47,6.88-2.26-1.89-1.57-3.55-3.95-5.72-4.58-13.25-3.86-26.47-8.06-39.98-10.66-9.23-1.78-18.78-2.9-28.21-2.9-1.68,0-3.36.03-5.03.11M739.3,430.02c-2.47,2.22-4.68,5.04-6.11,8.01-1.67,3.44-.54,6.1,4.01,5.51,13.21-1.71,25.09,2.45,36.53,8.33,20.58,10.58,34.71,27.15,44.21,47.96,5.8,12.73,17.67,8.88,22.44.49,4.67-8.23,6.49-16.99,5.06-26.29-5.77-37.58-34.08-56.82-68.63-58.12-13.88.05-27.22,4.91-37.5,14.11M917.07,457.2c-.16,2.86,3.3,4.4,5.3,2.34,4.27-4.38,8.39-8.62,12.52-12.86v-39.45c-7.68,9.66-17.11,36.72-17.82,49.97M604.57,403.82c-3.47.75-6.88,2.13-10.07,3.72-10.52,5.25-19.3,12.74-26.34,22.1-27.18,36.14-38.89,76.11-29.24,121.15.99,4.64,2.86,9.11,4.32,13.66.69-.19,1.37-.37,2.05-.56,0-2.04.02-4.09,0-6.13-.1-6.78-1.03-13.67-.14-20.33,1.69-12.68,5.63-24.92,13.45-35.21,8.69-11.42,17.88-22.49,27.41-33.22,7.66-8.63,16.37-16.32,24.21-24.8,6.58-7.13,10.51-15.79,11.35-25.53.76-8.88-5.2-15.24-13.4-15.24-1.16,0-2.37.13-3.61.4M51.1,406.07c-10.91,6.52-19.94,15.11-26.63,25.98-.77,1.24-.53,3.11-.76,4.69.49-.03,1.03,0,1.57.04,1.16.07,2.31.14,3.01-.39,12.72-9.83,27.26-10.2,42.3-8.65,22.87,2.35,43.15-3.99,60.68-18.86,5.9-5,5.19-9.22-2.3-11.15-9.48-2.43-19.19-3.97-28.8-5.88-17.68,1.16-34.04,5.27-49.05,14.23M235.69,381.92c-.71,3.88-.58,7.92-.91,11.88-3.57,42.75-31.31,72.1-73.52,77.91-7.07.97-13.72,3.04-18.71,8.56-6.8,7.51-3.39,19.16,6.49,21.54,4.01.96,8.27,1.2,12.41,1.18,49.57-.28,88.03-39.32,88.22-89.43.51-.12,1.02-.23,1.53-.34-2.48-11.02-4.79-22.07-7.61-33-.54-2.11-3.1-3.7-4.73-5.53-1.1,2.4-2.71,4.71-3.17,7.24M826.18,350.64c-5.77-.09-10.19,1.54-12.56,6.22-2.38,4.68-1.29,9.34,2.11,13.2,3.6,4.09,7.53,7.89,11.31,11.81,17.55,18.21,30.62,38.86,35.42,64.15.03.16.07.31.13.46,1.07,2.78,5.18,2.31,5.98-.55.07-.25.13-.5.19-.75.25-1.04-.03-2.28-.29-3.37-3.3-13.78-5.48-27.98-10.31-41.21-5.28-14.47-12.79-28.15-19.85-41.92-2.35-4.59-6.38-8.05-11.55-8.05-.2,0-.39,0-.59,0M623.95,343.97c-.77.35-1.21,1.42-1.81,2.15-16.41,20.08-37.31,33.17-62.46,39.06-20.04,4.69-39.98,2.12-59.63-3.06-11.32-2.99-22.65-4.54-34.27-1.98-21.63,4.76-34.27,20.5-45.63,37.65-1.23,1.86-.86,4.77-1.24,7.2,2.68-.72,5.36-1.43,8.03-2.2.32-.09.51-.58.83-.75,5.4-2.92,10.55-7.4,16.28-8.35,9.21-1.53,18.88-1.57,28.22-.72,15.82,1.43,31.54,4.03,39.76,5.13,48.07-.14,79.47-14.35,102.52-44.13,6.18-7.98,10.32-17.57,15.12-26.56.69-1.3-.17-3.44-.32-5.19-1.8.56-3.68.98-5.39,1.76M18.52,347.13c-3.87,5.28-6.84,11.35-9.41,17.42-2.66,6.29-5.03,17.08-9.07,28.75v48c15.33-14.44,26.97-30.68,36.21-48.59,4.09-7.93,6.92-16.9,8.29-25.72.89-5.71-.79-12.5-3.28-17.9-2.42-5.24-6.99-7.92-11.67-7.92-4.02,0-8.14,1.97-11.07,5.98M160.84,338.21c-3.46,9.45-.93,15.5,8.09,19.21,1.57.65,3.23,1.09,4.83,1.67,7.68,2.77,13.04,7.9,16.88,15.15,6.25,11.84,5.87,23.59.78,35.57-6.16,14.49-16.19,25.98-28.13,35.9-6.49,5.39-13.33,10.36-21.37,16.57,3.15.36,4.88,1,6.4.67,33.44-7.21,56.8-26.5,67.35-59.21,10.4-32.25-4.68-60.95-36.41-72.17-1.79-.63-3.65-.93-5.49-.93-5.78,0-11.23,2.94-12.93,7.57M449.25,334.2c-2.93,5.31-.88,12.36,5.77,18.69,9.55,9.08,20.93,15.01,33.62,18.17,28.07,7,55.65,3.34,82.91-4.56,1.79-.52,3.26-2.16,4.87-3.29-.13-.79-.26-1.58-.4-2.38-2.57-.26-5.14-.78-7.71-.74-6.59.09-13.26,1.22-19.75.53-19.07-2.03-36.7-8.82-53.68-17.56-8.74-4.49-17.55-8.99-26.71-12.49-3.22-1.23-6.14-1.81-8.71-1.81-4.78,0-8.31,1.99-10.22,5.43M834.3,312.48c-4.77,3.05-2.6,8.14-1.24,12.47.68,2.16,1.49,4.33,2.63,6.27,5.26,9,10.27,18.19,16.09,26.81,11.42,16.94,20.94,34.8,27.24,54.24,9.51,29.29,13.28,58.79,2.35,88.68-1.53,4.17-2.48,8.56-3.69,12.85.42.24.85.47,1.26.71.77-.46,1.64-.81,2.28-1.41,10.04-9.3,18.07-19.95,21.82-33.35,14.48-51.7,2.48-96.97-33.31-136.37-8.03-8.84-16.34-17.44-24.73-25.97-2.23-2.27-4.42-5.94-7.65-5.94-.92,0-1.93.29-3.05,1.01M777.15,280.18c-18.03,3.49-36.1,6.8-54.03,10.76-45.15,9.96-71.26,39.24-82.04,83.01-3.01,12.24-3.74,25.05-5.28,37.63,0,.03,0,.06,0,.09-.45,3.87,4.72,5.75,6.96,2.56.07-.09.13-.19.19-.29,23.35-35.91,53.49-63.16,95.26-76.03,12.36-3.81,22.95-10.75,31.93-20.06,8.23-8.54,12.27-19.06,14.26-28.82.04-.23.07-.48.08-.72.15-6.4-.68-8.52-4.13-8.52-.89,0-1.94.14-3.2.38M171.72,287.7c-1.42,13.09,4.64,22.98,14.16,30.65,11.65,9.39,24.28,17.56,36.03,26.84,24.65,19.5,40.55,43.8,40.17,76.56-.01,1.34.73,2.69,1.13,4.03.67.08,1.35.16,2.03.24.95-2.32,2.23-4.56,2.8-6.98,6.12-25.72,5.06-51.05-3.56-76.17-9.8-28.59-29.13-49.43-53.35-66.12-5.23-3.6-12.09-5.67-18.46-6.58-.94-.13-1.87-.2-2.78-.2-9.73,0-17.07,7.52-18.18,17.72M806.67,264.45c-.13.25-.23.52-.31.79-.5,1.8-.37,3.76-.7,5.62-5.59,31.7-21.11,58.04-43.18,81.04-19.95,20.8-44.19,35.12-70.03,46.87-22.96,10.44-42.8,25-60.5,42.71-4.45,4.45-8.47,9.33-12.69,14.01.66.72,1.33,1.45,1.99,2.17,2.1-1.35,4.47-2.4,6.25-4.09,18.45-17.38,40.86-27.04,65.31-31.06,35.47-5.83,66.93-18.58,92.26-45.03,22.47-23.47,38.19-49.21,32.36-83.42-1.69-9.88-3.85-19.68-6.02-29.47-.04-.22-.15-.44-.3-.64-.49-.68-1.24-1-1.99-1-.98,0-1.97.53-2.46,1.5M34.72,251.67c-.16,0-.3.03-.43.09-9.95,5.42-22.74,7.36-34.26,8.61v23.59c17.34-3.86,34.48-18.3,36.23-30.4.14-.95-.56-1.88-1.52-1.89h-.03ZM75.23,246.77c-3.92,4.6-7.01,9.92-11.04,14.41C46.54,280.79,25.61,295.07.04,302.04v35.59c26.14-7.51,43.33-20.57,57.44-36.62,12.97-14.74,22.81-31.19,26.39-50.76.4-2.17-1.59-4.77-2.48-7.17-2.09,1.2-4.69,1.97-6.16,3.69M825.59,245.68c-.03.3,0,.6.05.9,8.3,41.73,31.15,72.09,70.87,88.59,12.19,5.06,25.15,6.93,38.38,3.94v-35.3c-22.25,6.91-41.83.37-59.99-12.3-17.77-12.39-30.58-29.15-41.41-47.67-.1-.17-.22-.34-.35-.5-.85-1.04-2.04-1.51-3.21-1.51-2.09,0-4.17,1.48-4.34,3.86M276.54,243.96c-1.05,1.96-1.64,4.24-2.08,6.45-4.81,23.95-1.11,47.08,6.26,70.01,5.22,16.22,10.3,32.56,14.06,49.17,4.78,21.09,1.05,41.22-9.13,60.48-10.16,19.21-23.85,35.51-38.76,50.99-1.47,1.53-2.38,3.59-3.55,5.4.5.51,1,1.02,1.5,1.52,2.06-.98,4.35-1.66,6.16-2.99,35.1-25.95,58.19-60.13,69.96-102.1,8.88-31.63,3.57-60.33-17.05-86.18-5.07-6.36-9.24-13.43-13.91-20.11-6.56-9.4-9.55-19.65-8.18-31.15.16-1.35-1.13-2.88-1.76-4.34-1.21.93-2.87,1.62-3.53,2.85M851.06,245.15c.04.33.13.65.27.95,1.73,3.78,4.03,7.48,6.82,10.7,11.31,13.1,26.46,21.01,43.68,25.82,10.79,3.02,21.8,4.47,33.06,2.21v-23.89c-10.36.38-20.87,1.9-31.07.88-17.57-1.75-32.95-8.79-45.91-20.02-.3-.27-.66-.48-1.05-.67-.58-.27-1.18-.4-1.76-.4-2.29,0-4.39,1.94-4.04,4.42M98.05,233.17c3.9,16.36,2.17,32.39-4.95,47.17-6.79,14.07-15.81,27.06-23.55,40.7-4.47,7.85-9.27,15.7-12.26,24.14-3.32,9.4.04,18.61,6.15,22.52,6.76,4.32,17.13,2.93,24.85-3.41,1.6-1.32,3.41-2.65,4.42-4.38,4.84-8.27,11.19-16.19,13.7-25.16,3.88-13.9,5.07-28.56,7.44-43.13-3.12-20.03-6.12-39.84-9.46-59.6-.32-1.86-2.8-3.36-4.27-5.03-.74,2.07-2.49,4.39-2.06,6.18M285.29,221.04c1.4,1.73,2.52,3.82,4.23,5.15,7.77,6.02,16.57,10.97,23.42,17.87,24.92,25.09,34.29,56.44,34.76,95.33-.55,5.23-.94,14.74-2.67,24.02-9.49,50.68-34.42,91.73-76.7,121.87-2.48,1.77-4.11,4.75-6.13,7.16,3.45.81,6.89,1.68,10.36,2.39.66.14,1.45-.35,2.19-.53,17.64-4.5,33.26-13.01,46.52-25.27,41.26-38.15,58.43-86.24,56.21-141.56-1.04-25.78-8.29-50.08-23.65-71.31-15.3-21.17-35.54-34.42-61.96-37.01-.14-.02-.28-.02-.42-.02-1.98,0-4.1,1.3-6.14,1.93M.04,242.33c12.39-.92,22.65-6.08,31.88-13.84,3.44-2.89,6.39-6.43,9.18-9.98.83-1.05.83-3.35.26-4.67-.31-.7-2.82-1.06-4.04-.66-13,4.28-24.98.58-36.85-4.37-.15-.06-.29-.12-.44-.19v33.71ZM103.27,193.29c-.65.02-1.3.04-1.9,0-.02,1.74-.51,3.66.05,5.19.91,2.46,2.52,4.66,3.82,6.97,14.67,26.2,24.35,53.99,25.24,84.23,1.02,34.67-7.35,65.5-37.61,86.78-1.38.97-1.69,3.45-2.5,5.23,1.75.75,3.48,2.07,5.24,2.12,2.99.09,6.12-.22,8.96-1.1,17.48-5.37,31.63-15.12,40.98-31.29,9.21-15.93,12.06-33.31,12.75-56.93-1.23-7.83-2.41-21.31-5.58-34.31-5.17-21.16-17.18-38.66-32.47-53.94-4.3-4.29-8.66-8.53-13.33-12.39-.6-.49-1.51-.6-2.51-.6-.37,0-.75.02-1.14.03M645.38,189.06c-5.56,1.64-11.41,3.48-16.08,6.72-10.73,7.45-20.68,16-31.19,23.76-23.39,17.28-49.04,28.91-78.69,28.76-8.77-.05-17.5-2.42-26.28-3.46-1.72-.21-3.59.8-5.38,1.25.65,1.76.86,3.94,2.05,5.18,1.36,1.41,3.51,2.45,5.46,2.82,14.07,2.64,28.18,5.06,42.28,7.56.1-.43.2-.86.31-1.29,8.31-.66,16.67-.91,24.92-2.04,26-3.59,50.59-11.22,72.47-26.26,9.53-6.56,17.25-14.76,22.72-25.02,2.48-4.67,2.12-9.24-.61-13.48-2.11-3.29-5.25-4.96-8.7-4.96-1.06,0-2.16.16-3.26.48M683.42,190.1c-.8,9.42-3.32,18.12-8.7,26.1-12.7,18.83-29.61,32.72-50.52,40.92-13.3,5.22-27.53,8.16-41.44,11.78-18.85,4.91-38.26,8.09-55.36,18.26-12.08,7.18-23.09,15.37-27.79,29.53-4.96,14.94,3.48,25.93,19.08,23.79,4.69-.64,9.55-3.56,13.3-6.68,4.15-3.45,7.23-8.23,10.58-12.59,6.18-8.06,14.02-13.84,23.6-17.1,6.44-2.2,12.98-4.23,19.58-5.88,32.7-8.21,60.22-24.55,81-51.45,11.79-15.26,19.21-32.45,22.01-51.58,0-1.71.41-3.56-.11-5.09-.65-1.88-2.08-3.49-3.18-5.22-.72,1.73-1.91,3.42-2.06,5.2M.04,177.95v1.92c6.66,4.48,12.44,7.32,18.19,8.8,7.24,1.86,15.03,1.54,22.55,2.42,16.69,1.96,31.72,7.15,41.83,21.88.67.97,3.67,1.69,4.14,1.18,1.04-1.12,1.99-3.43,1.5-4.67-2.86-7.16-5.23-14.78-9.49-21.07-2.52-3.71-5.23-7.21-8.15-10.48H.04ZM125.26,177.95c5.75,8.34,11.54,16.64,16.92,25.21,7.31,11.66,13.66,23.93,20.25,36.02,2.03,3.73,3.46,7.77,5.17,11.67.83-.13,1.65-.25,2.48-.37,0-3.73.65-7.59-.1-11.16-4.34-20.47-8.78-40.93-13.29-61.37h-31.42ZM170.94,177.95c-.06,1.28-.1,2.57-.14,3.87.49,4.22,1.09,11.4,2.2,18.5,3.95,25.12,17.21,45.01,35.55,61.88,1.05.97,3.35.59,5.07.84-.07-1.64.27-3.44-.3-4.88-1.98-5.11-4.73-9.96-6.37-15.16-7.2-22.73-9.41-44.38-7.2-65.04h-28.82ZM245.37,177.95c-1.65,1.66-3.26,3.4-4.84,5.21-21.73,24.93-23.62,59.77-5.33,83.98,1.77,2.33,4.85,3.68,7.32,5.48,1.08-2.66,2.73-5.22,3.15-7.97,2.42-16.08,6.35-31.59,15.43-45.39,14.08-21.38,36.29-28.42,60.01-18.93,18.81,7.53,32.64,21.22,44.33,37.11,22.73,30.87,35.21,65.8,38.17,103.85,2.5,31.99-.11,63.05-23.08,88.66-.9,1-.37,3.3-.51,4.99.57-.05,1.22-.03,1.86-.02,1.41.03,2.83.07,3.51-.62,3.33-3.34,6.28-7.09,9.07-10.92,24-32.85,32.64-70.37,33.39-111.3-.28-4.85-.46-10.73-.97-16.59-3.16-36.03-13.66-69.56-35.78-98.57-5.22-6.85-10.8-13.26-16.87-18.98h-128.86ZM401.48,177.95c29.67,31.92,42.4,70.78,42.61,114.57,0,4.36-.09,8.73.02,13.09.17,6.86,4.06,12.63,9.4,14.2,5.92,1.74,10.15-.18,14.76-6.75,11.1-15.81,10.97-33.56,8.14-51.45-5.53-34.99-22.45-62.18-47.22-83.66h-27.72ZM446.29,177.95c21.96,29.7,56.69,48.71,92.7,48.86,17.06.07,33.14-3.65,47.69-12.74,2.45-1.53,5.92-4.7,5.64-6.63-.52-3.57-3.6-3.38-6.51-3.2-.67.04-1.35.09-1.97.08-1.92-.01-3.84.02-5.76.05-4.34.07-8.69.14-12.98-.3-21.24-2.19-40.07-9.22-54.36-26.12h-64.44ZM555.69,177.95c26.65,12.23,55.83,11.67,80.55,0h-80.55ZM705.46,177.95c-.66,12.87-3.23,25.54-7.78,37.93-18.46,50.24-53.75,84.98-101.47,107.44-13.27,6.25-27.81,9.79-41.7,14.76-1.39.5-2.29,2.36-3.41,3.58,1.33.77,2.62,2.11,4.01,2.21,3.96.31,7.95.1,11.93.1,49.23-2.04,89.99-22.11,121.7-59.56,24.86-29.36,38.38-63.21,32.8-102.31-.2-1.4-.46-2.79-.76-4.17h-15.32ZM736.72,177.95c.24,1.48.49,2.95.75,4.42,4.96,28.15.25,53.89-16.9,77.1-3.77,5.1-6.91,10.67-11.06,17.16,4.2-1.78,7.49-2.98,10.6-4.52,26.17-12.99,38.92-34.83,41.66-63.28,1.11-11.48-4.4-20.95-8.65-30.88h-16.41ZM766.56,177.95c.46,1.04.9,2.09,1.33,3.14,4.78,11.72,10.1,23.37,10.12,38.38.04,9.56-3.64,19.65-11.19,28.3-3.24,3.71-7.09,7.01-9.71,11.1-1.5,2.35-2.22,6.41-1.19,8.79.82,1.88,5.14,3.75,7.39,3.26,17.69-3.83,32.18-12.9,37.59-30.83,3.1-10.24,3.63-21.69,3.12-32.49-.47-10.22-2.95-20.03-6.19-29.65h-31.27ZM874.65,177.95c-2.75,6.3-3.28,12.92-1.7,19.78,5.44,23.57,33.01,41.26,61.94,44.72v-36.28c-11.78-4.68-19.26-12.34-23.48-22.67-.77-1.89-1.75-3.74-2.87-5.55h-33.88Z"/>
    </clipPath>
    <clipPath id="clippath-3">
      <rect class="cls-1" x="-29.65" y="-83.56" width="994.23" height="994.23" transform="translate(-155.51 451.67) rotate(-45)"/>
    </clipPath>
    <linearGradient id="Degradado_sin_nombre_20" data-name="Degradado sin nombre 20" x1="-1098.56" y1="694.55" x2="-1095.4" y2="694.55" gradientTransform="translate(442656.16 280278.33) scale(402.94 -402.94)" gradientUnits="userSpaceOnUse">
      <stop offset="0" stop-color="gray"/>
      <stop offset="0" stop-color="gray"/>
      <stop offset=".06" stop-color="#737373"/>
      <stop offset=".26" stop-color="#414141"/>
      <stop offset=".43" stop-color="#1e1e1e"/>
      <stop offset=".58" stop-color="#080808"/>
      <stop offset=".67" stop-color="#000"/>
      <stop offset="1" stop-color="#000"/>
    </linearGradient>
    <mask id="mask" x="-938.59" y="-992.5" width="2812.11" height="2812.11" maskUnits="userSpaceOnUse">
      <g class="cls-7">
        <rect class="cls-9" x="-526.77" y="-580.68" width="1988.46" height="1988.46" transform="translate(-155.51 451.67) rotate(-45)"/>
      </g>
    </mask>
  </defs>
  <g class="cls-10">
    <g class="cls-6">
      <path class="cls-5" d="M987.79-1407.7l-1.32.02c-79.53,1.31-157.7,30.71-215.1,86.25-20.62,18.24-32.64,45.18,10.59,29.6,18.64-6.87,38.73-13.89,58.55-18.42,301.68-76.64,567.17,181.68,646.94,455.44,9.33,23.88,27.92,34.9,31.95,3.57,1.69-21.17-1.85-44.21-5.09-65.69-42.01-253.82-260.77-486.87-526.53-490.76M520.67-365.64c13.25,32.84,48.08,49.28,71.36,74.47,45.25,48.82,46.88,120.66,74.08,178.95,49.28,117.22,159.63,221.39,289.34,234.91l1.25-.02c26.03-.89,21.23-11.69.17-15.92-57.62-10.44-105.53-50.24-141.8-94.31-47.19-56.51-64.64-129.41-82.16-199.1-23.11-89.26-43.65-199.76-134.53-244.95-52.6-24.26-99.5,8.73-77.71,65.95M1596.99-516.84c-27.17-125.03,61.31-241.15,63.03-363.73v-1.4c.11-49.13-15.81-98.66-41.52-140.67-13.69-22.1-29.31-44.38-48.19-61.86-25.08-22.99-34-13.92-23.23,20.22,55.73,138.05,17.18,227.3-15.41,363.51-8.8,36.43-15.72,74.75-10.84,112.1,4.08,34.24,19.99,70.58,45.27,92.87,27.74,24.1,34.41,5.09,30.89-21.03M486.38-1740.13c-58.55-6.27-79.19,49.14-42.55,91.74,73.87,80.39,209.26,78.19,309.81,66.37l1.41-.18c25.4-3.26,72.61-9.46,88.37-19.33,1.89-1.12,3.71-2.52,4.06-4.35.29-3.01-6.55-5.12-18.28-6.34-14.42-1.57-33.2-1.35-48.64-2.8-87.31-8.32-156.33-67.32-232.91-105.02-19.08-9.53-40.09-18.21-61.28-20.08M184.58-1393.86c39.76,82.33,132.73,145.49,224.59,138.65,47.7-4.17,89.52-32,115.88-71.92,18.31-26.49,37.09-72.56,13.62-99.58-24.66-26.52-54.85-3.15-67.81,23.6-17.5,35.34-48.3,65.15-88.65,69.76-77.28,7.77-139.97-54.25-183.97-111.07-9.52-10.66-22.2-35.09-35.32-37.03l-.37.11c-11.99,13.55,14.13,71.21,22.02,87.46M1820.41-1084.36c.85-6.49.42-13.79-.37-20.84-21.91-213.86-174.31-462.33-404.13-473.57h-1.41c-48.39-.63-100.56,8.9-138.44,29.17-7.61,4.31-19.36,11.04-18.3,20.6.54,6.92,14.38,10.43,24.17,10.21,108.13-6.9,209.65,29.14,293.02,98.4,106.39,84.93,173.8,205.6,215.41,332.94,7.13,18.51,26.52,27.31,30.05,3.09M1093.54-1588.05c-54.46,12.47-96.27,54.25-143.45,82.03-40.64,26.76-83.86,50.05-127.24,72.58-9.86,5.61-29.77,12.49-34.57,21.05l-.14.46c2.24,12.07,40.95,2.49,51.9.72,74.52-15.59,148.98-31.52,223.39-47.82,25.42-5.72,51.37-12.72,73.01-27.52,70.43-47.15,38.01-116.42-42.9-101.5M1306.12-764.25c34.18,47.27,79.84,88.02,134.78,109.24,10.7,4.44,32.17,8.89,35.01,4.51l.29-.29c4.75-9.89-17.21-26.19-25.69-36.23-76.61-73.76-85.31-184.01-107.61-282.1-32.32-139.9-128.35-287.01-278.07-314.98-36.6-5.01-74.5,19.19-56.37,56.68,11.92,23.7,33.86,39.95,54.82,56.82,49.71,37.29,98.79,78.54,127.15,135.02,23.23,43.47,34.78,92.54,50.27,138.73,15.39,46.95,36.23,92.52,65.43,132.61M1895.82-126.36c-88.77-183.21-314.81-362.5-524.47-364.3h-1.34c-161.38-1.63-330.98,92.03-384.48,250.02-38.72,110.65-1.58,239.91,91.05,312.62,34.15,29.15,90.4,53.17,45.24-13.89-22.13-34.2-33.57-71.27-34.01-110.79-.77-85.23,40.16-163.7,102.07-220.43,74.18-69.46,188.13-106.11,296.89-79.22,110.76,27.2,214.18,80.74,304.81,150.08,27.35,21.23,52.22,45.47,75.13,71.41,8.95,10.67,37.9,37.01,29.11,4.49M1708.21-156.59c8.27,3.06,15.72,4.24,19.87,2.18,16.82-13.96-30.02-48.65-41.26-58.54-76.73-62-168.96-103.09-270.08-104.82l-1.34.02c-139.67.29-248.69,105.96-253.95,249.46-1.63,26.91,9.47,48.91,32.45,18.87,98.06-162.95,301.23-193.84,467.39-127.24,15.84,6,31.38,14.13,46.91,20.08M1914.47,52.5c29,19.84,56.66,43.47,81.9,67.9,3.89,4.01,11.1,9.99,14.29,9.69l.55-.02c7.06-1.85,4.04-15.44-.35-27.85-12.82-31.95-34-60.72-57.66-85.45-97.37-98.7-228.84-159.55-367.9-158.98-68.6-.89-132.07,27.99-197.3,44.84-41.04,12.42-85.08,8.73-125.52,22.77-103.25,39.15-20.79,135.05,52.82,140.79,126.57,13.44,177.62-114.74,353.86-100.9,87.6,7.35,171.42,39.35,245.32,87.2M775.23-450.49l-.52,1.34c-47.11,146.94,5.17,429.9,150.92,485.93,14.36,3.27,30.54-3.2,38.04-15.99,11.75-23.31-4.64-52.2-16.47-72.85-71.89-96.35-153.6-188.44-154.8-315.81-.72-20.71,2-41.02,5.5-61.38,1.6-10.16,3.98-21.39,1.17-29.34-5.61-15.28-20.54-3.77-23.85,8.1M855.77-319.12c-.22,50.27,10.78,97.67,37.58,140.56,4.49,7.21,13.82,17.45,19.54,16.61,12.98-1.88,9.1-15.25,9.18-24.99.11-18.44-1.17-37,.71-55.23,6.55-63.71,27.89-120.01,79.57-162.36,44.61-36.55,91.83-66.55,148.71-80.57,38.55-9.5,65.84-42.55,66.38-75.25.55-35.67-25.13-68.53-62.75-82.36-27.34-10.06-52.28-3.44-77.7,6.92-130.53,53.23-220.66,181.94-221.22,316.68M300.9-1135.93c-13.93,2.34-24.53,5.3-26.42,9.03l-.18.35c-1.31,3,2.91,6.41,11.18,9.58,7.67,2.95,18.58,5.41,27.6,6.8,145.65,24.39,303.04-36.57,389.83-157.55,24.42-31.66,48.22-84.37,14.3-117-26.08-23.96-71.92-19.65-99.99.26-54.82,41.01-84.99,106.58-133.44,154.32-49.04,52.51-111.28,86.25-182.88,94.21M462.3-545.44c-55.99,88.31-51.11,201.31-27.77,298.95,2.8,10.26,7.41,28.15,16.53,33.2l.66.21c14.27-.35,8.61-49.79,9.93-62.55,3.24-85.06,47.27-159.44,81.14-235.42,38.6-90.86-34.17-107.51-80.5-34.4M1710.5-914.37c-24.2-27.28-26.86,9-24.13,26.63,15.08,104.78-37.2,203.03-45.68,305.61l-.03,1.28c.34,28.28,4.91,56.82,13.24,84.9,10.53,34.29,29.42,66.72,54.83,92.24,41.18,39.95,40.06,4.29,28.35-31.66-46.74-161.33,77.42-254.01.91-429.36-7.86-17.5-15.78-35.32-27.49-49.64M1975.21-792.43c1.94-3.09-2.37-8.8-10.75-15.38-8.09-6.43-18.67-12.92-27.66-18.88-73.98-48.05-126.58-116.79-160.86-196.04-29.42-58.28-27-135.5-69.76-186.12-45.27-42.73-90.23,9.29-89.68,59.12,1.8,171.59,171.02,304.86,323.82,355.31,9.73,2.91,28.71,7.81,34.64,2.34l.25-.35ZM2111.38-177.73c4.91-24.86.08-51.6-.23-76.93-5.24-123.43-14.62-205.46-113.07-290.16-34.37-36.04-64.57-75.67-81.23-123.11-9.72-29.32-21.02-58.75-43.36-80.87-11.15-10.9-25-23.34-33.46-20.82l-.42.25c-4.66,6.1,1.49,16.33,3.28,23.48,18.7,54.99,21.19,114.28,27.34,171.82,12.69,102.21,56.45,159.59,124.38,233.11,33.23,46.53,63.49,96.69,84.33,149.92,5.4,18.7,22.42,44.62,32.44,13.3M2037.74,421.5c47.47-37.18,54.79-109.62,31.89-161.39-16.08-37.58-41.06-66.66-73.38-89.71-13.36-8.44-26.89-23.22-42.7-22.53-19.45,7.3,18.11,41.67,23.39,52.7,32.86,47.3,45.05,98.6,27.97,154.57-3.44,12.26-8.09,25.37-8.4,37.58l-.02,1.21c-.83,25.03,17.59,43.22,41.24,27.57M2059.33-1097.24c-14.68-107.85,19.14-206.06,81.91-293.53,10.13-14.32,21.23-29.88,27.11-46.47,17.5-42.35-16.16-91.74-61.86-84.96-26.09,3.49-48.82,27.48-63.8,50.48-36.03,54.77-49.93,121.52-50.13,185.86v1.32c2.88,72.98,13.25,153.8,54.74,215.98,3.94,4,7.47,5.12,9.78,2.89,5.24-5.44,3.18-22.31,2.24-31.58M2248.68-876.57c-241.29-38.26-368.58-326-278.27-540.14,5.26-12.02,17.78-44.76-5.47-37.84-17.88,8.7-31.78,27.55-45.08,42.81-35.46,45.56-58.57,107.85-59.54,166.39l-.02,1.26c-4.2,189.15,105.21,396.26,299.2,419.05,28.45,2.11,56.91-1.97,84.62-13.79,25.93-10.64,37.17-30.14,4.57-37.73M659.06-598.29c-22.91.32-51.65-1.46-68.76,14.75-14.98,13.84-14.59,35.57.97,50.9,28.4,27.75,68.98,37.32,107.44,37.4,147.66-2.35,271.97-86.82,348.94-210.71,13.07-20.37,22.22-42.76,28.02-66.17,9.04-39.52-14.28-30.55-30.12-6.77-89.86,122.83-237.11,180.77-385.14,180.58l-1.34.02ZM1511.31-1639.6c-16.02.75-55.23,5.09-56.19,19.99.48,2.77,3.67,5.29,8.81,7.4,13.29,5.09,28.77,6.23,43.22,9.58,52.19,11.23,103.65,30.52,129.24,80.24,6.21,10.21,12.5,20.54,20.22,28.12,17.71,19.24,48.11,14.93,61.97-5.92,15.88-23.37,5.35-54.85-11.18-75.27-46.13-53.57-126.21-64.17-194.68-64.2l-1.41.06ZM105.74-1145.28c115.14,141.5,355.26,270.88,524.71,154.15,46.42-29.57,87.59-71.96,142.7-84.13,21.39-2.94,60.45-8.86,23.65-23.94-124.81-31.98-244.4,37.63-364.92,61.17-111.37,25.69-216.41-39.39-296.31-111-13.82-10.81-35.95-37.35-49.44-36.66l-.37.17c-6.06,9.07,12.84,30.94,19.97,40.24M68.39-1091.66c21.1,81.97,80.64,148.58,146.15,199,148.29,114.45,392.11,145.52,550.15,34.49,57.55-40.46,100.44-97.89,112.76-169.19,1.91-15.38,2.8-29.92-6.38-32.28-12.06-.23-22.33,19.17-30.09,28.83-67.73,104.25-188.49,149.72-313.56,148.72l-1.28-.03c-163.75-7.38-314.58-83.8-415.37-215.03-7.35-9.21-15.62-20.79-23.93-28.05-22.73-17.81-23.33,15.05-18.45,33.52M699.19,379.9c-5.4-29.46-11.06-57.92-16.73-86.92-22.23-157.95-91.17-268.05-251.32-309.15-36.33-10.03-73.81-12.96-111.08-17.02-6.4-.74-15.07-.63-18.93,4.32-5.81,8.1,2.03,16.15,10.35,21.73,81.87,54.76,148.05,121.88,190.1,208.23,15.39,29.23,23.83,63.31,37.2,94.04,25.06,54.1,75.82,102.07,136.87,109.57l1.25.09c19.31,1.01,26.25-5.95,22.3-24.9M682.8,122.33c87.43,76.91,204.11,122.57,321.77,98.55,20.68-4.37,40.47-11.5,60.08-19.21,9.56-3.44,25.13-12.62,24.46-18.59,1.34-8.27-21.33-9.8-31.12-8.89-208.88,13.41-393.67-131.46-481.91-313.12-18.67-36.49-30.77-75.38-43.41-114.13-3.41-9.98-7.93-19.39-12.44-23.43-12.73-11.92-15.39,20.17-14.39,32.12l.05,1.37c4.89,142.23,65.9,271.17,176.91,365.32M999.03,319.87c39.47-17.71,80.99-31.49,121.01-48.07,12.49-4.66,38.29-20.74,8.8-23.7-166.5,13.21-253.16,60.65-401.24-51.44-9.63-6.09-17.28-9.44-20.34-7.13l-.38.31c-3.04,2.55-.98,10.98,3.69,21.23,37.67,81.34,123.04,134.76,212.29,131.62,26.99-1.25,51.82-12.15,76.18-22.83M1595.51-1180.51c28.4-152.26-123.47-289.71-274.87-295.34l-1.31.05c-50.88,5.49,23.26,31.28,34.63,40.07,18.91,11.29,36.1,24.93,51.7,40.41,117.99,121.98,37.44,156.3,73.75,229.4,30.65,52.36,100.95,45.12,116.11-14.59M108.34-399.33c19.57,15.13,61.41,36.07,55.74-7.01-28.66-104.93-97.27-194.08-160.86-280.24-48.84-64.03-87.34-136.39-97.63-217.66-3.08-15.35-2.48-43.72-11.56-52.82l-.35-.18c-14.18.12-19.84,49.68-21.77,63.54-23.28,193.44,73.52,386.86,236.43,494.38M-86.96-1090.46c13.7-22.3-50.27-21.53-62.74-21.93l-1.52-.02c-33.86,1.37-83.14-.48-101.1,33.52-3.23,7.83-2.77,16.56,2.09,23.34,23.48,25.45,60.98,2.58,89.95-5.06,21.36-7.92,60.91-15.79,73.32-29.86M219.73-351.48c7.49-10.15,15.25-34.78,20.71-57.79,17.05-69.79,28.06-144.23,8.36-214.63-39.56-131.61-160.55-217.66-213.3-342.79-19.68-45.84-30.17-94.34-30.68-144.49-.54-22.3,2.4-45.38,3.2-67.73.45-15.45-1-26.05-5.17-28.12-5.26-5.89-21.82,19.56-28.2,34.43-41.29,93.2-52.07,202.74-16.53,299.15,64.41,178.62,252.22,263.91,242.37,472.57l.02,1.43c.35,22.4,2.03,70.18,19.22,47.98M-213.17-1347.22c-.57,27.51,3.06,57.05,20.42,79.65,14.15,19.74,44.28,27.08,55.89,2.57,4.2-8.24,4.29-20.56,2.98-29.95-6.63-50.36-22.57-103.18.68-149.26,3.61-8.93,23.57-37.55,4.49-38.43-8.41.78-16.04,6.77-22.5,11.92-36.07,31.23-59.68,74.79-61.91,122.35l-.06,1.15ZM247.39-1562.24c-15.52-102.27-2.04-214.78-59.02-306.09-10.67-16.5-22.79-39.2-40.06-47.84l-.74-.28c-21.11-3.61.31,38.63,4.4,50.14,5.15,13.21,9.64,26.72,13.01,40.49,9.29,37.4,9.69,76.3,3.51,114.17-5.18,34.66-19.31,70.32-15.79,104.72,2.48,31.91,20.82,59.97,43.93,81.23,14.45,12.61,37.29,35.98,55.94,33.68,19.77-7.03-5.04-53.45-5.18-70.23M-255.13-822.25l.02,1.41c4.57,102.53,42.64,197.51,135.05,260.2,29.55,20.68,54.25,22.64,24.91-16.76-92.84-128.1-121.11-336.29-5.38-457,9.93-12.52,12.36-26.12-6.26-25.08-28.69,4.2-55.86,23.97-76.88,43.62-51.2,49.22-70.76,121.6-71.46,193.59M-304.57-1332.95v1.34c1.51,63.12,38.49,117.42,86.14,159.19,10.47,8.73,23.62,19.71,37.2,21.05,24.79-2.49-17.96-47.76-22.33-58.71-11.27-18.59-19.64-38.8-25.39-59.72-17.04-61.69-10.04-108.54,17.61-164.41,9-26.14-12.55-28.85-30.22-18.47-39.24,22.45-63.49,73.72-63.01,119.72M-136.38,470.18c-25.56,36.8,13.09,63.06,50.67,57.4,18.54-2,36.2-8.38,53.51-16.94C217.9,380.55,248.04,30.19,57.4-165.53c-24.23-25.19-50.71-49.34-80.4-67.9-14.07-8.49-24.73-12.53-27.62-10.78l-.22.12c-2.95,1.98,2.74,10.43,13.9,22.47,10.33,11.26,24.56,24.57,36.38,37.98C111.09-55.31,118.3,120.65,42.8,269.97c-20.7,42.67-47.48,82.1-81.28,115.56-28.23,31.18-72.33,51.19-97.9,84.65M9.81,684.79l-.38.34c-2.77,2.49.97,8.98,7.81,16.13,25.85,25.91,57.45,45.04,93.06,54.62,141.83,39.21,274.95,9.13,387.11-84.34,33.8-28.17,64.86-58.89,96.38-89.12,8.18-7.44,17.84-21.4,10.76-31.25-22.28-23.33-70.09,15.19-93.32,26.48-28.31,16.33-55.11,35.37-83.39,51.62-108.76,61.49-240.45,102.62-365.57,67.23-15.19-2.92-38.92-15.93-52.47-11.7M118.72-1569.29c-19.37-38.18-21.54-82-11.75-123.26,3.01-20.37,17.48-45.84,8.52-65.27-11.36-12.64-30.55,4.12-43.52,19.19-23.6,28.95-36.66,65.3-37.35,102.42l-.03,1.4c-.92,45.35,17.28,95.75,62.14,114.36,10.87,4.03,27.59,7.87,35.49-2.43,7.57-12.53-7.63-33.4-13.5-46.41M2233.11,591.1s-.05.11-.08.17c-3.63,9.66,5.92,19.1,15.85,16.24.81-.23,1.63-.48,2.46-.75,3.61-1.2,6.89-3.69,10.04-5.98,35.8-26,74.38-49.67,122-48.61v-76.81c-53.03-.68-128.75,61-150.28,115.74M422.19-1621.21c-35.77-30.32-36.72,6.35-27.77,33.57,7.29,23.1,19.56,45.08,34.29,64.23,51.51,68.03,139.53,92.52,222.41,90.88l1.38-.03c50.39-2,101.75-12.41,148.83-31.88,46.08-19.74,85.99-51.33,121.66-88.38,45.19-48.14,35.86-70.06-25.88-35.63-115.26,62.32-263.63,91.69-385.72,35.34-34.26-15.32-61.66-42.95-89.2-68.09M-1.85,270.71C34.33,204.19,38.67,123.2,22.78,50.82,5.42-23.48-33.83-95.53-95.69-141.72c-30.8-21.27-29.97-.15-16.65,23.8C-72.11-45.22-53.07,42.49-74.77,123.68c-8.6,34.46-24.34,69.03-26.09,104.58l-.05,1.32c-2.58,69.36,59.51,111.82,99.06,41.13M-204.53-124.05c-38.38-33.8-104.99-24.79-109.1,32.94,1.48,48.67,44.01,82.19,66.32,122.11,43.35,68.81,52.57,147.08,38.35,226.28-1.18,9.81-6.84,32.21-.35,38.53l.55.29c11.78.65,21.91-18.62,27.91-27.62C-115.67,153.89-100.06-27.09-204.53-124.05M494.86,520.83c1.2-24.9-22.34-41.39-45.21-31.88-24.42,9.44-42.38,32-62.06,48.79-43.36,39.44-91.83,70.79-146.85,89.15-12.44,3.69-53.2,21.56-22.82,25.76,79.87-4.8,155.98-38.27,226.65-75.25,21.93-11.66,48.21-28.63,50.22-55.37l.06-1.2ZM1847.3,228.58c36.78,41.95,58.54,95.95,74.44,148.95,2.81,8.83,8.38,34.09,21.17,27.2,10.15-9.52,8.43-39.46,9.07-55.56l.02-1.28c.63-188.75-164.45-310.22-338.84-303.64-147.74,1.85-279.12,190.75-423.47,123.29-15.04-8.26-44.12-15.59-34.27,12.12,8.63,17.85,26.28,29.97,41.49,42.02,84.79,67.61,193.05,36.49,277.99-13.65,62.75-38.18,132.47-78.3,208.02-62.41,60.09,13.58,119.88,39.75,164.39,82.96M2160.19,99.19c.72,10.19,7.81,24.46,14.52,20.08,12.52-9.87,15.61-36.23,23.53-51.03,23.19-53.2,77.99-81.96,115.02-124.32,20.53-20.94,25.42-60.77-8.95-69.38-24.33-5.32-49.47,8.5-68.7,22.6-59.75,44.93-76.25,129.36-75.56,200.82l.15,1.23ZM414.29,252.11c-37.1-51.87-61.21-112.05-92.29-167.9-27.94-48.16-62.66-91.89-102.45-131.35-11.53-10.15-27.03-29.08-41.18-31.95l-.45.08c-2.17.4-2.48,2.89-.91,6.89,3.8,9.27,12.04,18.47,18.57,26.65,25.65,31.02,44.99,65.3,58.55,101.95,17.01,43.65,21.4,91.97,33.61,136.98,21.63,81.48,59.26,153.35,122.83,213.95,62.81,60.09,137.31,107.62,229.25,100.61,27.49-1.94,54.33-7.69,81.19-13.18,43.16-8.44,33.46-22.73-2.11-28.2-126.13-26.72-233.11-110.67-304.63-214.52M1198.29,532.45c144.29,5.9,249.47,28.43,363.86,122.75,19.94,19.36,45.64,26.23,25.94-8.95-70.43-125.01-194.19-215.12-338.16-216h-1.38c-63.49.34-124.46,11.09-176.77,31.29-8.63,3.51-22,8.69-21.05,19.62,7.49,29.92,118.06,48.94,147.57,51.28M123.47-1851.07c-4.06-19.02-12.21-52.65-17.44-73.22h-32.86c10.3,44.22,9.26,71.96,10.21,106.81.15,6.01,5.27,15.32,10.07,16.84,5.84,1.88,15.53-.89,20.51-5.2,14.05-12.06,12.92-29.23,9.5-45.22M250.36-764.06c93.86,86.46,224.99,115.17,350.79,117.37l1.34-.02c214.07,1.18,499.47-130.47,478.15-378.88-9-106.42-97.44-209.83-205.99-224.05-41.32-5.23-83.54,2.26-119.08,23.4-12.19,6.84-30.18,23.56-18.65,33.97,9.5,8.61,23.63,9.89,35.74,12.99,40.52,8.43,80.74,21.83,114.83,47.28,115.45,85.59,42.78,224.93-51.48,292.99-108.21,83.99-242.97,124.66-379.59,123.15-69.33.74-135.27-18.5-192.55-58.32-14.79-7.86-24.66-5.35-13.52,10.12M1862.51-410.26c-16.93-29.4-29.25-62.17-35.66-96.57-2.12-8.81-3.88-20.64-10.41-26.52-13.82-6.3-11.16,32.89-11.38,44.02l.02,1.31c2.29,118.72,34.26,241.63,114.91,330.28,106.01,101.53,160.18,211.64,180.34,357.48,9.27,36.21,22.62,24.66,22.7-3.31-1.49-199.37-75.11-399.21-212.18-544.12-18.25-19.05-35.44-39.86-48.33-62.57M2026.8-1924.23h-58.66c10.46,40.44,31.03,73.42,55.88,103.75,11.61,14.18,25.51,26.56,39.12,38.93.65.58,1.52.94,2.52,1.14,5.94,1.17,11.04-4.35,10.44-10.36-.08-.68-.17-1.35-.28-2-.34-1.94-2.81-3.38-4.01-5.26-51.54-79.67-44.04-120.57-45.01-126.2M2195.93-1924.71c-35.03,0-76.68-.31-109.5.45-1.43,29.4,4.71,47.53,12.98,63.8,13.53,26.62,42.22,29.54,64.77,9.44,21.2-18.91,29.68-43.58,31.75-73.69M1971.69-1819.12c5.06,1.38,9.69-3.23,9.33-8.46-.08-1.21-.31-2.38-.78-3.4-9.81-21.14-22.71-41.01-30.26-63.04-5.18-15.15-7.21-20.25-9.53-30.37h-50.34c16.62,41.59,50.11,74.5,80.11,104.48.38.37.89.63,1.48.78M1982.57-1659.37l.21-.25c.38-13.09-62.44-28.05-76.22-33.63-61.68-18.62-123.87-41.98-189.06-41.16-29.48.62-63.17,7.95-82.16,31.81-26.09,33.14,4.49,60.08,39.58,60.8,24.54,1.61,49.21-3.46,73.3-7.84,62.01-12.29,124.18-18.27,186.8-10.81,12.84,1.08,38.64,6.14,47.54,1.08M1515.42-1873.86c-129.03,33.21-237.37,118.19-291.45,245.38-7.12,18.85-19.91,43.45-15.87,62.34l.28.78c17.18,33.15,110.13-47.74,129.93-62.89,54.82-44.42,111.42-88.23,170.27-127.92,91.81-57.63,198.5-103.22,308.13-75.21,9.1,2.44,36.95,7.75,35.8-1.52-.8-7.13-18.22-17.64-27.66-21.19-98.58-41.73-203.23-48.84-309.42-19.77M2065.64-1558.11c20.11-7.04.42-27.16-10.56-33.01-154.66-109.37-373.53,72.7-287.5,236.89,6.92,14.81,51.36,71.61,59.05,33.4,12.09-125.21,84.76-231.26,213.91-236l1.2-.02c7.89-.21,16.11.82,23.91-1.26M1145.44-1012.21c-3.61,37.5-3.66,87.48-3.35,127.69-2.09,131.81,69.47,257.39,180.11,326.89,36.38,22.8,108.59,62.14,141.47,19.48,24.14-58.45-99.93-106.45-137.51-136.76-99.83-65.14-138.07-157.09-146.8-272.49-2.08-18.14-4.77-37.1-8.67-53.45-5.07-21.9-11.38-35.7-16.5-34.52l-.31.06c-3.69.98-6.67,9.47-8.43,23.1M-287.81-1062.46c-10.13-81.13-38.44-159.84-31.8-243.29.08-1.12-.26-2.29-.86-3.46-3.12-6.06-11.84-6.67-15.91-1.2-.74.98-1.23,2-1.34,3.04-2.44,26.03-5.37,52.19-4.84,78.25,1.54,77.74,3.61,155.58-16.56,231.48-6.7,25.23-16.21,50.02-29.95,73.1v184.37c73.92-92.54,113.33-225.76,101.27-322.3M6.58-354.41c9.29,1.57,19.05.35,28.59.45-4.83-9.39-7.86-20.51-14.81-27.94-35.94-38.47-82.2-58.88-132.19-71.78-58.34-15.07-232.53,34.18-277.24,70.07v133.58c12.52-10.03,24.89-18.87,37.53-28.68,106.71-82.82,227.56-97.66,358.12-75.7M-221.18-504.55c5.38.75,11.15-.55,16.55-1.92,23.99-6.03,31.45-29.12,17.07-52.28-12.47-20.07-29.43-32.83-49.77-39.93-52.94-18.51-103.42-11.95-151.74,18.22v143.42c1.97-1,106.56-75.82,167.9-67.5M-308.72-1924.8h-80.36s0,142.5,0,142.5c47.59-31.35,78.94-80.56,80.36-142.5M64.75,658.89h1.37c28.17-.38,59.91-6.58,84.88-18.97,18.93-10.2,15.48-22.4-8.37-21.53-169.21,15.44-198.31-72.75-286.84-64.12-24.22.55-70.7,25.69-23.05,35.8,46.68,4.4,85.83,34.67,129.36,49.37,33.72,11.67,68.35,18.78,102.64,19.45M-273.68,135.36c-1.65-49.45-14.49-95.95-42.29-137.47-3.12-4.67-10-6.83-15.15-10.16-1.02,5.54-3.92,11.49-2.77,16.5,12.46,54.88,6.32,108.21-15.84,159.07-10.24,23.53-26.06,44.64-39.36,66.84v188.43c75.16-103.13,118.49-190.86,115.4-283.21M-194.67,465.24c30.38-25.72,56.19-57.15,82.25-87.55,16.04-18.7,18.21-42.47,8.87-64.95-3.72-8.95-13.73-18.64-22.71-20.97-6.86-1.8-18.74,5.55-24.57,12.21-11.72,13.35-20.1,29.58-31.14,43.61-53.39,67.76-124.21,107.53-207.11,127.6v77.21c7.21-.77,14.53-.91,21.59-2.35,64.97-13.24,122.83-42.49,172.82-84.79M-191.71-196.22c52.34-4,101.02,7.81,141.33,44.73.4.37.86.68,1.38.94,6.72,3.28,14.08-3.51,12.85-10.87-.14-.82-.29-1.63-.48-2.44-.43-1.97-2.61-3.54-3.97-5.32-75.95-100.72-251.16-131.22-348.5-10.18V-41.67c55.77-94.86,103.24-147.37,197.38-154.55M-124.15-1638.18c.69.77,1.65,1.34,2.78,1.75,7.63,2.81,15.32-4.06,14.27-12.13-.41-3.11-1.17-5.95-2.8-8.15-63.35-85.69-185.1-111.56-279.18-59.98v83.91c12.64-9.16,24.96-18.81,37.95-27.4,74.95-49.68,168.65-43.69,226.98,22M-172.54-1765.81c45.58-37.81,49.27-110.33,35.21-158.52-27.72-.71-61.98-.4-91.91-.4-2.57,41.33-21.42,72.78-33.17,106.28-3.32,9.44-9.38,18.76-8.81,28.75,1.86,33.74,27.69,45.41,55.37,42.21,15.07-1.75,31.63-8.66,43.3-18.33M-268.97-1478.6c11.76-10.63,23.62-16.76,34.86-25.83.92-.75,1.71-1.68,2.37-2.71,3.63-5.49,1.32-13.29-4.92-15.32-.82-.25-1.61-.38-2.41-.37-16.67.52-93.31,8.07-150,36.03v239.55c6.58-24.28,73.42-192.75,120.11-231.36M-166.29-1546.18c23.25.68,36.49-16.55,34.26-39.83-1.58-16.33-10.39-27.79-23.43-36.86-49.59-34.47-104.48-37.12-160.59-23.97-25.11,5.86-48.71,18.13-73.02,27.48v70.5c42.12-7.17,113.25-15.95,165.01-5.77,19.11,3.75,38.46,7.89,57.79,8.44M-94.55-1279.61c15.95,30.98,74.59,54.77,87.68,9.9,5.87-31.97-15.27-61.57-21.67-92.12-9.87-36.54-9.69-73.53,2.15-109.02,3.4-15.19,20.01-40.86,10.13-54.08l-.62-.45c-6.73-3.91-17.3,3.11-23.56,8.03-66.57,55.45-99.43,161.81-54.13,237.74M-51.95-1570.08c56.48-62.12,84.23-137.14,95.06-219.06,5.38-40.67,15.81-83.46,4.18-135.16-32.84-1.17-89.66-.29-124.37-.29,43.98,141.82,32.31,270.98-29.85,371.38-.98,1.61-1.31,3.63-1.31,5.86-.02,7.57,6.66,13.81,14.15,12.65,1.28-.2,2.41-.6,3.32-1.29,13.65-10.47,27.29-21.4,38.81-34.09M-388.71,737.36c0,36.92-.37,73.47-.37,110.39h80.36c.68-23.65-7.83-43.13-17.71-62.57-12.72-25-24.13-47.47-62.28-47.82M1803.47,591.18c5.8-29.94,10.79-61.23,8.4-91.29-5.6-69.83-45.71-120.66-100.49-160.95-.48-.35-1-.63-1.58-.86-7.53-2.97-15.07,5.41-12.13,12.98.34.91.77,1.77,1.31,2.57,16.45,25.2,29.51,51.96,30.81,82.25,1.69,39,.58,78.11,1.32,117.16.63,33.48-1.05,67.4,3.95,100.27,12.09,79.59,62.75,137.73,114.76,194.45h13.44c-4.75-9.41-8.46-19.56-14.42-28.12-48.31-69.66-61.37-145.71-45.36-228.45M1229.88,803.04c7.53-5.04,6.64-17.02-1.74-20.53-.83-.35-1.68-.57-2.52-.66-28.32-2.35-56.77-4.71-85.16-4.44-49.34.46-90.48,21.65-125.67,55.11-4.07,3.86-5.89,10.1-8.76,15.24h151.05c19.01-21.54,42.67-35.26,70.15-43.42.92-.26,1.81-.71,2.66-1.29M1492.95,789.97c-55.54,2.31-91.74,12.84-141.99,35.63-8.21,3.74-30.88,16.5-38.21,22.16h486.7c-6.41-4.17-12.42-9.32-19.34-12.35-91.77-39.96-188.46-49.53-287.16-45.44M1975.61,609.32c9.15-16.5,22.6-30.61,31.74-47.13,16.05-28.96,12.7-64.14-6.89-86.51-22.17-25.32-49.02-25.31-79.64-17.16-31.05,8.29-45.53,30.52-56.99,56.49-19.56,44.42-23.74,91.61-22.28,139.47,2.06,67.93,17.61,132.55,48.54,193.27h50.34c-.48-4.4-.8-8.83-1.48-13.19-12.44-79.1-2.54-154.7,36.64-225.24M2383.52,737.35c-15.67,0-29.05-1.32-42.13.26-30.48,3.69-59.66,11.64-79.54,39.5-2.97,4.17-4.63,10.84-3.89,15.85.32,2.17,8.41,4.86,12.62,4.32,38.32-5.03,65.32,15.78,69.58,50.47h43.36s0-110.4,0-110.4ZM2383.38,675.43v-72.7c-4.43.57-115.83,13.21-242.77,151.68-19.91,28.18-49.02,58.19-54.19,93.35h109.5c2.23-57.08,107.96-149.8,187.46-172.33M2090.84,685.68c17.08-11.44,36.14-19.9,53.65-30.77,21.51-13.35,34.17-32.55,30.45-58.75-3.57-25.17-19.45-41.84-43.38-47.84-12.87-3.2-27.89-2.44-40.96.68-30.78,7.37-52.83,28.4-70.84,53.17-53.85,74.22-67.09,157.37-51.62,245.58h58.66c2.26-17.64-.09-114.66,64.04-162.07M1072.37-1798.3c21.13-45.48,50.31-85.88,85.22-126.47-52.34,0-104.13-.28-151.55.38-20.25,27.03-32.31,48.76-37.84,70.32-5.5,21.34-4.55,44.3-7.17,66.47-5.77,49.22-21.07,93.52-64.51,123.27-2.86,1.98-4.04,10.27-3.49,12.21,6.26,21.45,57.31-10.99,75.85-23.56,45.64-30.91,80.14-72.39,103.49-122.63M52.91,782.39c.29,1.4.63,2.8,1.03,4.17,7.83,26.48,11.21,34.6,19.24,60.98h32.86c-7.9-32.54-20.05-49.84-40.15-72.01-.03-.05-.08-.09-.11-.14-5.14-5.54-14.38-.4-12.87,7M169.79,810.86c12.9,12.58,25.4,24.74,37.89,36.89h116.31c-28.48-22.62-108.24-50.42-147.29-52.51-8.44-.46-12.96,9.72-6.9,15.62M-389.08,602.72v72.79c161.81,7.12,260.43,57.02,305.81,155.06,2.55,5.52,4.27,11.44,6.37,17.18H47.29c-42.75-156.86-267.43-287.02-436.37-245.03M665.1,670.94c36.5-52.34,85.94-90.14,140.48-122.03.51-.32,1.02-.65,1.48-1.05,8.52-6.94,4.07-21.48-6.92-22.27-.89-.06-1.8-.02-2.66.15-122.97,24.46-212.47,91.8-261.1,208.88-14.91,35.93-20.42,74.12-11.59,113.13h104.05c-20.39-65.6-1.08-123.28,36.26-176.82M-248.31,729.83c-.42-.18-.85-.37-1.28-.49-9.76-3.12-18.08,8.44-12.5,17.04.11.14.23.31.34.46,21.99,30.75,33.77,64.04,32.69,100.92h91.72c-14.98-56.62-56.95-92.18-110.97-117.92M752.56,756.18c5.18-51.79,25.91-97.12,59-135.31.78-.91,1.43-1.95,1.98-3.09,4-8.35-2.68-18.42-11.82-17.11-.98.14-1.94.4-2.81.8-11.13,5.14-22.05,11.9-31.54,20.1-38.6,33.34-61.92,78.01-76.11,128.75-8.9,31.83-13.18,64.27-6.52,97.44h70.43c-1.12-30.55-5.61-61.51-2.6-91.57M983.43,778.54c12.52-5.12,24.57-13.28,35.35-22.54,26.34-22.67,23.79-60.08-5.09-78.36-22.62-14.33-46.88-18.27-72.21-12.44-69.47,16.02-121.61,97.3-131.81,182.55h106.95c13.79-34.71,36.37-56.77,66.81-69.21M-131.94-310.05l-.08.37c-.23,1.71,1.65,3.15,5.27,4.2,16.01,3.68,33.52,2.26,50.36,4.23,38.76,3.41,77.05,16.15,109.64,37.21,57.54,37.81,109.84,83.8,159.53,130.81,16.59,15.36,33.49,30.61,53.45,41.58,75.93,40.75,126.13-9.26,76.73-82.13-96.69-123.67-271.11-177.65-424.44-148.8-9.21,1.97-27.23,6.24-30.46,12.53M1734.85,730.46c-40.52-68.53-15.82-150.72-36.43-224.21-7.5-32.01-28.23-72.79-65.2-76.07-37.2-3.75-62.18,38.46-62.03,71.76l-.03,1.28c8.58,88.29,69.9,171.13,130.67,233.43,13.24,12.65,25.66,28.12,41.07,37.57,28.25,12.03-3.95-34.63-8.06-43.76M126.99,585.92c6.21-.85,12.55-2.06,18.84-3.57,98.63-22.96,150.88-106.55,153.27-200.77l.02-1.37c.11-38.04-13.04-76.9-37.41-106.19-10.07-13.35-39.2-36.3-42.93-6.1-.57,87.59-56.08,168.91-129.35,214.35-20.94,14.98-61.58,25.33-61.85,56.06,6.15,41.92,63.69,52.77,99.41,47.59M1064.82,590.52c83.6,93.2,194.16,159.99,320.25,171.31,35.49.8,76.94,1.52,107.67-19.08,14.47-10.78,23.36-28.82,23.79-47.91.92-35.94-34.17-59.34-63.98-70.79-88.66-24.91-182.97-.51-272.04-23.82-52.17-12.93-100.5-37.18-143.74-69.04-8.35-6.24-26.02-19.64-31.97-16.51l-.48.25c-4.31,2.23,2.26,13.01,6.04,17.14,17.65,19.7,36.9,38.43,54.46,58.46M2199.02,533.48c41.01-10.72,68.76-57.17,70.23-97.83l.02-1.37c.8-61.77-35.58-111.73-88.88-137.16-7.93-3.35-23.22-11.52-29.39-3.74-3.57,6.01,9.86,22.39,15.67,30.43,25.97,35.14,36.47,65.49,23.34,107.14-6.7,23.9-22.08,45.45-27.23,69.44-4.71,21.33,15.07,38.04,36.24,33.08M1267.45,358.22c27.31.32,54.33,7.58,79.96,21.28,6.15,3.12,18.25,8.12,21.63,1.62,4.91-24.71-37.26-56.99-58.48-65.84-81.6-33.72-173.13-25.02-252.69,9.95-58.32,24.68-114.73,58.68-180.01,59.94l-1.31-.02c-28.4.4-60.34-12.22-84.36-33.61-14.7-11.96-27.52-30.15-47.81-31.52-37.32,3.17-9.73,57.34-.09,75.68,10.07,17.5,23.43,32.32,40.84,43.24,55.8,31.45,127.73,28,188.18,12.89,82.62-23.93,159.53-64.34,242.29-87.06,16.88-4.44,34.54-6.86,51.83-6.53M1641.99,319.72c-2.86-3.63-9.98-2.91-17.67-.52-27.12,9.84-56.19,15.08-84.17,6.47-35-9.72-60.82-37.93-93.52-52.13-23.94-11.58-55.73-8.96-76.33,8.33-18.59,17.47-1.95,41.26,12.42,57.54,32.48,36.6,78.73,56.33,127.5,58l1.35.02c46.68-.55,90.26-17.87,120.97-52.22,5.3-6.53,14.56-17.45,9.44-25.49M1847.98,417.56c7.9,11.87,28.8,34.64,33.86,8.49-.03-125.69-98.9-235.39-227.65-232.07h-1.32c-35.77.65-71.44,9.92-108.56,28.35-33.38,17.05-23.03,36.18,11.52,34.12,116.89-2.51,224.87,68.41,292.16,161.1M637.07-1738.36c43.44,38.23,91.92,67.24,149.63,77.78,2.46.46,5.11-.15,7.86-1.2,7.61-2.92,10.89-12.1,6.63-19.07-1.2-1.97-2.58-3.77-4.24-5.2-13.56-11.56-29.26-20.67-42.47-32.55-61.94-55.71-105.82-122.51-124.5-205.39h-105.18c21.22,86.34,61.71,141.14,112.28,185.63M776.93-1800.9c2.78.42,5.55-1.63,5.57-4.46,0-.51-.06-.94-.28-1.32-18.64-34.23-23.31-79.87-27.06-117.65-18.9-.8-51.4-.37-70.43-.37,4.41,56.32,52.57,118.08,92.2,123.8M481.67-60.09c9.03,4.26,31.45,15.41,34.64,3.44-.58-12.35-19.47-25.11-29.69-35.41-34.8-32.78-61.43-70.7-79.61-114.42-23.57-54.89-29.55-116.43-18.96-175.08,5.95-39.17,21.16-77.74,21.24-117.02,2.63-71.56-47.59-130.03-105.7-165.68-15.05-10.04-37.09-16.07-29.65,6.87,4.12,11.13,12.27,22.7,17.73,33.75,12.44,23.79,13.25,51.6,12.87,79.1-.94,49.08-12.56,100.04-16.42,147.91l-.05,1.29c-3.38,152.09,65.27,277.04,193.59,335.24M895.92-1797.78c-12.62-38.32-1.71-73.61,12.89-108.61,2.25-5.35,5.43-11.06,7.55-17.56h-106.75c-1.12,43.98,15.02,79.1,41.19,110.24,8.5,10.13,18.97,18.81,29.4,27.06,8.13,6.43,22.94,4.03,15.72-11.13M35.35-1436.62l-.03,1.26c-2.21,138.85,146.46,251.13,331.11,249.43,13.93-.23,42.96-2.17,47.02-12.9-2.55-16.5-63.46-15.48-80.96-21.53-122.01-24.8-183.67-112.76-205.8-227.93-20.42-68.36-91.54-61.75-91.34,11.67M249.28-1838.22c-21.22-1.34,3.94,43.99,5,55.39,7.15,26.54,6.04,54.28,5,81.59-3.64,56.82,6.6,112.14,38.41,159.7,55.2,81.67,72.39-13.02,75.51-65.52l.05-1.41c3.32-77.27-49.13-201.45-123.97-229.74M2285.03,461.04c-2.48,6.72,2.35,14.08,9.44,15.01,1.97.26,3.81.23,5.4-.45,31.8-13.56,83.42-53.31,83.43-57.49.23-67.55.17-120.4.17-187.96-67.53,120.03-37.24,151.92-97.12,228.45-.57.72-.98,1.54-1.32,2.44M1797.59-1785.35c-24.42-.98-49.02,1.09-73.44,2.86-.54.05-1.05.17-1.55.35-6.72,2.54-6.4,12.26-.15,15.79.83.46,1.68.91,2.52,1.31,2.28,1.06,5.5.02,8.3.02,44.44-.03,88.82,3.72,130.35,19.42,48.5,18.3,99.46,33.49,142.76,61.98,111.62,73.44,320.94,80.27,376.96,50.84v-83.91c-25.62,12.58-46.7,23.31-69.24,26.97-88.02,14.27-173.48,4.52-256.81-27.66-83.94-32.4-168.28-64.32-259.7-67.96M2226.72-1555.19c-23.37,12.04-37.3,33.69-37.04,61.52.2,19.77,13.22,28.45,31.48,21.33,7.2-2.81,14.13-6.81,20.44-11.32,40.7-29.11,128.64-64.83,141.74-65.2v-70.5c-21.67,6.07-30.98,8.66-44.05,14.02-38.01,15.55-76.1,31.35-112.56,50.14M208.2-1924.79c46.31,53.77,99.38,93.27,158.61,123.84,23.4,12.06,49.85,20.37,75.82,24.43,16.84,2.63,36.84-2.31,52.77-9.66,28.69-13.22,31.34-48.31,5.74-67.01-15.58-11.41-33.48-20.19-51.34-27.77-26.19-11.07-78.84-20.42-127.78-44.36-33.21.92-77.62.52-113.82.52M2288.03-1833.31c-30.31,14.76-62.32,20.42-95.95,13.38-19.24-4.04-33.6,2.48-40.5,17.88-6.35,14.16-2.17,30.97,14.12,40.35,15.18,8.73,74.27,30.08,186.09-4.2,10.7-3.29,31.55-16.41,31.55-16.41v-142.5c-6.81.02-28.12.6-43.18.6,1.74,42.38-15.25,72.95-52.13,90.89M2242.76-1339.43c6.38-12.62,13.52-25.06,19.85-37.64,4.11-8.32,7.57-18.28,4.84-23.82-5-9.5-19.3-.89-26.31,4.47-74.3,57.94-117.94,132.13-121.71,214.2l-.05,1.37c-6.26,233.79,271.95,269.85,204.74,205.82-124.01-83.65-150.03-233.97-81.37-364.4M1341.38-1924.63c-7.14.02-20.2.25-28.63.25-41.29,27.45-124.74,72.52-170.85,134.61-15.16,20.4-23.45,43.01-26.56,67.81-4.14,33.09,11.62,67.81,36.49,81.07,19.71,10.5,43.25,5.38,53.36-11.12,74.61-121.66,178.58-206.48,315.85-247.73,79.68-23.96,160.66-29.35,240.65-1.09,28.74,10.15,55.48,25.86,83.56,38.07,2.18.95,4.89.78,7.73.26,5.14-.95,8.33-6.18,6.58-11.12-.8-2.26-1.81-4.29-3.4-5.69-6.63-5.78-32.66-33.75-56.71-45.07-67.93-4.47-188.5-.4-256.73-.38-67.12.02-134.24-.08-201.34.14M2327.52-1421.91c-35.24,66.04-45.68,137.08-39.4,210.83,4.52,52.87,18.21,103.24,47.58,148.2.05.08.11.15.15.23,6.7,9.81,22.85,3.72,21.33-8.04-.02-.08-.03-.14-.03-.2-8.73-59.49,24.31-172.1,26.19-176.69.18-75.91.05-159.49.05-240.29-25.97,19.62-42.76,41.41-55.86,65.97M2222.77-188.42c-4.69,15.81-5.61,32.91-6.75,49.51-.31,4.18,4.38,10.53,8.44,12.55,2.68,1.32,9.06-2.54,12.42-5.58,4.03-3.66,6.55-8.98,9.87-13.47,34.97-47.05,54.89-52.63,136.62-104.62,0-44.62.02-88.17.02-133.59-4.63,2.38-136.31,113.6-160.63,195.21M2333.73,59.04c.17.83.49,1.63.94,2.41,4.46,7.78,16.62,6.7,19.81-1.69.34-.89.54-1.78.55-2.69.22-29.92,23.1-83.33,28.14-98.73.54-40.33.17-97.36.25-137.7-49.71,61.92-60.54,184.63-49.68,238.4M2095.47-739.2c-.66.09-1.34.23-2,.41-11.29,2.92-13.73,17.39-3.95,23.74,1.2.78,2.44,1.38,3.75,1.77,28.8,8.46,57.8,17.82,87.4,21.67,67.66,8.73,111.23,22.73,191.19-38.81,4.94-3.09,6.75-5,11.47-9.75,0-60.26.08-123.06.08-184.37-16.85,24.66-30.66,47.1-48.54,68.15-62.54,73.58-146.8,104.04-239.4,117.19M2231.92,79.69c-17.82,28.05-26.79,60.95-27.23,94.43l-.02,1.46c-.55,51.71,23.48,104.67,65.98,134.96,11.66,9.07,32.94,17.11,40.29,11.04,25.65-21.02-70.15-94.66-47.68-218.12,7.66-39.29-.91-66.24-31.34-23.77M1973.32-725.82c-7.81-7.69-13.53-17.67-23.13-21.51-8.95-3.15-13.42,5.23-10.99,14.5,8.17,32.28,29.52,59.09,44.92,88.23,21.99,41.36,51.39,77.05,85.97,107.79,30.14,28.65,68.18,47.53,111.04,46.79l1.29-.03c93.63,3.34,128.89-128.83,20.24-137.73-87.32,6.04-170.22-35.6-229.33-98.04M2151.06-122.27c.03.4.09.81.2,1.21,1.77,7.38,12.72,9.52,16.35,2.84,1.37-2.55,3.58-10.16,4.01-12.9,20.44-131.76,148.97-264.71,211.72-305.93v-143.42c-7.41,3.63-12.36,7.15-16.91,9.83-172.86,101.47-228.5,291.88-215.37,448.37"/>
    </g>
  </g>
  <rect class="cls-4" x=".04" y="180.11" width="3121.04" height="475.92"/>
  <g class="cls-8">
    <g class="cls-2">
      <rect class="cls-3" x="-29.65" y="-83.56" width="994.23" height="994.23" transform="translate(-155.51 451.67) rotate(-45)"/>
    </g>
  </g>
  <rect class="cls-1" x=".04" y="-249.55" width="3121.05" height="1951.39"/>
</svg>