<?xml version="1.0" encoding="UTF-8"?>
<svg id="Capa_1" data-name="Capa 1" xmlns="http://www.w3.org/2000/svg" viewBox="0 0 322.23 348.04">
  <defs>
    <style>
      .cls-1 {
        fill: #fff;
      }

      .cls-2 {
        fill: #a52445;
      }
    </style>
  </defs>
  <circle class="cls-2" cx="166.83" cy="167.86" r="134.56"/>
  <g>
    <path class="cls-1" d="M179.37,95.29c2.28,1.08,3.83,2.91,3.45,5.57,7.41.6,16.17-2.23,21.63,4.24,1.53,1.81,3.05,5.18,3.05,7.56v40.19c1.67-.76,3.23-1.73,4.99-2.31,2.4-.79,9.79-1.89,11.83-.84,2.47,1.27.4,7.5-.36,9.65-1.15,3.27-2.96,6.47-5.31,9.01,1.41.84,2.93,1.41,4.32,2.31,20.15,12.92,13.77,58.15-11.92,60.4-5.28.46-18.32.58-23.18-.63-7.29-1.81-12.53-7.26-16.09-13.62l-48.79-.03c-6.05-.47-10.87-4.73-11.8-10.76.12-11.33-.26-22.73.2-34.02,1.51-2.23,4.77-1.73,5.11,1.12l.06,32.3c0,2.04,3.17,5.77,5.1,5.77h47.89c-5.25-15.72-1.61-39.88,17.51-43.51-1.35-2.71-5.34-10.81-.13-11.4,4.87-.56,10.45,1.49,13.53,5.3l1.4-2.84.04-46.87c-.28-2.48-3.47-5.73-5.95-5.73h-13.13c.38,3.16-1.36,5.82-4.63,6.11-12.06,1.08-25.72-.82-37.95-.01-3.1-.24-5.01-3.1-4.64-6.1-6.59.76-17.83-3.02-19.1,6.5l-.02,40.04c-.46,2.92-5.36,2.66-5.3-.5.85-13.05-1.09-27.46,0-40.34.48-5.69,5.31-10.51,11.01-11.01,4.28-.37,9.08.29,13.41.01-.27-2.62,1.21-4.48,3.45-5.57h40.33ZM177.51,100.6h-36.62v6.37h36.62v-6.37ZM219.7,154.71c-8.16.09-14.49,5.44-15.65,13.53,2.73-.98,5.84-.21,8.31-1.64,4-2.32,6.29-7.58,7.34-11.89ZM197.94,168.24c-1.06-3.56-3.88-6.25-7.69-6.36.62,1.73,2.28,5.26,4.17,5.77,1,.27,2.45.16,3.52.59ZM189.13,172.83c-23.62,2.44-21.23,51.29,3.63,52.99,4.9.34,16.58.52,20.98-.8,22.09-6.65,22.48-58.47-8.36-51.6-1.26.28-3.27,1.25-4.37,1.21-1.31-.04-4.04-1.26-5.65-1.53-2.04-.34-4.15-.47-6.22-.26Z"/>
    <path class="cls-1" d="M141.37,167.26c23.15-2.35,26.09,32.99,3.1,34.67-22.48,1.65-25.44-32.4-3.1-34.67ZM142.17,172.56c-15.36,1.32-13.85,24.41,1.25,24.08,16.26-.36,15.01-25.47-1.25-24.08Z"/>
    <path class="cls-1" d="M130.48,126.65l60.43-.06c3.7.11,3.97,5.13.27,5.58h-60.24c-3.38-.52-3.74-4.49-.46-5.52Z"/>
    <path class="cls-1" d="M129.05,141.27c.24-.24.59-.4.9-.55,16.87-.03,33.84-.29,50.68.13,2.5,1.42,1.78,4.76-1.12,5.11h-48.57c-2.38-.24-3.69-2.91-1.89-4.69Z"/>
    <path class="cls-1" d="M173.71,159.14c-.44.39-1.3.62-1.89.63h-40.87c-2.96-.35-3.76-3.63-1.13-5.12,14.03-.47,28.18-.06,42.26-.21,2.39.11,3.38,3.16,1.64,4.7Z"/>
    <path class="cls-1" d="M112.96,160.07c4.92-1.13,4.6,6.62-.2,5.13-2.22-.69-2.13-4.6.2-5.13Z"/>
    <path class="cls-2" d="M189.13,172.83c2.07-.21,4.17-.08,6.22.26,1.61.27,4.34,1.49,5.65,1.53,1.1.04,3.11-.93,4.37-1.21,30.85-6.87,30.45,44.95,8.36,51.6-4.4,1.32-16.08,1.14-20.98.8-24.86-1.7-27.24-50.55-3.63-52.99Z"/>
    <path class="cls-1" d="M219.7,154.71c-1.05,4.31-3.34,9.57-7.34,11.89-2.47,1.43-5.58.65-8.31,1.64,1.17-8.09,7.49-13.44,15.65-13.53Z"/>
    <path class="cls-1" d="M197.94,168.24c-1.07-.43-2.52-.31-3.52-.59-1.89-.52-3.55-4.04-4.17-5.77,3.81.11,6.63,2.8,7.69,6.36Z"/>
    <path class="cls-1" d="M147.72,178.11c2.51-.57,4.02,1.81,2.96,4.02l-7.41,8.25c-1.09.78-2.22.93-3.42.25-.24-.13-3.79-3.48-3.96-3.73-1.73-2.48.52-5.3,3.3-4.09.61.27,1.66,1.66,2.07,1.59.99-.17,4.75-5.9,6.46-6.29Z"/>
  </g>
</svg>