<?xml version="1.0" encoding="UTF-8"?>
<svg id="Capa_1" data-name="Capa 1" xmlns="http://www.w3.org/2000/svg" viewBox="0 0 322.23 348.04">
  <defs>
    <style>
      .cls-1 {
        fill: #6fc3c4;
      }

      .cls-2 {
        fill: #2f92ce;
      }

      .cls-3 {
        fill: #247caf;
      }

      .cls-4 {
        fill: #eb5b2e;
      }

      .cls-5 {
        fill: #f5a125;
      }

      .cls-6 {
        fill: #ed7046;
      }

      .cls-7 {
        fill: #1a4965;
      }

      .cls-8 {
        fill: #13354c;
      }

      .cls-9 {
        fill: #c64d23;
      }

      .cls-10 {
        fill: #f8b742;
      }

      .cls-11 {
        fill: none;
        stroke: #01322b;
        stroke-miterlimit: 10;
        stroke-width: 10px;
      }
    </style>
  </defs>
  <circle class="cls-11" cx="158.48" cy="177.88" r="134.56"/>
  <g>
    <path class="cls-3" d="M154.09,164.53c.15.1,1.29.87,2.56,2.18.83.86,1.42,1.65,1.79,2.17.01.73-.01,1.45,0,2.18h-87.08c-.21-.38-2.76-.27-1.2-2.06,7.13-6.77,30.89-53.28,36.04-54.52,33.88,36.07,46.39,49,47.89,50.06Z"/>
    <path class="cls-6" d="M245.52,171.06h-87.08c.92-1.22,1.94-2.79,2.84-4.72.68-1.45,1.16-2.8,1.51-3.99,7.6-2.35,14.33-10.58,19.65-16.27,7.94-8.49,17.92-19.54,23.89-29.44,1.07-.01,3.41-3.37,5.33-.08l33.85,54.49Z"/>
    <path class="cls-5" d="M245.52,171.06c-13.95,14.3-29.04,27.61-43.54,41.35h0l-43.54-41.35h87.08Z"/>
    <path class="cls-2" d="M158.44,171.06l-43.54,41.35c-7.48-5.8-15.39-12.44-23.49-20.01-8.06-7.53-15.2-14.93-21.47-21.96,29.5.21,59,.41,88.5.62Z"/>
    <path class="cls-1" d="M158.46,253.56c-7.07-5.99-14.32-12.45-21.7-19.39-7.83-7.38-15.11-14.66-21.86-21.76,14.51-13.78,29.03-27.57,43.54-41.35.1,5.1.21,12.82.2,22.25,0,8.92-.11,15.27-.17,19.1-.14,9.08-.25,22.56-.02,41.15Z"/>
    <path class="cls-10" d="M201.98,212.41c-6.87,6.77-13.93,13.59-21.19,20.45-7.51,7.1-14.96,14-22.34,20.69,0-.66-.01-1.31-.02-1.97-.23-26.09.31-52.27,0-78.35,0-.73.01-1.45,0-2.18,14.51,13.78,29.03,27.57,43.54,41.35Z"/>
    <path class="cls-7" d="M158.42,171.06h0s-.3-.27-.32-.3c-.87-.99-2.15-2.39-4.04-4.23-8.02-7.27-16.38-15.64-25.09-24.91-8.07-8.58-15.76-17.54-22.78-27.15,18.85,2.16,30.96,3.54,30.97,3.54.8,1.99,21.26,53.04,21.26,53.04Z"/>
    <path class="cls-4" d="M210.4,115.31c-8.93,10.14-18.24,20.41-27.96,30.78-8.06,8.6-16.07,16.93-24,24.97,6.53-16.69,13.06-33.37,19.59-50.06,10.79-1.9,21.58-3.8,32.37-5.7Z"/>
    <path class="cls-8" d="M160.46,147.1c.06,2.12-.99,2.4-1.57,6.69-.41,3.03-.4,5.71-.35,8.78.03,1.98.04,4.88-.1,8.48-7.09-17.68-14.19-35.36-21.28-53.04,5.05,6.3,9.48,10.99,12.55,14.08,6.34,6.37,10.6,9.63,10.75,15Z"/>
    <path class="cls-9" d="M178.03,121c1.21.62-1.71,10.39-19.59,50.06,0-.01,0-.26,0-.27,0-.09,0-.18,0-.27,0-.28,0-.54,0-.54,0,0,0,1.09,0,1.09-.01,0-.16-9.43-.11-20.52.02-3.74.06-6.9.09-9.22,2.77-2.85,6.79-7.03,11.55-12.19,6.21-6.73,7.5-8.41,8.05-8.13Z"/>
  </g>
</svg>