<?xml version="1.0" encoding="UTF-8"?>
<svg id="Capa_1" data-name="Capa 1" xmlns="http://www.w3.org/2000/svg" viewBox="0 0 322.23 348.04">
  <defs>
    <style>
      .cls-1 {
        fill: #4d2d44;
      }

      .cls-2 {
        fill: #fff;
      }
    </style>
  </defs>
  <circle class="cls-1" cx="175.73" cy="182.59" r="134.44"/>
  <g>
    <path class="cls-2" d="M125.92,167.69c.46,1.13.26,2.11.33,3.05.5,6.98,1.18,13.94,2.45,20.84.6,3.26,1.23,6.5,2,9.73.24,1.02.57,1.22,1.55.79,2.42-1.07,4.91-1.91,7.5-2.51,3.75-.87,7.55-1.42,11.38-1.74.91-.08,1.85-.06,1.87-1.43.08-5.72.67-11.41,1.11-17.1.52-6.75,1.39-13.46,2.56-20.13.15-.88.42-.84.98-.36,4.48,3.81,9.39,6.99,14.51,9.86,5.09,2.86,10.43,5.12,16.19,6.24.39.08.92.39,1.12-.16.16-.45-.39-.59-.69-.79-2.26-1.49-4.26-3.3-6.16-5.19-5.55-5.53-10.38-11.7-15.54-17.59-4.09-4.67-8.41-9.08-13.7-12.46-11.52-7.36-26.57-3.54-33.24,8.39-3.88,6.94-5.54,14.47-6.4,22.25-.82,7.38-.71,14.78-.21,22.17.23,3.45.7,6.88,1.08,10.31.04.4-.03,1.06.5,1.06.65,0,.48-.72.54-1.14.12-.81.07-1.64.2-2.44,1.81-10.96,5.31-21.37,10.06-31.64ZM165.65,144.11c-.09.71.16.89.34,1.11,2.48,3.03,4.87,6.14,7.6,8.96,4.3,4.46,9.26,7.25,15.75,6.45,1.7-.21,3.45-.13,5.17.22,1.02.2,1.48.68,1.58,1.7.17,1.72.41,3.43.64,5.14,1.14,8.53,1.81,17.08,1.74,25.69-.04,4.87-.7,9.64-1.8,14.37-.82,3.5-1.55,7.02-2.29,10.54-.34,1.63-.17,1.72,1.53,1.83,3.27.21,6.23-.96,9.25-1.88,3.89-1.19,7.71-2.65,11.78-3.14,1-.12,1.33-.73,1.53-1.61.9-3.92,1.88-7.83,2.71-11.77,1.09-5.2,1.84-10.44,2.55-15.69.68-5.05.74-10.14.68-15.23-.02-1.61-.26-3.21-.09-4.84,4.29,11.86,6.38,24.21,8.26,36.8.58-.52.6-.95.66-1.37.41-2.85.93-5.68,1.26-8.54,1.08-9.4,1.38-18.76-.84-28.05-1.03-4.29-2.69-8.32-5.58-11.71-3.84-4.51-8.89-6.58-14.72-6.76-7.86-.24-15.46,1.34-22.94,3.62-2.34.71-4.64,1.49-7.12,1.63-5.01.29-9.07-2.09-13.12-4.52-1.49-.9-2.92-1.89-4.52-2.93ZM193.77,131.76c.01,7.13,5.57,12.69,12.65,12.69,7.05,0,12.61-5.64,12.6-12.77-.01-6.84-5.75-12.48-12.66-12.45-6.91.03-12.6,5.7-12.59,12.53ZM141.85,107.17c-6.48-.33-12.75,5.53-12.73,12.65.02,6.95,5.57,12.55,12.64,12.59,7.03.04,12.64-5.52,12.68-12.55.03-6.92-5.66-12.65-12.58-12.68Z"/>
    <path class="cls-2" d="M175.48,240.96c.64-.66,1.11-.81,1.62-.99,7.16-2.53,14.65-2.91,22.12-3.42,2.44-.17,4.87-.32,7.17-1.27,2.64-1.1,5.28-2.18,7.91-3.3,4.71-2.01,9.43-4.02,13.96-6.42,1.19-.63,1.18-.98.13-1.81-2.08-1.63-4.45-2.5-7.08-2.2-3.43.4-6.5,2.03-9.72,3.17-3.21,1.13-6.27,2.65-9.86,2.45-6.19-.35-12.39-.58-18.59-.43-1.76.04-3.44-.39-5.12-.7-1.14-.21-2.34-.55-3.37-1.39-2.3-1.89-3.67-4.34-4.6-7.07-.5-1.46-1.11-2.5-2.89-1.91-.04.01-.12-.09-.22-.17,1.36-1.35,3.22-1.43,4.86-1.9,3.95-1.13,8-1.95,11.97-3.04,3.03-.83,5.84-2.15,7.83-4.74,1.11-1.45.92-3.3-.47-4.16-.87-.54-1.91-.51-2.93-.5-3.3.04-6.45.98-9.64,1.61-5.17,1.02-10.3,2.08-15.62,2.1-5.66.03-11.29.8-16.86,1.81-4.99.9-9.73,2.7-14.32,4.88-2.7,1.29-5.47,2.04-8.57,2-5.78-.09-11.49-.8-17.21-1.41-1.66-.18-3.35-.24-4.98-.66-.41-.11-.85-.45-1.19-.12-.43.41-.05.89.11,1.33,3.09,8.17,7.29,15.72,12.71,22.58.43.54.81,1.13,1.62,1.31,5.47,1.25,10.98,2.28,16.56,2.93,5.82.68,11.64,1.3,17.45,1.96,7.42.85,14.93.97,22.26,2.58,3.64.8,7.02-.53,10.43-1.4,2.64-.67,5.23-1.65,7.94-1.94,4.87-.52,9.73-1.18,14.58-1.85,1.98-.27,3.4-1.58,4.65-3.06-1.55.32-2.99.93-4.5,1.23-3.73.74-7.55.68-11.32.94-4.54.32-8.91,1.28-13.29,2.35-1.04.25-2.09.83-3.53.62Z"/>
  </g>
</svg>