<?xml version="1.0" encoding="UTF-8"?>
<svg id="Capa_1" data-name="Capa 1" xmlns="http://www.w3.org/2000/svg" viewBox="0 0 322.23 348.04">
  <defs>
    <style>
      .cls-1 {
        fill: #be9459;
      }

      .cls-2 {
        fill: #fff;
      }
    </style>
  </defs>
  <circle class="cls-1" cx="167.46" cy="182.59" r="134.34"/>
  <g>
    <path class="cls-2" d="M107.12,173.16c-.18,2.02-.34,4.04-.54,6.06-.05.47.24.54.57.68.9.37,1.4,1.29,1.24,2.2-.17.97-.89,1.64-1.85,1.72-.99.08-1.87-.49-2.17-1.42-.3-.93.06-1.91.97-2.38.4-.21.49-.43.44-.85-.45-3.98-.89-7.96-1.3-11.94-.06-.55-.39-.6-.76-.7-4.83-1.39-9.7-2.6-14.61-3.65-7-1.49-14.06-2.67-21.25-3.34.26-.35.64-.33.96-.4,7.39-1.77,14.77-3.52,22.16-5.29,16.5-3.93,32.99-7.87,49.49-11.8,8.7-2.08,17.41-4.15,26.11-6.24.54-.13,1.05-.18,1.61-.05,14.85,3.55,29.7,7.1,44.56,10.64,16.45,3.92,32.89,7.84,49.34,11.76,1.66.4,3.33.8,4.98,1.37-.64.07-1.29.13-1.93.2-10.48,1.12-20.76,3.21-30.92,5.97-11.67,3.16-23.01,7.27-33.95,12.43-11.4,5.38-22.15,11.84-32.07,19.63-.56.44-.89.42-1.45-.01-6.04-4.74-12.42-9-19.08-12.84-8.26-4.76-16.87-8.81-25.76-12.26-3-1.17-6.01-2.33-9.1-3.24-1.6-.27-3.11-.85-4.64-1.36-.22-.07-.53-.15-.55-.38-.02-.31.33-.36.57-.44.47-.16.97-.21,1.45-.3,9.73-1.76,19.47-3.49,29.2-5.25,7.76-1.41,15.52-2.78,23.28-4.21.82-.15,1.58-.09,2.37.2,1.79.65,3.62.61,5.46.19.53-.12,1.04-.33,1.5-.64.97-.66.95-1.53-.06-2.15-.42-.26-.86-.5-1.35-.6-1.83-.37-3.66-.46-5.47.11-.83.26-1.51.67-1.82,1.55-.19.55-.71.64-1.2.72-4,.67-8,1.4-12,2.11-6.4,1.15-12.81,2.27-19.22,3.42-7.86,1.41-15.73,2.8-23.6,4.17-.36.06-.72.09-1.13.27.43.29.88.42,1.3.59.53.21.75.58.77,1.14.02.58-.07,1.15-.16,1.71-.16.97-.14,1.96-.37,2.92Z"/>
    <path class="cls-2" d="M162.09,224.38c-7.56-.07-19.26-1.46-30.84-4.02-8.7-1.92-17.21-4.45-25.61-7.4-.15-.05-.29-.13-.44-.16-.53-.11-.57-.36-.34-.83,1-2.06,1.96-4.13,2.94-6.2,4.24-9.01,8.48-18.01,12.72-27.02.24-.52.51-1.03.72-1.55.21-.53.49-.6,1.02-.38,4.11,1.69,8.2,3.44,12.2,5.38,10.38,5.02,20.2,10.96,29.33,18.02,1.05.81,2.11,1.61,3.12,2.47.43.36.7.34,1.13,0,5.01-4.07,10.25-7.83,15.72-11.26,9.17-5.75,18.82-10.55,28.85-14.59.67-.27.87-.09,1.14.48,5.41,11.53,10.84,23.05,16.29,34.56.28.59.16.77-.43.98-11.22,3.99-22.65,7.17-34.4,9.17-9.54,1.63-19.14,2.45-33.11,2.35Z"/>
    <path class="cls-2" d="M102.73,192.44c.02-2.39.31-4.95,1.33-7.39.25-.61.48-1.01,1.29-.66.66.29,1.46.26,2.14-.03.66-.29.86.01,1.09.53.85,1.96,1.19,4.03,1.31,6.14.16,2.77-.03,5.5-.88,8.16-.27.84-.62,1.65-1.19,2.35-.9,1.1-1.86,1.14-2.83.11-.77-.82-1.13-1.85-1.45-2.9-.59-1.98-.79-4.02-.8-6.31Z"/>
  </g>
</svg>