<?xml version="1.0" encoding="UTF-8"?>
<svg id="Capa_1" data-name="Capa 1" xmlns="http://www.w3.org/2000/svg" viewBox="0 0 322.23 348.04">
  <defs>
    <style>
      .cls-1 {
        fill: #fff;
      }

      .cls-2 {
        fill: #dcc8a2;
      }
    </style>
  </defs>
  <circle class="cls-2" cx="171.07" cy="171.26" r="134.34"/>
  <g>
    <path class="cls-1" d="M274.76,154.22c-3.38-3.08-7.4-4.83-11.93-5.44-5.36-.71-10.48.32-15.49,2.2-12.48,4.7-25.04,9.17-38,12.44-15.1,3.82-30.37,5.74-45.92,3.87-8.03-.97-15.8-3.07-23.38-5.95-7.59-2.88-14.54-6.94-21.49-11.03-5.73-3.37-11.7-6.29-18.21-7.85-10-2.38-19.1-.89-26.26,7.03-5.87,6.49-7.47,14.44-6.39,22.92.99,7.77,4.54,14.09,11.35,18.32,5.14,3.18,10.75,3.67,16.52,2.57,5.23-1,10.38-2.49,15.64-3.29,3.25-.49,6.63-.09,10.25-.09-1.65-2.72-3.92-4.26-6.61-5.3-4.57-1.75-9.04-.7-13.53.38-2.71.65-5.43,1.35-8.19,1.71-7.74,1.01-13.52-2.31-16.31-9.66-3.01-7.91-2.81-15.7,2.28-22.85,3.14-4.41,9.12-6.15,14.3-4.59,7.75,2.35,13.32,7.7,18.86,13.18,10.19,10.07,19.68,20.9,31.08,29.68,9,6.93,19.12,11.24,30.67,11.5,10.05.22,19.3-2.76,28.24-7.08,9.55-4.61,17.74-11.07,25.56-18.13,7.18-6.48,14.18-13.22,22.43-18.4,5.61-3.52,11.54-6.37,18.29-6.8,2.03-.13,4.09.41,6.24.65Z"/>
    <path class="cls-1" d="M144.3,155.63c21,4.13,42,3.94,63.65.95-7.85-7.75-16.35-13.23-27.02-14.35-14.3-1.5-26.2,3.95-36.63,13.4Z"/>
    <path class="cls-1" d="M137.59,222.63c23.08-9.21,46.08-9.13,69.11.15-8.63-8.18-18.53-13.89-30.64-14.53-14.82-.79-27.45,4.73-38.47,14.38Z"/>
    <path class="cls-1" d="M173.06,137.82c2.45-.83,4.76-1.27,7.01.36.15-.1.3-.2.45-.3-.94-3.03-1.88-6.06-2.82-9.1-.24.02-.48.03-.71.05-2.26,2.52-2.74,5.87-3.93,9Z"/>
  </g>
</svg>