<?xml version="1.0" encoding="UTF-8"?>
<svg id="Capa_1" data-name="Capa 1" xmlns="http://www.w3.org/2000/svg" viewBox="0 0 322.23 348.04">
  <defs>
    <style>
      .cls-1 {
        fill: #fff;
      }

      .cls-2 {
        fill: #bfbdbe;
      }
    </style>
  </defs>
  <path class="cls-2" d="M173,36.66c-74.2,0-134.34,60.15-134.34,134.34s60.15,134.34,134.34,134.34,134.34-60.15,134.34-134.34S247.2,36.66,173,36.66Z"/>
  <g>
    <g>
      <path class="cls-1" d="M255.23,131.98c-.71-1.22-5.72-3.69-7.37-3.63-.87.03-4.89,1.84-5.47,2.49-.82.9-1.33,3.65-2.77,4.38-3.3,1.7-7.21,1.28-11.01,3.62-.82.5-12.14,11.8-12.55,12.59-2.06,3.93-3.38,15.2-2.52,19.44.1.48,1.84,1.3,2.14,1.84.54.97.88,3.69,1.6,4.39.62.61,2.65.63,3.43,1.81.69,1.04,3.47,8.14,3.59,9.4.86,8.74-4.44,11.23-6.85,17.7-.73,1.97-1.16,4.65-1.7,6.67-.99,3.68-2.45,4,1.35,7.04h26.3c1.41-3.11,3.99-.1,3.61-3.89-.36-3.6-3.13-2.25-3.58-2.71-.31-.31-1.14-7.57-1.22-8.65-.34-4.79-.05-8.99,1.24-13.57,1.32-4.7,3.37-10.92,5.02-16.02,1.1-3.39,3.93-2.72,3.7-7.59-.05-1.16-2.11-5.62-2.71-7.1-.87-2.13-3.09-5.4-3.54-7.86-.24-1.34.28-6.6,1.18-7.21.42-.29,1.55-.04,2.26-.41,2.37-1.24,3.12-6.31,3.7-6.78.5-.41,2.07.11,2.3-.09.22-.19.09-5.48-.13-5.86ZM247.45,169.95c-1.78,7.71-3.82,15.54-6.74,22.87l-4.52-12.25c-.05-1.11,2.15-11.59,2.63-12.66.1-.22.82-.32.97-.64.63-1.32,1.28-3.49,2.41-4.33.74,3.35,4.92,3.37,5.25,7.01Z"/>
      <path class="cls-1" d="M183.89,219.73c-2.66-5.52-.48-12.63,0-18.53-2.57,1.44-4.24,4.51-6.15,6.41-.59.59-1.74.39-2.27,1.17-1.74,2.56,1.77,4.2,1.29,6.4-4.38,3.61-12.44-8.96-12.03-11.85.36-2.55,4.85-3.51,6.62-4.81,3.75-2.75,7.15-10.03,11.18-13.01.36-.87.34-5.01.21-6.16-.05-.42-2.2-2.71-2.75-3.84-.56-1.12-3-7.48-3.36-7.69-.63-.38-2.06.01-2.89-.1-.34.34.58,4.5-1.19,4.78-.5-4.54,1.38-7.9-4.79-7.76-.38.38,1.39,5.79,1.19,6.86-.08.46-1.01,1.27-1.51.32-.7-6.17-5.38-14.09-2.89-20.2.35-.86,1.61-1.08,2.26-1.95,2.86-3.8,3.83-7.65,6.04-11.32.83-1.37,9.27-13.18,10.03-13.56.83-.41,3.06-.5,3.32-.89.85-1.28-1.74-6.11.41-9.45,1.78-2.78,8.16-2.32,10.41-.32,1.14,1.01,1.28,2.68,1.78,3,1.19.78,3.68-.76,3.6,2.4-.04,1.9-2.07,1.01-3.03,1.86-1.45,1.28-.78,4.17-1.68,5.34-1.39,1.8-4.94-.67-5.47,3.5s3.25,11.17,3.64,16.14c.34,4.29-.8,6.62-1.16,10.24-1.36,13.95.38,27.53-1.21,41.83-.41,3.7.79,11.36,2.66,14.58.86,1.49,4.12,1.39,4.48,3.9.26,1.81-4.39.72-4.8,2.7h-11.96Z"/>
      <path class="cls-1" d="M126.14,218.27c-.8-1.32-3.53-1.61-.6-2.69-4.78-2.48-.77-3.65-.13-6.71.8-3.88-.45-9.06.17-12.98.31-1.96,2.02-3.71,2.14-6.1.14-2.67-.09-9.18-.38-11.87-.3-2.75-2.24-5.84-2.36-8.45-.12-2.48,1.24-6.07.58-8.76-.2-.82-2.3-.71-2.29-2.4,0-1.17,1.79-3.45,2.32-4.86,1.27-3.39,1.26-6.38,4.74-9.01-.24-.71-1.42.2-1.82-.68-.9-2.03-1.45-5.82-.88-8,1.56-6.03,7.92-7.26,13.04-4.63,2.93,1.5,1.07,3.38,1.03,5.55-.02.91.56,1.8.46,2.84-.05.54-.93,4.42-1.11,4.57-.82.68-4.11-1.34-4.19,2.17-.02.79,1.55,1.41,2.09,2.71,2.82,6.8.65,13.15,1.69,19.85.8,5.1,6.4,15.63,6.34,19.88-.03,2.14-4.1,9.15-4.99,12.24-.36,1.26-1.59,6.48-1.55,7.48.13,3.08,9.35,3.78,8.43,8.06l-7.77,1.8h-14.94ZM134.51,188.98c-.18,3.43-2.43,6.1-3.3,9.56-.77,3.09-2.62,11.91,2.41,11.98,3.11.04,2.53-9.42,2.83-11.52.3-2.06,2.06-4.68,2.14-5.65.06-.66-3.47-5.04-4.09-4.37Z"/>
      <path class="cls-1" d="M93.04,218.39c.62-1.76-1.11-1.55-1.24-2.65-.7-5.98,1.34-11.75,1.08-17.21-.15-3.1-1.3-7.56-1.6-10.36-.33-3.14-1.45-11.87-.07-14.19.32-.53,1.76-1.12,2.45-1.88,3.12-3.42.93-3.06.54-5.98-1.27-9.43,10.3-7.44,11.28-2.88.71,3.29-1.92,6.59-1.68,8.8.23,2.05.87,6.04,1.24,8.35.32,1.98,4.39,12.85,2,13.53-3.66,1.05-.6-2.58-3.25-2.42-.3,3.09.43,6.83-.04,9.82-.55,3.53-3.41,4.95-2.36,10.21.45,2.24,5.19,1.86,4.19,4.17-.82,1.89-4.4-.52-3.58,2.7h-8.97Z"/>
    </g>
    <path class="cls-2" d="M230.91,197.55c-.47.02-1,.68-4,7.09-3.55,7.59-3.67,8.52-3.43,9.17.31.88,1.09.81,6.92.42,4.4-.3,5.31-.35,5.68-1.13.62-1.32-1.34-2.57-2.88-6.9-1.74-4.91-1.13-8.71-2.29-8.65Z"/>
  </g>
</svg>