<?xml version="1.0" encoding="UTF-8"?>
<svg id="Capa_1" data-name="Capa 1" xmlns="http://www.w3.org/2000/svg" viewBox="0 0 322.23 348.04">
  <defs>
    <style>
      .cls-1 {
        fill: #fff;
      }

      .cls-2 {
        fill: #f28e51;
      }
    </style>
  </defs>
  <circle class="cls-2" cx="167.46" cy="171.56" r="134.54"/>
  <g>
    <path class="cls-1" d="M109.43,215.33h133.72v10.28H99.14v-119.01c2.08-.25,10.29-.39,10.29,2.2v106.52Z"/>
    <path class="cls-1" d="M243.15,105.14v26.45c-2.15-.11-5.59-4.61-7.36-3.75-.86.42-8.66,12.85-10.99,15.53-22.11,25.37-53.25,43.08-86.89,48.29-16.21,2.51-20.01,4.92-18.2-14.53,8.3.85,16.19-1.41,24.3-2.62,24.96-3.73,55.49-24.25,72.65-45.17,1.73-2.1,7.65-9.53,7.49-11.63-.07-.82-8.16-3.64-5.97-6.68.75-1.04,21.54-5.4,24.98-5.89Z"/>
    <path class="cls-1" d="M225.52,150.69v57.3h-96.25c-1.92,0-2.69-5.42-2.21-7.34,25.95-1.1,55.73-12,76.02-28.33.41-.33,5.34-5.34,7-6.89,4.34-4.07,7.34-8.68,11.07-12.51,1.41-1.45,1.92-2.76,4.38-2.23Z"/>
  </g>
</svg>