<?xml version="1.0" encoding="UTF-8"?>
<svg id="Capa_1" data-name="Capa 1" xmlns="http://www.w3.org/2000/svg" viewBox="0 0 322.23 348.04">
  <defs>
    <style>
      .cls-1 {
        fill: #fff;
        fill-rule: evenodd;
      }

      .cls-2 {
        fill: #235c4f;
      }
    </style>
  </defs>
  <circle class="cls-2" cx="169.37" cy="171.26" r="134.34"/>
  <g>
    <path class="cls-1" d="M150.32,204.42v13.52c0,6.07,2.47,11.53,6.46,15.48,4.01,3.97,9.56,6.42,15.67,6.42h30.28c6.08,0,11.61-2.49,15.63-6.5,4.01-4.01,6.5-9.54,6.5-15.62v-35.06h6.41v35.06c0,7.85-3.21,14.99-8.38,20.16-5.17,5.17-12.31,8.38-20.16,8.38h-30.28c-7.85,0-15-3.16-20.18-8.3-5.16-5.11-8.36-12.18-8.36-20.01v-13.52h6.41Z"/>
    <path class="cls-1" d="M138.63,109.92l-15.3-6.41c-1.41-.59-2.82-.86-4.19-.86-3.23,0-6.37,1.52-9.1,3.95-2.86,2.55-5.26,6.08-6.88,9.94-1.41,3.36-2.21,6.94-2.21,10.34v35.06h-4.27v-35.06c0-3.95.93-8.11,2.55-11.97,1.86-4.43,4.64-8.51,7.98-11.49,3.48-3.1,7.58-5.04,11.94-5.04,1.92,0,3.87.38,5.83,1.2l15.3,6.41-1.64,3.94Z"/>
    <path class="cls-1" d="M153.26,105.98l15.3-6.41c1.96-.82,3.91-1.2,5.83-1.2,4.36,0,8.46,1.94,11.94,5.04,3.34,2.98,6.12,7.06,7.98,11.49,1.62,3.86,2.55,8.02,2.55,11.97v35.06h-4.27v-35.06c0-3.39-.81-6.98-2.21-10.34-1.62-3.86-4.01-7.38-6.88-9.94-2.73-2.43-5.86-3.95-9.1-3.95-1.37,0-2.78.27-4.19.86l-15.3,6.41-1.64-3.94Z"/>
    <path class="cls-1" d="M228.39,145.78c11.95,0,21.64,9.69,21.64,21.64s-9.69,21.64-21.64,21.64-21.64-9.69-21.64-21.64,9.69-21.64,21.64-21.64Z"/>
    <path class="cls-1" d="M228.39,145.78c11.95,0,21.63,9.69,21.63,21.64s-9.69,21.63-21.63,21.64v-43.27Z"/>
    <path class="cls-1" d="M228.39,143.4c6.63,0,12.64,2.69,16.98,7.04,4.35,4.35,7.04,10.35,7.04,16.98s-2.69,12.64-7.04,16.98c-4.35,4.35-10.35,7.03-16.98,7.03s-12.64-2.69-16.98-7.03c-4.35-4.35-7.04-10.35-7.04-16.98s2.69-12.64,7.04-16.98c4.34-4.35,10.35-7.04,16.98-7.04h0ZM242,153.8c-3.48-3.48-8.3-5.64-13.61-5.64s-10.13,2.16-13.61,5.64c-3.48,3.48-5.64,8.3-5.64,13.61s2.16,10.13,5.64,13.61c3.48,3.48,8.3,5.64,13.61,5.64s10.13-2.16,13.61-5.64c3.48-3.48,5.64-8.3,5.64-13.61s-2.16-10.13-5.64-13.61Z"/>
    <path class="cls-1" d="M228.39,143.4c6.63,0,12.64,2.69,16.98,7.04,4.35,4.35,7.03,10.35,7.03,16.98s-2.69,12.64-7.03,16.98c-4.35,4.35-10.35,7.03-16.98,7.03v-4.77c5.31,0,10.13-2.16,13.61-5.64,3.48-3.48,5.64-8.3,5.64-13.61s-2.16-10.13-5.64-13.61c-3.48-3.48-8.3-5.64-13.61-5.64v-4.77Z"/>
    <circle class="cls-2" cx="228.39" cy="167.41" r="11.55"/>
    <path class="cls-1" d="M228.39,154.04c3.69,0,7.04,1.5,9.46,3.92,2.42,2.42,3.92,5.77,3.92,9.46s-1.5,7.04-3.92,9.46c-2.42,2.42-5.77,3.92-9.46,3.92s-7.04-1.5-9.46-3.92c-2.42-2.42-3.92-5.77-3.92-9.46s1.5-7.04,3.92-9.46c2.42-2.42,5.77-3.92,9.46-3.92h0ZM235.25,160.55c-1.76-1.76-4.19-2.85-6.87-2.85s-5.11,1.09-6.87,2.85c-1.76,1.76-2.84,4.19-2.84,6.87s1.09,5.11,2.84,6.87c1.76,1.76,4.19,2.84,6.87,2.84s5.11-1.09,6.87-2.84c1.76-1.76,2.84-4.19,2.84-6.87s-1.09-5.11-2.84-6.87Z"/>
    <path class="cls-1" d="M228.39,154.04c3.69,0,7.04,1.5,9.46,3.92,2.42,2.42,3.92,5.77,3.92,9.46s-1.5,7.04-3.92,9.46c-2.42,2.42-5.77,3.92-9.46,3.92v-3.67c2.68,0,5.11-1.09,6.87-2.85,1.76-1.76,2.85-4.19,2.85-6.87s-1.09-5.11-2.85-6.87c-1.76-1.76-4.19-2.85-6.87-2.85v-3.67Z"/>
    <path class="cls-1" d="M228.39,164.79c1.45,0,2.62,1.17,2.62,2.62s-1.17,2.62-2.62,2.62-2.62-1.17-2.62-2.62,1.17-2.62,2.62-2.62Z"/>
    <path class="cls-1" d="M228.39,164.79c1.45,0,2.62,1.17,2.62,2.62s-1.17,2.62-2.62,2.62v-5.24Z"/>
    <path class="cls-1" d="M141.47,104.24c-.92-.12-1.8.04-2.57.42l-6.17-2.63-2.32,5.43,6.21,2.65c.53,1.57,1.91,2.78,3.66,3.02,2.45.33,4.71-1.39,5.04-3.85.33-2.45-1.39-4.71-3.85-5.04Z"/>
    <path class="cls-1" d="M152.05,104.24c.92-.12,1.8.04,2.57.42l6.16-2.63,2.32,5.43-6.21,2.65c-.53,1.57-1.9,2.78-3.66,3.02-2.45.33-4.71-1.39-5.04-3.85-.33-2.45,1.39-4.71,3.85-5.04Z"/>
    <path class="cls-1" d="M197.92,156.73c0,14.07-5.75,26.86-15.02,36.13-9.27,9.27-22.06,15.03-36.13,15.03h0c-14.07,0-26.86-5.75-36.13-15.03-9.27-9.27-15.02-22.06-15.02-36.13h6.41c0,12.3,5.04,23.49,13.15,31.6,8.11,8.11,19.3,13.15,31.6,13.15h0c12.3,0,23.49-5.04,31.6-13.15,8.11-8.11,13.15-19.3,13.15-31.6h6.41Z"/>
    <path class="cls-1" d="M197.92,156.73c0,14.07-5.75,26.86-15.02,36.13-9.27,9.27-22.06,15.03-36.13,15.03v-6.41c12.3,0,23.49-5.04,31.6-13.15,8.11-8.11,13.15-19.3,13.15-31.6h6.41Z"/>
  </g>
</svg>