<?xml version="1.0" encoding="UTF-8"?>
<svg id="Capa_1" data-name="Capa 1" xmlns="http://www.w3.org/2000/svg" viewBox="0 0 322.23 348.04">
  <defs>
    <style>
      .cls-1 {
        fill: #5c262b;
      }

      .cls-2 {
        fill-rule: evenodd;
      }

      .cls-2, .cls-3 {
        fill: #fff;
      }
    </style>
  </defs>
  <circle class="cls-1" cx="167.44" cy="169.96" r="134.56"/>
  <g>
    <path class="cls-2" d="M167.9,197.66l29.28,44.11c43.05-24.26,43.17-69.01,23.59-92.51-13.54-15.14-36.96-15.56-75.26,12.43,67.66-45.82,85.6,13.36,22.39,35.96"/>
    <path class="cls-3" d="M159.92,92.85c10.36-6.79,24.21-3.82,30.94,6.64,6.73,10.46,3.79,24.44-6.57,31.23-10.36,6.79-24.21,3.82-30.94-6.64-6.73-10.45-3.79-24.44,6.57-31.23"/>
    <path class="cls-2" d="M157.29,146.49l-29.1-42.84c-41.59,26.73-40.57,71.7-19.68,94.01,14.39,14.32,40.14,10.06,76.77-20.12-64.92,49.7-89.81-4.79-28-31.05"/>
    <path class="cls-2" d="M179.47,151.27s.09-.03.15.02c2.27,2.3,4.14,3.46,7.99,3.69,4,.07,6.78-2.19,8.09-3.66.03-.03.11-.01.12,0,.01.01.06.1.03.13-.59.51-3.78,3.17-3.76,8.06.01,2.47.77,5.36,3.79,8.13.01.01.04.04-.01.1-.05.06-.16-.04-.18-.05-1.6-1.76-4.2-3.66-8.13-3.59-3.2.12-5.53,1.24-7.87,3.63-.06.06-.11.09-.18.04-.02-.02-.05-.04,0-.12.11-.25,3.93-2.66,3.9-8.15-.03-4.92-3.24-7.48-3.92-8.12-.02-.02-.05-.09,0-.11"/>
    <path class="cls-3" d="M186.23,149.13c1.18-.83,2.8-.54,3.63.64.83,1.18.54,2.81-.64,3.64-1.18.83-2.8.54-3.63-.64-.83-1.18-.54-2.82.64-3.64"/>
    <path class="cls-2" d="M163.12,163.1s.07-.02.12.02c1.82,1.84,3.31,2.77,6.39,2.96,3.2.06,5.42-1.75,6.47-2.93.02-.03.09,0,.1,0,0,.01.05.08.02.1-.47.41-3.02,2.54-3.01,6.45,0,1.98.62,4.29,3.03,6.5.01,0,.03.04,0,.08-.04.05-.13-.03-.14-.04-1.28-1.41-3.36-2.93-6.51-2.87-2.56.09-4.42.99-6.3,2.9-.05.05-.09.07-.14.03-.02-.01-.04-.03,0-.09.09-.2,3.14-2.12,3.12-6.52-.02-3.93-2.59-5.98-3.13-6.49-.01-.01-.04-.07,0-.09"/>
    <path class="cls-3" d="M168.53,161.38c.94-.66,2.24-.43,2.91.51.66.95.43,2.25-.51,2.91-.94.66-2.24.43-2.91-.51-.66-.95-.44-2.25.51-2.91"/>
    <path class="cls-2" d="M148.42,173.79s.06-.02.09.01c1.45,1.47,2.65,2.22,5.11,2.36,2.56.04,4.34-1.4,5.18-2.34.02-.02.07,0,.08,0,0,0,.04.06.02.08-.38.33-2.42,2.03-2.4,5.16,0,1.58.49,3.43,2.42,5.2,0,0,.03.03,0,.06-.03.04-.1-.02-.11-.03-1.03-1.13-2.69-2.34-5.2-2.3-2.05.08-3.54.79-5.04,2.32-.04.04-.07.05-.11.02-.01,0-.03-.02,0-.08.07-.16,2.51-1.7,2.49-5.21-.02-3.15-2.08-4.79-2.51-5.2-.01-.01-.03-.06,0-.07"/>
    <path class="cls-3" d="M152.75,172.42c.75-.53,1.79-.35,2.32.41.53.76.35,1.8-.41,2.33-.75.53-1.79.35-2.32-.41-.53-.76-.35-1.8.41-2.33"/>
    <path class="cls-2" d="M133.85,184.06s.05-.01.08.01c1.16,1.18,2.12,1.77,4.09,1.89,2.05.04,3.47-1.12,4.14-1.88.01-.02.05,0,.06,0,0,0,.03.05.01.06-.3.26-1.93,1.62-1.92,4.13,0,1.26.39,2.74,1.94,4.16,0,0,.02.02,0,.05s-.08-.02-.09-.03c-.82-.9-2.15-1.88-4.16-1.84-1.64.06-2.83.64-4.03,1.86-.03.03-.06.04-.09.02,0,0-.02-.02,0-.06.06-.13,2.01-1.36,2-4.17-.01-2.52-1.66-3.83-2.01-4.16,0,0-.02-.05,0-.06"/>
    <path class="cls-3" d="M137.31,182.96c.6-.42,1.44-.28,1.86.33.42.61.28,1.44-.33,1.86-.6.42-1.44.28-1.86-.33-.42-.61-.28-1.44.33-1.87"/>
  </g>
</svg>