<?xml version="1.0" encoding="UTF-8"?>
<svg id="Capa_1" data-name="Capa 1" xmlns="http://www.w3.org/2000/svg" viewBox="0 0 322.23 348.04">
  <defs>
    <style>
      .cls-1 {
        fill: #fff;
        stroke: #fff;
        stroke-miterlimit: 10;
        stroke-width: 2px;
      }

      .cls-2 {
        fill: #7f8081;
      }
    </style>
  </defs>
  <circle class="cls-2" cx="171.62" cy="182.59" r="134.34"/>
  <g>
    <path class="cls-1" d="M214.67,115.98c-2.76-5.82-7.86-9.02-14.35-9.02-4.01,0-8.28,1.21-12.38,3.49-5.02,2.8-14.36,4.48-20.49,4.48s-15.46-1.68-20.48-4.48c-4.09-2.28-8.38-3.49-12.38-3.49-6.5,0-11.59,3.2-14.36,9.02-4.6,9.7-2.34,34.56-.34,56.49.86,9.47,1.67,18.41,1.67,24.13,0,20.25,4.73,39.76,13.32,54.92,2.44,4.32,5.61,6.7,8.91,6.7,4.48,0,8.06-4.22,9.33-11.02,1.22-6.49,2.21-14.1,3.17-21.46l.04-.32c2.28-17.57,5.12-39.45,11.12-39.45s8.85,21.88,11.13,39.46c.96,7.43,1.96,15.12,3.21,21.76,1.28,6.8,4.85,11.02,9.33,11.02,3.31,0,6.48-2.38,8.91-6.7,8.59-15.17,13.31-34.67,13.31-54.92,0-5.67.81-14.57,1.66-24l.02-.18c1.99-21.92,4.24-46.75-.36-56.45ZM211.53,172.16c-.91,9.95-1.69,18.54-1.69,24.44,0,19.65-4.57,38.54-12.86,53.19-1.79,3.17-3.87,4.91-5.86,4.91-2.64,0-4.95-3.2-5.88-8.16-1.23-6.55-2.27-14.53-3.18-21.58-2.96-22.81-5.51-42.51-14.62-42.51s-11.65,19.7-14.61,42.51l-.04.3c-.95,7.31-1.94,14.88-3.14,21.28-.93,4.95-3.24,8.16-5.87,8.16-1.99,0-4.06-1.75-5.86-4.91-8.28-14.64-12.85-33.53-12.85-53.19,0-5.8-.77-14.32-1.66-24.18l-.03-.33c-1.85-20.4-4.15-45.78.03-54.6,2.74-5.8,7.59-7.02,11.17-7.02,3.36,0,7.15,1.08,10.67,3.04,5.73,3.2,15.71,4.93,22.2,4.93s16.47-1.73,22.2-4.93c3.52-1.96,7.31-3.05,10.67-3.05,3.58,0,8.43,1.22,11.17,7.02,4.19,8.83,1.89,34.24.04,54.68Z"/>
    <path class="cls-1" d="M200.32,116.73c-2.26,0-5.04.82-7.61,2.25-7.52,4.2-19.23,5.72-25.26,5.72-.97,0-1.76.79-1.76,1.76s.79,1.76,1.76,1.76c6.4,0,18.86-1.64,26.97-6.17,2.06-1.15,4.21-1.81,5.89-1.81,1.52,0,1.86.39,2.35,1.43.42.88,1.45,1.25,2.34.83.42-.2.74-.56.9-1,.15-.44.13-.92-.07-1.34-.81-1.7-2.1-3.43-5.52-3.43Z"/>
    <path class="cls-1" d="M142.87,121.38c.23-.41.29-.88.16-1.33-.13-.45-.42-.83-.84-1.06-2.57-1.43-5.34-2.25-7.61-2.25-3.42,0-4.71,1.74-5.51,3.43-3,6.33-1.59,27.56.2,47.5.08.91.83,1.6,1.75,1.6h.16c.47-.05.89-.27,1.2-.63.3-.36.44-.82.4-1.31-1.05-11.77-3.52-39.34-.52-45.65.49-1.03.82-1.43,2.33-1.43,1.69,0,3.84.66,5.9,1.81.83.47,1.91.17,2.39-.68ZM131.02,168.69h0Z"/>
  </g>
</svg>