<?xml version="1.0" encoding="UTF-8"?>
<svg id="Capa_1" data-name="Capa 1" xmlns="http://www.w3.org/2000/svg" viewBox="0 0 322.23 348.04">
  <defs>
    <style>
      .cls-1 {
        fill: #fff;
      }

      .cls-2 {
        fill: #1e517a;
      }

      .cls-3 {
        fill: #235c4f;
      }
    </style>
  </defs>
  <circle class="cls-2" cx="170.82" cy="171" r="134.3"/>
  <rect class="cls-3" x="96.65" y="155.01" width="24.49" height="39.55"/>
  <rect class="cls-2" x="108.89" y="117.05" width="83.24" height="107.71"/>
  <g>
    <path class="cls-1" d="M159.35,201.96c-1.71,0-3.1,1.39-3.1,3.1s1.39,3.1,3.1,3.1,3.1-1.39,3.1-3.1-1.39-3.1-3.1-3.1Z"/>
    <path class="cls-1" d="M171,86.78c-45.93,0-83.17,37.23-83.17,83.17s37.23,83.17,83.17,83.17,83.17-37.23,83.17-83.17-37.24-83.17-83.17-83.17ZM139.34,194.15l-2.77-2.77c-.43-.43-1.08-.51-1.63-.25-.61.3-1.25.56-1.9.78-.58.2-.99.73-.99,1.35v3.91c0,.78-.63,1.41-1.41,1.41h-6.69c-.78,0-1.41-.63-1.41-1.41v-3.91c0-.62-.41-1.14-.99-1.35-.65-.22-1.28-.49-1.9-.78-.55-.26-1.2-.18-1.63.25l-2.77,2.77c-.55.55-1.44.55-1.99,0l-4.73-4.73c-.55-.55-.55-1.44,0-1.99l2.77-2.77c.43-.43.51-1.08.25-1.63-.3-.61-.56-1.25-.78-1.9-.2-.58-.73-.99-1.35-.99h-3.91c-.78,0-1.41-.63-1.41-1.41v-6.69c0-.78.63-1.41,1.41-1.41h3.91c.62,0,1.14-.41,1.35-.99.22-.65.49-1.28.78-1.9.26-.55.18-1.2-.25-1.63l-2.77-2.77c-.55-.55-.55-1.44,0-1.99l4.73-4.73c.55-.55,1.44-.55,1.99,0l2.77,2.77c.43.43,1.08.51,1.63.25.61-.3,1.25-.56,1.9-.78.58-.2.99-.73.99-1.35v-3.91c0-.78.63-1.41,1.41-1.41h6.69c.78,0,1.41.63,1.41,1.41v3.91c0,.62.41,1.14.99,1.35.65.22,1.28.49,1.9.78.55.26,1.2.18,1.63-.25l2.77-2.77c.55-.55,1.44-.55,1.99,0l4.73,4.73c.55.55.55,1.44,0,1.99l-2.77,2.77c-.43.43-.51,1.08-.25,1.63.3.61.56,1.25.78,1.9.2.58.73.99,1.35.99h3.91c.78,0,1.41.63,1.41,1.41v6.69c0,.78-.63,1.41-1.41,1.41h-3.91c-.62,0-1.14.41-1.35.99-.22.65-.49,1.28-.78,1.9-.26.55-.18,1.2.25,1.63l2.77,2.77c.55.55.55,1.44,0,1.99l-4.73,4.73c-.55.55-1.44.55-1.99,0ZM174.02,207.18c0,.49-.4.89-.89.89h-2.47c-.39,0-.72.26-.85.63-.14.41-.31.81-.49,1.2-.17.35-.11.76.16,1.03l1.75,1.75c.35.35.35.91,0,1.26l-2.99,2.99c-.35.35-.91.35-1.26,0l-1.75-1.75c-.27-.27-.68-.33-1.03-.16-.39.19-.79.35-1.2.5-.37.13-.63.46-.63.85v2.47c0,.49-.4.89-.89.89h-4.23c-.49,0-.89-.4-.89-.89v-2.47c0-.39-.26-.72-.63-.85-.41-.14-.81-.31-1.2-.49-.35-.17-.76-.11-1.03.16l-1.75,1.75c-.35.35-.91.35-1.26,0l-2.99-2.99c-.35-.35-.35-.91,0-1.26l1.75-1.75c.27-.27.33-.68.16-1.03-.19-.39-.35-.79-.5-1.2-.13-.37-.46-.63-.85-.63h-2.47c-.49,0-.89-.4-.89-.89v-4.23c0-.49.4-.89.89-.89h2.47c.39,0,.72-.26.85-.63.14-.41.31-.81.5-1.2.17-.35.11-.76-.16-1.03l-1.75-1.75c-.35-.35-.35-.91,0-1.26l2.99-2.99c.35-.35.91-.35,1.26,0l1.75,1.75c.27.27.68.33,1.03.16.39-.19.79-.35,1.2-.49.37-.13.63-.46.63-.85v-2.47c0-.49.4-.89.89-.89h4.23c.49,0,.89.4.89.89v2.47c0,.39.26.72.63.85.41.14.81.31,1.2.49.35.17.76.11,1.03-.16l1.75-1.75c.35-.35.91-.35,1.26,0l2.99,2.99c.35.35.35.91,0,1.26l-1.75,1.75c-.27.27-.33.68-.16,1.03.19.39.35.79.49,1.2.13.37.46.63.85.63h2.47c.49,0,.89.4.89.89v4.23ZM187.59,137.43c-10.05,0-18.19,8.14-18.19,18.19s8.14,18.19,18.19,18.19v18.91h-5.35c-1.25,0-2.26-1.01-2.26-2.26v-6.26c0-.99-.65-1.83-1.58-2.15-1.04-.36-2.05-.78-3.04-1.25-.87-.42-1.91-.29-2.6.4l-4.43,4.43c-.88.88-2.31.88-3.19,0l-7.57-7.57c-.88-.88-.88-2.31,0-3.19l4.43-4.43c.69-.69.82-1.73.4-2.6-.47-.98-.89-1.99-1.25-3.04-.32-.93-1.17-1.58-2.15-1.58h-6.26c-1.25,0-2.26-1.01-2.26-2.26v-10.7c0-1.25,1.01-2.26,2.26-2.26h6.26c.99,0,1.83-.65,2.15-1.58.36-1.04.78-2.05,1.25-3.04.42-.87.29-1.91-.4-2.6l-4.43-4.43c-.88-.88-.88-2.31,0-3.19l7.57-7.57c.88-.88,2.31-.88,3.19,0l4.43,4.43c.69.69,1.73.82,2.6.4.98-.47,1.99-.89,3.04-1.25.93-.32,1.58-1.17,1.58-2.15v-6.26c0-1.25,1.01-2.26,2.26-2.26h5.35v18.91ZM235.67,172.47c-3.5,1.65-5.16,1.77-5.49,3.43-.33,1.67-.13,2.78.09,3.4.14.4.39,1.33-.14,2.18-.68,1.09-1.02,2.33-.92,3.61.06.77-.05,1.65-.53,2.53-1.34,2.48-.32,3.74.14,5.2.46,1.46.12,4.99-2.02,6.16-2.15,1.17-6.72,1.59-11.34,1.73-4.89,1.59-4.3,11.78.4,19.99-11.07,2.95-22.65,1-22.65,1v-103.78c.53-.05,1.06-.1,1.6-.14,25.15-2.73,32.31,22.96,32.31,22.96,0,0,1.69,4.88,2.75,7.08,1.06,2.2-2.43,4.79-.19,8.65.54.92,1.67,3.4,3.12,5.39,1.18,1.62,2.58,3.12,3.77,4.56,1.74,2.09,2,4.67-.92,6.05Z"/>
    <path class="cls-1" d="M127.3,167.97c-4.1,0-7.42,3.32-7.42,7.42s3.32,7.42,7.42,7.42,7.42-3.32,7.42-7.42-3.32-7.42-7.42-7.42Z"/>
  </g>
</svg>