<?xml version="1.0" encoding="UTF-8"?>
<svg id="Capa_1" data-name="Capa 1" xmlns="http://www.w3.org/2000/svg" viewBox="0 0 322.23 348.04">
  <defs>
    <style>
      .cls-1 {
        fill: #fff;
      }

      .cls-2 {
        fill: #bfbdbe;
      }
    </style>
  </defs>
  <path class="cls-2" d="M173,36.66c-74.2,0-134.34,60.15-134.34,134.34s60.15,134.34,134.34,134.34,134.34-60.15,134.34-134.34S247.2,36.66,173,36.66Z"/>
  <g>
    <ellipse class="cls-1" cx="194.61" cy="148.15" rx="42.49" ry="42.47"/>
    <path class="cls-1" d="M224.94,184.82c12.62,44.98-17.37,89.71-63.99,93.52l14.78-9.21c16.05-13.66,15.17-34.64,4.69-51.48-10.5-16.87-26.78-17.09-41.55-27.38-22.82-15.88-34.41-45.96-28.38-73.13,4.27,4.96,5.74,12.88,8.82,18.85,15.3,29.61,55.48,67.85,91.53,55.03,5.27-1.88,8.78-5.97,14.1-6.2Z"/>
    <path class="cls-1" d="M142.48,277.11l16.5-18.56c9.71-12.99,12.74-28.49,14.88-44.19,24.34,29.62,5.42,62.86-31.38,62.75Z"/>
    <circle class="cls-1" cx="137.16" cy="90.04" r="13.17"/>
    <path class="cls-1" d="M205.25,103.59c-6.76-1.67-12.9-1.44-19.73-.49-3-9.83-7.92-18.58-12.26-27.8,3.12-2.88,32.96,20.49,31.99,28.29Z"/>
  </g>
</svg>