<?xml version="1.0" encoding="UTF-8"?>
<svg id="Capa_1" data-name="Capa 1" xmlns="http://www.w3.org/2000/svg" viewBox="0 0 322.23 348.04">
  <defs>
    <style>
      .cls-1 {
        fill: #1d2c47;
      }

      .cls-2 {
        fill: #fff;
      }
    </style>
  </defs>
  <circle class="cls-1" cx="172.19" cy="167.86" r="134.6"/>
  <g>
    <g>
      <path class="cls-2" d="M200.15,134.89c-.8.52-.93,1.19-1.08,1.79-.43,1.8-.79,3.61-1.21,5.42-.38,1.64-1.74,2.66-3.15,2.43-1.37-.23-2.31-1.53-2.09-3.22.36-2.8,1.03-5.55,1.8-8.26.36-1.27,1.45-1.99,2.45-2.71,2.16-1.55,4.32-3.09,6.53-4.57,3.22-2.15,6.34-1.29,8,2.23,1,2.12,1.93,4.28,2.73,6.48.41,1.11,1.05,1.77,2.1,2.2,1.78.72,3.71,1.14,5.06,2.75.55.65,1.66.46,2.47.85,1.58.77,2.37,2.03,2.38,3.69.05,7.36.03,14.71.03,22.07,0,1.02-.42,1.81-1.49,1.84-1.18.04-1.23-.93-1.23-1.8,0-6.82,0-13.65,0-20.47,0-.71.02-1.42-.46-2.03-.45-.58-1.01-.9-1.73-.63-.78.29-1.03.92-.92,1.71.07.5.31.92.59,1.32.5.71.61,1.41-.19,1.96-.79.54-1.61.53-2.28-.2-.87-.95-1.28-2.14-1.31-3.41-.02-1.06-.5-1.61-1.44-1.96-1.33-.5-2.62-1.07-3.93-1.61-1.06-.44-1.59-1.31-2-2.35-.31-.79-.48-1.69-1.14-2.32,0,2.74-.01,5.41.02,8.09,0,.33.21.68.4.96.32.47.65.97,1.08,1.34,2.67,2.34,3.98,5.12,3.54,8.78-.34,2.85.75,5.68.48,8.58-.19,2.08-2.14,3.4-3.96,2.53-.82-.39-1.27-1.03-1.39-1.96-.45-3.43-.63-6.87-.52-10.32.07-2.32-1.79-3.41-3.08-4.86-.21-.24-.49-.14-.58.21-.03.13-.05.26-.05.39.22,5.3-1.68,10.26-2.49,15.4-.21,1.32-1.37,2.51-2.46,2.68-1.17.18-1.96-.44-2.52-1.37-.51-.86-.39-1.83-.2-2.72.64-2.98,1.14-5.99,1.88-8.95.43-1.7.53-3.5.63-5.26.18-3.09.23-6.19.37-9.28.08-1.75.22-3.49.35-5.44Z"/>
      <path class="cls-2" d="M204.85,119.05c.17-3.13,2.37-5.22,5.1-5.25,2.46-.03,4.99,1.91,4.99,5.29,0,3.04-2.15,5.38-4.87,5.38-2.8,0-5.22-2.51-5.22-5.42Z"/>
    </g>
    <g>
      <path class="cls-2" d="M91.64,212.96c0-2.13.03-4.26-.01-6.39-.02-.97.36-1.33,1.31-1.27.81.05,1.63,0,2.44,0,.84,0,1.17-.35,1.02-1.24-.28-1.72-.82-3.37-1.25-5.04-.27-1.05-.33-2.13-.68-3.16-.26-.76.32-1.29.87-1.76,1.45-1.22,2.9-2.44,4.33-3.69,1.4-1.22,1.48-2.84.15-4.13-2.06-2-4.36-3.71-6.69-5.36-1.36-.97-2.91-.71-4.11.46-1.33,1.29-2.01,3.02-3.01,4.53-1.32,2-2.5,4.1-3.78,6.13-1.63,2.58-1.48,5.04.56,7.33.7.79.78,1.65.57,2.6-.14.64-.32,1.27-.47,1.91-.26,1.11-.06,1.37,1.12,1.41.7.02,1.4.05,2.09,0,1.03-.08,1.34.38,1.33,1.37-.04,4.15-.02,8.29-.01,12.44,0,1.49.1,1.58,1.59,1.58,2.93,0,2.64.2,2.65-2.61,0-1.7,0-3.41,0-5.11Z"/>
      <path class="cls-2" d="M86.94,175.33c-.28,2.22,2.26,4.56,4.25,4.44,2.56-.16,4.11-2.38,4.07-4.67-.04-2.36-1.55-4.61-4.3-4.47-2.47.13-4.05,1.88-4.02,4.7Z"/>
    </g>
    <g>
      <path class="cls-2" d="M218.06,204.3c-.52,1.31.26,2.17.5,3.11.14.56.48,1.08.72,1.62.6,1.42.57,1.53-.9,1.99-.77.24-.77.81-.77,1.4,0,1.99-.04,3.98,0,5.96.02,1.19-.52,1.72-1.67,1.72-.08,0-.17,0-.25,0-3,.09-3.17-.08-3.17-3.04,0-1.61,0-3.21,0-4.82,0-.64-.14-1.27-.91-1.28-.89,0-.61.77-.61,1.25-.03,1.99,0,3.98-.02,5.96-.02,1.47-.44,1.88-1.9,1.92-3.14.1-3.18.05-3.18-3.08,0-1.61,0-3.21,0-4.82,0-.83-.22-1.4-1.25-1.3-.85.09-1.19-.31-.83-1.16.43-1.01.76-2.07,1.3-3.02,1.29-2.31.66-4.8.76-7.21.02-.54-.43-.78-.83-1.03-2.55-1.58-5.08-3.19-7.66-4.72-1.07-.63-1.57-1.47-1.88-2.68-.83-3.27-1.82-6.5-2.88-9.73,0,2.69-.38,5.34.49,8.03,1.17,3.6,2.04,7.29,2.98,10.96.35,1.36.06,1.63-1.39,1.55-1.98-.11-2.21.1-2.21,2.05,0,4.74,0,9.47,0,14.21,0,1.68-.25,1.92-1.89,1.95-3.13.05-3.21-.03-3.21-3.13,0-4.4,0-8.8,0-13.19,0-.38,0-.76-.06-1.14-.08-.49-.44-.7-.92-.69-.46,0-.68.3-.73.73-.04.38-.04.76-.04,1.14,0,4.74,0,9.47,0,14.21,0,1.85-.22,2.06-2.02,2.08q-3.05.03-3.06-2.99c0-4.53,0-9.05,0-13.58,0-1.52-.15-1.65-1.69-1.67-.3,0-.59,0-.89,0-.93,0-1.3-.4-1.1-1.36.34-1.61.96-3.14,1.33-4.74.64-2.8,1.56-5.52,2.21-8.32.4-1.72.1-3.5.14-5.26l-.4-.07c-.54,1.9-1.08,3.8-1.62,5.69-.72,2.51-1.38,5.04-2.19,7.53-.41,1.27-1.54,1.56-2.8,1.45-1.26-.11-1.79-.91-2.1-2.03-1.13-4.11-2.3-8.21-3.46-12.31-.02-.07-.1-.12-.22-.26-.27.53-.17,1.03-.17,1.5,0,11.38,0,22.75,0,34.13,0,1.93-.33,2.26-2.3,2.29-2.92.05-3.01-.04-3.01-2.9,0-6.13,0-12.26-.01-18.4,0-.74.28-1.88-.88-1.9-1.26-.03-.84,1.16-.84,1.86-.03,6.43-.02,12.86-.02,19.28,0,1.82-.23,2.04-2.05,2.06-.3,0-.59,0-.89,0-1.83-.02-2.15-.34-2.15-2.15,0-11.67,0-23.34,0-35.02,0-.51,0-1.01,0-1.52-.06-.01-.11-.02-.17-.03-.53,1.93-1.12,3.84-1.58,5.79-.35,1.48-.9,2.89-1.24,4.37-.38,1.69-1.98,2.33-3.29,3.15-1.9,1.19-3.81,2.35-5.75,3.47-.87.5-1.2,1.15-1.19,2.16.04,5.88.02,11.76.02,17.63,0,1.84-.27,2.1-2.14,2.13-.42,0-.85,0-1.27,0-1.12-.03-1.7-.54-1.69-1.73.03-2.83,0-5.67,0-8.5,0-.38,0-.76-.04-1.14-.06-.5-.38-.74-.87-.73-.44.01-.72.25-.78.68-.05.37-.06.76-.06,1.14,0,2.83,0,5.67,0,8.5,0,1.39-.33,1.71-1.72,1.78-3,.15-3.13.03-3.13-3,0-3.93,0-7.87,0-11.8,0-.41,0-.82,0-1.5-1.14,1-1.29,2.25-1.95,3.19-.46.64-.72,1.4-1.55,1.78-.98.45-1.84.29-2.59-.35-.74-.62-1.02-1.53-.65-2.42,1.24-3.05,2.44-6.18,4.37-8.84,1.72-2.38,4.42-3.47,7.39-3.65,1.53-.09,3.05,0,4.5.53.58.21,1.05.09,1.55-.22,1.55-.95,3.08-1.94,4.68-2.79,1.74-.92,1.76-2.68,2.21-4.22,1.08-3.72,2.09-7.46,3.14-11.19.24-.84.69-1.52,1.48-1.97,5.35-3,10.74-3.04,16.23-.34,1.4.69,2.09,1.81,2.35,3.24.45,2.41,1.3,4.72,1.87,7.1.06.27.08.67.46.66.4,0,.34-.4.42-.67.75-2.68,1.49-5.35,2.25-8.03.64-2.23,2.68-2.76,4.47-3.33,4.51-1.45,8.94-1.22,13.26.98,1.68.86,2.15,2.28,2.57,3.83,1.04,3.87,2.03,7.75,3.05,11.62.24.94.72,1.63,1.63,2.12,1.59.87,3.1,1.89,4.64,2.86.64.4,1.23.5,2.01.23,3.84-1.32,9.36.19,11.63,3.35,1.47,2.05,2.38,4.47,3.46,6.76.24.5.44,1,.65,1.51.59,1.42.19,2.67-1.01,3.21-1.13.51-2.72-.08-3.36-1.27-.53-.99-.84-2.1-1.61-3.19Z"/>
      <path class="cls-2" d="M161.4,169.88c-3.13-.02-5.86-2.34-5.97-5.05-.08-2.08,1.22-4.05,3.31-4.96,3.06-1.33,5.86-.25,7.59,1.89,1.8,2.21,1.32,4.87-.78,6.54-1.21.96-2.52,1.7-4.15,1.58Z"/>
      <path class="cls-2" d="M186.84,169.91c-2.42-.07-4.09-.93-5.34-2.57-1.41-1.85-1.19-4.39.64-6.21,2.78-2.78,7.38-2.3,9.54.89,1.86,2.75.4,5.99-2.49,7.25-.84.37-1.72.72-2.34.64Z"/>
      <path class="cls-2" d="M136.44,192.76c-2.81,0-4.75-1.47-4.9-3.58-.2-2.89,2.38-5.21,5.33-4.75,1.37.21,2.61.73,3.45,1.91.93,1.31,1.16,2.64.27,4.13-1,1.66-2.38,2.45-4.15,2.29Z"/>
      <path class="cls-2" d="M211.71,192.75c-2.68.42-5.11-2.19-4.81-4.51.25-1.91,1.89-3.54,4.29-3.78,1.89-.19,3.56.43,4.62,2.06.89,1.37.87,2.93-.04,4.31-.95,1.46-2.38,2.1-4.06,1.93Z"/>
    </g>
    <g>
      <path class="cls-2" d="M143.28,143.61c.27,0,.39-.04.44,0,.79.64,1.53,1.43,2.66.61,1.2-.86,1.84-1.99,1.44-3.48-.51-1.9-.94-3.82-1.15-5.76-.25-2.3-1.47-3.89-3.23-5.23-1.75-1.34-3.46-2.75-5.21-4.09-2.57-1.97-5.56-1.18-6.78,1.85-.86,2.14-1.62,4.32-2.36,6.5-.42,1.24-1.05,2.16-2.34,2.71-1.53.66-3.14,1.25-4.24,2.65-.19.23-.58.32-.9.43-2.02.72-3.41,2.47-3.42,4.66-.04,7.12-.02,14.24,0,21.36,0,.96.25,1.99,1.39,2.03,1.09.04,1.45-.98,1.66-1.88.12-.5.07-1.05.07-1.58,0-6.4,0-12.8,0-19.2,0-.48,0-.97.06-1.44.07-.55.43-.86.99-.84.57.02.88.35.94.9.08.72.03,1.41-.31,2.1-.42.85-.44,1.77.55,2.23.93.43,1.55-.25,1.98-.98.44-.74.87-1.53.72-2.44-.23-1.5.61-2.13,1.87-2.63,1.73-.68,3.53-1.32,4.82-2.96-.59,2.05-1.19,4.09-1.77,6.14-.65,2.31-1.29,4.63-1.93,6.94-.19.7-.06,1.29.69,1.5.84.24.84.77.69,1.45-.63,2.95-.26,5.95-.32,8.92-.03,1.51.93,2.6,2.1,2.71,1.13.1,2.15-.87,2.49-2.36.23-.99.32-1.99.3-3.01-.02-2.16-.05-4.33.29-6.48.1-.65.29-1.11,1.05-1.1.68,0,.85.42.95,1.02.58,3.49,1.19,6.97,1.79,10.45.25,1.41,1.6,2.73,2.67,2.62,1.14-.12,2.31-1.54,2.16-2.99-.23-2.24-.52-4.49-1.07-6.67-.29-1.16-.22-2.37-.71-3.51-.34-.79.42-.89,1.03-.94,2.49-.21,2.62-.5,1.9-2.89-.73-2.41-1.31-4.86-1.97-7.33Z"/>
      <path class="cls-2" d="M136.97,119.56c0-1.51-.12-2.61-.78-3.57-1.23-1.8-2.8-2.51-4.52-2.06-1.86.48-3.47,2.49-3.67,4.57-.19,2.04.65,3.69,2.14,4.96,2.21,1.87,5.54.66,6.56-2.3.22-.65.29-1.31.27-1.59Z"/>
    </g>
    <g>
      <path class="cls-2" d="M264.05,212.07c-.17.96-.55,2.04-1.86,2.38-1.28.34-2.12-.35-2.68-1.39-1.6-2.98-3.21-5.96-4.72-8.99-.61-1.23-1.37-1.8-2.78-1.76-2.92.08-5.84.04-8.76.02-2.67-.03-4.54-1.84-4.89-4.49-.25-1.91-.63-3.81-1.05-5.69-.12-.52.17-1.7-.96-1.34-.84.26-1.76.82-1.42,2.07.46,1.66.92,3.31,1.34,4.98.15.6.25,1.22.27,1.84.06,1.63-.8,3.11-1.93,3.15-1.47.05-2.24-.94-2.63-2.24-.62-2.09-1.21-4.19-1.79-6.3-1.39-5.03-1.07-5.43,2.93-7.65,2.08-1.16,4-2.62,6.02-3.91,3.27-2.07,6.46.96,6.74,3.71.31,2.99.67,5.98.94,8.98.1,1.06.66,1.29,1.56,1.28,1.98-.02,3.96,0,5.95,0,1.49,0,2.59.63,3.28,1.98,1.99,3.84,4,7.67,5.99,11.5.27.51.47,1.05.43,1.87Z"/>
      <path class="cls-2" d="M243.16,222.1c-5.91.44-11.57-4.72-13.28-9.42-1.24-3.42-1.86-6.82-1.01-10.4.15-.62.09-1.56.95-1.6.85-.04.63.92.87,1.45,1.11,2.52.76,5.33,1.61,7.94,2.93,9.01,13.64,11.09,19.53,4.77,1-1.07,1.69-2.37,2.38-3.66.35-.65.37-2.05,1.45-1.5.89.45,1.52,1.68,1.02,2.85-1.06,2.47-2.46,4.74-4.61,6.41-2.31,1.81-4.93,3.43-8.91,3.16Z"/>
      <path class="cls-2" d="M240.87,171.35c2.44-.04,4.91,2.39,5,4.92.09,2.48-2.31,5.06-4.75,5.11-2.45.04-4.56-2.12-4.61-4.73-.06-2.91,1.87-5.26,4.35-5.29Z"/>
    </g>
    <g>
      <path class="cls-2" d="M107.24,190.54c-.75,2.42-.71,4.72-1.42,6.87-.38,1.14-1.05,1.64-2.2,1.47-1.18-.17-1.45-1.03-1.44-2.07.04-2.53.86-4.93,1.33-7.38.31-1.59.6-3.19.89-4.78.29-1.6,1.12-2.52,2.35-3.35,3.03-2.03,8.22-1.84,11,.27,2.14,1.63,1.95,4.08,2.48,6.26.67,2.76.81,5.63,1.67,8.36.42,1.33-.05,2.39-1.09,2.67-1.19.32-2.41-.42-2.73-1.86-.53-2.35-.92-4.73-1.38-7.09-.06-.31.13-.7-.31-.91-.4.53-.22,1.14-.22,1.69-.01,9.27,0,18.54-.01,27.82,0,1.89-1.04,2.6-2.85,1.98-.9-.31-.75-1.06-.75-1.73-.01-5.52,0-11.05-.03-16.57,0-.63.35-1.76-.43-1.79-1.01-.04-.65,1.12-.66,1.77-.03,5.47-.01,10.95-.03,16.42,0,.66.24,1.52-.6,1.81-.88.3-1.88.35-2.75-.04-.72-.32-.5-1.11-.51-1.73-.01-5.38,0-10.75,0-16.13,0-3.4,0-6.81,0-10.21,0-.52.1-1.06-.3-1.75Z"/>
      <path class="cls-2" d="M116.15,174.61c0,3-1.4,4.33-4.2,4.53-2.64.19-4.36-2.33-4.37-4.55,0-2.44,2.15-4.74,4.37-4.71,2.42.04,4.2,2.03,4.2,4.72Z"/>
    </g>
    <g>
      <path class="cls-2" d="M166.6,114.44c-.46,3.05-1.76,5.87-2.12,8.92-.24,2.09-1.35,3.03-3.05,2.81-1.6-.21-2.48-1.54-2.17-3.57.94-6.08,2.22-12.1,3.74-18.06.67-2.61,3.39-3.21,5.54-4.21,3.91-1.82,7.67-.83,11.24.99,2.06,1.05,3.45,2.66,3.87,5.21.9,5.38,1.92,10.76,3.33,16.04.4,1.52-.68,3.3-2.02,3.57-1.66.33-3.22-.95-3.56-2.9-.28-1.61-.59-3.22-.9-4.83-.3-1.53-.62-3.05-.99-4.86-.93,2.08-.33,3.94.05,5.66.94,4.34,1.27,8.79,2.54,13.08.4,1.37.3,2.83-1.76,2.95-1.52.09-1.39,1.26-1.39,2.28-.01,5.28,0,10.57,0,15.85,0,2.71-.33,2.96-2.9,2.94-1.68-.01-2.1-.84-2.09-2.32.04-5.01.01-10.02.01-15.03,0-.48.04-.96-.01-1.44-.08-.83.29-2.1-1-2.09-1.3,0-.95,1.29-.96,2.11-.03,5.42-.07,10.84,0,16.27.03,1.88-.67,2.54-2.53,2.54-1.85,0-2.57-.62-2.55-2.52.08-5.35,0-10.71.04-16.06,0-1.44-.08-2.54-1.98-2.65-1.43-.08-1.4-1.35-1.2-2.38.9-4.62,1.82-9.24,2.82-13.84.32-1.49.42-2.95,0-4.45Z"/>
      <path class="cls-2" d="M172.81,98.64c-3.23-.02-5.86-2.87-5.83-6.3.03-3.43,2.93-6.55,6.07-6.52,3.41.04,5.93,2.93,5.89,6.76-.03,3.87-2.28,6.08-6.13,6.06Z"/>
    </g>
  </g>
</svg>